<?xml version="1.0" encoding="utf-8"?>
<!-- Generator: Adobe Illustrator 16.0.0, SVG Export Plug-In . SVG Version: 6.00 Build 0)  -->
<!DOCTYPE svg PUBLIC "-//W3C//DTD SVG 1.1//EN" "http://www.w3.org/Graphics/SVG/1.1/DTD/svg11.dtd">
<svg version="1.1" id="Layer_1" xmlns="http://www.w3.org/2000/svg" xmlns:xlink="http://www.w3.org/1999/xlink" x="0px" y="0px"
	 width="607.166px" height="244.167px" viewBox="0 0 607.166 244.167" enable-background="new 0 0 607.166 244.167"
	 xml:space="preserve">
<g>
	<line fill="#FFFFFF" x1="100.571" y1="87.875" x2="156.148" y2="87.875"/>
	<g>
		
			<line fill="none" stroke="#231F20" stroke-width="0.5669" stroke-miterlimit="10" x1="100.571" y1="87.875" x2="153.441" y2="87.875"/>
		<g>
			<polygon fill="#231F20" points="152.167,89.555 152.881,87.875 152.167,86.196 156.148,87.875 			"/>
		</g>
	</g>
</g>
<g>
	<line fill="#FFFFFF" x1="54.159" y1="46.628" x2="54.159" y2="68.729"/>
	<g>
		
			<line fill="none" stroke="#231F20" stroke-width="0.5669" stroke-miterlimit="10" x1="54.159" y1="46.628" x2="54.159" y2="66.021"/>
		<g>
			<polygon fill="#231F20" points="52.479,64.748 54.159,65.461 55.839,64.748 54.159,68.729 			"/>
		</g>
	</g>
</g>
<g>
	<line fill="#FFFFFF" x1="264.076" y1="93.404" x2="300.897" y2="93.404"/>
	<g>
		
			<line fill="none" stroke="#231F20" stroke-width="0.5669" stroke-miterlimit="10" x1="264.076" y1="93.404" x2="298.19" y2="93.404"/>
		<g>
			<polygon fill="#231F20" points="296.916,95.083 297.63,93.404 296.916,91.724 300.897,93.404 			"/>
		</g>
	</g>
</g>
<g>
	<text transform="matrix(1 0 0 1 316.1819 96.3223)" fill="#231F20" font-family="'CMR10'" font-size="11.0551">Exact Values</text>
</g>
<path fill="none" stroke="#231F20" stroke-width="0.8504" stroke-miterlimit="10" d="M393.256,103.41c0,3.74-3.3,6.771-7.37,6.771
	h-75.37c-4.077,0-7.379-3.03-7.379-6.771V82.696c0-3.739,3.303-6.771,7.379-6.771h75.37c4.07,0,7.37,3.032,7.37,6.771V103.41z"/>
<text transform="matrix(1 0 0 1 37.6638 84.1792)" fill="#231F20" font-family="'CMR10'" font-size="11.0551">DATA</text>
<path fill="#E6E7E8" d="M93.309,105.003H14.718l-4.29-2.624l-1.322-2.817v-9.621c0,0,56.298-0.216,90.106,0v9.989
	c0,0-0.744,1.062-1.578,2.268C96.851,103.328,93.309,105.003,93.309,105.003z"/>
<path fill="#FFFFFF" stroke="#231F20" stroke-width="0.5669" stroke-miterlimit="10" d="M9.105,89.926h90.106H9.105z"/>
<text transform="matrix(1 0 0 1 26.4246 100.6567)" fill="#231F20" font-family="'CMR10'" font-size="9.2126">mat-file name</text>
<path fill="none" stroke="#231F20" stroke-width="0.8504" stroke-miterlimit="10" d="M99.212,98.233c0,3.74-3.3,6.771-7.37,6.771
	H16.475c-4.07,0-7.37-3.03-7.37-6.771V77.519c0-3.74,3.3-6.771,7.37-6.771h75.366c4.07,0,7.37,3.03,7.37,6.771V98.233z"/>
<path fill="#E6E7E8" d="M600.277,69.334c0,4.063-4.245,7.363-9.485,7.363h-90.064c-3.109,0-9.486,0-9.486,0s0-5.711,0-7.363V13.536
	c0-2.014,0-7.371,0-7.371s6.839,0,9.486,0h90.064c5.24,0,9.485,3.301,9.485,7.371V69.334z"/>
<path fill="#FFFFFF" stroke="#231F20" stroke-width="0.5669" stroke-miterlimit="10" d="M491.24,6.165v70.533V6.165z"/>
<line fill="#FFFFFF" stroke="#231F20" stroke-width="0.5669" stroke-miterlimit="10" x1="491.117" y1="21.288" x2="599.975" y2="21.288"/>
<text transform="matrix(1 0 0 1 497.634 17.2432)" fill="#231F20" font-family="'CMR10'" font-size="9.2126">pmuRedundancy, value</text>
<line fill="#FFFFFF" stroke="#231F20" stroke-width="0.5669" stroke-miterlimit="10" x1="491.117" y1="62.692" x2="599.975" y2="62.692"/>
<line fill="#FFFFFF" stroke="#231F20" stroke-width="0.5669" stroke-miterlimit="10" x1="491.117" y1="48.827" x2="599.975" y2="48.827"/>
<text transform="matrix(1 0 0 1 444.637 44.7017)" fill="#231F20" font-family="'CMR10'" font-size="11.0551">SET</text>
<line fill="#FFFFFF" stroke="#231F20" stroke-width="0.5669" stroke-miterlimit="10" x1="491.118" y1="35.89" x2="599.975" y2="35.89"/>
<text transform="matrix(1 0 0 1 497.634 31.5239)" fill="#231F20" font-family="'CMR10'" font-size="9.2126">pmuDevice, value</text>
<text transform="matrix(1 0 0 1 497.634 45.4126)" fill="#231F20" font-family="'CMR10'" font-size="9.2126">pmuOptimal</text>
<text transform="matrix(1 0 0 1 497.635 58.8433)" fill="#231F20" font-family="'CMR10'" font-size="9.2126">legRedundancy, value</text>
<text transform="matrix(1 0 0 1 497.634 73.2754)" fill="#231F20" font-family="'CMR10'" font-size="9.2126">legDevice, value</text>
<path fill="none" stroke="#231F20" stroke-width="0.8504" stroke-miterlimit="10" d="M600.277,69.334
	c0,4.063-3.298,7.363-7.37,7.363H439.433c-4.072,0-7.371-3.301-7.371-7.363V13.536c0-4.07,3.299-7.371,7.371-7.371h153.474
	c4.072,0,7.37,3.301,7.37,7.371V69.334z"/>
<path fill="#E6E7E8" d="M599.653,172.223c0,4.862-3.685,7.338-8.234,7.338h-78.183c-2.699,0-8.234,0-8.234,0s0-6.833,0-8.811
	v-66.771c0-2.409,0-8.82,0-8.82s5.937,0,8.234,0h78.183c4.55,0,8.234,2.478,8.234,7.348V172.223z"/>
<path fill="#FFFFFF" stroke="#231F20" stroke-width="0.5669" stroke-miterlimit="10" d="M505.369,95.159v84.402V95.159z"/>
<line fill="#FFFFFF" stroke="#231F20" stroke-width="0.5669" stroke-miterlimit="10" x1="505.001" y1="110.282" x2="599.378" y2="110.282"/>
<text transform="matrix(1 0 0 1 510.8577 106.2349)" fill="#231F20" font-family="'CMR10'" font-size="9.2126">pmuUnique, value</text>
<line fill="#FFFFFF" stroke="#231F20" stroke-width="0.5669" stroke-miterlimit="10" x1="505.001" y1="151.69" x2="599.378" y2="151.69"/>
<line fill="#FFFFFF" stroke="#231F20" stroke-width="0.5669" stroke-miterlimit="10" x1="505.001" y1="137.824" x2="599.378" y2="137.824"/>
<text transform="matrix(1 0 0 1 436.7288 140.6274)" fill="#231F20" font-family="'CMR10'" font-size="11.0551">VARIANCE</text>
<line fill="#FFFFFF" stroke="#231F20" stroke-width="0.5669" stroke-miterlimit="10" x1="505.001" y1="124.887" x2="599.378" y2="124.887"/>
<text transform="matrix(1 0 0 1 510.8567 120.5161)" fill="#231F20" font-family="'CMR10'" font-size="9.2126">pmuRandom, value</text>
<text transform="matrix(1 0 0 1 510.8577 134.4048)" fill="#231F20" font-family="'CMR10'" font-size="9.2126">pmuType, value</text>
<text transform="matrix(1 0 0 1 510.8577 147.8354)" fill="#231F20" font-family="'CMR10'" font-size="9.2126">legUnique, value</text>
<text transform="matrix(1 0 0 1 510.8577 162.2681)" fill="#231F20" font-family="'CMR10'" font-size="9.2126">legRandom, value</text>
<text transform="matrix(1 0 0 1 510.8577 175.9282)" fill="#231F20" font-family="'CMR10'" font-size="9.2126">legType, value</text>
<line fill="#FFFFFF" stroke="#231F20" stroke-width="0.5669" stroke-miterlimit="10" x1="505.185" y1="165.695" x2="599.564" y2="165.695"/>
<path fill="none" stroke="#231F20" stroke-width="0.8504" stroke-miterlimit="10" d="M599.564,172.193
	c0,4.069-3.301,7.368-7.371,7.368H438.808c-4.07,0-7.37-3.299-7.37-7.368v-69.664c0-4.07,3.3-7.37,7.37-7.37h153.385
	c4.07,0,7.371,3.3,7.371,7.37V172.193z"/>
<g>
	<g>
		<path fill="none" stroke="#231F20" stroke-width="0.5669" stroke-miterlimit="10" d="M398.199,85.019h10.514
			c3.118,0,5.669-2.551,5.669-5.669V47.686c0-3.118,2.551-5.669,5.669-5.669h9.886"/>
		<g>
			<polygon fill="#231F20" points="399.473,86.699 398.759,85.019 399.473,83.339 395.491,85.019 			"/>
		</g>
	</g>
</g>
<g>
	<g>
		<path fill="none" stroke="#231F20" stroke-width="0.5669" stroke-miterlimit="10" d="M398.199,101.601h10.514
			c3.118,0,5.669,2.551,5.669,5.669v24.788c0,3.118,2.551,5.669,5.669,5.669h9.887"/>
		<g>
			<polygon fill="#231F20" points="399.473,103.281 398.759,101.601 399.473,99.921 395.491,101.601 			"/>
		</g>
	</g>
</g>
<g>
	<path fill="none" stroke="#231F20" stroke-width="0.8504" stroke-miterlimit="10" d="M404.703,229.453
		c0,4.677-3.68,7.452-8.177,6.166l-14.605-4.175c-4.497-1.286-11.921-1.549-16.498-0.584c0,0-35.417,7.463-45.896,7.465
		c-10.039,0.005-19.367-0.964-19.367-0.964c-4.652-0.483-8.458-4.706-8.458-9.383v-11.232c0-4.677,3.827-8.504,8.504-8.504h95.994
		c4.677,0,8.504,3.827,8.504,8.504V229.453z"/>
</g>
<text transform="matrix(1 0 0 1 297.9968 223.7925)" fill="#231F20" font-family="'CMR10'" font-size="11.0551">Export Matrix Form</text>
<g>
	<line fill="#FFFFFF" x1="348.209" y1="172.322" x2="348.209" y2="205.626"/>
	<g>
		
			<line fill="none" stroke="#231F20" stroke-width="0.5669" stroke-miterlimit="10" x1="348.209" y1="172.322" x2="348.209" y2="202.918"/>
		<g>
			<polygon fill="#231F20" points="346.53,201.645 348.209,202.359 349.889,201.645 348.209,205.626 			"/>
		</g>
	</g>
</g>
<g>
	<line fill="#FFFFFF" x1="348.206" y1="111.653" x2="348.206" y2="133.756"/>
	<g>
		
			<line fill="none" stroke="#231F20" stroke-width="0.5669" stroke-miterlimit="10" x1="348.206" y1="111.653" x2="348.206" y2="131.049"/>
		<g>
			<polygon fill="#231F20" points="346.527,129.775 348.206,130.489 349.886,129.775 348.206,133.756 			"/>
		</g>
	</g>
</g>
<path fill="#BE3629" d="M387.725,136.58l-79.707,0.292c0,0-2.784,0.894-3.3,2.453c-0.464,1.401-1.189,1.27-1.445,2.765
	c-0.341,1.985-0.134,5.434-0.135,5.434l-0.001,18.278c0,0,2.536,4.578,5.461,4.835c1.606,0.14,5.084,0.216,5.084,0.216h63.345
	l11.164-0.317c0,0,3.129-1.879,4.885-4.232l0.181-9.923c0,0,0.351-12.693-0.483-15.415
	C391.991,138.408,387.725,136.58,387.725,136.58z"/>
<text transform="matrix(1 0 0 1 313.6018 156.9878)" fill="#FFFFFF" font-family="'CMR10'" font-size="11.0551">Measurements</text>
<path fill="none" stroke="#231F20" stroke-width="0.8504" stroke-miterlimit="10" d="M393.257,164.081
	c0,3.739-3.3,6.771-7.371,6.771h-75.367c-4.079,0-7.381-3.032-7.381-6.771v-20.714c0-3.74,3.303-6.771,7.381-6.771h75.367
	c4.071,0,7.371,3.031,7.371,6.771V164.081z"/>
<text transform="matrix(1 0 0 1 170.9641 90.812)" fill="#231F20" font-family="'CMR10'" font-size="11.0551">AC Power Flow</text>
<path fill="none" stroke="#231F20" stroke-width="0.8504" stroke-miterlimit="10" d="M261.614,94.34c0,4.07-3.039,7.371-6.789,7.371
	h-90.068c-3.75,0-6.789-3.301-6.789-7.371V80.828c0-4.07,3.039-7.37,6.789-7.37h90.068c3.75,0,6.789,3.3,6.789,7.37V94.34z"/>
<text transform="matrix(1 0 0 1 234.2805 26.3413)" fill="#231F20" font-family="'CMR10'" font-size="11.0551">ATTACH</text>
<path fill="#E6E7E8" d="M297.82,47.914h-78.59l-4.291-2.625l-1.323-2.816v-9.62c0,0,56.298-0.216,90.107,0v9.988
	c0,0-0.744,1.061-1.579,2.267C301.362,46.238,297.82,47.914,297.82,47.914z"/>
<path fill="#FFFFFF" stroke="#231F20" stroke-width="0.5669" stroke-miterlimit="10" d="M213.616,32.836h90.107H213.616z"/>
<text transform="matrix(1 0 0 1 229.408 43.5542)" fill="#231F20" font-family="'CMR10'" font-size="9.2126">maxIter, value</text>
<path fill="none" stroke="#231F20" stroke-width="0.8504" stroke-miterlimit="10" d="M303.723,41.142
	c0,3.74-3.301,6.771-7.371,6.771h-75.365c-4.07,0-7.371-3.031-7.371-6.771V20.428c0-3.74,3.301-6.771,7.371-6.771h75.365
	c4.07,0,7.371,3.03,7.371,6.771V41.142z"/>
<text transform="matrix(1 0 0 1 144.4377 26.3394)" fill="#231F20" font-family="'CMR10'" font-size="11.0551">LIMIT</text>
<path fill="#E6E7E8" d="M200.061,47.914h-78.589l-4.291-2.625l-1.323-2.816v-9.62c0,0,56.296-0.216,90.106,0v9.988
	c0,0-0.744,1.061-1.579,2.267C203.603,46.238,200.061,47.914,200.061,47.914z"/>
<path fill="#FFFFFF" stroke="#231F20" stroke-width="0.5669" stroke-miterlimit="10" d="M115.858,32.836h90.106H115.858z"/>
<text transform="matrix(1 0 0 1 123.0911 43.5537)" fill="#231F20" font-family="'CMR10'" font-size="9.2126">reactive</text>
<path fill="none" stroke="#231F20" stroke-width="0.8504" stroke-miterlimit="10" d="M205.986,41.142
	c0,3.74-3.301,6.771-7.371,6.771H123.25c-4.07,0-7.371-3.031-7.371-6.771V20.428c0-3.74,3.301-6.771,7.371-6.771h75.365
	c4.07,0,7.371,3.03,7.371,6.771V41.142z"/>
<text transform="matrix(1 0 0 1 167.6233 43.5537)" fill="#231F20" font-family="'CMR10'" font-size="9.2126">voltage</text>
<path fill="#FFFFFF" stroke="#231F20" stroke-width="0.5669" stroke-miterlimit="10" d="M160.927,33.182v14.305V33.182z"/>
<g>
	<g>
		<path fill="none" stroke="#231F20" stroke-width="0.5669" stroke-miterlimit="10" d="M191.37,69.218v-4.094
			c0-3.118-2.551-5.669-5.669-5.669l-19.119,0.001c-3.118,0-5.669-2.311-5.669-5.136s0-5.136,0-5.136"/>
		<g>
			<polygon fill="#231F20" points="193.05,67.944 191.37,68.658 189.69,67.944 191.37,71.925 			"/>
		</g>
	</g>
</g>
<g>
	<g>
		<path fill="none" stroke="#231F20" stroke-width="0.5669" stroke-miterlimit="10" d="M228.363,69.218v-4.094
			c0-3.118,2.551-5.669,5.669-5.669l19.119,0.001c3.118,0,5.669-2.311,5.669-5.136s0-5.136,0-5.136"/>
		<g>
			<polygon fill="#231F20" points="230.043,67.944 228.363,68.658 226.683,67.944 228.363,71.925 			"/>
		</g>
	</g>
</g>
<g>
	<path fill="#BE3629" d="M93.691,13.648l-79.698,0.368c0,0-2.779,1.114-3.295,1.982c-1.08,1.819-1.58,3.75-1.58,3.75v12.876
		c0,0,56.298,0.271,90.106,0v-7.938c0,0-0.007-5.785-0.841-7.305C97.602,15.957,93.691,13.648,93.691,13.648z"/>
	<path fill="#E6E7E8" d="M93.322,47.904H14.73l-4.291-2.626L9.117,42.46v-9.619c0,0,56.298-0.216,90.106,0v9.989
		c0,0-0.744,1.06-1.578,2.266C96.864,46.228,93.322,47.904,93.322,47.904z"/>
	<path fill="#FFFFFF" stroke="#231F20" stroke-width="0.5669" stroke-miterlimit="10" d="M9.117,32.827h90.106H9.117z"/>
	<text transform="matrix(1 0 0 1 29.8591 26.7202)" fill="#FFFFFF" font-family="'CMR10'" font-size="11.0551">Generator</text>
	<text transform="matrix(1 0 0 1 32.9421 43.5562)" fill="#231F20" font-family="'CMR10'" font-size="9.2126">rungen(...)</text>
	<path fill="none" stroke="#231F20" stroke-width="0.8504" stroke-miterlimit="10" d="M99.223,41.131c0,3.74-3.299,6.772-7.37,6.772
		H16.488c-4.071,0-7.371-3.032-7.371-6.772V20.418c0-3.74,3.3-6.771,7.371-6.771h75.365c4.071,0,7.37,3.03,7.37,6.771V41.131z"/>
</g>
</svg>
