<?xml version="1.0" encoding="utf-8"?>
<!-- Generator: Adobe Illustrator 16.0.0, SVG Export Plug-In . SVG Version: 6.00 Build 0)  -->
<!DOCTYPE svg PUBLIC "-//W3C//DTD SVG 1.1//EN" "http://www.w3.org/Graphics/SVG/1.1/DTD/svg11.dtd">
<svg version="1.1" id="Layer_1" xmlns="http://www.w3.org/2000/svg" xmlns:xlink="http://www.w3.org/1999/xlink" x="0px" y="0px"
	 width="482px" height="196.666px" viewBox="0 0 482 196.666" enable-background="new 0 0 482 196.666" xml:space="preserve">
<path fill="#BE362A" d="M106.562,31.31H7.801v-9.084c0,0,0.921-3.268,1.684-4.03c0.655-0.654,3.985-1.639,3.985-1.639h86.664
	c0,0,3.648,0.401,4.534,1.166c0.924,0.798,1.893,4.503,1.893,4.503L106.562,31.31z"/>
<path fill="#E6E7E8" d="M100.893,42.907H13.471c0,0-3.308-1.129-3.989-1.723c-0.95-0.828-1.681-3.946-1.681-3.946V31.31h98.761
	v5.929c0,0-0.795,3.346-1.438,3.988C104.349,42.001,100.893,42.907,100.893,42.907z"/>
<path fill="none" stroke="#000000" stroke-width="0.5669" stroke-miterlimit="10" d="M106.562,37.238
	c0,3.131-2.538,5.669-5.669,5.669H13.471c-3.131,0-5.669-2.538-5.669-5.669V22.226c0-3.131,2.538-5.669,5.669-5.669h87.422
	c3.131,0,5.669,2.538,5.669,5.669V37.238z"/>
<text transform="matrix(1 0 0 1 147.9702 78.3262)" font-family="'CMR10'" font-size="8.5039">AC Power Flow</text>
<g>
	<line fill="#FFFFFF" x1="93.635" y1="76.033" x2="136.387" y2="76.033"/>
	<g>
		
			<line fill="none" stroke="#000000" stroke-width="0.5669" stroke-miterlimit="10" x1="93.635" y1="76.033" x2="133.679" y2="76.033"/>
		<g>
			<polygon points="132.405,77.713 133.119,76.033 132.405,74.354 136.387,76.033 			"/>
		</g>
	</g>
</g>
<path fill="none" stroke="#000000" stroke-width="0.5669" stroke-miterlimit="10" d="M217.716,81.031c0,3.132-2.338,5.67-5.223,5.67
	H143.21c-2.885,0-5.223-2.538-5.223-5.67V70.638c0-3.131,2.338-5.669,5.223-5.669h69.283c2.885,0,5.223,2.538,5.223,5.669V81.031z"
	/>
<g>
	<g>
		<path fill="none" stroke="#000000" stroke-width="0.5669" stroke-miterlimit="10" d="M158.569,60.727v-6.18
			c0-3.118-2.551-5.669-5.669-5.669l-12.09,0.001c-3.118,0-5.669-2.551-5.669-5.669v-6.319"/>
		<g>
			<polygon points="160.249,59.452 158.569,60.166 156.89,59.452 158.569,63.434 			"/>
		</g>
	</g>
</g>
<g>
	<g>
		<path fill="none" stroke="#000000" stroke-width="0.5669" stroke-miterlimit="10" d="M194.716,60.727v-6.18
			c0-3.118,2.551-5.669,5.669-5.669l12.06,0.001c3.118,0,5.669-2.551,5.669-5.669v-6.319"/>
		<g>
			<polygon points="196.396,59.452 194.716,60.166 193.036,59.452 194.716,63.434 			"/>
		</g>
	</g>
</g>
<g>
	<line fill="#FFFFFF" x1="57.153" y1="44.305" x2="57.153" y2="61.305"/>
	<g>
		
			<line fill="none" stroke="#000000" stroke-width="0.5669" stroke-miterlimit="10" x1="57.153" y1="44.305" x2="57.153" y2="58.598"/>
		<g>
			<polygon points="55.474,57.323 57.153,58.037 58.833,57.323 57.153,61.305 			"/>
		</g>
	</g>
</g>
<g>
	<line fill="#FFFFFF" x1="219.408" y1="80.285" x2="247.732" y2="80.285"/>
	<g>
		
			<line fill="none" stroke="#000000" stroke-width="0.5669" stroke-miterlimit="10" x1="219.408" y1="80.285" x2="245.024" y2="80.285"/>
		<g>
			<polygon points="243.75,81.965 244.464,80.285 243.75,78.605 247.732,80.285 			"/>
		</g>
	</g>
</g>
<g>
	<text transform="matrix(1 0 0 1 259.4849 82.5293)" font-family="'CMR10'" font-size="8.5039">Exact Values</text>
</g>
<path fill="none" stroke="#000000" stroke-width="0.5669" stroke-miterlimit="10" d="M318.767,87.982
	c0,2.877-2.538,5.208-5.669,5.208h-57.974c-3.131,0-5.669-2.331-5.669-5.208V72.049c0-2.877,2.538-5.209,5.669-5.209h57.974
	c3.131,0,5.669,2.332,5.669,5.209V87.982z"/>
<path fill="#FFFFFF" stroke="#000000" stroke-width="0.5669" stroke-miterlimit="10" d="M7.801,31.31h98.76H7.801z"/>
<text transform="matrix(1 0 0 1 12.1372 26.6123)" fill="#FFFFFF" font-family="'CMR10'" font-size="8.5039">Measurement Generator</text>
<text transform="matrix(1 0 0 1 38.6753 39.5625)" font-family="'CMR10'" font-size="7.0866">generator.m</text>
<text transform="matrix(1 0 0 1 44.4722 73.1875)" font-family="'CMR10'" font-size="8.5039">DATA</text>
<path fill="#E6E7E8" d="M87.27,89.208H26.814l-3.3-2.019l-1.017-2.167v-7.4c0,0,43.306-0.166,69.313,0v7.684
	c0,0-0.572,0.816-1.214,1.744C89.994,87.919,87.27,89.208,87.27,89.208z"/>
<path fill="#FFFFFF" stroke="#000000" stroke-width="0.5669" stroke-miterlimit="10" d="M22.497,77.61H91.81H22.497z"/>
<text transform="matrix(1 0 0 1 35.8267 85.8633)" font-family="'CMR10'" font-size="7.0866">mat-file name</text>
<path fill="none" stroke="#000000" stroke-width="0.5669" stroke-miterlimit="10" d="M91.81,84c0,2.877-2.538,5.208-5.669,5.208
	H28.167c-3.131,0-5.669-2.331-5.669-5.208V68.066c0-2.877,2.538-5.208,5.669-5.208h57.974c3.131,0,5.669,2.331,5.669,5.208V84z"/>
<g>
	<path fill="#E6E7E8" d="M121.881,24.753h55.978V35.67c0,0-32.538,0.09-50.166-0.178c-6.359-0.097-5.969-5.198-6.043-7.084
		C121.567,26.295,121.881,24.753,121.881,24.753z"/>
	<path fill="#E6E7E8" d="M233.688,24.753h-55.882V35.67c0,0,32.482,0.09,50.08-0.178c6.349-0.097,5.959-5.198,6.033-7.084
		C234.001,26.295,233.688,24.753,233.688,24.753z"/>
	<path fill="#FFFFFF" stroke="#000000" stroke-width="0.5669" stroke-miterlimit="10" d="M177.919,24.756V35.76V24.756z"/>
	
		<line fill="#FFFFFF" stroke="#000000" stroke-width="0.5669" stroke-miterlimit="10" x1="121.858" y1="24.756" x2="233.979" y2="24.756"/>
	<text transform="matrix(1 0 0 1 165.2266 17.8418)" font-family="'CMR10'" font-size="8.5039">LIMIT</text>
	<text transform="matrix(1 0 0 1 194.7573 32.3145)" font-family="'CMR10'" font-size="7.0866">voltage</text>
	<path fill="none" stroke="#000000" stroke-width="0.5669" stroke-miterlimit="10" d="M233.979,29.979
		c0,3.132-2.537,5.67-5.668,5.67H127.527c-3.131,0-5.669-2.538-5.669-5.67V11.59c0-3.132,2.538-5.67,5.669-5.67h100.783
		c3.131,0,5.668,2.538,5.668,5.67V29.979z"/>
	<text transform="matrix(1 0 0 1 137.6431 32.3145)" font-family="'CMR10'" font-size="7.0866">reactive</text>
</g>
<g>
	<path fill="#E6E7E8" d="M478.014,61.771c0,3.125-3.266,5.664-7.297,5.664h-69.28c-2.391,0-7.297,0-7.297,0s0-4.393,0-5.664V18.849
		c0-1.549,0-5.67,0-5.67s5.26,0,7.297,0h69.28c4.031,0,7.297,2.539,7.297,5.67V61.771z"/>
	<path fill="#FFFFFF" stroke="#000000" stroke-width="0.5669" stroke-miterlimit="10" d="M394.14,13.179v54.256V13.179z"/>
	
		<line fill="#FFFFFF" stroke="#000000" stroke-width="0.5669" stroke-miterlimit="10" x1="394.046" y1="24.812" x2="477.781" y2="24.812"/>
	<text transform="matrix(1 0 0 1 399.064 21.6992)" font-family="'CMR10'" font-size="7.0866">pmuRedundancy, value</text>
	
		<line fill="#FFFFFF" stroke="#000000" stroke-width="0.5669" stroke-miterlimit="10" x1="394.046" y1="56.661" x2="477.781" y2="56.661"/>
	
		<line fill="#FFFFFF" stroke="#000000" stroke-width="0.5669" stroke-miterlimit="10" x1="394.046" y1="45.995" x2="477.781" y2="45.995"/>
	<text transform="matrix(1 0 0 1 358.2969 42.8203)" font-family="'CMR10'" font-size="8.5039">SET</text>
	
		<line fill="#FFFFFF" stroke="#000000" stroke-width="0.5669" stroke-miterlimit="10" x1="394.046" y1="36.044" x2="477.781" y2="36.044"/>
	<text transform="matrix(1 0 0 1 399.064 32.6836)" font-family="'CMR10'" font-size="7.0866">pmuDevice, value</text>
	<text transform="matrix(1 0 0 1 399.064 43.3672)" font-family="'CMR10'" font-size="7.0866">pmuOptimal</text>
	<text transform="matrix(1 0 0 1 399.064 53.6992)" font-family="'CMR10'" font-size="7.0866">legRedundancy, value</text>
	<text transform="matrix(1 0 0 1 399.064 64.8008)" font-family="'CMR10'" font-size="7.0866">legDevice, value</text>
	<path fill="none" stroke="#000000" stroke-width="0.5669" stroke-miterlimit="10" d="M478.014,61.771
		c0,3.125-2.537,5.664-5.67,5.664H354.287c-3.131,0-5.669-2.539-5.669-5.664V18.849c0-3.131,2.538-5.67,5.669-5.67h118.057
		c3.133,0,5.67,2.539,5.67,5.67V61.771z"/>
</g>
<g>
	<path fill="#E6E7E8" d="M477.533,140.913c0,3.739-2.834,5.645-6.334,5.645h-60.14c-2.076,0-6.334,0-6.334,0s0-5.256,0-6.777V88.42
		c0-1.853,0-6.784,0-6.784s4.566,0,6.334,0h60.14c3.5,0,6.334,1.905,6.334,5.651V140.913z"/>
	<path fill="#FFFFFF" stroke="#000000" stroke-width="0.5669" stroke-miterlimit="10" d="M405.008,81.636v64.922V81.636z"/>
	
		<line fill="#FFFFFF" stroke="#000000" stroke-width="0.5669" stroke-miterlimit="10" x1="404.725" y1="93.269" x2="477.322" y2="93.269"/>
	<text transform="matrix(1 0 0 1 409.2354 90.1543)" font-family="'CMR10'" font-size="7.0866">pmuUnique, value</text>
	
		<line fill="#FFFFFF" stroke="#000000" stroke-width="0.5669" stroke-miterlimit="10" x1="404.725" y1="125.118" x2="477.322" y2="125.118"/>
	
		<line fill="#FFFFFF" stroke="#000000" stroke-width="0.5669" stroke-miterlimit="10" x1="404.725" y1="114.452" x2="477.322" y2="114.452"/>
	<text transform="matrix(1 0 0 1 352.2129 116.6094)" font-family="'CMR10'" font-size="8.5039">VARIANCE</text>
	
		<line fill="#FFFFFF" stroke="#000000" stroke-width="0.5669" stroke-miterlimit="10" x1="404.726" y1="104.501" x2="477.322" y2="104.501"/>
	<text transform="matrix(1 0 0 1 409.2354 101.1396)" font-family="'CMR10'" font-size="7.0866">pmuRandom, value</text>
	<text transform="matrix(1 0 0 1 409.2354 111.8232)" font-family="'CMR10'" font-size="7.0866">pmuType, value</text>
	<text transform="matrix(1 0 0 1 409.2354 122.1543)" font-family="'CMR10'" font-size="7.0866">legUnique, value</text>
	<text transform="matrix(1 0 0 1 409.2354 133.2559)" font-family="'CMR10'" font-size="7.0866">legRandom, value</text>
	<text transform="matrix(1 0 0 1 409.2354 143.7637)" font-family="'CMR10'" font-size="7.0866">legType, value</text>
	
		<line fill="#FFFFFF" stroke="#000000" stroke-width="0.5669" stroke-miterlimit="10" x1="404.867" y1="135.892" x2="477.465" y2="135.892"/>
	<path fill="none" stroke="#000000" stroke-width="0.5669" stroke-miterlimit="10" d="M477.465,140.889
		c0,3.131-2.539,5.669-5.67,5.669H353.808c-3.131,0-5.669-2.538-5.669-5.669V87.305c0-3.131,2.538-5.669,5.669-5.669h117.987
		c3.131,0,5.67,2.538,5.67,5.669V140.889z"/>
</g>
<g>
	<g>
		<path fill="none" stroke="#000000" stroke-width="0.5669" stroke-miterlimit="10" d="M323.194,73.836h6.154
			c3.118,0,5.669-2.551,5.669-5.669V46.426c0-3.118,2.551-5.669,5.669-5.669h6.296"/>
		<g>
			<polygon points="324.468,75.516 323.754,73.836 324.468,72.156 320.486,73.836 			"/>
		</g>
	</g>
</g>
<g>
	<g>
		<path fill="none" stroke="#000000" stroke-width="0.5669" stroke-miterlimit="10" d="M323.194,86.591h6.154
			c3.118,0,5.669,2.551,5.669,5.669v16.449c0,3.118,2.551,5.669,5.669,5.669h6.296"/>
		<g>
			<polygon points="324.468,88.271 323.754,86.591 324.468,84.911 320.487,86.591 			"/>
		</g>
	</g>
</g>
<g>
	<path fill="none" stroke="#000000" stroke-width="0.5669" stroke-miterlimit="10" d="M327.573,182.974
		c0,4.677-3.679,7.452-8.176,6.166l-7.463-2.133c-4.497-1.286-11.921-1.549-16.498-0.584c0,0-25.323,5.336-33.383,5.338
		c-7.719,0.004-12.936-0.538-12.936-0.538c-4.652-0.484-8.458-4.707-8.458-9.384v-4.715c0-4.677,3.827-8.504,8.504-8.504h69.906
		c4.677,0,8.504,3.827,8.504,8.504V182.974z"/>
</g>
<text transform="matrix(1 0 0 1 245.4966 180.583)" font-family="'CMR10'" font-size="8.5039">Export Matrix Form</text>
<g>
	<line fill="#FFFFFF" x1="284.116" y1="140.988" x2="284.116" y2="166.607"/>
	<g>
		
			<line fill="none" stroke="#000000" stroke-width="0.5669" stroke-miterlimit="10" x1="284.116" y1="140.988" x2="284.116" y2="163.9"/>
		<g>
			<polygon points="282.437,162.626 284.116,163.34 285.796,162.626 284.116,166.607 			"/>
		</g>
	</g>
</g>
<g>
	<line fill="#FFFFFF" x1="284.114" y1="94.323" x2="284.114" y2="111.323"/>
	<g>
		
			<line fill="none" stroke="#000000" stroke-width="0.5669" stroke-miterlimit="10" x1="284.114" y1="94.323" x2="284.114" y2="108.615"/>
		<g>
			<polygon points="282.434,107.342 284.114,108.056 285.793,107.342 284.114,111.323 			"/>
		</g>
	</g>
</g>
<g>
	<path fill="#BE362A" d="M314.512,113.494l-61.306,0.225c0,0-2.138,0.688-2.535,1.887c-0.356,1.078-0.915,0.978-1.111,2.128
		c-0.262,1.527-0.104,4.179-0.104,4.179l0,14.062c0,0,1.949,3.521,4.195,3.718c1.234,0.108,3.907,0.166,3.907,0.166h48.726
		l8.588-0.243c0,0,2.408-1.446,3.758-3.257l0.139-7.633c0,0,0.269-9.763-0.373-11.857
		C317.794,114.901,314.512,113.494,314.512,113.494z"/>
	<text transform="matrix(1 0 0 1 257.5 129.1953)" fill="#FFFFFF" font-family="'CMR10'" font-size="8.5039">Measurements</text>
	<path fill="none" stroke="#000000" stroke-width="0.5669" stroke-miterlimit="10" d="M318.768,134.649
		c0,2.877-2.538,5.208-5.669,5.208h-57.974c-3.131,0-5.669-2.331-5.669-5.208v-15.934c0-2.877,2.538-5.209,5.669-5.209h57.974
		c3.131,0,5.669,2.332,5.669,5.209V134.649z"/>
</g>
</svg>
