<?xml version="1.0" encoding="utf-8"?>
<!-- Generator: Adobe Illustrator 16.0.0, SVG Export Plug-In . SVG Version: 6.00 Build 0)  -->
<!DOCTYPE svg PUBLIC "-//W3C//DTD SVG 1.1//EN" "http://www.w3.org/Graphics/SVG/1.1/DTD/svg11.dtd">
<svg version="1.1" id="Layer_1" xmlns="http://www.w3.org/2000/svg" xmlns:xlink="http://www.w3.org/1999/xlink" x="0px" y="0px"
	 width="493px" height="209px" viewBox="186.5 24.5 493 209" enable-background="new 186.5 24.5 493 209" xml:space="preserve">
<path fill="#BE3629" d="M297.26,63.353H198.5v-9.084c0,0,0.921-3.268,1.684-4.03c0.655-0.654,3.985-1.639,3.985-1.639h86.664
	c0,0,3.648,0.401,4.534,1.166c0.924,0.798,1.893,4.503,1.893,4.503L297.26,63.353z"/>
<path fill="#E6E7E8" d="M291.592,74.95H204.17c0,0-3.308-1.129-3.989-1.723c-0.95-0.828-1.681-3.946-1.681-3.946v-5.929h98.761
	v5.929c0,0-0.795,3.346-1.438,3.988C295.048,74.044,291.592,74.95,291.592,74.95z"/>
<path fill="none" stroke="#231F20" stroke-width="0.5669" stroke-miterlimit="10" d="M297.261,69.281
	c0,3.131-2.538,5.669-5.669,5.669H204.17c-3.131,0-5.669-2.538-5.669-5.669V54.269c0-3.131,2.538-5.669,5.669-5.669h87.422
	c3.131,0,5.669,2.538,5.669,5.669V69.281z"/>
<text transform="matrix(1 0 0 1 338.6692 110.3687)" fill="#231F20" font-family="'CMR10'" font-size="8.5039">AC Power Flow</text>
<g>
	<line fill="#FFFFFF" x1="284.334" y1="108.076" x2="327.086" y2="108.076"/>
	<g>
		
			<line fill="none" stroke="#231F20" stroke-width="0.5669" stroke-miterlimit="10" x1="284.334" y1="108.076" x2="324.378" y2="108.076"/>
		<g>
			<polygon fill="#231F20" points="323.104,109.756 323.818,108.076 323.104,106.396 327.086,108.076 			"/>
		</g>
	</g>
</g>
<path fill="none" stroke="#231F20" stroke-width="0.5669" stroke-miterlimit="10" d="M408.415,113.074
	c0,3.132-2.338,5.67-5.223,5.67h-69.283c-2.885,0-5.223-2.538-5.223-5.67v-10.394c0-3.131,2.338-5.669,5.223-5.669h69.283
	c2.885,0,5.223,2.538,5.223,5.669V113.074z"/>
<g>
	<g>
		<path fill="none" stroke="#231F20" stroke-width="0.5669" stroke-miterlimit="10" d="M349.268,92.77v-6.18
			c0-3.118-2.551-5.669-5.669-5.669l-12.09,0.001c-3.118,0-5.669-2.551-5.669-5.669v-6.319"/>
		<g>
			<polygon fill="#231F20" points="350.948,91.495 349.268,92.209 347.589,91.495 349.268,95.477 			"/>
		</g>
	</g>
</g>
<g>
	<g>
		<path fill="none" stroke="#231F20" stroke-width="0.5669" stroke-miterlimit="10" d="M385.415,92.77v-6.18
			c0-3.118,2.551-5.669,5.669-5.669l12.06,0.001c3.118,0,5.669-2.551,5.669-5.669v-6.319"/>
		<g>
			<polygon fill="#231F20" points="387.094,91.495 385.415,92.209 383.735,91.495 385.415,95.477 			"/>
		</g>
	</g>
</g>
<g>
	<line fill="#FFFFFF" x1="247.852" y1="76.348" x2="247.852" y2="93.348"/>
	<g>
		
			<line fill="none" stroke="#231F20" stroke-width="0.5669" stroke-miterlimit="10" x1="247.852" y1="76.348" x2="247.852" y2="90.641"/>
		<g>
			<polygon fill="#231F20" points="246.173,89.366 247.852,90.08 249.532,89.366 247.852,93.348 			"/>
		</g>
	</g>
</g>
<g>
	<line fill="#FFFFFF" x1="410.107" y1="112.328" x2="438.431" y2="112.328"/>
	<g>
		
			<line fill="none" stroke="#231F20" stroke-width="0.5669" stroke-miterlimit="10" x1="410.107" y1="112.328" x2="435.723" y2="112.328"/>
		<g>
			<polygon fill="#231F20" points="434.449,114.008 435.163,112.328 434.449,110.648 438.431,112.328 			"/>
		</g>
	</g>
</g>
<g>
	<text transform="matrix(1 0 0 1 450.1838 114.5718)" fill="#231F20" font-family="'CMR10'" font-size="8.5039">Exact Values</text>
</g>
<path fill="none" stroke="#231F20" stroke-width="0.5669" stroke-miterlimit="10" d="M509.466,120.025
	c0,2.877-2.538,5.208-5.669,5.208h-57.975c-3.131,0-5.669-2.331-5.669-5.208v-15.934c0-2.877,2.538-5.209,5.669-5.209h57.975
	c3.131,0,5.669,2.332,5.669,5.209V120.025z"/>
<path fill="#FFFFFF" stroke="#231F20" stroke-width="0.5669" stroke-miterlimit="10" d="M198.5,63.353h98.76H198.5z"/>
<text transform="matrix(1 0 0 1 202.8357 58.6553)" fill="#FFFFFF" font-family="'CMR10'" font-size="8.5039">Measurement Generator</text>
<text transform="matrix(1 0 0 1 229.3743 71.606)" fill="#231F20" font-family="'CMR10'" font-size="7.0866">generator.m</text>
<text transform="matrix(1 0 0 1 235.1721 105.231)" fill="#231F20" font-family="'CMR10'" font-size="8.5039">DATA</text>
<path fill="#E6E7E8" d="M277.969,121.251h-60.455l-3.3-2.019l-1.017-2.167v-7.4c0,0,43.306-0.166,69.313,0v7.684
	c0,0-0.572,0.816-1.214,1.744C280.693,119.962,277.969,121.251,277.969,121.251z"/>
<path fill="#FFFFFF" stroke="#231F20" stroke-width="0.5669" stroke-miterlimit="10" d="M213.196,109.653h69.313H213.196z"/>
<text transform="matrix(1 0 0 1 226.5256 117.9063)" fill="#231F20" font-family="'CMR10'" font-size="7.0866">mat-file name</text>
<path fill="none" stroke="#231F20" stroke-width="0.5669" stroke-miterlimit="10" d="M282.509,116.043
	c0,2.877-2.538,5.208-5.669,5.208h-57.974c-3.131,0-5.669-2.331-5.669-5.208v-15.934c0-2.877,2.538-5.208,5.669-5.208h57.974
	c3.131,0,5.669,2.331,5.669,5.208V116.043z"/>
<g>
	<path fill="#E6E7E8" d="M312.58,56.796h55.978v10.917c0,0-32.538,0.09-50.166-0.178c-6.359-0.097-5.969-5.198-6.043-7.084
		C312.266,58.338,312.58,56.796,312.58,56.796z"/>
	<path fill="#E6E7E8" d="M424.386,56.796h-55.882v10.917c0,0,32.482,0.09,50.08-0.178c6.349-0.097,5.959-5.198,6.033-7.084
		C424.7,58.338,424.386,56.796,424.386,56.796z"/>
	<path fill="#FFFFFF" stroke="#231F20" stroke-width="0.5669" stroke-miterlimit="10" d="M368.618,56.799v11.004V56.799z"/>
	
		<line fill="#FFFFFF" stroke="#231F20" stroke-width="0.5669" stroke-miterlimit="10" x1="312.557" y1="56.799" x2="424.677" y2="56.799"/>
	<text transform="matrix(1 0 0 1 355.9255 49.8853)" fill="#231F20" font-family="'CMR10'" font-size="8.5039">LIMIT</text>
	<text transform="matrix(1 0 0 1 385.4563 64.3574)" fill="#231F20" font-family="'CMR10'" font-size="7.0866">voltage</text>
	<path fill="none" stroke="#231F20" stroke-width="0.5669" stroke-miterlimit="10" d="M424.677,62.021
		c0,3.132-2.537,5.67-5.668,5.67H318.226c-3.131,0-5.669-2.538-5.669-5.67V43.633c0-3.132,2.538-5.67,5.669-5.67H419.01
		c3.131,0,5.668,2.538,5.668,5.67V62.021z"/>
	<text transform="matrix(1 0 0 1 328.342 64.3574)" fill="#231F20" font-family="'CMR10'" font-size="7.0866">reactive</text>
</g>
<g>
	<path fill="#E6E7E8" d="M668.713,93.813c0,3.125-3.266,5.664-7.297,5.664h-69.28c-2.392,0-7.297,0-7.297,0s0-4.393,0-5.664V50.892
		c0-1.549,0-5.67,0-5.67s5.261,0,7.297,0h69.28c4.031,0,7.297,2.539,7.297,5.67V93.813z"/>
	<path fill="#FFFFFF" stroke="#231F20" stroke-width="0.5669" stroke-miterlimit="10" d="M584.839,45.222v54.256V45.222z"/>
	
		<line fill="#FFFFFF" stroke="#231F20" stroke-width="0.5669" stroke-miterlimit="10" x1="584.744" y1="56.854" x2="668.481" y2="56.854"/>
	<text transform="matrix(1 0 0 1 589.7629 53.7417)" fill="#231F20" font-family="'CMR10'" font-size="7.0866">pmuRedundancy, value</text>
	
		<line fill="#FFFFFF" stroke="#231F20" stroke-width="0.5669" stroke-miterlimit="10" x1="584.744" y1="88.704" x2="668.481" y2="88.704"/>
	
		<line fill="#FFFFFF" stroke="#231F20" stroke-width="0.5669" stroke-miterlimit="10" x1="584.744" y1="78.038" x2="668.481" y2="78.038"/>
	<text transform="matrix(1 0 0 1 548.9954 74.8638)" fill="#231F20" font-family="'CMR10'" font-size="8.5039">SET</text>
	
		<line fill="#FFFFFF" stroke="#231F20" stroke-width="0.5669" stroke-miterlimit="10" x1="584.745" y1="68.087" x2="668.481" y2="68.087"/>
	<text transform="matrix(1 0 0 1 589.7629 64.7271)" fill="#231F20" font-family="'CMR10'" font-size="7.0866">pmuDevice, value</text>
	<text transform="matrix(1 0 0 1 589.7629 75.4106)" fill="#231F20" font-family="'CMR10'" font-size="7.0866">pmuOptimal</text>
	<text transform="matrix(1 0 0 1 589.7629 85.7417)" fill="#231F20" font-family="'CMR10'" font-size="7.0866">legRedundancy, value</text>
	<text transform="matrix(1 0 0 1 589.7629 96.8438)" fill="#231F20" font-family="'CMR10'" font-size="7.0866">legDevice, value</text>
	<path fill="none" stroke="#231F20" stroke-width="0.5669" stroke-miterlimit="10" d="M668.713,93.813
		c0,3.125-2.537,5.664-5.67,5.664H544.987c-3.132,0-5.67-2.539-5.67-5.664V50.892c0-3.131,2.538-5.67,5.67-5.67h118.057
		c3.133,0,5.67,2.539,5.67,5.67V93.813z"/>
</g>
<g>
	<path fill="#E6E7E8" d="M668.233,172.956c0,3.739-2.834,5.645-6.334,5.645h-60.141c-2.076,0-6.334,0-6.334,0s0-5.256,0-6.777
		v-51.36c0-1.853,0-6.784,0-6.784s4.566,0,6.334,0h60.141c3.5,0,6.334,1.905,6.334,5.651V172.956z"/>
	<path fill="#FFFFFF" stroke="#231F20" stroke-width="0.5669" stroke-miterlimit="10" d="M595.707,113.679v64.922V113.679z"/>
	
		<line fill="#FFFFFF" stroke="#231F20" stroke-width="0.5669" stroke-miterlimit="10" x1="595.424" y1="125.312" x2="668.022" y2="125.312"/>
	<text transform="matrix(1 0 0 1 599.9338 122.1973)" fill="#231F20" font-family="'CMR10'" font-size="7.0866">pmuUnique, value</text>
	
		<line fill="#FFFFFF" stroke="#231F20" stroke-width="0.5669" stroke-miterlimit="10" x1="595.424" y1="157.161" x2="668.022" y2="157.161"/>
	
		<line fill="#FFFFFF" stroke="#231F20" stroke-width="0.5669" stroke-miterlimit="10" x1="595.424" y1="146.495" x2="668.022" y2="146.495"/>
	<text transform="matrix(1 0 0 1 542.9114 148.6523)" fill="#231F20" font-family="'CMR10'" font-size="8.5039">VARIANCE</text>
	
		<line fill="#FFFFFF" stroke="#231F20" stroke-width="0.5669" stroke-miterlimit="10" x1="595.424" y1="136.544" x2="668.022" y2="136.544"/>
	<text transform="matrix(1 0 0 1 599.9338 133.1826)" fill="#231F20" font-family="'CMR10'" font-size="7.0866">pmuRandom, value</text>
	<text transform="matrix(1 0 0 1 599.9338 143.8662)" fill="#231F20" font-family="'CMR10'" font-size="7.0866">pmuType, value</text>
	<text transform="matrix(1 0 0 1 599.9338 154.1973)" fill="#231F20" font-family="'CMR10'" font-size="7.0866">legUnique, value</text>
	<text transform="matrix(1 0 0 1 599.9338 165.2988)" fill="#231F20" font-family="'CMR10'" font-size="7.0866">legRandom, value</text>
	<text transform="matrix(1 0 0 1 599.9338 175.8066)" fill="#231F20" font-family="'CMR10'" font-size="7.0866">legType, value</text>
	
		<line fill="#FFFFFF" stroke="#231F20" stroke-width="0.5669" stroke-miterlimit="10" x1="595.566" y1="167.935" x2="668.164" y2="167.935"/>
	<path fill="none" stroke="#231F20" stroke-width="0.5669" stroke-miterlimit="10" d="M668.164,172.932
		c0,3.131-2.539,5.669-5.67,5.669H544.506c-3.131,0-5.669-2.538-5.669-5.669v-53.584c0-3.131,2.538-5.669,5.669-5.669h117.988
		c3.131,0,5.67,2.538,5.67,5.669V172.932z"/>
</g>
<g>
	<g>
		<path fill="none" stroke="#231F20" stroke-width="0.5669" stroke-miterlimit="10" d="M513.893,105.879h6.154
			c3.118,0,5.67-2.551,5.67-5.669V78.469c0-3.118,2.551-5.669,5.669-5.669h6.296"/>
		<g>
			<polygon fill="#231F20" points="515.166,107.559 514.453,105.879 515.166,104.199 511.186,105.879 			"/>
		</g>
	</g>
</g>
<g>
	<g>
		<path fill="none" stroke="#231F20" stroke-width="0.5669" stroke-miterlimit="10" d="M513.893,118.634h6.154
			c3.119,0,5.67,2.551,5.67,5.669v16.449c0,3.118,2.551,5.669,5.67,5.669h6.296"/>
		<g>
			<polygon fill="#231F20" points="515.167,120.313 514.453,118.634 515.167,116.954 511.186,118.634 			"/>
		</g>
	</g>
</g>
<g>
	<path fill="none" stroke="#231F20" stroke-width="0.5669" stroke-miterlimit="10" d="M518.272,215.017
		c0,4.677-3.679,7.452-8.176,6.166l-7.463-2.133c-4.497-1.286-11.921-1.549-16.498-0.584c0,0-25.322,5.336-33.383,5.338
		c-7.719,0.004-12.936-0.538-12.936-0.538c-4.652-0.484-8.458-4.707-8.458-9.384v-4.715c0-4.677,3.827-8.504,8.503-8.504h69.906
		c4.678,0,8.504,3.827,8.504,8.504V215.017z"/>
</g>
<text transform="matrix(1 0 0 1 436.1956 212.626)" fill="#231F20" font-family="'CMR10'" font-size="8.5039">Export Matrix Form</text>
<g>
	<line fill="#FFFFFF" x1="474.815" y1="173.031" x2="474.815" y2="198.65"/>
	<g>
		
			<line fill="none" stroke="#231F20" stroke-width="0.5669" stroke-miterlimit="10" x1="474.815" y1="173.031" x2="474.815" y2="195.943"/>
		<g>
			<polygon fill="#231F20" points="473.135,194.669 474.815,195.383 476.494,194.669 474.815,198.65 			"/>
		</g>
	</g>
</g>
<g>
	<line fill="#FFFFFF" x1="474.813" y1="126.366" x2="474.813" y2="143.366"/>
	<g>
		
			<line fill="none" stroke="#231F20" stroke-width="0.5669" stroke-miterlimit="10" x1="474.813" y1="126.366" x2="474.813" y2="140.658"/>
		<g>
			<polygon fill="#231F20" points="473.133,139.385 474.813,140.099 476.492,139.385 474.813,143.366 			"/>
		</g>
	</g>
</g>
<g>
	<path fill="#BE3629" d="M505.211,145.537l-61.307,0.225c0,0-2.138,0.688-2.534,1.887c-0.356,1.078-0.915,0.978-1.111,2.128
		c-0.263,1.527-0.104,4.179-0.104,4.179v14.062c0,0,1.949,3.521,4.195,3.718c1.233,0.108,3.906,0.166,3.906,0.166h48.727
		l8.588-0.243c0,0,2.407-1.446,3.758-3.257l0.139-7.633c0,0,0.27-9.763-0.372-11.857
		C508.493,146.944,505.211,145.537,505.211,145.537z"/>
	<text transform="matrix(1 0 0 1 448.1985 161.2373)" fill="#FFFFFF" font-family="'CMR10'" font-size="8.5039">Measurements</text>
	<path fill="none" stroke="#231F20" stroke-width="0.5669" stroke-miterlimit="10" d="M509.467,166.692
		c0,2.877-2.538,5.208-5.67,5.208h-57.973c-3.132,0-5.67-2.331-5.67-5.208v-15.934c0-2.877,2.538-5.209,5.67-5.209h57.973
		c3.132,0,5.67,2.332,5.67,5.209V166.692z"/>
</g>
</svg>
