<?xml version="1.0" encoding="utf-8"?>
<!-- Generator: Adobe Illustrator 16.0.0, SVG Export Plug-In . SVG Version: 6.00 Build 0)  -->
<!DOCTYPE svg PUBLIC "-//W3C//DTD SVG 1.1//EN" "http://www.w3.org/Graphics/SVG/1.1/DTD/svg11.dtd">
<svg version="1.1" id="Layer_1" xmlns="http://www.w3.org/2000/svg" xmlns:xlink="http://www.w3.org/1999/xlink" x="0px" y="0px"
	 width="115.833px" height="115.497px" viewBox="0 0 115.833 115.497" enable-background="new 0 0 115.833 115.497"
	 xml:space="preserve">
<g>
	<linearGradient id="SVGID_1_" gradientUnits="userSpaceOnUse" x1="1.2998" y1="57.9546" x2="114.688" y2="57.9546">
		<stop  offset="0" style="stop-color:#F15C6D"/>
		<stop  offset="1" style="stop-color:#B41F34"/>
	</linearGradient>
	<linearGradient id="SVGID_2_" gradientUnits="userSpaceOnUse" x1="0.7998" y1="57.9546" x2="115.188" y2="57.9546">
		<stop  offset="0" style="stop-color:#B41F34"/>
		<stop  offset="1" style="stop-color:#F15C6D"/>
	</linearGradient>
	<rect x="1.3" y="1.262" fill="url(#SVGID_1_)" stroke="url(#SVGID_2_)" stroke-miterlimit="10" width="113.388" height="113.386"/>
	<g>
		<path fill="#F2F2F2" d="M50.639,72.896c-0.448-0.039-0.901-0.012-1.352-0.012c-1.652,0.152-3.322,0.182-4.827,1
			c-0.156,0.086-0.223,0.334-0.331,0.508c0.18,0.09,0.372,0.279,0.535,0.256c2.005-0.305,4.007-0.635,6.007-0.973
			c0.274-0.047,0.657-0.098,0.523-0.514C51.149,73.024,50.838,72.913,50.639,72.896z"/>
		<path fill="#F2F2F2" d="M50.04,78.946c-0.604-0.021-1.208-0.066-1.81-0.033c-1.557,0.09-2.953,0.691-4.286,1.453
			c-0.119,0.066-0.145,0.363-0.139,0.551c0.002,0.059,0.273,0.188,0.379,0.152c1.948-0.639,3.907-1.234,5.925-1.617
			c0.052-0.008,0.088-0.096,0.131-0.145c-0.006-0.076,0.009-0.162-0.024-0.223C50.181,79.024,50.102,78.95,50.04,78.946z"/>
		<path fill="#F2F2F2" d="M50.239,77.737c-0.055-0.125-0.076-0.289-0.172-0.363c-0.107-0.086-0.28-0.133-0.421-0.129
			c-2.322,0.066-4.482,0.791-6.61,1.645c-0.062,0.023-0.108,0.102-0.143,0.168c-0.033,0.061-0.076,0.15-0.054,0.201
			c0.061,0.129,0.14,0.252,0.236,0.355c0.043,0.045,0.149,0.066,0.217,0.049c2.273-0.582,4.546-1.168,6.816-1.762
			C50.163,77.89,50.195,77.794,50.239,77.737z"/>
		<path fill="#F2F2F2" d="M66.629,71.323c-0.076,0.037-0.139,0.301-0.088,0.375c0.072,0.098,0.283,0.188,0.393,0.152
			c1.854-0.621,3.697-1.26,5.541-1.906c0.049-0.016,0.066-0.123,0.139-0.279c-0.15-0.09-0.316-0.277-0.465-0.264
			C70.155,69.591,68.401,70.487,66.629,71.323z"/>
		<path fill="#F2F2F2" d="M69.682,79.954c-0.018,0.027,0.055,0.154,0.098,0.162c0.785,0.15,1.396-0.186,1.922-0.725
			c0.029-0.029,0.006-0.113,0.006-0.301C70.911,79.12,70.155,79.157,69.682,79.954z"/>
		<path fill="#F2F2F2" d="M65.747,76.429c0.047,0.105,0.236,0.145,0.357,0.211c0.08,0,0.162,0.02,0.23-0.004
			c2.227-0.732,4.451-1.467,6.678-2.207c0.068-0.021,0.143-0.072,0.176-0.131c0.074-0.123,0.205-0.328,0.162-0.381
			c-0.119-0.15-0.299-0.303-0.477-0.334c-0.211-0.039-0.455,0.018-0.664,0.09c-1.934,0.664-3.863,1.334-5.789,2.016
			c-0.209,0.074-0.412,0.195-0.574,0.344C65.758,76.114,65.7,76.327,65.747,76.429z"/>
		<path fill="#F2F2F2" d="M72.358,75.321c-1.836,0.723-3.67,1.449-5.502,2.182c-0.211,0.084-0.424,0.182-0.602,0.316
			c-0.104,0.076-0.232,0.314-0.199,0.352c0.121,0.141,0.328,0.342,0.455,0.314c1.184-0.26,2.355-0.561,3.529-0.85
			c-0.58,0.355-1.17,0.689-1.73,1.068c-0.16,0.109-0.234,0.352-0.348,0.533c0.262,0.072,0.568,0.27,0.779,0.195
			c1.215-0.436,2.414-0.924,3.602-1.428c0.178-0.076,0.281-0.324,0.42-0.492c-0.186-0.088-0.383-0.268-0.551-0.244
			c-0.748,0.107-1.488,0.271-2.232,0.418c0.791-0.432,1.578-0.863,2.371-1.285c0.332-0.176,0.691-0.305,1.012-0.496
			c0.09-0.055,0.168-0.313,0.117-0.381c-0.115-0.158-0.299-0.338-0.475-0.363C72.799,75.132,72.565,75.239,72.358,75.321z"/>
		<path fill="#F2F2F2" d="M44.239,76.64c0.143,0.039,0.299,0.102,0.435,0.076c1.778-0.311,3.554-0.635,5.329-0.963
			c0.067-0.012,0.163-0.08,0.171-0.135c0.023-0.131,0.045-0.365-0.008-0.389c-0.326-0.148-0.673-0.248-1.143-0.408
			c-1.462,0.338-2.999,0.688-4.534,1.051c-0.136,0.033-0.283,0.137-0.36,0.25c-0.072,0.105-0.076,0.27-0.076,0.41
			C44.052,76.567,44.169,76.622,44.239,76.64z"/>
		<path fill="#F2F2F2" d="M48.834,55.871c-0.255-0.13-0.466-0.335-0.609-0.296c-1.231,0.339-2.45,0.717-3.67,1.099
			c-0.133,0.041-0.265,0.159-0.343,0.278c-0.071,0.107-0.083,0.263-0.088,0.399c-0.001,0.034,0.118,0.083,0.189,0.107
			c0.068,0.023,0.151,0.051,0.216,0.033c1.308-0.345,2.615-0.685,3.913-1.064C48.591,56.384,48.674,56.108,48.834,55.871z"/>
		<path fill="#F2F2F2" d="M44.445,67.073c-0.153,0.102-0.256,0.281-0.381,0.426c0.161,0.125,0.32,0.248,0.449,0.348
			c0.207-0.037,0.38-0.021,0.489-0.1c0.158-0.109,0.27-0.287,0.398-0.436c-0.176-0.1-0.342-0.23-0.531-0.289
			C44.742,66.983,44.551,67.001,44.445,67.073z"/>
		<path fill="#F2F2F2" d="M47.983,54.791c0.157-0.035,0.39-0.268,0.385-0.401c-0.014-0.377-0.344-0.465-0.649-0.421
			c-1.184,0.175-2.365,0.372-3.546,0.576c-0.137,0.024-0.282,0.123-0.374,0.229c-0.083,0.097-0.111,0.249-0.133,0.383
			c-0.009,0.04,0.078,0.124,0.134,0.142c0.212,0.062,0.43,0.103,0.762,0.18C45.639,55.266,46.815,55.048,47.983,54.791z"/>
		<path fill="#F2F2F2" d="M44.557,71.448c-0.134,0.057-0.243,0.18-0.348,0.287c-0.044,0.047-0.083,0.152-0.062,0.197
			c0.062,0.119,0.173,0.322,0.239,0.314c1.429-0.203,2.855-0.424,4.279-0.664c0.081-0.014,0.128-0.238,0.189-0.365
			c-0.086-0.109-0.164-0.305-0.261-0.314C47.211,70.79,45.851,70.89,44.557,71.448z"/>
		<path fill="#F2F2F2" d="M44.437,62.101c1.165-0.018,2.197-0.475,3.212-0.986c0.036-0.018,0.056-0.146,0.029-0.193
			c-0.068-0.121-0.168-0.225-0.303-0.397c-1.09,0.155-2.164,0.476-3.179,0.985c-0.094,0.047-0.177,0.293-0.135,0.389
			C44.107,62.003,44.308,62.103,44.437,62.101z"/>
		<path fill="#F2F2F2" d="M44.488,64.312c0.494-0.121,0.984-0.301,1.445-0.521c0.149-0.072,0.204-0.342,0.303-0.521
			c-0.136-0.055-0.27-0.105-0.542-0.215c-0.445,0.131-1.017,0.268-1.557,0.479c-0.128,0.051-0.264,0.422-0.201,0.535
			C44.02,64.212,44.323,64.351,44.488,64.312z"/>
		<path fill="#F2F2F2" d="M44.045,69.901c0.441,0.029,0.889,0.014,1.333,0.014c0.004,0.031,0.005,0.064,0.009,0.098
			c0.655-0.092,1.312-0.172,1.96-0.289c0.085-0.018,0.185-0.234,0.183-0.355c-0.003-0.111-0.114-0.301-0.209-0.322
			c-1.109-0.248-2.208-0.152-3.277,0.213c-0.104,0.035-0.207,0.225-0.215,0.348C43.825,69.704,43.96,69.896,44.045,69.901z"/>
		<path fill="#F2F2F2" d="M60.032,46.84c1.355-0.643,2.191-2.839,1.643-4.316c-0.686-1.851-2.712-2.369-4.241-1.108
			c-0.972,0.801-1.188,1.886-1.253,2.901C56.223,46.496,58.192,47.712,60.032,46.84z M58.953,42.226
			c0.805-0.168,1.637,0.469,1.69,1.305c0.01,0.167-0.18,0.345-0.336,0.623c-0.657-0.482-1.269-0.87-1.56-1.584
			C58.716,42.492,58.86,42.246,58.953,42.226z M57.505,43.999c0.06-0.064,0.318-0.045,0.405,0.031
			c0.51,0.443,0.997,0.913,1.482,1.384c0.029,0.03,0.006,0.164-0.038,0.212c-0.092,0.103-0.215,0.18-0.323,0.267
			c-1.075-0.09-1.738-0.559-1.809-1.337C57.208,44.375,57.366,44.149,57.505,43.999z"/>
		<path fill="#F2F2F2" d="M56.533,34.191c-0.339,0.183-0.467,0.758-0.694,1.151c-0.223,0.386-0.372,0.863-0.692,1.136
			c-0.675,0.567-0.755,1.285-0.765,2.062c-0.014,0.839-0.062,1.68-0.028,2.518c0.041,1.026-0.868,1.563-1.168,2.43
			c-0.549,1.598-0.914,3.224-1.183,4.884c-0.4,2.467-0.465,2.234-2.53,2.367c-1.908,0.123-3.788,0.401-5.637,0.907
			c-0.997,0.271-1.599,0.882-1.748,1.879c-0.137,0.903-0.225,1.818-0.258,2.73c-0.138,3.813-0.194,7.627-0.383,11.434l-0.293,7.338
			c-0.05,0.988-0.166,1.977-0.271,2.961c-0.082,0.758-0.215,1.51-0.279,2.27c-0.285,3.311,0.462,3.061,2.962,3.199
			c1.286,0.074,2.587-0.182,3.882-0.209c4.877-0.111,9.754-0.172,14.632-0.285c3.045-0.07,6.09-0.189,9.135-0.316
			c0.836-0.033,1.672-0.156,2.502-0.277c0.584-0.084,0.961-0.477,1.1-1.031c0.109-0.438,0.148-0.902,0.158-1.357
			c0.057-2.516,0.182-5.037,0.121-7.553c-0.113-4.885,0.068-9.758,0.313-14.634c0.064-1.294,0.012-2.595-0.02-3.892
			c-0.012-0.532-0.057-1.071-0.164-1.592c-0.248-1.191-0.641-1.551-1.852-1.61c-1.141-0.057-2.287-0.028-3.432-0.036
			c-0.609-0.005-1.221,0.015-1.828-0.021c-0.51-0.029-0.861-0.325-0.93-0.842c-0.146-1.058-0.285-2.117-0.383-3.181
			c-0.127-1.408-0.477-2.799-1.506-3.746c-1.355-1.248-1.59-2.681-1.324-4.349c0.059-0.374,0.082-0.767,0.039-1.141
			c-0.033-0.284-0.129-0.727-0.316-0.8c-1.002-0.393-1.16-1.293-1.51-2.132c-0.152-0.371-0.605-0.689-0.996-0.876
			c-0.572-0.273-0.852-0.632-0.961-1.137h-2.516C57.59,33.132,57.32,33.769,56.533,34.191z M71.504,51.92
			c0.457-0.004,0.918-0.003,1.373,0.032c0.861,0.064,1.121,0.23,1.27,1.036c0.18,0.973,0.354,1.966,0.344,2.947
			c-0.029,2.365-0.186,4.725-0.254,7.09c-0.053,1.83-0.053,3.664-0.074,5.494c-0.004,0.383-0.018,0.764,0,1.146
			c0.029,0.689-0.225,1.082-0.924,1.354c-1.92,0.746-3.77,1.67-5.813,2.08c-0.365,0.072-0.719,0.248-1.055,0.418
			c-0.1,0.049-0.211,0.311-0.174,0.357c0.121,0.148,0.309,0.334,0.475,0.34c0.295,0.01,0.605-0.07,0.895-0.164
			c1.375-0.451,2.744-0.92,4.117-1.383c0.574-0.193,1.139-0.428,1.727-0.566c0.432-0.102,0.723,0.148,0.799,0.596
			c0.039,0.225,0.078,0.455,0.07,0.68c-0.07,1.98-0.148,3.959-0.23,5.938c-0.014,0.305-0.041,0.609-0.074,0.912
			c-0.061,0.607-0.41,0.969-0.998,1.086c-0.373,0.074-0.752,0.145-1.131,0.164c-3.047,0.16-6.094,0.328-9.145,0.449
			c-2.895,0.113-5.793,0.184-8.69,0.25c-1.981,0.047-3.964,0.055-5.943,0.066c-0.198,0-0.396-0.105-0.83-0.229
			c0.479-0.301,0.776-0.496,1.082-0.676c0.32-0.188,0.794-0.342,0.609-0.775c-0.058-0.139-0.729-0.143-1.05-0.021
			c-1.043,0.396-2.195,0.482-3.018,1.484c-0.522,0.637-1.445,0.225-2.177,0.045c-0.905-0.225-1.164-0.531-1.155-1.432
			c0.006-0.76,0.056-1.531,0.192-2.277c0.443-2.412,0.474-4.854,0.545-7.291c0.099-3.434,0.19-6.865,0.294-10.299
			c0.005-0.141,0.096-0.28,0.183-0.518c1.64-0.188,3.159-0.881,4.636-1.682c0.158-0.084,0.223-0.337,0.331-0.512
			c-0.189-0.08-0.404-0.264-0.563-0.224c-0.44,0.107-0.858,0.31-1.285,0.474c-0.429,0.163-0.853,0.337-1.286,0.486
			c-1.791,0.618-2.093,0.402-2.033-1.576c0.028-0.912,0.204-1.819,0.27-2.731c0.063-0.884,0.534-1.354,1.344-1.636
			c2.571-0.9,5.224-1.015,7.907-0.931c1.828,0.058,3.659,0.128,5.487,0.12C62.202,52.024,66.852,51.962,71.504,51.92z
			 M63.643,44.149c0.027-0.181,0.225-0.433,0.385-0.466c0.158-0.033,0.447,0.113,0.545,0.267c1.133,1.814,1.395,3.823,1.223,5.91
			c-0.045,0.526-0.434,0.805-0.93,0.836c-0.984,0.061-1.973,0.063-2.959,0.104c-1.516,0.064-3.03,0.168-4.544,0.205
			c-1.137,0.029-2.277,0.007-3.414-0.043c-0.497-0.022-0.854-0.322-0.886-0.861c-0.109-1.827,0.316-3.545,1.227-5.219
			c0.088,0.351,0.237,0.699,0.256,1.055c0.096,2.007,2.076,3.375,4.138,3.565c1.646,0.15,2.964-0.432,3.839-1.913
			C63.155,46.519,63.454,45.359,63.643,44.149z M61.68,37.394c1.086-0.026,1.418,0.477,1.338,1.645
			c-0.107,1.519-0.166,3.047-0.41,4.545c-0.166,1.033-0.477,2.092-0.961,3.013c-0.766,1.452-1.883,1.798-3.478,1.346
			c-1.857-0.528-2.334-1.083-2.524-3.013c-0.113-1.133-0.187-2.271-0.271-3.323c0.088-1.004,0.146-1.915,0.251-2.82
			c0.057-0.487,0.338-0.922,0.831-0.974C58.191,37.627,59.936,37.437,61.68,37.394z M60.958,35.406
			c0.172,0.343-0.439,0.745-1.334,0.861c-0.52,0.066-1.044,0.108-1.521,0.157c-0.193-0.014-0.353,0.004-0.489-0.044
			c-0.126-0.044-0.311-0.146-0.321-0.243c-0.028-0.202-0.036-0.495,0.084-0.609c0.261-0.249,0.585-0.478,0.926-0.587
			c0.417-0.137,0.878-0.203,1.318-0.185C60.133,34.777,60.682,34.855,60.958,35.406z"/>
		<path fill="#F2F2F2" d="M55.396,56.131c-0.485,1.946-1.44,3.688-2.366,5.44c-0.569,1.08-1.169,2.145-1.721,3.234
			c-0.407,0.807-0.05,1.301,0.897,1.273c0.912-0.029,1.82-0.109,2.73-0.127c0.838-0.018,1.677-0.008,2.512,0.031
			c0.758,0.037,1.035,0.445,0.875,1.25c-0.072,0.373-0.196,0.736-0.297,1.104c-0.627,2.281-1.259,4.561-1.879,6.842
			c-0.199,0.736-0.373,1.479-0.552,2.221c-0.076,0.318-0.048,0.646,0.313,0.732c0.173,0.041,0.475-0.074,0.583-0.217
			c0.405-0.551,0.771-1.133,1.123-1.719c1.413-2.354,2.771-4.744,4.24-7.063c1.592-2.512,3.301-4.947,4.926-7.439
			c0.234-0.359,0.352-0.83,0.406-1.264c0.049-0.403-0.191-0.752-0.631-0.815c-0.449-0.065-0.91-0.08-1.363-0.067
			c-0.826,0.023-1.65,0.083-2.695,0.14c0.266-0.588,0.434-0.988,0.623-1.374c0.34-0.68,0.744-1.33,1.027-2.031
			c0.234-0.582-0.123-1.086-0.73-1.146c-2.285-0.228-4.568-0.158-6.849,0.078C55.991,55.275,55.544,55.532,55.396,56.131z"/>
		<path fill="#F2F2F2" d="M70.983,63.925c0.281-0.008,0.646-0.098,0.508-0.506c-0.055-0.16-0.334-0.336-0.516-0.34
			c-0.584-0.018-1.201-0.021-1.594,0.783C69.985,63.892,70.485,63.942,70.983,63.925z"/>
		<path fill="#F2F2F2" d="M70.499,59.149c0.119,0.06,0.291,0.014,0.527,0.014c0.355-0.075,0.803-0.152,1.234-0.276
			c0.096-0.027,0.205-0.223,0.199-0.333c-0.008-0.121-0.121-0.302-0.229-0.338c-0.703-0.232-1.32,0.028-1.902,0.398
			c-0.045,0.027-0.076,0.142-0.055,0.189C70.329,58.931,70.391,59.094,70.499,59.149z"/>
		<path fill="#F2F2F2" d="M70.342,61.558c0.217,0.061,0.438,0.105,0.639,0.152c0.25-0.033,0.502-0.014,0.693-0.111
			c0.168-0.082,0.381-0.311,0.365-0.449c-0.018-0.15-0.287-0.393-0.434-0.383c-0.436,0.031-0.871,0.148-1.291,0.277
			c-0.086,0.025-0.123,0.254-0.154,0.393C70.155,61.464,70.274,61.538,70.342,61.558z"/>
		<path fill="#F2F2F2" d="M69.473,66.214c0.432-0.1,0.857-0.24,1.271-0.402c0.086-0.033,0.104-0.23,0.152-0.354
			c-0.057-0.051-0.121-0.15-0.168-0.143c-0.506,0.096-1.014,0.195-1.51,0.334c-0.07,0.02-0.15,0.277-0.105,0.363
			C69.17,66.118,69.368,66.239,69.473,66.214z"/>
		<path fill="#F2F2F2" d="M70.86,56.222c0.506-0.063,1.008-0.163,1.508-0.265c0.047-0.009,0.074-0.106,0.109-0.164
			c-0.063-0.117-0.131-0.338-0.189-0.336c-0.502,0.024-1,0.073-1.496,0.156c-0.084,0.014-0.195,0.229-0.186,0.344
			C70.612,56.056,70.782,56.233,70.86,56.222z"/>
		<path fill="#F2F2F2" d="M67.659,69.534c1.406-0.25,2.787-0.588,4.035-1.316c0.111-0.064,0.164-0.23,0.244-0.35
			c-0.076-0.107-0.164-0.316-0.227-0.309c-1.49,0.199-2.953,0.5-4.234,1.348c-0.092,0.061-0.152,0.273-0.123,0.389
			C67.383,69.399,67.569,69.552,67.659,69.534z"/>
	</g>
</g>
<rect x="1.792" y="101.2" fill="none" width="112.46" height="11.03"/>
<text transform="matrix(1 0 0 1 24.981 108.7227)" fill="#FFFFFF" font-family="'TempusSansITC'" font-size="9.9213">state estimation</text>
</svg>
