<?xml version="1.0" encoding="utf-8"?>
<!-- Generator: Adobe Illustrator 16.0.0, SVG Export Plug-In . SVG Version: 6.00 Build 0)  -->
<!DOCTYPE svg PUBLIC "-//W3C//DTD SVG 1.1//EN" "http://www.w3.org/Graphics/SVG/1.1/DTD/svg11.dtd">
<svg version="1.1" id="Layer_1" xmlns="http://www.w3.org/2000/svg" xmlns:xlink="http://www.w3.org/1999/xlink" x="0px" y="0px"
	 width="503px" height="162px" viewBox="-80 -33 503 162" enable-background="new -80 -33 503 162" xml:space="preserve">
<g>
	<path fill="none" stroke="#231F20" stroke-width="0.5669" stroke-miterlimit="10" d="M410.825,1.243
		c0,4.677-3.644,7.334-8.097,5.905l-5.023-1.611c-4.453-1.429-11.82-1.718-16.372-0.642c0,0-21.699,5.132-28.879,5.135
		c-6.877,0.003-10.614-0.433-10.614-0.433c-4.646-0.542-8.446-4.812-8.446-9.489v-4.715c0-4.677,3.827-8.504,8.504-8.504h60.424
		c4.677,0,8.504,3.827,8.504,8.504V1.243z"/>
</g>
<g>
	<path fill="#F1F1F2" d="M399.685,79.217c0.143,3.881-1.081,8.597-1.081,8.597c-0.392,1.509-1.987,2.743-3.547,2.743h-46.676
		c-1.56,0-3.651-0.979-4.649-2.178l-4.4-5.282c-0.998-1.198-1.137-3.259-0.309-4.579l4.451-7.1c0.828-1.32,2.781-2.4,4.341-2.4
		h45.541c1.56,0,3.463,1.109,4.229,2.467C397.585,71.484,399.527,74.921,399.685,79.217z"/>
	<path fill="none" stroke="#231F20" stroke-width="0.5669" stroke-miterlimit="10" d="M399.685,79.217
		c0.143,3.881-1.081,8.597-1.081,8.597c-0.392,1.509-1.987,2.743-3.547,2.743h-46.676c-1.56,0-3.651-0.979-4.649-2.178l-4.4-5.282
		c-0.998-1.198-1.137-3.259-0.309-4.579l4.451-7.1c0.828-1.32,2.781-2.4,4.341-2.4h45.541c1.56,0,3.463,1.109,4.229,2.467
		C397.585,71.484,399.527,74.921,399.685,79.217z"/>
</g>
<text transform="matrix(1 0 0 1 138.7302 55.6006)" fill="#231F20" font-family="'CMR10'" font-size="8.5039">AC Power Flow</text>
<g>
	<line fill="#FFFFFF" x1="1.157" y1="80.812" x2="18.157" y2="80.812"/>
	<g>
		
			<line fill="none" stroke="#231F20" stroke-width="0.5669" stroke-miterlimit="10" x1="1.157" y1="80.812" x2="15.45" y2="80.812"/>
		<g>
			<polygon fill="#231F20" points="14.176,82.491 14.889,80.812 14.176,79.132 18.157,80.812 			"/>
		</g>
	</g>
</g>
<path fill="#E6E7E8" d="M97.753,90.314c-0.653,0.732-2.597,1.441-2.597,1.441H76.948V70.019c0,0,10.383-0.354,17.759,0.025
	c1.019,0.052,2.334,1.422,3.099,1.599c0.416,0.097,1.306,0.884,1.58,2.904c0.431,3.184,0.132,7.816,0.145,10.25
	c0.01,1.91,0.028,1.838-0.511,2.894C98.614,88.485,98.698,89.256,97.753,90.314z"/>
<line fill="#FFFFFF" stroke="#231F20" stroke-width="0.5669" stroke-miterlimit="10" x1="76.948" y1="80.889" x2="99.245" y2="80.889"/>
<text transform="matrix(1 0 0 1 83.6121 77.5273)" fill="#231F20" font-family="'CMR10'" font-size="7.0866">ac</text>
<text transform="matrix(1 0 0 1 83.6121 88.4023)" fill="#231F20" font-family="'CMR10'" font-size="7.0866">dc</text>
<path fill="#FFFFFF" stroke="#231F20" stroke-width="0.5669" stroke-miterlimit="10" d="M77.111,70.019v21.737V70.019z"/>
<text transform="matrix(1 0 0 1 29.5432 83.6816)" fill="#231F20" font-family="'CMR10'" font-size="8.5039">METHOD</text>
<path fill="none" stroke="#231F20" stroke-width="0.5669" stroke-miterlimit="10" d="M99.4,86.086c0,3.131-2.338,5.67-5.223,5.67
	H24.894c-2.885,0-5.223-2.539-5.223-5.67V75.691c0-3.131,2.338-5.669,5.223-5.669h69.284c2.885,0,5.223,2.538,5.223,5.669V86.086z"
	/>
<path fill="none" stroke="#231F20" stroke-width="0.5669" stroke-miterlimit="10" d="M208.465,58.309c0,3.131-2.338,5.67-5.223,5.67
	h-69.283c-2.885,0-5.223-2.539-5.223-5.67V47.915c0-3.131,2.338-5.669,5.223-5.669h69.283c2.885,0,5.223,2.539,5.223,5.669V58.309z"
	/>
<text transform="matrix(1 0 0 1 138.675 110.9736)" fill="#231F20" font-family="'CMR10'" font-size="8.5039">DC Power Flow</text>
<path fill="none" stroke="#231F20" stroke-width="0.5669" stroke-miterlimit="10" d="M208.467,113.684
	c0,3.131-2.338,5.67-5.223,5.67H133.96c-2.885,0-5.223-2.539-5.223-5.67v-10.395c0-3.131,2.338-5.67,5.223-5.67h69.285
	c2.885,0,5.223,2.539,5.223,5.67V113.684z"/>
<g>
	<g>
		<path fill="none" stroke="#231F20" stroke-width="0.5669" stroke-miterlimit="10" d="M124.877,53.154h-6.179
			c-3.118,0-5.669,2.552-5.669,5.67l0,12.09c0,3.118-2.551,5.67-5.669,5.67h-6.318"/>
		<g>
			<polygon fill="#231F20" points="123.603,51.475 124.317,53.154 123.603,54.834 127.585,53.154 			"/>
		</g>
	</g>
</g>
<g>
	<g>
		<path fill="none" stroke="#231F20" stroke-width="0.5669" stroke-miterlimit="10" d="M124.877,108.641h-6.179
			c-3.118,0-5.669-2.551-5.669-5.67l0-12.09c0-3.117-2.551-5.669-5.669-5.669h-6.318"/>
		<g>
			<polygon fill="#231F20" points="123.603,106.961 124.317,108.641 123.603,110.32 127.585,108.641 			"/>
		</g>
	</g>
</g>
<g>
	<g>
		<path fill="none" stroke="#231F20" stroke-width="0.5669" stroke-miterlimit="10" d="M233.347,75.692h-6.18
			c-3.118,0-5.669-2.552-5.669-5.669v-12.09c0-3.119-2.551-5.67-5.669-5.67h-6.317"/>
		<g>
			<polygon fill="#231F20" points="232.073,74.013 232.787,75.692 232.073,77.372 236.055,75.692 			"/>
		</g>
	</g>
</g>
<g>
	<g>
		<path fill="none" stroke="#231F20" stroke-width="0.5669" stroke-miterlimit="10" d="M233.347,86.59h-6.18
			c-3.118,0-5.669,2.552-5.669,5.67v12.09c0,3.118-2.551,5.67-5.669,5.67h-6.317"/>
		<g>
			<polygon fill="#231F20" points="232.073,84.91 232.787,86.59 232.073,88.27 236.055,86.59 			"/>
		</g>
	</g>
</g>
<text transform="matrix(1 0 0 1 358.4075 81.8809)" fill="#231F20" font-family="'CMR10'" font-size="8.5039">Display</text>
<text transform="matrix(1 0 0 1 360.7141 40.9507)" fill="#231F20" font-family="'CMR10'" font-size="8.5039">SAVE</text>
<path fill="none" stroke="#231F20" stroke-width="0.5669" stroke-miterlimit="10" d="M412.222,43.073
	c0,3.131-2.338,5.669-5.223,5.669h-69.283c-2.885,0-5.223-2.538-5.223-5.669V32.679c0-3.131,2.338-5.669,5.223-5.669h69.283
	c2.885,0,5.223,2.539,5.223,5.669V43.073z"/>
<g>
	<line fill="#FFFFFF" x1="372.031" y1="67.116" x2="372.031" y2="50.116"/>
	<g>
		
			<line fill="none" stroke="#231F20" stroke-width="0.5669" stroke-miterlimit="10" x1="372.031" y1="67.116" x2="372.031" y2="52.824"/>
		<g>
			<polygon fill="#231F20" points="373.71,54.098 372.031,53.384 370.351,54.098 372.031,50.116 			"/>
		</g>
	</g>
</g>
<text transform="matrix(1 0 0 1 352.9143 -1.1465)" fill="#231F20" font-family="'CMR10'" font-size="8.5039">Save Data</text>
<g>
	<g>
		<path fill="none" stroke="#231F20" stroke-width="0.5669" stroke-miterlimit="10" d="M149.318,38.003v-6.179
			c0-3.118-2.551-5.669-5.669-5.669l-12.09,0.001c-3.118,0-5.669-2.551-5.669-5.669v-6.318"/>
		<g>
			<polygon fill="#231F20" points="150.998,36.729 149.318,37.443 147.638,36.729 149.318,40.71 			"/>
		</g>
	</g>
</g>
<g>
	<g>
		<path fill="none" stroke="#231F20" stroke-width="0.5669" stroke-miterlimit="10" d="M185.465,38.003v-6.179
			c0-3.118,2.551-5.669,5.669-5.669l12.061,0.001c3.118,0,5.669-2.551,5.669-5.669v-6.318"/>
		<g>
			<polygon fill="#231F20" points="187.145,36.729 185.465,37.443 183.785,36.729 185.465,40.71 			"/>
		</g>
	</g>
</g>
<g>
	<line fill="#FFFFFF" x1="-35" y1="47.667" x2="-35" y2="64.668"/>
	<g>
		<line fill="none" stroke="#231F20" stroke-width="0.5669" stroke-miterlimit="10" x1="-35" y1="47.667" x2="-35" y2="61.96"/>
		<g>
			<polygon fill="#231F20" points="-36.68,60.686 -35,61.4 -33.321,60.686 -35,64.668 			"/>
		</g>
	</g>
</g>
<g>
	<g>
		<path fill="none" stroke="#231F20" stroke-width="0.5669" stroke-miterlimit="10" d="M372.425,11.58c0,0.61,0,1.291,0,2.007
			c0,2.593,2.551,4.714,5.669,4.714L394.56,18.3c3.118,0,5.669,1.747,5.669,3.882c0,2.135,0,3.882,0,3.882"/>
		<g>
			<polygon fill="#231F20" points="370.745,12.855 372.425,12.141 374.105,12.855 372.425,8.874 			"/>
		</g>
	</g>
</g>
<g>
	<path fill="#E6E7E8" d="M112.676,1.866h55.978v10.917c0,0-32.538,0.09-50.166-0.178c-6.359-0.097-5.969-5.198-6.043-7.084
		C112.362,3.408,112.676,1.866,112.676,1.866z"/>
	<path fill="#E6E7E8" d="M224.483,1.866h-55.882v10.917c0,0,32.482,0.09,50.08-0.178c6.349-0.097,5.959-5.198,6.033-7.084
		C224.796,3.408,224.483,1.866,224.483,1.866z"/>
	<path fill="#FFFFFF" stroke="#231F20" stroke-width="0.5669" stroke-miterlimit="10" d="M168.714,1.869v11.004V1.869z"/>
	
		<line fill="#FFFFFF" stroke="#231F20" stroke-width="0.5669" stroke-miterlimit="10" x1="112.654" y1="1.869" x2="224.774" y2="1.869"/>
	<text transform="matrix(1 0 0 1 156.0217 -5.0449)" fill="#231F20" font-family="'CMR10'" font-size="8.5039">LIMIT</text>
	<text transform="matrix(1 0 0 1 185.553 9.4272)" fill="#231F20" font-family="'CMR10'" font-size="7.0866">voltage</text>
	<path fill="none" stroke="#231F20" stroke-width="0.5669" stroke-miterlimit="10" d="M224.774,7.091c0,3.132-2.537,5.67-5.668,5.67
		H118.323c-3.131,0-5.669-2.538-5.669-5.67v-18.389c0-3.132,2.538-5.67,5.669-5.67h100.783c3.131,0,5.668,2.538,5.668,5.67V7.091z"
		/>
	<text transform="matrix(1 0 0 1 128.4382 9.4272)" fill="#231F20" font-family="'CMR10'" font-size="7.0866">reactive</text>
</g>
<path fill="#E6E7E8" d="M315.807,90.314c-0.68,0.732-2.707,1.441-2.707,1.441h-18.988V70.019c0,0,10.827-0.354,18.521,0.025
	c1.062,0.052,2.434,1.422,3.229,1.599c0.435,0.097,1.363,0.884,1.648,2.904c0.45,3.184,0.139,7.816,0.151,10.25
	c0.011,1.91,0.029,1.838-0.532,2.894C316.705,88.485,316.793,89.256,315.807,90.314z"/>
<line fill="#FFFFFF" stroke="#231F20" stroke-width="0.5669" stroke-miterlimit="10" x1="294.114" y1="80.889" x2="317.38" y2="80.889"/>
<text transform="matrix(1 0 0 1 298.261 77.5273)" fill="#231F20" font-family="'CMR10'" font-size="7.0866">main</text>
<text transform="matrix(1 0 0 1 298.261 88.4023)" fill="#231F20" font-family="'CMR10'" font-size="7.0866">flow</text>
<path fill="#FFFFFF" stroke="#231F20" stroke-width="0.5669" stroke-miterlimit="10" d="M294.114,70.019v21.737V70.019z"/>
<text transform="matrix(1 0 0 1 246.5042 83.6816)" fill="#231F20" font-family="'CMR10'" font-size="8.5039">DISPLAY</text>
<path fill="none" stroke="#231F20" stroke-width="0.5669" stroke-miterlimit="10" d="M317.535,86.086c0,3.131-2.338,5.67-5.223,5.67
	h-69.284c-2.885,0-5.223-2.539-5.223-5.67V75.691c0-3.131,2.338-5.669,5.223-5.669h69.284c2.885,0,5.223,2.538,5.223,5.669V86.086z"
	/>
<g>
	<line fill="#FFFFFF" x1="319.17" y1="80.812" x2="336.17" y2="80.812"/>
	<g>
		
			<line fill="none" stroke="#231F20" stroke-width="0.5669" stroke-miterlimit="10" x1="319.17" y1="80.812" x2="333.462" y2="80.812"/>
		<g>
			<polygon fill="#231F20" points="332.189,82.491 332.902,80.812 332.189,79.132 336.17,80.812 			"/>
		</g>
	</g>
</g>
<g>
	<path fill="#BE3629" d="M-4.6,19.919l-61.306,0.284c0,0-2.138,0.857-2.535,1.525c-0.831,1.399-1.215,2.884-1.215,2.884v9.905
		c0,0,43.306,0.209,69.313,0V28.41c0,0-0.005-4.45-0.646-5.619C-1.592,21.696-4.6,19.919-4.6,19.919z"/>
	<path fill="#E6E7E8" d="M-4.884,46.27h-60.455l-3.3-2.019l-1.017-2.167v-7.4c0,0,43.306-0.166,69.313,0v7.684
		c0,0-0.572,0.815-1.214,1.743C-2.159,44.98-4.884,46.27-4.884,46.27z"/>
	<path fill="#FFFFFF" stroke="#231F20" stroke-width="0.5669" stroke-miterlimit="10" d="M-69.656,34.672h69.313H-69.656z"/>
	<text transform="matrix(1 0 0 1 -57.199 29.9731)" fill="#FFFFFF" font-family="'CMR10'" font-size="8.5039">Power Flow</text>
	<text transform="matrix(1 0 0 1 -56.1565 42.9238)"><tspan x="0" y="0" fill="#231F20" font-family="'CMR10'" font-size="7.0866">power</tspan><tspan x="18.51" y="0" fill="#231F20" font-family="'ArialMT'" font-size="5.6693">_</tspan><tspan x="21.663" y="0" fill="#231F20" font-family="'CMR10'" font-size="7.0866">flow.m</tspan></text>
	<path fill="none" stroke="#231F20" stroke-width="0.5669" stroke-miterlimit="10" d="M-0.344,41.061
		c0,2.877-2.538,5.208-5.669,5.208h-57.974c-3.131,0-5.669-2.332-5.669-5.208V25.127c0-2.877,2.538-5.208,5.669-5.208h57.974
		c3.131,0,5.669,2.332,5.669,5.208V41.061z"/>
</g>
<g>
	<text transform="matrix(1 0 0 1 -47.6921 77.3994)" fill="#231F20" font-family="'CMR10'" font-size="8.5039">DATA</text>
	<path fill="#E6E7E8" d="M-4.884,93.986h-60.455l-3.3-2.019l-1.017-2.167v-7.4c0,0,43.306-0.166,69.313,0v7.684
		c0,0-0.572,0.816-1.214,1.744C-2.159,92.697-4.884,93.986-4.884,93.986z"/>
	<path fill="#FFFFFF" stroke="#231F20" stroke-width="0.5669" stroke-miterlimit="10" d="M-69.656,82.389h69.313H-69.656z"/>
	<text transform="matrix(1 0 0 1 -56.3376 90.6416)" fill="#231F20" font-family="'CMR10'" font-size="7.0866">mat-file name</text>
	<path fill="none" stroke="#231F20" stroke-width="0.5669" stroke-miterlimit="10" d="M-0.344,88.778
		c0,2.877-2.538,5.208-5.669,5.208h-57.974c-3.131,0-5.669-2.331-5.669-5.208V72.845c0-2.877,2.538-5.208,5.669-5.208h57.974
		c3.131,0,5.669,2.331,5.669,5.208V88.778z"/>
</g>
</svg>
