<?xml version="1.0" encoding="utf-8"?>
<!-- Generator: Adobe Illustrator 16.0.0, SVG Export Plug-In . SVG Version: 6.00 Build 0)  -->
<!DOCTYPE svg PUBLIC "-//W3C//DTD SVG 1.1//EN" "http://www.w3.org/Graphics/SVG/1.1/DTD/svg11.dtd">
<svg version="1.1" id="Layer_1" xmlns="http://www.w3.org/2000/svg" xmlns:xlink="http://www.w3.org/1999/xlink" x="0px" y="0px"
	 width="511px" height="155px" viewBox="0 0 511 155" enable-background="new 0 0 511 155" xml:space="preserve">
<g>
	<path fill="none" stroke="#231F20" stroke-width="0.5669" stroke-miterlimit="10" d="M495.318,26.634
		c0,4.677-3.644,7.334-8.097,5.905l-5.023-1.611c-4.451-1.429-11.818-1.718-16.372-0.642c0,0-21.697,5.132-28.879,5.135
		c-6.877,0.003-10.612-0.433-10.612-0.433c-4.646-0.542-8.446-4.812-8.446-9.489v-4.715c0-4.677,3.827-8.504,8.504-8.504h60.424
		c4.677,0,8.504,3.827,8.504,8.504L495.318,26.634L495.318,26.634z"/>
</g>
<g>
	<path fill="#F1F1F2" d="M484.179,104.607c0.143,3.881-1.081,8.598-1.081,8.598c-0.392,1.51-1.987,2.742-3.547,2.742h-46.676
		c-1.562,0-3.651-0.979-4.649-2.178l-4.398-5.281c-0.998-1.199-1.139-3.26-0.311-4.58l4.451-7.1
		c0.828-1.319,2.781-2.399,4.341-2.399h45.541c1.562,0,3.463,1.108,4.229,2.467C482.079,96.875,484.021,100.313,484.179,104.607z"/>
	<path fill="none" stroke="#231F20" stroke-width="0.5669" stroke-miterlimit="10" d="M484.179,104.607
		c0.143,3.881-1.081,8.598-1.081,8.598c-0.392,1.51-1.987,2.742-3.547,2.742h-46.676c-1.562,0-3.651-0.979-4.649-2.178l-4.398-5.281
		c-0.998-1.199-1.139-3.26-0.311-4.58l4.451-7.1c0.828-1.319,2.781-2.399,4.341-2.399h45.541c1.562,0,3.463,1.108,4.229,2.467
		C482.079,96.875,484.021,100.313,484.179,104.607z"/>
</g>
<text transform="matrix(1 0 0 1 223.2307 80.9922)" fill="#231F20" font-family="'CMR10'" font-size="8.5039">AC Power Flow</text>
<g>
	<line fill="none" x1="85.665" y1="106.203" x2="102.665" y2="106.203"/>
	<g>
		
			<line fill="none" stroke="#231F20" stroke-width="0.5669" stroke-miterlimit="10" x1="85.665" y1="106.203" x2="99.958" y2="106.203"/>
		<g>
			<polygon fill="#231F20" points="98.684,107.883 99.397,106.203 98.684,104.523 102.665,106.203 			"/>
		</g>
	</g>
</g>
<path fill="#E6E7E8" d="M182.261,115.705c-0.653,0.73-2.599,1.439-2.599,1.439h-18.207V95.41c0,0,10.385-0.354,17.761,0.025
	c1.019,0.052,2.334,1.422,3.099,1.599c0.416,0.097,1.306,0.884,1.58,2.903c0.431,3.185,0.132,7.816,0.146,10.25
	c0.011,1.91,0.027,1.838-0.512,2.895C183.121,113.875,183.205,114.646,182.261,115.705z"/>
<line fill="none" stroke="#231F20" stroke-width="0.5669" stroke-miterlimit="10" x1="161.455" y1="106.279" x2="183.753" y2="106.279"/>
<text transform="matrix(1 0 0 1 168.1135 102.918)" fill="#231F20" font-family="'CMR10'" font-size="7.0866">ac</text>
<text transform="matrix(1 0 0 1 168.1135 113.793)" fill="#231F20" font-family="'CMR10'" font-size="7.0866">dc</text>
<path fill="#FFFFFF" stroke="#231F20" stroke-width="0.5669" stroke-miterlimit="10" d="M161.618,95.41v21.736V95.41z"/>
<text transform="matrix(1 0 0 1 114.0437 109.0723)" fill="#231F20" font-family="'CMR10'" font-size="8.5039">METHOD</text>
<path fill="none" stroke="#231F20" stroke-width="0.5669" stroke-miterlimit="10" d="M183.907,111.477
	c0,3.131-2.338,5.67-5.223,5.67h-69.283c-2.885,0-5.223-2.539-5.223-5.67v-10.395c0-3.131,2.338-5.669,5.223-5.669h69.284
	c2.885,0,5.223,2.538,5.223,5.669L183.907,111.477L183.907,111.477z"/>
<path fill="none" stroke="#231F20" stroke-width="0.5669" stroke-miterlimit="10" d="M292.973,83.7c0,3.131-2.338,5.67-5.223,5.67
	h-69.283c-2.885,0-5.225-2.539-5.225-5.67V73.306c0-3.131,2.338-5.669,5.225-5.669h69.283c2.885,0,5.223,2.539,5.223,5.669V83.7
	L292.973,83.7z"/>
<text transform="matrix(1 0 0 1 223.176 136.3652)" fill="#231F20" font-family="'CMR10'" font-size="8.5039">DC Power Flow</text>
<path fill="none" stroke="#231F20" stroke-width="0.5669" stroke-miterlimit="10" d="M292.975,139.074
	c0,3.131-2.338,5.67-5.223,5.67h-69.284c-2.885,0-5.225-2.539-5.225-5.67V128.68c0-3.131,2.34-5.67,5.225-5.67h69.284
	c2.885,0,5.223,2.539,5.223,5.67V139.074L292.975,139.074z"/>
<g>
	<g>
		<path fill="none" stroke="#231F20" stroke-width="0.5669" stroke-miterlimit="10" d="M209.385,78.545h-6.181
			c-3.116,0-5.669,2.553-5.669,5.67v12.09c0,3.119-2.551,5.67-5.669,5.67h-6.316"/>
		<g>
			<polygon fill="#231F20" points="208.111,76.866 208.824,78.545 208.111,80.225 212.093,78.545 			"/>
		</g>
	</g>
</g>
<g>
	<g>
		<path fill="none" stroke="#231F20" stroke-width="0.5669" stroke-miterlimit="10" d="M209.385,134.031h-6.181
			c-3.116,0-5.669-2.551-5.669-5.67v-12.09c0-3.117-2.551-5.668-5.669-5.668h-6.316"/>
		<g>
			<polygon fill="#231F20" points="208.111,132.352 208.824,134.031 208.111,135.711 212.093,134.031 			"/>
		</g>
	</g>
</g>
<g>
	<g>
		<path fill="none" stroke="#231F20" stroke-width="0.5669" stroke-miterlimit="10" d="M317.854,101.083h-6.18
			c-3.117,0-5.668-2.552-5.668-5.669v-12.09c0-3.119-2.553-5.67-5.67-5.67h-6.316"/>
		<g>
			<polygon fill="#231F20" points="316.58,99.404 317.295,101.083 316.58,102.764 320.563,101.083 			"/>
		</g>
	</g>
</g>
<g>
	<g>
		<path fill="none" stroke="#231F20" stroke-width="0.5669" stroke-miterlimit="10" d="M317.854,111.98h-6.18
			c-3.117,0-5.668,2.553-5.668,5.67v12.09c0,3.119-2.553,5.67-5.67,5.67h-6.316"/>
		<g>
			<polygon fill="#231F20" points="316.58,110.301 317.295,111.98 316.58,113.66 320.563,111.98 			"/>
		</g>
	</g>
</g>
<text transform="matrix(1 0 0 1 442.9094 107.2715)" fill="#231F20" font-family="'CMR10'" font-size="8.5039">Display</text>
<text transform="matrix(1 0 0 1 438.384 66.3423)" fill="#231F20" font-family="'CMR10'" font-size="8.5039">EXPORT</text>
<path fill="none" stroke="#231F20" stroke-width="0.5669" stroke-miterlimit="10" d="M496.716,68.464
	c0,3.131-2.338,5.669-5.225,5.669H422.21c-2.887,0-5.225-2.538-5.225-5.669V58.07c0-3.131,2.338-5.669,5.225-5.669h69.281
	c2.887,0,5.225,2.539,5.225,5.669V68.464z"/>
<g>
	<line fill="none" x1="456.525" y1="92.508" x2="456.525" y2="75.507"/>
	<g>
		
			<line fill="none" stroke="#231F20" stroke-width="0.5669" stroke-miterlimit="10" x1="456.525" y1="92.508" x2="456.525" y2="78.215"/>
		<g>
			<polygon fill="#231F20" points="458.204,79.489 456.525,78.775 454.845,79.489 456.525,75.507 			"/>
		</g>
	</g>
</g>
<text transform="matrix(1 0 0 1 437.4163 24.2446)" fill="#231F20" font-family="'CMR10'" font-size="8.5039">Save Data</text>
<g>
	<g>
		<path fill="none" stroke="#231F20" stroke-width="0.5669" stroke-miterlimit="10" d="M233.825,63.394v-6.179
			c0-3.118-2.551-5.669-5.669-5.669l-12.09,0.001c-3.118,0-5.669-2.551-5.669-5.669V39.56"/>
		<g>
			<polygon fill="#231F20" points="235.506,62.12 233.825,62.834 232.146,62.12 233.825,66.101 			"/>
		</g>
	</g>
</g>
<g>
	<g>
		<path fill="none" stroke="#231F20" stroke-width="0.5669" stroke-miterlimit="10" d="M269.973,63.394v-6.179
			c0-3.118,2.551-5.669,5.668-5.669l12.061,0.001c3.119,0,5.67-2.551,5.67-5.669V39.56"/>
		<g>
			<polygon fill="#231F20" points="271.653,62.12 269.973,62.834 268.293,62.12 269.973,66.101 			"/>
		</g>
	</g>
</g>
<g>
	<line fill="none" x1="49.508" y1="73.058" x2="49.508" y2="90.059"/>
	<g>
		
			<line fill="none" stroke="#231F20" stroke-width="0.5669" stroke-miterlimit="10" x1="49.508" y1="73.058" x2="49.508" y2="87.352"/>
		<g>
			<polygon fill="#231F20" points="47.827,86.077 49.508,86.791 51.187,86.077 49.508,90.059 			"/>
		</g>
	</g>
</g>
<g>
	<g>
		<path fill="none" stroke="#231F20" stroke-width="0.5669" stroke-miterlimit="10" d="M456.919,36.971c0,0.61,0,1.291,0,2.007
			c0,2.593,2.551,4.714,5.669,4.714l16.466-0.001c3.118,0,5.669,1.747,5.669,3.882c0,2.135,0,3.882,0,3.882"/>
		<g>
			<polygon fill="#231F20" points="455.238,38.246 456.919,37.532 458.599,38.246 456.919,34.265 			"/>
		</g>
	</g>
</g>
<g>
	<path fill="#E6E7E8" d="M197.184,27.257h55.978v10.917c0,0-32.536,0.09-50.166-0.178c-6.357-0.097-5.969-5.198-6.043-7.084
		C196.869,28.799,197.184,27.257,197.184,27.257z"/>
	<path fill="#E6E7E8" d="M308.99,27.257h-55.882v10.917c0,0,32.481,0.09,50.079-0.178c6.35-0.097,5.959-5.198,6.033-7.084
		C309.303,28.799,308.99,27.257,308.99,27.257z"/>
	<path fill="#FFFFFF" stroke="#231F20" stroke-width="0.5669" stroke-miterlimit="10" d="M253.222,27.26v11.004V27.26z"/>
	
		<line fill="none" stroke="#231F20" stroke-width="0.5669" stroke-miterlimit="10" x1="197.161" y1="27.26" x2="309.281" y2="27.26"/>
	<text transform="matrix(1 0 0 1 240.5222 20.3462)" fill="#231F20" font-family="'CMR10'" font-size="8.5039">LIMIT</text>
	<text transform="matrix(1 0 0 1 270.054 34.8179)" fill="#231F20" font-family="'CMR10'" font-size="7.0866">voltage</text>
	<path fill="none" stroke="#231F20" stroke-width="0.5669" stroke-miterlimit="10" d="M309.281,32.482
		c0,3.132-2.537,5.67-5.668,5.67H202.83c-3.131,0-5.669-2.538-5.669-5.67V14.093c0-3.132,2.538-5.67,5.669-5.67h100.783
		c3.131,0,5.668,2.538,5.668,5.67V32.482L309.281,32.482z"/>
	<text transform="matrix(1 0 0 1 212.9387 34.8179)" fill="#231F20" font-family="'CMR10'" font-size="7.0866">reactive</text>
</g>
<path fill="#E6E7E8" d="M400.301,115.705c-0.68,0.73-2.707,1.439-2.707,1.439h-18.988V95.41c0,0,10.827-0.354,18.521,0.025
	c1.062,0.052,2.434,1.422,3.229,1.599c0.437,0.097,1.363,0.884,1.648,2.903c0.45,3.185,0.139,7.816,0.149,10.25
	c0.013,1.91,0.029,1.838-0.53,2.895C401.198,113.875,401.287,114.646,400.301,115.705z"/>
<line fill="none" stroke="#231F20" stroke-width="0.5669" stroke-miterlimit="10" x1="378.608" y1="106.279" x2="401.874" y2="106.279"/>
<text transform="matrix(1 0 0 1 382.7629 102.918)" fill="#231F20" font-family="'CMR10'" font-size="7.0866">main</text>
<text transform="matrix(1 0 0 1 382.7629 113.793)" fill="#231F20" font-family="'CMR10'" font-size="7.0866">flow</text>
<path fill="#FFFFFF" stroke="#231F20" stroke-width="0.5669" stroke-miterlimit="10" d="M378.608,95.41v21.736V95.41z"/>
<text transform="matrix(1 0 0 1 331.0061 109.0723)" fill="#231F20" font-family="'CMR10'" font-size="8.5039">DISPLAY</text>
<path fill="none" stroke="#231F20" stroke-width="0.5669" stroke-miterlimit="10" d="M402.028,111.477
	c0,3.131-2.338,5.67-5.223,5.67h-69.271c-2.885,0-5.223-2.539-5.223-5.67v-10.395c0-3.131,2.338-5.669,5.223-5.669h69.271
	c2.885,0,5.223,2.538,5.223,5.669V111.477z"/>
<g>
	<line fill="none" x1="403.664" y1="106.203" x2="420.664" y2="106.203"/>
	<g>
		
			<line fill="none" stroke="#231F20" stroke-width="0.5669" stroke-miterlimit="10" x1="403.664" y1="106.203" x2="417.956" y2="106.203"/>
		<g>
			<polygon fill="#231F20" points="416.683,107.883 417.396,106.203 416.683,104.523 420.664,106.203 			"/>
		</g>
	</g>
</g>
<g>
	<path fill="#BE3629" d="M79.907,45.31l-61.306,0.284c0,0-2.138,0.857-2.535,1.525c-0.831,1.399-1.215,2.884-1.215,2.884v9.905
		c0,0,43.306,0.209,69.313,0v-6.107c0,0-0.007-4.45-0.646-5.619C82.916,47.087,79.907,45.31,79.907,45.31z"/>
	<path fill="#E6E7E8" d="M79.624,71.661H19.169l-3.302-2.019l-1.017-2.167v-7.4c0,0,43.306-0.166,69.313,0v7.684
		c0,0-0.571,0.815-1.215,1.743C82.349,70.371,79.624,71.661,79.624,71.661z"/>
	<path fill="#FFFFFF" stroke="#231F20" stroke-width="0.5669" stroke-miterlimit="10" d="M14.852,60.063h69.313H14.852z"/>
	<text transform="matrix(1 0 0 1 27.3015 55.3638)" fill="#FFFFFF" font-family="'CMR10'" font-size="8.5039">Power Flow</text>
	<text transform="matrix(1 0 0 1 28.344 68.3149)" fill="#231F20" font-family="'CMR10'" font-size="7.0866">power</text>
	<text transform="matrix(1 0 0 1 46.8547 68.3149)" fill="#231F20" font-family="'ArialMT'" font-size="5.6693">_</text>
	<text transform="matrix(1 0 0 1 50.0071 68.3149)" fill="#231F20" font-family="'CMR10'" font-size="7.0866">flow.m</text>
	<path fill="none" stroke="#231F20" stroke-width="0.5669" stroke-miterlimit="10" d="M84.163,66.452
		c0,2.877-2.536,5.208-5.669,5.208H20.521c-3.131,0-5.669-2.332-5.669-5.208V50.518c0-2.877,2.538-5.208,5.669-5.208h57.974
		c3.133,0,5.669,2.332,5.669,5.208V66.452z"/>
</g>
<g>
	<text transform="matrix(1 0 0 1 36.8093 102.791)" fill="#231F20" font-family="'CMR10'" font-size="8.5039">DATA</text>
	<path fill="#E6E7E8" d="M79.624,119.377H19.169l-3.302-2.02l-1.017-2.168v-7.398c0,0,43.306-0.166,69.313,0v7.684
		c0,0-0.571,0.816-1.215,1.744C82.349,118.088,79.624,119.377,79.624,119.377z"/>
	<path fill="#FFFFFF" stroke="#231F20" stroke-width="0.5669" stroke-miterlimit="10" d="M14.852,107.779h69.313H14.852z"/>
	<text transform="matrix(1 0 0 1 28.1638 116.0332)" fill="#231F20" font-family="'CMR10'" font-size="7.0866">mat-file name</text>
	<path fill="none" stroke="#231F20" stroke-width="0.5669" stroke-miterlimit="10" d="M84.163,114.168
		c0,2.879-2.536,5.209-5.669,5.209H20.521c-3.131,0-5.669-2.33-5.669-5.209V98.236c0-2.877,2.538-5.208,5.669-5.208h57.974
		c3.133,0,5.669,2.331,5.669,5.208V114.168z"/>
</g>
</svg>
