<?xml version="1.0" encoding="utf-8"?>
<!-- Generator: Adobe Illustrator 16.0.0, SVG Export Plug-In . SVG Version: 6.00 Build 0)  -->
<!DOCTYPE svg PUBLIC "-//W3C//DTD SVG 1.1//EN" "http://www.w3.org/Graphics/SVG/1.1/DTD/svg11.dtd">
<svg version="1.1" id="Layer_1" xmlns="http://www.w3.org/2000/svg" xmlns:xlink="http://www.w3.org/1999/xlink" x="0px" y="0px"
	 width="343px" height="103px" viewBox="128.14 368.445 343 103" enable-background="new 128.14 368.445 343 103"
	 xml:space="preserve">
<path fill="#E6E7E8" d="M255.188,389.117h17.554v6.878c0,0-9.582,0.425-14.929-0.112c-1.991-0.2-2.674-3.275-2.696-4.463
	C255.089,390.089,255.188,389.117,255.188,389.117z"/>
<g>
	<path fill="none" stroke="#000000" stroke-width="0.3572" stroke-miterlimit="10" d="M452.913,388.725
		c0,2.947-2.296,4.621-5.102,3.72l-3.163-1.015c-2.806-0.9-7.447-1.083-10.314-0.404c0,0-13.671,3.233-18.193,3.235
		c-4.332,0.002-6.688-0.272-6.688-0.272c-2.927-0.342-5.32-3.032-5.32-5.979v-2.97c0-2.947,2.411-5.357,5.356-5.357h38.068
		c2.946,0,5.356,2.411,5.356,5.357V388.725z"/>
</g>
<g>
	<path fill="#F1F2F2" d="M445.896,437.847c0.089,2.445-0.682,5.416-0.682,5.416c-0.246,0.951-1.252,1.73-2.234,1.73h-29.404
		c-0.981,0-2.301-0.617-2.93-1.373l-2.772-3.326c-0.629-0.756-0.717-2.053-0.194-2.885l2.806-4.475
		c0.521-0.832,1.752-1.514,2.734-1.514h28.69c0.982,0,2.182,0.701,2.664,1.555C444.573,432.976,445.795,435.142,445.896,437.847z"/>
	<path fill="none" stroke="#000000" stroke-width="0.3572" stroke-miterlimit="10" d="M445.896,437.847
		c0.089,2.445-0.682,5.416-0.682,5.416c-0.246,0.951-1.252,1.73-2.234,1.73h-29.404c-0.981,0-2.301-0.617-2.93-1.373l-2.772-3.326
		c-0.629-0.756-0.717-2.053-0.194-2.885l2.806-4.475c0.521-0.832,1.752-1.514,2.734-1.514h28.69c0.982,0,2.182,0.701,2.664,1.555
		C444.573,432.976,445.795,435.142,445.896,437.847z"/>
</g>
<text transform="matrix(1 0 0 1 271.6819 422.9702)" font-family="'CMR10'" font-size="5.3575">AC Power Flow</text>
<path fill="#E6E7E8" d="M388.445,445.587h-13.869v6.773c0,0,8.132,0.994,12.359-0.303c1.539-0.471,1.548-2.846,1.566-4.078
	C388.523,446.597,388.445,445.587,388.445,445.587z"/>
<path fill="#E6E7E8" d="M388.475,431.953h-13.868v-6.773c0,0,8.167-0.748,12.36,0.658c0.936,0.316,1.547,2.488,1.565,3.723
	C388.554,430.943,388.475,431.953,388.475,431.953z"/>
<path fill="none" stroke="#000000" stroke-width="0.3572" stroke-miterlimit="10" d="M388.475,448.988
	c0,1.973-1.598,3.572-3.57,3.572h-47.383c-1.974,0-3.572-1.6-3.572-3.572v-20.236c0-1.973,1.6-3.572,3.572-3.572h47.383
	c1.974,0,3.57,1.602,3.57,3.572V448.988z"/>
<path fill="#FFFFFF" stroke="#000000" stroke-width="0.3572" stroke-miterlimit="10" d="M374.606,425.179v27.381V425.179z"/>
<line fill="none" stroke="#000000" stroke-width="0.3572" stroke-miterlimit="10" x1="333.948" y1="438.671" x2="388.475" y2="438.671"/>
<line fill="none" stroke="#000000" stroke-width="0.3572" stroke-miterlimit="10" x1="374.606" y1="431.953" x2="388.475" y2="431.953"/>
<line fill="none" stroke="#000000" stroke-width="0.3572" stroke-miterlimit="10" x1="374.606" y1="445.392" x2="388.475" y2="445.392"/>
<text transform="matrix(1 0 0 1 340.6965 447.7104)" font-family="'CMR10'" font-size="5.3575">flow.branch</text>
<text transform="matrix(1 0 0 1 340.6965 433.5259)" font-family="'CMR10'" font-size="5.3575">flow.bus</text>
<text transform="matrix(1 0 0 1 379.5442 430.3462)" font-family="'CMR10'" font-size="5.3575">1</text>
<text transform="matrix(1 0 0 1 379.5442 437.2104)" font-family="'CMR10'" font-size="5.3575">0</text>
<text transform="matrix(1 0 0 1 379.5442 443.8901)" font-family="'CMR10'" font-size="5.3575">0</text>
<text transform="matrix(1 0 0 1 379.5442 450.7144)" font-family="'CMR10'" font-size="5.3575">1</text>
<text transform="matrix(1 0 0 1 152.0417 406.4624)" font-family="'CMR10'" font-size="5.3575">flow.grid</text>
<g>
	<path fill="#BE362A" d="M181.383,430.552l-38.623,0.18c0,0-1.347,0.541-1.597,0.961c-0.523,0.883-0.767,1.816-0.767,1.816v6.24
		c0,0,27.282,0.131,43.667,0v-3.848c0,0-0.003-2.805-0.406-3.539C183.278,431.671,181.383,430.552,181.383,430.552z"/>
	<path fill="#E6E7E8" d="M181.204,447.152h-38.086l-2.079-1.271l-0.642-1.365v-4.66c0,0,27.282-0.105,43.667,0v4.842
		c0,0-0.359,0.514-0.765,1.098C182.92,446.341,181.204,447.152,181.204,447.152z"/>
	<path fill="#FFFFFF" stroke="#000000" stroke-width="0.3572" stroke-miterlimit="10" d="M140.398,439.847h43.667H140.398z"/>
	<text transform="matrix(1 0 0 1 148.2463 436.8862)" fill="#FFFFFF" font-family="'CMR10'" font-size="5.3575">Power Flow</text>
	<text transform="matrix(1 0 0 1 148.9031 445.0464)" font-family="'CMR10'" font-size="4.4646">power</text>
	<text transform="matrix(1 0 0 1 160.5642 445.0464)" font-family="'ArialMT'" font-size="3.5717">_</text>
	<text transform="matrix(1 0 0 1 162.55 445.0464)" font-family="'CMR10'" font-size="4.4646">flow.m</text>
	<path fill="none" stroke="#000000" stroke-width="0.3572" stroke-miterlimit="10" d="M184.064,443.873
		c0,1.811-1.599,3.279-3.571,3.279h-36.523c-1.973,0-3.571-1.469-3.571-3.279v-10.039c0-1.813,1.6-3.281,3.571-3.281h36.523
		c1.973,0,3.571,1.471,3.571,3.281V443.873z"/>
</g>
<g>
	<line fill="none" x1="185.01" y1="438.853" x2="195.721" y2="438.853"/>
	<g>
		
			<line fill="none" stroke="#000000" stroke-width="0.3572" stroke-miterlimit="10" x1="185.01" y1="438.853" x2="194.015" y2="438.853"/>
		<g>
			<polygon points="193.212,439.91 193.662,438.853 193.212,437.794 195.721,438.853 			"/>
		</g>
	</g>
</g>
<path fill="#E6E7E8" d="M246.223,444.839c-0.412,0.461-1.993,0.908-1.993,0.908h-11.472v-13.695c0,0,7.256-0.223,11.904,0.018
	c0.642,0.031,0.755,0.539,1.236,0.65c0.263,0.061,0.823,0.914,0.996,2.188c0.271,2.006,0.083,4.924,0.091,6.457
	c0.007,1.203,0.196,1.336-0.143,2.002C246.586,443.865,246.818,444.171,246.223,444.839z"/>
<line fill="none" stroke="#000000" stroke-width="0.3572" stroke-miterlimit="10" x1="232.758" y1="439.089" x2="246.806" y2="439.089"/>
<text transform="matrix(1 0 0 1 238.2292 437.4829)" font-family="'CMR10'" font-size="5.3575">1</text>
<text transform="matrix(1 0 0 1 238.2292 444.3491)" font-family="'CMR10'" font-size="5.3575">2</text>
<path fill="#FFFFFF" stroke="#000000" stroke-width="0.3572" stroke-miterlimit="10" d="M232.861,432.052v13.695V432.052z"/>
<text transform="matrix(1 0 0 1 201.1877 440.6606)" font-family="'CMR10'" font-size="5.3575">flow.module</text>
<path fill="none" stroke="#000000" stroke-width="0.3572" stroke-miterlimit="10" d="M246.903,442.175
	c0,1.975-1.473,3.572-3.291,3.572h-43.647c-1.818,0-3.29-1.6-3.29-3.572v-6.549c0-1.973,1.472-3.572,3.29-3.572h43.647
	c1.818,0,3.291,1.602,3.291,3.572V442.175z"/>
<path fill="none" stroke="#000000" stroke-width="0.3572" stroke-miterlimit="10" d="M315.614,424.675
	c0,1.975-1.474,3.572-3.29,3.572h-43.648c-1.817,0-3.29-1.6-3.29-3.572v-6.547c0-1.973,1.473-3.572,3.29-3.572h43.648
	c1.816,0,3.29,1.6,3.29,3.572V424.675z"/>
<text transform="matrix(1 0 0 1 271.6467 457.855)" font-family="'CMR10'" font-size="5.3575">DC Power Flow</text>
<path fill="none" stroke="#000000" stroke-width="0.3572" stroke-miterlimit="10" d="M315.615,459.562
	c0,1.975-1.473,3.572-3.291,3.572h-43.647c-1.817,0-3.29-1.6-3.29-3.572v-6.549c0-1.973,1.473-3.57,3.29-3.57h43.647
	c1.818,0,3.291,1.6,3.291,3.57V459.562z"/>
<g>
	<g>
		<path fill="none" stroke="#000000" stroke-width="0.3572" stroke-miterlimit="10" d="M262.954,421.429h-3.894
			c-1.964,0-3.572,1.608-3.572,3.571v7.619c0,1.963-1.606,3.57-3.571,3.57h-3.98"/>
		<g>
			<polygon points="262.151,420.371 262.601,421.429 262.151,422.486 264.66,421.429 			"/>
		</g>
	</g>
</g>
<g>
	<g>
		<path fill="none" stroke="#000000" stroke-width="0.3572" stroke-miterlimit="10" d="M262.954,456.384h-3.894
			c-1.964,0-3.572-1.605-3.572-3.57v-7.617c0-1.963-1.606-3.57-3.571-3.57h-3.98"/>
		<g>
			<polygon points="262.151,455.326 262.601,456.384 262.151,457.443 264.66,456.384 			"/>
		</g>
	</g>
</g>
<g>
	<g>
		<path fill="none" stroke="#000000" stroke-width="0.3572" stroke-miterlimit="10" d="M331.289,435.628h-3.894
			c-1.964,0-3.571-1.607-3.571-3.572v-7.615c0-1.967-1.606-3.573-3.57-3.573h-3.98"/>
		<g>
			<polygon points="330.488,434.57 330.938,435.628 330.488,436.685 332.995,435.628 			"/>
		</g>
	</g>
</g>
<g>
	<g>
		<path fill="none" stroke="#000000" stroke-width="0.3572" stroke-miterlimit="10" d="M331.289,442.494h-3.894
			c-1.964,0-3.571,1.605-3.571,3.57v7.617c0,1.965-1.606,3.572-3.57,3.572h-3.98"/>
		<g>
			<polygon points="330.488,441.435 330.938,442.494 330.488,443.55 332.995,442.494 			"/>
		</g>
	</g>
</g>
<g>
	<g>
		<path fill="none" stroke="#000000" stroke-width="0.3572" stroke-miterlimit="10" d="M404.445,437.322h-3.894
			c-1.964,0-3.571-1.607-3.571-3.572v-0.82c0-1.965-1.607-3.57-3.571-3.57h-3.979"/>
		<g>
			<polygon points="403.644,436.263 404.093,437.322 403.644,438.378 406.151,437.322 			"/>
		</g>
	</g>
</g>
<g>
	<g>
		<path fill="none" stroke="#000000" stroke-width="0.3572" stroke-miterlimit="10" d="M404.445,440.437h-3.894
			c-1.964,0-3.571,1.607-3.571,3.572v0.822c0,1.963-1.607,3.57-3.571,3.57h-3.979"/>
		<g>
			<polygon points="403.644,439.378 404.093,440.437 403.644,441.496 406.151,440.437 			"/>
		</g>
	</g>
</g>
<text transform="matrix(1 0 0 1 419.8997 439.5269)" font-family="'CMR10'" font-size="5.3575">Display</text>
<path fill="#E6E7E8" d="M451.803,405.302c-0.41-0.223-0.685-0.11-0.685-0.11H439.65v6.612c0,0,7.256,0.107,11.902-0.007
	c0.641-0.017,1.761,0.106,2.239,0.052c0.265-0.029-0.18-0.808-0.008-1.423c0.271-0.968-0.248-2.291-0.242-3.032
	c0.009-0.58-0.356-0.996-0.696-1.317C452.591,405.835,452.398,405.624,451.803,405.302z"/>
<line fill="none" stroke="#000000" stroke-width="0.3572" stroke-miterlimit="10" x1="439.65" y1="411.991" x2="453.793" y2="411.991"/>
<text transform="matrix(1 0 0 1 445.1184 410.3843)" font-family="'CMR10'" font-size="5.3575">1</text>
<text transform="matrix(1 0 0 1 445.1184 417.2495)" font-family="'CMR10'" font-size="5.3575">0</text>
<path fill="#FFFFFF" stroke="#000000" stroke-width="0.3572" stroke-miterlimit="10" d="M439.752,404.955v13.694V404.955z"/>
<text transform="matrix(1 0 0 1 412.093 413.7407)" font-family="'CMR10'" font-size="5.3575">flow.save</text>
<path fill="none" stroke="#000000" stroke-width="0.3572" stroke-miterlimit="10" d="M453.793,415.077
	c0,1.973-1.473,3.572-3.289,3.572h-43.648c-1.818,0-3.29-1.6-3.29-3.572v-6.548c0-1.973,1.472-3.571,3.29-3.571h43.648
	c1.816,0,3.289,1.599,3.289,3.571V415.077z"/>
<g>
	<line fill="none" x1="428.474" y1="430.224" x2="428.474" y2="419.515"/>
	<g>
		
			<line fill="none" stroke="#000000" stroke-width="0.3572" stroke-miterlimit="10" x1="428.474" y1="430.224" x2="428.474" y2="421.22"/>
		<g>
			<polygon points="429.531,422.023 428.474,421.574 427.415,422.023 428.474,419.515 			"/>
		</g>
	</g>
</g>
<text transform="matrix(1 0 0 1 416.4407 387.2183)" font-family="'CMR10'" font-size="5.3575">Save Data</text>
<path fill="#E6E7E8" d="M325.781,389.117H308.23v6.878c0,0,10.118,0.246,15.463-0.291c1.992-0.201,2.14-3.096,2.162-4.285
	C325.881,390.089,325.781,389.117,325.781,389.117z"/>
<path fill="#FFFFFF" stroke="#000000" stroke-width="0.3572" stroke-miterlimit="10" d="M290.571,377.252v18.799V377.252z"/>
<line fill="none" stroke="#000000" stroke-width="0.3572" stroke-miterlimit="10" x1="255.253" y1="389.119" x2="325.889" y2="389.119"/>
<text transform="matrix(1 0 0 1 258.0193 384.2271)" font-family="'CMR10'" font-size="5.3575">flow.reactive</text>
<text transform="matrix(1 0 0 1 279.634 394.2495)" font-family="'CMR10'" font-size="5.3575">0</text>
<text transform="matrix(1 0 0 1 297.9124 394.2495)" font-family="'CMR10'" font-size="5.3575">0</text>
<text transform="matrix(1 0 0 1 315.0715 394.2495)" font-family="'CMR10'" font-size="5.3575">1</text>
<text transform="matrix(1 0 0 1 293.8884 384.2271)" font-family="'CMR10'" font-size="5.3575">flow.voltage</text>
<path fill="none" stroke="#000000" stroke-width="0.3572" stroke-miterlimit="10" d="M325.889,392.409c0,1.973-1.6,3.572-3.57,3.572
	h-63.493c-1.973,0-3.571-1.599-3.571-3.572v-11.585c0-1.973,1.599-3.572,3.571-3.572h63.493c1.972,0,3.57,1.599,3.57,3.572V392.409z
	"/>
<path fill="#FFFFFF" stroke="#000000" stroke-width="0.3572" stroke-miterlimit="10" d="M308.23,389.117v6.878V389.117z"/>
<path fill="#FFFFFF" stroke="#000000" stroke-width="0.3572" stroke-miterlimit="10" d="M272.741,389.117v6.934V389.117z"/>
<text transform="matrix(1 0 0 1 263.0442 394.2495)" font-family="'CMR10'" font-size="5.3575">1</text>
<g>
	<g>
		<path fill="none" stroke="#000000" stroke-width="0.3572" stroke-miterlimit="10" d="M278.352,411.884v-3.893
			c0-1.964-1.606-3.572-3.572-3.572h-7.616c-1.964,0-3.572-1.606-3.572-3.572v-3.979"/>
		<g>
			<polygon points="279.41,411.081 278.352,411.531 277.293,411.081 278.352,413.589 			"/>
		</g>
	</g>
</g>
<g>
	<g>
		<path fill="none" stroke="#000000" stroke-width="0.3572" stroke-miterlimit="10" d="M301.123,411.884v-3.893
			c0-1.964,1.606-3.572,3.57-3.572h7.601c1.964,0,3.57-1.606,3.57-3.572v-3.979"/>
		<g>
			<polygon points="302.182,411.081 301.123,411.531 300.064,411.081 301.123,413.589 			"/>
		</g>
	</g>
</g>
<g>
	<line fill="none" x1="162.231" y1="417.972" x2="162.231" y2="428.681"/>
	<g>
		
			<line fill="none" stroke="#000000" stroke-width="0.3572" stroke-miterlimit="10" x1="162.231" y1="417.972" x2="162.231" y2="426.976"/>
		<g>
			<polygon points="161.173,426.173 162.231,426.623 163.289,426.173 162.231,428.681 			"/>
		</g>
	</g>
</g>
<path fill="#E6E7E8" d="M181.204,417.091h-38.086l-2.079-1.271l-0.642-1.365v-4.662c0,0,27.282-0.104,43.667,0v4.84
	c0,0-0.359,0.515-0.765,1.099C182.92,416.279,181.204,417.091,181.204,417.091z"/>
<path fill="#FFFFFF" stroke="#000000" stroke-width="0.3572" stroke-miterlimit="10" d="M140.398,409.785h43.667H140.398z"/>
<text transform="matrix(1 0 0 1 148.7893 414.9839)" font-family="'CMR10'" font-size="4.4646">mat-file name</text>
<path fill="none" stroke="#000000" stroke-width="0.3572" stroke-miterlimit="10" d="M184.064,413.81
	c0,1.813-1.599,3.281-3.57,3.281h-36.524c-1.973,0-3.571-1.469-3.571-3.281v-10.037c0-1.813,1.6-3.281,3.571-3.281h36.524
	c1.972,0,3.57,1.469,3.57,3.281V413.81z"/>
<g>
	<g>
		<path fill="none" stroke="#000000" stroke-width="0.3572" stroke-miterlimit="10" d="M428.722,395.237c0,0.384,0,0.813,0,1.265
			c0,1.633,1.606,2.97,3.571,2.97h10.373c1.965,0,3.571,1.102,3.571,2.446s0,2.446,0,2.446"/>
		<g>
			<polygon points="427.663,396.04 428.722,395.59 429.779,396.04 428.722,393.532 			"/>
		</g>
	</g>
</g>
</svg>
