<?xml version="1.0" encoding="utf-8"?>
<!-- Generator: Adobe Illustrator 16.0.0, SVG Export Plug-In . SVG Version: 6.00 Build 0)  -->
<!DOCTYPE svg PUBLIC "-//W3C//DTD SVG 1.1//EN" "http://www.w3.org/Graphics/SVG/1.1/DTD/svg11.dtd">
<svg version="1.1" id="Layer_1" xmlns="http://www.w3.org/2000/svg" xmlns:xlink="http://www.w3.org/1999/xlink" x="0px" y="0px"
	 width="672px" height="319px" viewBox="4.73 4.13 672 319" enable-background="new 4.73 4.13 672 319" xml:space="preserve">
<path fill="#E6E7E8" d="M556.491,67.381h-22.016v10.75c0,0,5.506,0.105,11.193,0c3.022-0.057,10.807-0.084,10.807-0.084
	s0.076-4.91,0.104-6.869C556.614,68.982,556.491,67.381,556.491,67.381z"/>
<path fill="#E6E7E8" d="M556.358,89.676h-22.016v10.75c0,0,5.504,0.105,11.192,0c3.021-0.057,10.808-0.084,10.808-0.084
	s0.076-4.91,0.104-6.869C556.481,91.277,556.358,89.676,556.358,89.676z"/>
<path fill="#E6E7E8" d="M104.352,87.721h27.861v10.917c0,0-15.209,0.676-23.694-0.178c-3.161-0.318-4.245-5.198-4.282-7.084
	C104.196,89.263,104.352,87.721,104.352,87.721z"/>
<text transform="matrix(1 0 0 1 130.5212 141.4575)" font-family="'CMR10'" font-size="8.5039">AC Power Flow</text>
<text transform="matrix(1 0 0 1 38.2825 87.7515)" font-family="'CMR10'" font-size="8.5039">flow.grid</text>
<g>
	<path fill="#BE362A" d="M84.856,125.99l-61.307,0.283c0,0-2.138,0.857-2.534,1.525c-0.831,1.4-1.216,2.885-1.216,2.885v9.904
		c0,0,43.307,0.209,69.313,0v-6.106c0,0-0.005-4.45-0.646-5.618C87.865,127.767,84.856,125.99,84.856,125.99z"/>
	<path fill="#E6E7E8" d="M84.572,152.34H24.117l-3.3-2.019l-1.018-2.168v-7.399c0,0,43.307-0.166,69.313,0v7.684
		c0,0-0.572,0.815-1.214,1.743C87.297,151.051,84.572,152.34,84.572,152.34z"/>
	<path fill="#FFFFFF" stroke="#000000" stroke-width="0.5669" stroke-miterlimit="10" d="M19.8,140.743h69.313H19.8z"/>
	<text transform="matrix(1 0 0 1 32.2576 136.0435)" fill="#FFFFFF" font-family="'CMR10'" font-size="8.5039">Power Flow</text>
	<text transform="matrix(1 0 0 1 23.5486 148.9937)" font-family="'CMR10'" font-size="7.0866">power</text>
	<text transform="matrix(1 0 0 1 42.0583 148.9937)" font-family="'ArialMT'" font-size="5.6693">_</text>
	<text transform="matrix(1 0 0 1 45.2117 148.9937)" font-family="'CMR10'" font-size="7.0866">estimation.m</text>
	<path fill="none" stroke="#000000" stroke-width="0.5669" stroke-miterlimit="10" d="M89.112,147.132
		c0,2.877-2.538,5.208-5.669,5.208H25.469c-3.132,0-5.67-2.331-5.67-5.208v-15.934c0-2.877,2.538-5.209,5.67-5.209h57.974
		c3.131,0,5.669,2.332,5.669,5.209V147.132z"/>
</g>
<g>
	<line fill="none" x1="90.614" y1="139.166" x2="118.938" y2="139.166"/>
	<g>
		
			<line fill="none" stroke="#000000" stroke-width="0.5669" stroke-miterlimit="10" x1="90.614" y1="139.166" x2="116.23" y2="139.166"/>
		<g>
			<polygon points="114.956,140.845 115.67,139.166 114.956,137.486 118.938,139.166 			"/>
		</g>
	</g>
</g>
<path fill="none" stroke="#000000" stroke-width="0.5669" stroke-miterlimit="10" d="M200.267,144.164
	c0,3.132-2.338,5.67-5.224,5.67h-69.282c-2.886,0-5.224-2.538-5.224-5.67V133.77c0-3.131,2.338-5.669,5.224-5.669h69.282
	c2.886,0,5.224,2.538,5.224,5.669V144.164z"/>
<path fill="#E6E7E8" d="M216.407,87.721h-27.861v10.917c0,0,16.062,0.392,24.545-0.461c3.162-0.318,3.396-4.915,3.433-6.801
	C216.563,89.263,216.407,87.721,216.407,87.721z"/>
<path fill="#FFFFFF" stroke="#000000" stroke-width="0.5669" stroke-miterlimit="10" d="M160.515,68.888v29.84V68.888z"/>
<line fill="none" stroke="#000000" stroke-width="0.5669" stroke-miterlimit="10" x1="104.456" y1="87.724" x2="216.575" y2="87.724"/>
<text transform="matrix(1 0 0 1 108.8362 79.9614)" font-family="'CMR10'" font-size="8.5039">flow.reactive</text>
<text transform="matrix(1 0 0 1 143.1448 95.8687)" font-family="'CMR10'" font-size="8.5039">0</text>
<text transform="matrix(1 0 0 1 172.157 95.8687)" font-family="'CMR10'" font-size="8.5039">0</text>
<text transform="matrix(1 0 0 1 199.3933 95.8687)" font-family="'CMR10'" font-size="8.5039">1</text>
<text transform="matrix(1 0 0 1 165.7688 79.9614)" font-family="'CMR10'" font-size="8.5039">flow.voltage</text>
<path fill="none" stroke="#000000" stroke-width="0.5669" stroke-miterlimit="10" d="M216.575,92.947c0,3.132-2.537,5.67-5.668,5.67
	H110.125c-3.131,0-5.669-2.538-5.669-5.67V74.558c0-3.132,2.538-5.67,5.669-5.67h100.783c3.131,0,5.668,2.538,5.668,5.67
	L216.575,92.947L216.575,92.947z"/>
<path fill="#FFFFFF" stroke="#000000" stroke-width="0.5669" stroke-miterlimit="10" d="M188.546,87.721v10.917V87.721z"/>
<path fill="#FFFFFF" stroke="#000000" stroke-width="0.5669" stroke-miterlimit="10" d="M132.214,87.721v11.007V87.721z"/>
<text transform="matrix(1 0 0 1 116.8118 95.8687)" font-family="'CMR10'" font-size="8.5039">1</text>
<g>
	<g>
		<path fill="none" stroke="#000000" stroke-width="0.5669" stroke-miterlimit="10" d="M141.12,123.859v-6.18
			c0-3.118-2.551-5.669-5.669-5.669l-12.09,0.001c-3.118,0-5.669-2.551-5.669-5.669v-6.319"/>
		<g>
			<polygon points="142.8,122.584 141.12,123.298 139.44,122.584 141.12,126.566 			"/>
		</g>
	</g>
</g>
<g>
	<g>
		<path fill="none" stroke="#000000" stroke-width="0.5669" stroke-miterlimit="10" d="M177.267,123.859v-6.18
			c0-3.118,2.551-5.669,5.669-5.669l12.06,0.001c3.118,0,5.669-2.551,5.669-5.669v-6.319"/>
		<g>
			<polygon points="178.946,122.584 177.267,123.298 175.587,122.584 177.267,126.566 			"/>
		</g>
	</g>
</g>
<g>
	<line fill="none" x1="54.456" y1="106.021" x2="54.456" y2="123.021"/>
	<g>
		
			<line fill="none" stroke="#000000" stroke-width="0.5669" stroke-miterlimit="10" x1="54.456" y1="106.021" x2="54.456" y2="120.314"/>
		<g>
			<polygon points="52.776,119.04 54.456,119.753 56.136,119.04 54.456,123.021 			"/>
		</g>
	</g>
</g>
<path fill="#E6E7E8" d="M84.572,104.623H24.117l-3.3-2.019l-1.018-2.167v-7.4c0,0,43.307-0.166,69.313,0v7.684
	c0,0-0.572,0.816-1.214,1.744C87.297,103.333,84.572,104.623,84.572,104.623z"/>
<path fill="#FFFFFF" stroke="#000000" stroke-width="0.5669" stroke-miterlimit="10" d="M19.8,93.025h69.313H19.8z"/>
<text transform="matrix(1 0 0 1 33.1184 101.2769)" font-family="'CMR10'" font-size="7.0866">mat-file name</text>
<path fill="none" stroke="#000000" stroke-width="0.5669" stroke-miterlimit="10" d="M89.112,99.415
	c0,2.877-2.538,5.208-5.669,5.208H25.469c-3.132,0-5.67-2.331-5.67-5.208V83.481c0-2.877,2.538-5.208,5.67-5.208h57.974
	c3.131,0,5.669,2.331,5.669,5.208V99.415z"/>
<g>
	<path fill="#BE362A" d="M189.135,181.335l-61.306,0.226c0,0-2.138,0.688-2.535,1.888c-0.355,1.077-0.915,0.977-1.11,2.127
		c-0.263,1.527-0.104,4.18-0.104,4.18v14.062c0,0,1.949,3.521,4.195,3.718c1.233,0.108,3.907,0.166,3.907,0.166h48.726l8.588-0.242
		c0,0,2.408-1.446,3.758-3.258l0.14-7.633c0,0,0.269-9.763-0.373-11.857C192.417,182.744,189.135,181.335,189.135,181.335z"/>
	<text transform="matrix(1 0 0 1 132.1282 197.0327)" fill="#FFFFFF" font-family="'CMR10'" font-size="8.5039">Measurements</text>
	<path fill="none" stroke="#000000" stroke-width="0.5669" stroke-miterlimit="10" d="M193.391,202.492
		c0,2.877-2.538,5.209-5.669,5.209h-57.975c-3.131,0-5.669-2.332-5.669-5.209v-15.934c0-2.877,2.538-5.209,5.669-5.209h57.975
		c3.131,0,5.669,2.332,5.669,5.209V202.492z"/>
</g>
<text transform="matrix(1 0 0 1 99.5779 254.1714)" font-family="'CMR10'" font-size="8.5039">unique</text>
<text transform="matrix(1 0 0 1 99.5779 264.7856)" font-family="'CMR10'" font-size="8.5039">random</text>
<text transform="matrix(1 0 0 1 99.5784 275.105)" font-family="'CMR10'" font-size="8.5039">type</text>
<path fill="#FFFFFF" stroke="#000000" stroke-width="0.5669" stroke-miterlimit="10" d="M97.667,245.662v32.397V245.662z"/>
<text transform="matrix(1 0 0 1 42.7483 265.5659)" font-family="'CMR10'" font-size="8.5039">legvariance.</text>
<path fill="#E6E7E8" d="M154.538,278.059l-3.539-0.13l-8.16,0.13l-10.309,0.112V245.66c0,0,5.093,0.07,10.309,0.121
	c4.438,0.045,8.68-0.445,10.234,1.793c0.374,0.537,1.444,2.07,1.452,4.129c0.019,5.023,0.089,11.365,0.109,15.316
	C154.668,273.466,154.538,278.059,154.538,278.059z"/>
<path fill="#FFFFFF" stroke="#000000" stroke-width="0.5669" stroke-miterlimit="10" d="M132.53,245.693v32.366V245.693z"/>
<line fill="none" stroke="#000000" stroke-width="0.5669" stroke-miterlimit="10" x1="97.667" y1="267.392" x2="154.543" y2="267.392"/>
<line fill="none" stroke="#000000" stroke-width="0.5669" stroke-miterlimit="10" x1="97.667" y1="256.726" x2="154.543" y2="256.726"/>
<text transform="matrix(1 0 0 1 138.1213 254.1714)" font-family="'CMR10'" font-size="8.5039">v1</text>
<text transform="matrix(1 0 0 1 138.1213 265.0698)" font-family="'CMR10'" font-size="8.5039">v2</text>
<text transform="matrix(1 0 0 1 138.1213 275.6714)" font-family="'CMR10'" font-size="8.5039">v3</text>
<text transform="matrix(1 0 0 1 99.5779 286.4009)" font-family="'CMR10'" font-size="8.5039">unique</text>
<text transform="matrix(1 0 0 1 99.5779 297.0151)" font-family="'CMR10'" font-size="8.5039">random</text>
<text transform="matrix(1 0 0 1 99.5784 307.3345)" font-family="'CMR10'" font-size="8.5039">type</text>
<path fill="#FFFFFF" stroke="#000000" stroke-width="0.5669" stroke-miterlimit="10" d="M97.667,277.891v32.397V277.891z"/>
<text transform="matrix(1 0 0 1 42.7483 296.6616)" font-family="'CMR10'" font-size="8.5039">pmuvariance.</text>
<path fill="#E6E7E8" d="M153.731,307.542l-2.732,2.334l-8.16,0.412l-10.309,0.113v-32.513c0,0,5.093,0.069,10.309,0.12
	c4.438,0.045,11.699,0.05,11.699,0.05s-0.021,3.813-0.013,5.873c0.019,5.022,0.089,11.364,0.11,15.315
	C154.668,305.696,153.731,307.542,153.731,307.542z"/>
<path fill="#FFFFFF" stroke="#000000" stroke-width="0.5669" stroke-miterlimit="10" d="M132.53,277.921v32.367V277.921z"/>
<line fill="none" stroke="#000000" stroke-width="0.5669" stroke-miterlimit="10" x1="97.667" y1="299.623" x2="154.543" y2="299.623"/>
<line fill="none" stroke="#000000" stroke-width="0.5669" stroke-miterlimit="10" x1="97.667" y1="288.957" x2="154.543" y2="288.957"/>
<text transform="matrix(1 0 0 1 138.1213 286.4009)" font-family="'CMR10'" font-size="8.5039">v4</text>
<text transform="matrix(1 0 0 1 138.1213 297.2983)" font-family="'CMR10'" font-size="8.5039">v5</text>
<text transform="matrix(1 0 0 1 138.1213 307.9009)" font-family="'CMR10'" font-size="8.5039">v6</text>
<line fill="none" stroke="#000000" stroke-width="0.5669" stroke-miterlimit="10" x1="38.245" y1="278.059" x2="154.538" y2="278.059"/>
<path fill="none" stroke="#000000" stroke-width="0.5669" stroke-miterlimit="10" d="M154.538,304.333
	c0,3.131-2.538,5.668-5.669,5.668H43.914c-3.131,0-5.669-2.537-5.669-5.668v-53.006c0-3.131,2.538-5.668,5.669-5.668h104.954
	c3.131,0,5.669,2.537,5.669,5.668L154.538,304.333L154.538,304.333z"/>
<text transform="matrix(1 0 0 1 213.8025 260.1343)" font-family="'CMR10'" font-size="8.5039">redundancy</text>
<text transform="matrix(1 0 0 1 213.8025 271.3149)" font-family="'CMR10'" font-size="8.5039">device</text>
<path fill="#FFFFFF" stroke="#000000" stroke-width="0.5669" stroke-miterlimit="10" d="M210.891,251.048v54.262V251.048z"/>
<text transform="matrix(1 0 0 1 172.762 265.2915)" font-family="'CMR10'" font-size="8.5039">legset.</text>
<path fill="#E6E7E8" d="M281.662,273.987l-3.539-0.088l-8.16,0.088l-10.309,0.076v-23.017c0,0,10.227-0.035,15.442,0
	c4.437,0.029,3.919,0.455,5.475,1.961c0.374,0.361,1.07,1.854,1.078,3.24c0.019,3.381,0.089,7.648,0.109,10.309
	C281.793,270.896,281.662,273.987,281.662,273.987z"/>
<path fill="#FFFFFF" stroke="#000000" stroke-width="0.5669" stroke-miterlimit="10" d="M259.654,251.08v32.367V251.08z"/>
<line fill="none" stroke="#000000" stroke-width="0.5669" stroke-miterlimit="10" x1="165.369" y1="273.914" x2="281.668" y2="273.914"/>
<line fill="none" stroke="#000000" stroke-width="0.5669" stroke-miterlimit="10" x1="210.892" y1="262.68" x2="281.668" y2="262.68"/>
<text transform="matrix(1 0 0 1 265.8147 260.1343)" font-family="'CMR10'" font-size="8.5039">s1</text>
<text transform="matrix(1 0 0 1 265.8147 271.5991)" font-family="'CMR10'" font-size="8.5039">s2</text>
<text transform="matrix(1 0 0 1 213.8025 281.3081)" font-family="'CMR10'" font-size="8.5039">redundancy</text>
<text transform="matrix(1 0 0 1 213.8025 291.9214)" font-family="'CMR10'" font-size="8.5039">device</text>
<text transform="matrix(1 0 0 1 213.803 302.2407)" font-family="'CMR10'" font-size="8.5039">optimal</text>
<text transform="matrix(1 0 0 1 172.762 291.5679)" font-family="'CMR10'" font-size="8.5039">pmuset.</text>
<path fill="#E6E7E8" d="M280.855,302.451l-2.732,2.334l-8.16,0.412l-10.309,0.113v-32.514c0,0,5.093,0.07,10.309,0.121
	c4.438,0.045,11.699,0.049,11.699,0.049s-0.021,3.814-0.013,5.873c0.019,5.023,0.089,11.365,0.109,15.316
	C281.793,300.604,280.855,302.451,280.855,302.451z"/>
<path fill="#FFFFFF" stroke="#000000" stroke-width="0.5669" stroke-miterlimit="10" d="M259.654,272.832v32.365V272.832z"/>
<line fill="none" stroke="#000000" stroke-width="0.5669" stroke-miterlimit="10" x1="210.891" y1="294.531" x2="281.668" y2="294.531"/>
<line fill="none" stroke="#000000" stroke-width="0.5669" stroke-miterlimit="10" x1="210.891" y1="283.865" x2="281.668" y2="283.865"/>
<text transform="matrix(1 0 0 1 265.8147 281.3081)" font-family="'CMR10'" font-size="8.5039">s3</text>
<text transform="matrix(1 0 0 1 265.8147 292.2046)" font-family="'CMR10'" font-size="8.5039">s4</text>
<text transform="matrix(1 0 0 1 265.8147 302.8081)" font-family="'CMR10'" font-size="8.5039">s5</text>
<path fill="none" stroke="#000000" stroke-width="0.5669" stroke-miterlimit="10" d="M281.662,300.529
	c0,2.641-2.538,4.781-5.669,4.781H171.039c-3.131,0-5.669-2.141-5.669-4.781v-44.701c0-2.641,2.538-4.781,5.669-4.781h104.955
	c3.131,0,5.669,2.142,5.669,4.781L281.662,300.529L281.662,300.529z"/>
<g>
	<g>
		<path fill="none" stroke="#000000" stroke-width="0.5669" stroke-miterlimit="10" d="M170.544,212.183v10.559
			c0,3.117,2.552,5.668,5.669,5.668l42.412-0.004c3.118,0,5.669,2.551,5.669,5.67v15.022"/>
		<g>
			<polygon points="168.864,213.458 170.544,212.744 172.224,213.458 170.544,209.476 			"/>
		</g>
	</g>
</g>
<g>
	<g>
		<path fill="none" stroke="#000000" stroke-width="0.5669" stroke-miterlimit="10" d="M150.908,212.183v10.559
			c0,3.117-2.551,5.668-5.669,5.668l-42.412-0.004c-3.118,0-5.669,2.551-5.669,5.67V244"/>
		<g>
			<polygon points="149.228,213.458 150.908,212.744 152.587,213.458 150.908,209.476 			"/>
		</g>
	</g>
</g>
<path fill="#E6E7E8" d="M556.399,165.678h-22.014v11.316c0,0,5.063,0.17,10.485,0.178c8.423,0.017,7.203-0.668,9.699-1.506
	c1.484-0.5,1.89-4.231,1.92-6.19C556.524,167.279,556.399,165.678,556.399,165.678z"/>
<path fill="#BE362A" d="M304.263,181.561l-73.446,0.226c0,0-2.815,0.782-3.29,1.979c-0.995,2.513-1.203,1.966-1.203,1.966v17.391
	l1.416,2.838c0,0,0.641,1.996,5.037,1.951c13.546-0.138,71.628,0,71.628,0l3.066-1.463c0,0,1.492-2.179,1.871-4.205l0.02-5.453
	c0,0,0.099-10.1-0.67-12.193C307.972,182.63,304.263,181.561,304.263,181.561z"/>
<text transform="matrix(1 0 0 1 236.3796 196.7124)" fill="#FFFFFF" font-family="'CMR10'" font-size="8.5039">State Estimation</text>
<path fill="none" stroke="#000000" stroke-width="0.5669" stroke-miterlimit="10" d="M309.344,202.244
	c0,3.131-2.537,5.668-5.671,5.668h-71.659c-3.133,0-5.671-2.537-5.671-5.668v-15.013c0-3.133,2.538-5.67,5.671-5.67h71.659
	c3.134,0,5.671,2.537,5.671,5.67V202.244z"/>
<path fill="#E6E7E8" d="M312.989,147.596c-0.653,1.1-3.449,2.162-3.449,2.162h-17.641v-32.643c0,0,10.666-0.531,18.043,0.039
	c1.021,0.078,2.051,1.283,2.814,1.549c0.416,0.145,1.293,2.166,1.297,5.213c0.008,6.373,0.133,11.738,0.145,15.393
	c0.01,2.869-0.272,2.869-0.227,4.771C314.003,145.34,313.932,146.004,312.989,147.596z"/>
<line fill="none" stroke="#000000" stroke-width="0.5669" stroke-miterlimit="10" x1="291.899" y1="139.176" x2="314.198" y2="139.176"/>
<text transform="matrix(1 0 0 1 300.5754 136.6157)" font-family="'CMR10'" font-size="8.5039">2</text>
<text transform="matrix(1 0 0 1 300.5754 147.5132)" font-family="'CMR10'" font-size="8.5039">3</text>
<path fill="#FFFFFF" stroke="#000000" stroke-width="0.5669" stroke-miterlimit="10" d="M292.063,116.877v32.881V116.877z"/>
<text transform="matrix(1 0 0 1 227.0505 136.5581)" font-family="'CMR10'" font-size="8.5039">estimate.module</text>
<line fill="none" stroke="#000000" stroke-width="0.5669" stroke-miterlimit="10" x1="292.047" y1="128.01" x2="314.061" y2="128.01"/>
<text transform="matrix(1 0 0 1 300.5754 125.2769)" font-family="'CMR10'" font-size="8.5039">1</text>
<path fill="none" stroke="#000000" stroke-width="0.5669" stroke-miterlimit="10" d="M314.061,144.088c0,3.133-2.6,5.67-5.809,5.67
	h-79.495c-3.209,0-5.81-2.537-5.81-5.67v-21.529c0-3.131,2.601-5.668,5.81-5.668h79.495c3.209,0,5.809,2.537,5.809,5.668V144.088z"
	/>
<g>
	<g>
		<path fill="none" stroke="#000000" stroke-width="0.5669" stroke-miterlimit="10" d="M339.039,100.551h-6.18
			c-3.118,0-5.669,2.551-5.669,5.669l0.001,12.091c0,3.118-2.551,5.669-5.669,5.669h-6.319"/>
		<g>
			<polygon points="337.765,98.871 338.479,100.551 337.765,102.23 341.747,100.551 			"/>
		</g>
	</g>
</g>
<g>
	<g>
		<path fill="none" stroke="#000000" stroke-width="0.5669" stroke-miterlimit="10" d="M339.039,166.816h-6.18
			c-3.118,0-5.669-2.551-5.669-5.669l0.001-12.089c0-3.118-2.551-5.669-5.669-5.669h-6.319"/>
		<g>
			<polygon points="337.765,165.137 338.479,166.816 337.765,168.496 341.747,166.816 			"/>
		</g>
	</g>
</g>
<text transform="matrix(1 0 0 1 363.2649 98.5571)" font-family="'CMR10'" font-size="8.5039">Non-linear</text>
<text transform="matrix(1 0 0 1 351.2839 108.7622)" font-family="'CMR10'" font-size="8.5039">State Estimation</text>
<path fill="none" stroke="#000000" stroke-width="0.5669" stroke-miterlimit="10" d="M422.612,106.773c0,3.131-2.539,5.67-5.67,5.67
	h-68.385c-3.135,0-5.672-2.539-5.672-5.67v-12.38c0-3.131,2.537-5.67,5.672-5.67h68.385c3.131,0,5.67,2.539,5.67,5.67V106.773z"/>
<text transform="matrix(1 0 0 1 372.7722 131.1558)" font-family="'CMR10'" font-size="8.5039">PMU</text>
<text transform="matrix(1 0 0 1 351.2834 141.3608)" font-family="'CMR10'" font-size="8.5039">State Estimation</text>
<path fill="none" stroke="#000000" stroke-width="0.5669" stroke-miterlimit="10" d="M422.612,139.396
	c0,3.131-2.539,5.668-5.67,5.668h-68.385c-3.135,0-5.672-2.537-5.672-5.668v-12.381c0-3.131,2.537-5.67,5.672-5.67h68.385
	c3.131,0,5.67,2.539,5.67,5.67V139.396z"/>
<text transform="matrix(1 0 0 1 376.4338 164.0376)" font-family="'CMR10'" font-size="8.5039">DC</text>
<text transform="matrix(1 0 0 1 351.2839 174.2427)" font-family="'CMR10'" font-size="8.5039">State Estimation</text>
<path fill="none" stroke="#000000" stroke-width="0.5669" stroke-miterlimit="10" d="M422.612,172.275c0,3.131-2.539,5.67-5.67,5.67
	h-68.385c-3.135,0-5.672-2.539-5.672-5.67v-12.381c0-3.131,2.537-5.668,5.672-5.668h68.385c3.131,0,5.67,2.537,5.67,5.668V172.275z"
	/>
<g>
	<line fill="none" x1="315.206" y1="133.41" x2="341.749" y2="133.41"/>
	<g>
		
			<line fill="none" stroke="#000000" stroke-width="0.5669" stroke-miterlimit="10" x1="315.206" y1="133.41" x2="339.041" y2="133.41"/>
		<g>
			<polygon points="337.767,135.09 338.48,133.41 337.767,131.73 341.749,133.41 			"/>
		</g>
	</g>
</g>
<g>
	<text transform="matrix(1 0 0 1 303.406 52.228)" font-family="'CMR10'" font-size="8.5039">flat</text>
	<text transform="matrix(1 0 0 1 303.406 62.8413)" font-family="'CMR10'" font-size="8.5039">warm</text>
	<text transform="matrix(1 0 0 1 303.4055 73.728)" font-family="'CMR10'" font-size="8.5039">random</text>
	<path fill="#FFFFFF" stroke="#000000" stroke-width="0.5669" stroke-miterlimit="10" d="M300.458,43.719v32.396V43.719z"/>
	<text transform="matrix(1 0 0 1 261.8982 63.0542)" font-family="'CMR10'" font-size="8.5039">estimate.</text>
	<path fill="#E6E7E8" d="M356.523,73.368l-2.731,2.335l-8.163,0.412l-10.31,0.113V43.717c0,0,5.094,0.07,10.31,0.121
		c4.439,0.043,8.683-0.447,10.236,1.791c0.375,0.537,1.445,2.071,1.453,4.131c0.019,5.022,0.088,11.363,0.109,15.314
		C357.461,71.521,356.523,73.368,356.523,73.368z"/>
	<path fill="#FFFFFF" stroke="#000000" stroke-width="0.5669" stroke-miterlimit="10" d="M335.319,43.749v32.366V43.749z"/>
	
		<line fill="none" stroke="#000000" stroke-width="0.5669" stroke-miterlimit="10" x1="300.456" y1="65.449" x2="357.336" y2="65.449"/>
	
		<line fill="none" stroke="#000000" stroke-width="0.5669" stroke-miterlimit="10" x1="300.456" y1="54.782" x2="357.336" y2="54.782"/>
	<text transform="matrix(1 0 0 1 341.9797 52.228)" font-family="'CMR10'" font-size="8.5039">i1</text>
	<text transform="matrix(1 0 0 1 341.9797 63.1255)" font-family="'CMR10'" font-size="8.5039">i2</text>
	<text transform="matrix(1 0 0 1 341.9797 73.728)" font-family="'CMR10'" font-size="8.5039">i3</text>
	<path fill="none" stroke="#000000" stroke-width="0.5669" stroke-miterlimit="10" d="M357.336,70.445
		c0,3.132-2.537,5.67-5.669,5.67h-87.409c-3.131,0-5.67-2.538-5.67-5.67v-21.06c0-3.131,2.539-5.669,5.67-5.669h87.409
		c3.132,0,5.669,2.538,5.669,5.669V70.445z"/>
</g>
<g>
	<g>
		<path fill="none" stroke="#000000" stroke-width="0.5669" stroke-miterlimit="10" d="M358.603,59.973h18.692
			c3.117,0,5.669,2.551,5.669,5.669v18.856"/>
		<g>
			<polygon points="381.284,83.225 382.965,83.938 384.644,83.225 382.965,87.206 			"/>
		</g>
	</g>
</g>
<g>
	<g>
		<path fill="none" stroke="#000000" stroke-width="0.5669" stroke-miterlimit="10" d="M447.895,123.98h-6.154
			c-3.118,0-5.669-2.551-5.669-5.669V106.22c0-3.118-2.551-5.669-5.669-5.669h-6.298"/>
		<g>
			<polygon points="446.621,122.301 447.336,123.98 446.621,125.66 450.603,123.98 			"/>
		</g>
	</g>
</g>
<g>
	<g>
		<path fill="none" stroke="#000000" stroke-width="0.5669" stroke-miterlimit="10" d="M447.895,143.389h-6.154
			c-3.118,0-5.669,2.551-5.669,5.669v12.089c0,3.118-2.551,5.669-5.669,5.669h-6.298"/>
		<g>
			<polygon points="446.621,141.709 447.336,143.389 446.621,145.068 450.603,143.389 			"/>
		</g>
	</g>
</g>
<g>
	<line fill="none" x1="424.106" y1="133.41" x2="450.603" y2="133.41"/>
	<g>
		
			<line fill="none" stroke="#000000" stroke-width="0.5669" stroke-miterlimit="10" x1="424.106" y1="133.41" x2="447.895" y2="133.41"/>
		<g>
			<polygon points="446.621,135.09 447.336,133.41 446.621,131.73 450.603,133.41 			"/>
		</g>
	</g>
</g>
<path fill="#E6E7E8" d="M556.258,122.045h-22.017v10.75c0,0,5.506,0.105,11.193,0c3.023-0.057,10.807-0.084,10.807-0.084
	s0.076-4.91,0.105-6.869C556.381,123.646,556.258,122.045,556.258,122.045z"/>
<path fill="#FFFFFF" stroke="#000000" stroke-width="0.5669" stroke-miterlimit="10" d="M534.386,46.073v87.204V46.073z"/>
<line fill="none" stroke="#000000" stroke-width="0.5669" stroke-miterlimit="10" x1="452.135" y1="111.234" x2="556.399" y2="111.234"/>
<line fill="none" stroke="#000000" stroke-width="0.5669" stroke-miterlimit="10" x1="534.386" y1="100.567" x2="556.399" y2="100.567"/>
<line fill="none" stroke="#000000" stroke-width="0.5669" stroke-miterlimit="10" x1="534.386" y1="121.9" x2="556.399" y2="121.9"/>
<text transform="matrix(1 0 0 1 456.8396 125.5757)" font-family="'CMR10'" font-size="8.5039">estimate.branch</text>
<text transform="matrix(1 0 0 1 456.8396 103.0601)" font-family="'CMR10'" font-size="8.5039">estimate.bus</text>
<text transform="matrix(1 0 0 1 542.24 98.0132)" font-family="'CMR10'" font-size="8.5039">1</text>
<text transform="matrix(1 0 0 1 542.24 108.9097)" font-family="'CMR10'" font-size="8.5039">0</text>
<text transform="matrix(1 0 0 1 542.24 119.5132)" font-family="'CMR10'" font-size="8.5039">0</text>
<text transform="matrix(1 0 0 1 542.24 130.3433)" font-family="'CMR10'" font-size="8.5039">1</text>
<path fill="#E6E7E8" d="M556.399,155.125h-22.014v-11.066h22.014c0,0,0.061,5.311,0.092,7.27
	C556.524,153.523,556.399,155.125,556.399,155.125z"/>
<path fill="#FFFFFF" stroke="#000000" stroke-width="0.5669" stroke-miterlimit="10" d="M534.386,133.277v43.777V133.277z"/>
<line fill="none" stroke="#000000" stroke-width="0.5669" stroke-miterlimit="10" x1="452.133" y1="155.012" x2="556.399" y2="155.012"/>
<line fill="none" stroke="#000000" stroke-width="0.5669" stroke-miterlimit="10" x1="534.386" y1="144.344" x2="556.399" y2="144.344"/>
<line fill="none" stroke="#000000" stroke-width="0.5669" stroke-miterlimit="10" x1="534.386" y1="165.678" x2="556.399" y2="165.678"/>
<text transform="matrix(1 0 0 1 456.8396 169.353)" font-family="'CMR10'" font-size="8.5039">estimate.evaluation</text>
<text transform="matrix(1 0 0 1 456.8396 146.8374)" font-family="'CMR10'" font-size="8.5039">estimate.estimation</text>
<text transform="matrix(1 0 0 1 542.24 141.7896)" font-family="'CMR10'" font-size="8.5039">0</text>
<text transform="matrix(1 0 0 1 542.24 152.687)" font-family="'CMR10'" font-size="8.5039">1</text>
<text transform="matrix(1 0 0 1 542.24 163.2896)" font-family="'CMR10'" font-size="8.5039">0</text>
<text transform="matrix(1 0 0 1 542.24 174.1206)" font-family="'CMR10'" font-size="8.5039">1</text>
<line fill="none" stroke="#000000" stroke-width="0.5669" stroke-miterlimit="10" x1="452.135" y1="133.277" x2="556.399" y2="133.277"/>
<g>
	<path fill="none" stroke="#000000" stroke-width="0.5669" stroke-miterlimit="10" d="M664.586,31.447
		c0,4.677-3.645,7.334-8.098,5.905l-5.022-1.611c-4.453-1.429-11.82-1.718-16.372-0.642c0,0-21.699,5.132-28.879,5.135
		c-6.877,0.003-10.614-0.433-10.614-0.433c-4.646-0.542-8.446-4.812-8.446-9.489v-4.715c0-4.677,3.827-8.504,8.504-8.504h60.425
		c4.677,0,8.504,3.827,8.504,8.504L664.586,31.447L664.586,31.447z"/>
</g>
<g>
	<path fill="#F1F2F2" d="M653.444,109.987c0.144,3.883-1.081,8.598-1.081,8.598c-0.392,1.509-1.987,2.744-3.547,2.744H602.14
		c-1.561,0-3.651-0.98-4.649-2.178l-4.399-5.283c-0.998-1.198-1.138-3.258-0.31-4.579l4.451-7.1
		c0.828-1.321,2.781-2.401,4.341-2.401h45.541c1.561,0,3.463,1.11,4.229,2.468C651.345,102.256,653.286,105.692,653.444,109.987z"/>
	<path fill="none" stroke="#000000" stroke-width="0.5669" stroke-miterlimit="10" d="M653.444,109.987
		c0.144,3.883-1.081,8.598-1.081,8.598c-0.392,1.509-1.987,2.744-3.547,2.744H602.14c-1.561,0-3.651-0.98-4.649-2.178l-4.399-5.283
		c-0.998-1.198-1.138-3.258-0.31-4.579l4.451-7.1c0.828-1.321,2.781-2.401,4.341-2.401h45.541c1.561,0,3.463,1.11,4.229,2.468
		C651.345,102.256,653.286,105.692,653.444,109.987z"/>
</g>
<text transform="matrix(1 0 0 1 612.1853 112.6499)" font-family="'CMR10'" font-size="8.5039">Display</text>
<path fill="#E6E7E8" d="M662.821,58.327c-0.651-0.354-1.084-0.176-1.084-0.176H643.53v10.498c0,0,11.519,0.17,18.894-0.013
	c1.02-0.025,2.795,0.169,3.559,0.083c0.416-0.047-0.287-1.282-0.014-2.258c0.432-1.537-0.396-3.637-0.383-4.813
	c0.01-0.922-0.568-1.582-1.107-2.092C664.071,59.175,663.767,58.839,662.821,58.327z"/>
<line fill="none" stroke="#000000" stroke-width="0.5669" stroke-miterlimit="10" x1="643.53" y1="68.944" x2="665.981" y2="68.944"/>
<text transform="matrix(1 0 0 1 652.2146 66.3921)" font-family="'CMR10'" font-size="8.5039">1</text>
<text transform="matrix(1 0 0 1 652.2146 77.2896)" font-family="'CMR10'" font-size="8.5039">0</text>
<path fill="#FFFFFF" stroke="#000000" stroke-width="0.5669" stroke-miterlimit="10" d="M643.692,57.776v21.736V57.776z"/>
<text transform="matrix(1 0 0 1 590.1658 71.7192)" font-family="'CMR10'" font-size="8.5039">estimate.save</text>
<path fill="none" stroke="#000000" stroke-width="0.5669" stroke-miterlimit="10" d="M665.981,73.844
	c0,3.132-2.338,5.669-5.223,5.669h-69.283c-2.885,0-5.223-2.537-5.223-5.669V63.45c0-3.131,2.338-5.67,5.223-5.67h69.283
	c2.885,0,5.223,2.539,5.223,5.67V73.844z"/>
<g>
	<line fill="none" x1="625.79" y1="97.888" x2="625.79" y2="80.888"/>
	<g>
		
			<line fill="none" stroke="#000000" stroke-width="0.5669" stroke-miterlimit="10" x1="625.79" y1="97.888" x2="625.79" y2="83.595"/>
		<g>
			<polygon points="627.47,84.869 625.79,84.155 624.11,84.869 625.79,80.888 			"/>
		</g>
	</g>
</g>
<text transform="matrix(1 0 0 1 606.6912 29.0552)" font-family="'CMR10'" font-size="8.5039">Save Data</text>
<g>
	<g>
		<path fill="none" stroke="#000000" stroke-width="0.5669" stroke-miterlimit="10" d="M626.185,41.784c0,0.61,0,1.291,0,2.007
			c0,2.592,2.551,4.713,5.669,4.713h16.467c3.118,0,5.669,1.747,5.669,3.882c0,2.135,0,3.882,0,3.882"/>
		<g>
			<polygon points="624.506,43.059 626.185,42.345 627.864,43.059 626.185,39.077 			"/>
		</g>
	</g>
</g>
<g>
	<g>
		<path fill="none" stroke="#000000" stroke-width="0.5669" stroke-miterlimit="10" d="M588.553,108.915h-11.226
			c-3.117,0-5.669-2.551-5.669-5.669v-0.707c0-3.118-2.551-5.669-5.669-5.669h-7.323"/>
		<g>
			<polygon points="587.279,107.235 587.993,108.915 587.279,110.595 591.261,108.915 			"/>
		</g>
	</g>
</g>
<g>
	<g>
		<path fill="none" stroke="#000000" stroke-width="0.5669" stroke-miterlimit="10" d="M429.687,200.857v-56.012
			c0-3.118-1.229-5.669-2.731-5.669s-2.73,0-2.73,0"/>
		<g>
			<polygon points="431.366,199.583 429.687,200.296 428.008,199.583 429.687,203.564 			"/>
		</g>
	</g>
</g>
<g>
	<g>
		<path fill="none" stroke="#000000" stroke-width="0.5669" stroke-miterlimit="10" d="M382.467,179.608v30.358
			c0,3.119,2.551,5.67,5.669,5.67h4.24"/>
		<g>
			<polygon points="391.102,217.316 391.815,215.636 391.102,213.957 395.083,215.636 			"/>
		</g>
	</g>
</g>
<path fill="#E6E7E8" d="M478.181,205.604c-0.652-0.354-1.084-0.179-1.084-0.179H458.89v10.498c0,0,11.518,0.173,18.893-0.012
	c1.021-0.024,2.795,0.168,3.56,0.082c0.416-0.045-0.287-1.281-0.015-2.258c0.433-1.537-0.395-3.637-0.383-4.811
	c0.01-0.924-0.567-1.584-1.106-2.092C479.431,206.449,479.127,206.113,478.181,205.604z"/>
<line fill="none" stroke="#000000" stroke-width="0.5669" stroke-miterlimit="10" x1="458.89" y1="216.221" x2="481.342" y2="216.221"/>
<text transform="matrix(1 0 0 1 467.5779 213.6655)" font-family="'CMR10'" font-size="8.5039">1</text>
<text transform="matrix(1 0 0 1 467.5779 224.563)" font-family="'CMR10'" font-size="8.5039">0</text>
<path fill="#FFFFFF" stroke="#000000" stroke-width="0.5669" stroke-miterlimit="10" d="M459.052,205.05v21.738V205.05z"/>
<text transform="matrix(1 0 0 1 400.2322 218.9937)" font-family="'CMR10'" font-size="8.5039">estimate.linear</text>
<path fill="none" stroke="#000000" stroke-width="0.5669" stroke-miterlimit="10" d="M481.342,221.119
	c0,3.131-2.537,5.67-5.668,5.67h-73.371c-3.129,0-5.668-2.539-5.668-5.67v-10.397c0-3.132,2.539-5.671,5.668-5.671h73.371
	c3.131,0,5.668,2.539,5.668,5.671V221.119z"/>
<g>
	<line fill="none" x1="482.931" y1="211.682" x2="499.931" y2="211.682"/>
	<g>
		
			<line fill="none" stroke="#000000" stroke-width="0.5669" stroke-miterlimit="10" x1="482.931" y1="211.682" x2="497.223" y2="211.682"/>
		<g>
			<polygon points="495.949,213.361 496.663,211.682 495.949,210.001 499.931,211.682 			"/>
		</g>
	</g>
</g>
<g>
	<path fill="none" stroke="#000000" stroke-width="0.5669" stroke-miterlimit="10" d="M587.67,214.238
		c0,4.678-3.681,7.452-8.178,6.168l-7.463-2.135c-4.497-1.286-11.921-1.548-16.498-0.584c0,0-25.323,5.336-33.382,5.34
		c-7.719,0.002-12.937-0.541-12.937-0.541c-4.651-0.484-8.458-4.705-8.458-9.383v-4.715c0-4.678,3.826-8.504,8.504-8.504h69.905
		c4.678,0,8.505,3.826,8.505,8.504L587.67,214.238L587.67,214.238z"/>
</g>
<text transform="matrix(1 0 0 1 506.5232 211.8462)" font-family="'CMR10'" font-size="8.5039">Export Matrix Form</text>
<g>
	<line fill="none" x1="195.89" y1="195.315" x2="224.213" y2="195.315"/>
	<g>
		
			<line fill="none" stroke="#000000" stroke-width="0.5669" stroke-miterlimit="10" x1="195.89" y1="195.315" x2="221.505" y2="195.315"/>
		<g>
			<polygon points="220.231,196.996 220.945,195.315 220.231,193.634 224.213,195.315 			"/>
		</g>
	</g>
</g>
<path fill="#E6E7E8" d="M556.522,56.714h-22.014v-10.75c0,0,12.965-1.189,19.619,1.047c1.483,0.498,2.455,3.948,2.485,5.907
	C556.647,55.112,556.522,56.714,556.522,56.714z"/>
<line fill="none" stroke="#000000" stroke-width="0.5669" stroke-miterlimit="10" x1="452.133" y1="67.381" x2="556.519" y2="67.381"/>
<line fill="none" stroke="#000000" stroke-width="0.5669" stroke-miterlimit="10" x1="534.51" y1="56.714" x2="556.522" y2="56.714"/>
<line fill="none" stroke="#000000" stroke-width="0.5669" stroke-miterlimit="10" x1="534.51" y1="78.048" x2="556.522" y2="78.048"/>
<text transform="matrix(1 0 0 1 456.8396 81.729)" font-family="'CMR10'" font-size="8.5039">flow.branch</text>
<text transform="matrix(1 0 0 1 456.8396 59.2134)" font-family="'CMR10'" font-size="8.5039">flow.bus</text>
<text transform="matrix(1 0 0 1 542.365 54.1655)" font-family="'CMR10'" font-size="8.5039">1</text>
<text transform="matrix(1 0 0 1 542.365 65.064)" font-family="'CMR10'" font-size="8.5039">0</text>
<text transform="matrix(1 0 0 1 542.365 75.6655)" font-family="'CMR10'" font-size="8.5039">1</text>
<text transform="matrix(1 0 0 1 542.365 86.4966)" font-family="'CMR10'" font-size="8.5039">1</text>
<path fill="none" stroke="#000000" stroke-width="0.5669" stroke-miterlimit="10" d="M556.688,171.384c0,3.132-2.539,5.67-5.67,5.67
	h-93.218c-3.131,0-5.668-2.538-5.668-5.67V51.317c0-3.131,2.537-5.669,5.668-5.669h93.219c3.131,0,5.67,2.538,5.67,5.669
	L556.688,171.384L556.688,171.384z"/>
<line fill="none" stroke="#000000" stroke-width="0.5669" stroke-miterlimit="10" x1="452.135" y1="89.711" x2="556.688" y2="89.711"/>
<g>
	<g>
		<path fill="none" stroke="#000000" stroke-width="0.5669" stroke-miterlimit="10" d="M558.667,52.231h12.622
			c3.118,0,5.669,2.551,5.669,5.669v33.766c0,3.118,2.552,5.669,5.67,5.669h3.135c3.118,0,6.807,0.552,8.195,1.227
			c0.03,0.015,0.063,0.03,0.093,0.044"/>
		<g>
			<polygon points="592.17,99.595 593.535,98.385 593.613,96.562 596.485,99.79 			"/>
		</g>
	</g>
</g>
<g>
	<g>
		<path fill="none" stroke="#000000" stroke-width="0.5669" stroke-miterlimit="10" d="M558.667,72.521h9.149
			c3.118,0,5.669,2.551,5.669,5.669v18.887c0,3.118,2.551,5.669,5.669,5.669h6.051c2.274,0,4.601,0.122,6.007,0.297"/>
		<g>
			<polygon points="589.55,104.427 590.649,102.971 590.366,101.168 593.819,103.766 			"/>
		</g>
	</g>
</g>
<g>
	<g>
		<path fill="none" stroke="#000000" stroke-width="0.5669" stroke-miterlimit="10" d="M588.553,114.426h-11.226
			c-3.117,0-5.669,2.551-5.669,5.669v0.707c0,3.118-2.551,5.669-5.669,5.669h-7.323"/>
		<g>
			<polygon points="587.279,112.746 587.993,114.426 587.279,116.105 591.261,114.426 			"/>
		</g>
	</g>
</g>
<g>
	<g>
		<path fill="none" stroke="#000000" stroke-width="0.5669" stroke-miterlimit="10" d="M558.667,169.47h12.622
			c3.118,0,5.669-2.551,5.669-5.669v-33.766c0-3.118,2.552-5.669,5.67-5.669h3.135c3.118,0,6.807-0.552,8.195-1.227
			c0.03-0.015,0.063-0.03,0.093-0.044"/>
		<g>
			<polygon points="593.613,125.139 593.535,123.316 592.17,122.106 596.485,121.911 			"/>
		</g>
	</g>
</g>
<g>
	<g>
		<path fill="none" stroke="#000000" stroke-width="0.5669" stroke-miterlimit="10" d="M558.667,149.181h9.149
			c3.118,0,5.669-2.551,5.669-5.669v-18.887c0-3.118,2.551-5.669,5.669-5.669h6.051c2.274,0,4.601-0.122,6.007-0.297"/>
		<g>
			<polygon points="590.366,120.533 590.649,118.73 589.55,117.274 593.819,117.936 			"/>
		</g>
	</g>
</g>
<g>
	<g>
		<path fill="none" stroke="#000000" stroke-width="0.5669" stroke-miterlimit="10" d="M202.086,135.534c0,0,1.659,0,3.687,0
			s3.687-1.978,3.687-4.395v-13.945c0-2.417,1.979-4.395,4.396-4.395h5.833c2.417,0,4.395-1.978,4.395-4.395l-0.001-71.344
			c0-2.417,1.979-4.395,4.396-4.395H434.84c2.417,0,4.395,1.978,4.395,4.395v40.386c0,2.417,1.979,4.395,4.396,4.395h4.371"/>
		<g>
			<polygon points="446.725,83.521 447.438,81.842 446.725,80.162 450.706,81.842 			"/>
		</g>
	</g>
</g>
<g>
	<line fill="none" x1="160.187" y1="151.286" x2="160.187" y2="179.609"/>
	<g>
		
			<line fill="none" stroke="#000000" stroke-width="0.5669" stroke-miterlimit="10" x1="160.187" y1="151.286" x2="160.187" y2="176.902"/>
		<g>
			<polygon points="158.507,175.626 160.187,176.341 161.867,175.626 160.187,179.609 			"/>
		</g>
	</g>
</g>
<g>
	<line fill="none" x1="267.845" y1="179.608" x2="267.845" y2="151.285"/>
	<g>
		
			<line fill="none" stroke="#000000" stroke-width="0.5669" stroke-miterlimit="10" x1="267.845" y1="179.608" x2="267.845" y2="153.992"/>
		<g>
			<polygon points="269.525,155.266 267.845,154.552 266.166,155.266 267.845,151.285 			"/>
		</g>
	</g>
</g>
</svg>
