<?xml version="1.0" encoding="utf-8"?>
<!-- Generator: Adobe Illustrator 16.0.0, SVG Export Plug-In . SVG Version: 6.00 Build 0)  -->
<!DOCTYPE svg PUBLIC "-//W3C//DTD SVG 1.1//EN" "http://www.w3.org/Graphics/SVG/1.1/DTD/svg11.dtd">
<svg version="1.1" id="Layer_1" xmlns="http://www.w3.org/2000/svg" xmlns:xlink="http://www.w3.org/1999/xlink" x="0px" y="0px"
	 width="796.46px" height="272.986px" viewBox="0 0 796.46 272.986" enable-background="new 0 0 796.46 272.986"
	 xml:space="preserve">
<path fill="#E6E7E8" d="M662.434,70.433h-22.016v10.75c0,0,5.506,0.105,11.193,0c3.023-0.057,10.807-0.084,10.807-0.084
	s0.076-4.91,0.105-6.869C662.557,72.035,662.434,70.433,662.434,70.433z"/>
<path fill="#E6E7E8" d="M662.301,92.728h-22.016v10.75c0,0,5.504,0.105,11.193,0c3.021-0.057,10.807-0.084,10.807-0.084
	s0.076-4.91,0.105-6.869C662.424,94.33,662.301,92.728,662.301,92.728z"/>
<path fill="#E6E7E8" d="M104.352,29.447h27.862v10.917c0,0-15.209,0.676-23.695-0.178c-3.161-0.318-4.245-5.198-4.282-7.084
	C104.196,30.989,104.352,29.447,104.352,29.447z"/>
<text transform="matrix(1 0 0 1 130.521 83.1836)" font-family="'CMR10'" font-size="8.5039">AC Power Flow</text>
<text transform="matrix(1 0 0 1 38.2822 29.4775)" font-family="'CMR10'" font-size="8.5039">flow.grid</text>
<g>
	<path fill="#BE362A" d="M84.856,67.715L23.55,67.999c0,0-2.138,0.857-2.535,1.525c-0.831,1.4-1.215,2.885-1.215,2.885v9.904
		c0,0,43.306,0.209,69.313,0v-6.106c0,0-0.005-4.45-0.646-5.618C87.865,69.493,84.856,67.715,84.856,67.715z"/>
	<path fill="#E6E7E8" d="M84.572,94.066H24.117l-3.3-2.019L19.8,89.879V82.48c0,0,43.306-0.166,69.313,0v7.684
		c0,0-0.572,0.815-1.214,1.743C87.297,92.777,84.572,94.066,84.572,94.066z"/>
	<path fill="#FFFFFF" stroke="#000000" stroke-width="0.5669" stroke-miterlimit="10" d="M19.8,82.468h69.313H19.8z"/>
	<text transform="matrix(1 0 0 1 32.2573 77.7695)" fill="#FFFFFF" font-family="'CMR10'" font-size="8.5039">Power Flow</text>
	<text transform="matrix(1 0 0 1 23.5483 90.7202)"><tspan x="0" y="0" font-family="'CMR10'" font-size="7.0866">power</tspan><tspan x="18.51" y="0" font-family="'ArialMT'" font-size="5.6693">_</tspan><tspan x="21.663" y="0" font-family="'CMR10'" font-size="7.0866">estimation.m</tspan></text>
	<path fill="none" stroke="#000000" stroke-width="0.5669" stroke-miterlimit="10" d="M89.112,88.858
		c0,2.877-2.538,5.208-5.669,5.208H25.469c-3.131,0-5.669-2.331-5.669-5.208V72.924c0-2.877,2.538-5.209,5.669-5.209h57.974
		c3.131,0,5.669,2.332,5.669,5.209V88.858z"/>
</g>
<g>
	<line fill="#FFFFFF" x1="90.614" y1="80.891" x2="118.938" y2="80.891"/>
	<g>
		
			<line fill="none" stroke="#000000" stroke-width="0.5669" stroke-miterlimit="10" x1="90.614" y1="80.891" x2="116.23" y2="80.891"/>
		<g>
			<polygon points="114.956,82.571 115.67,80.891 114.956,79.211 118.938,80.891 			"/>
		</g>
	</g>
</g>
<path fill="none" stroke="#000000" stroke-width="0.5669" stroke-miterlimit="10" d="M200.267,85.889c0,3.132-2.338,5.67-5.223,5.67
	h-69.283c-2.885,0-5.223-2.538-5.223-5.67V75.496c0-3.131,2.338-5.669,5.223-5.669h69.283c2.885,0,5.223,2.538,5.223,5.669V85.889z"
	/>
<path fill="#E6E7E8" d="M216.407,29.447h-27.861v10.917c0,0,16.061,0.392,24.545-0.461c3.162-0.318,3.395-4.915,3.432-6.801
	C216.563,30.989,216.407,29.447,216.407,29.447z"/>
<path fill="#FFFFFF" stroke="#000000" stroke-width="0.5669" stroke-miterlimit="10" d="M160.515,10.614v29.84V10.614z"/>
<line fill="#FFFFFF" stroke="#000000" stroke-width="0.5669" stroke-miterlimit="10" x1="104.456" y1="29.45" x2="216.575" y2="29.45"/>
<text transform="matrix(1 0 0 1 108.8359 21.6875)" font-family="'CMR10'" font-size="8.5039">flow.reactive</text>
<text transform="matrix(1 0 0 1 143.1445 37.5952)" font-family="'CMR10'" font-size="8.5039">0</text>
<text transform="matrix(1 0 0 1 172.1567 37.5952)" font-family="'CMR10'" font-size="8.5039">0</text>
<text transform="matrix(1 0 0 1 199.3931 37.5952)" font-family="'CMR10'" font-size="8.5039">1</text>
<text transform="matrix(1 0 0 1 165.7686 21.6875)" font-family="'CMR10'" font-size="8.5039">flow.voltage</text>
<path fill="none" stroke="#000000" stroke-width="0.5669" stroke-miterlimit="10" d="M216.575,34.672c0,3.132-2.537,5.67-5.668,5.67
	H110.125c-3.131,0-5.669-2.538-5.669-5.67V16.284c0-3.132,2.538-5.67,5.669-5.67h100.783c3.131,0,5.668,2.538,5.668,5.67V34.672z"/>
<path fill="#FFFFFF" stroke="#000000" stroke-width="0.5669" stroke-miterlimit="10" d="M188.546,29.447v10.917V29.447z"/>
<path fill="#FFFFFF" stroke="#000000" stroke-width="0.5669" stroke-miterlimit="10" d="M132.214,29.447v11.007V29.447z"/>
<text transform="matrix(1 0 0 1 116.8115 37.5952)" font-family="'CMR10'" font-size="8.5039">1</text>
<g>
	<g>
		<path fill="none" stroke="#000000" stroke-width="0.5669" stroke-miterlimit="10" d="M141.12,65.584v-6.18
			c0-3.118-2.551-5.669-5.669-5.669l-12.09,0.001c-3.118,0-5.669-2.551-5.669-5.669v-6.319"/>
		<g>
			<polygon points="142.8,64.31 141.12,65.024 139.44,64.31 141.12,68.292 			"/>
		</g>
	</g>
</g>
<g>
	<g>
		<path fill="none" stroke="#000000" stroke-width="0.5669" stroke-miterlimit="10" d="M177.267,65.584v-6.18
			c0-3.118,2.551-5.669,5.669-5.669l12.06,0.001c3.118,0,5.669-2.551,5.669-5.669v-6.319"/>
		<g>
			<polygon points="178.946,64.31 177.267,65.024 175.587,64.31 177.267,68.292 			"/>
		</g>
	</g>
</g>
<g>
	<line fill="#FFFFFF" x1="54.456" y1="47.747" x2="54.456" y2="64.747"/>
	<g>
		
			<line fill="none" stroke="#000000" stroke-width="0.5669" stroke-miterlimit="10" x1="54.456" y1="47.747" x2="54.456" y2="62.04"/>
		<g>
			<polygon points="52.776,60.765 54.456,61.479 56.136,60.765 54.456,64.747 			"/>
		</g>
	</g>
</g>
<path fill="#E6E7E8" d="M84.572,46.348H24.117l-3.3-2.019L19.8,42.163v-7.4c0,0,43.306-0.166,69.313,0v7.684
	c0,0-0.572,0.816-1.214,1.744C87.297,45.059,84.572,46.348,84.572,46.348z"/>
<path fill="#FFFFFF" stroke="#000000" stroke-width="0.5669" stroke-miterlimit="10" d="M19.8,34.75h69.313H19.8z"/>
<text transform="matrix(1 0 0 1 33.1182 43.0034)" font-family="'CMR10'" font-size="7.0866">mat-file name</text>
<path fill="none" stroke="#000000" stroke-width="0.5669" stroke-miterlimit="10" d="M89.112,41.14c0,2.877-2.538,5.208-5.669,5.208
	H25.469c-3.131,0-5.669-2.331-5.669-5.208V25.207c0-2.877,2.538-5.208,5.669-5.208h57.974c3.131,0,5.669,2.331,5.669,5.208V41.14z"
	/>
<g>
	<path fill="#BE362A" d="M189.135,123.062l-61.306,0.225c0,0-2.138,0.688-2.535,1.887c-0.356,1.078-0.915,0.978-1.111,2.128
		c-0.262,1.527-0.104,4.179-0.104,4.179l0,14.062c0,0,1.949,3.521,4.195,3.718c1.234,0.108,3.907,0.166,3.907,0.166h48.726
		l8.588-0.243c0,0,2.408-1.446,3.758-3.257l0.139-7.633c0,0,0.269-9.763-0.373-11.857
		C192.417,124.469,189.135,123.062,189.135,123.062z"/>
	<text transform="matrix(1 0 0 1 132.1279 138.7593)" fill="#FFFFFF" font-family="'CMR10'" font-size="8.5039">Measurements</text>
	<path fill="none" stroke="#000000" stroke-width="0.5669" stroke-miterlimit="10" d="M193.391,144.217
		c0,2.877-2.538,5.208-5.669,5.208h-57.974c-3.131,0-5.669-2.331-5.669-5.208v-15.934c0-2.877,2.538-5.209,5.669-5.209h57.974
		c3.131,0,5.669,2.332,5.669,5.209V144.217z"/>
</g>
<text transform="matrix(1 0 0 1 99.5776 195.8975)" font-family="'CMR10'" font-size="8.5039">unique</text>
<text transform="matrix(1 0 0 1 99.5776 206.5117)" font-family="'CMR10'" font-size="8.5039">random</text>
<text transform="matrix(1 0 0 1 99.5781 216.8311)" font-family="'CMR10'" font-size="8.5039">type</text>
<path fill="#FFFFFF" stroke="#000000" stroke-width="0.5669" stroke-miterlimit="10" d="M97.667,187.387v32.397V187.387z"/>
<text transform="matrix(1 0 0 1 42.748 207.292)" font-family="'CMR10'" font-size="8.5039">legvariance.</text>
<path fill="#E6E7E8" d="M154.538,219.785l-3.539-0.13l-8.16,0.13l-10.309,0.113v-32.513c0,0,5.093,0.07,10.309,0.121
	c4.437,0.044,8.679-0.446,10.234,1.793c0.374,0.537,1.444,2.07,1.452,4.129c0.019,5.023,0.089,11.365,0.11,15.316
	C154.668,215.192,154.538,219.785,154.538,219.785z"/>
<path fill="#FFFFFF" stroke="#000000" stroke-width="0.5669" stroke-miterlimit="10" d="M132.53,187.418v32.366V187.418z"/>
<line fill="#FFFFFF" stroke="#000000" stroke-width="0.5669" stroke-miterlimit="10" x1="97.667" y1="209.118" x2="154.543" y2="209.118"/>
<line fill="#FFFFFF" stroke="#000000" stroke-width="0.5669" stroke-miterlimit="10" x1="97.667" y1="198.452" x2="154.543" y2="198.452"/>
<text transform="matrix(1 0 0 1 138.1211 195.8975)" font-family="'CMR10'" font-size="8.5039">v1</text>
<text transform="matrix(1 0 0 1 138.1211 206.7954)" font-family="'CMR10'" font-size="8.5039">v2</text>
<text transform="matrix(1 0 0 1 138.1211 217.3979)" font-family="'CMR10'" font-size="8.5039">v3</text>
<text transform="matrix(1 0 0 1 99.5776 228.127)" font-family="'CMR10'" font-size="8.5039">unique</text>
<text transform="matrix(1 0 0 1 99.5776 238.7412)" font-family="'CMR10'" font-size="8.5039">random</text>
<text transform="matrix(1 0 0 1 99.5781 249.0601)" font-family="'CMR10'" font-size="8.5039">type</text>
<path fill="#FFFFFF" stroke="#000000" stroke-width="0.5669" stroke-miterlimit="10" d="M97.667,219.617v32.397V219.617z"/>
<text transform="matrix(1 0 0 1 42.748 238.3872)" font-family="'CMR10'" font-size="8.5039">pmuvariance.</text>
<path fill="#E6E7E8" d="M153.731,249.267l-2.732,2.334l-8.16,0.413l-10.309,0.113v-32.513c0,0,5.093,0.07,10.309,0.121
	c4.437,0.044,11.699,0.049,11.699,0.049s-0.021,3.814-0.013,5.873c0.019,5.023,0.089,11.365,0.11,15.316
	C154.668,247.421,153.731,249.267,153.731,249.267z"/>
<path fill="#FFFFFF" stroke="#000000" stroke-width="0.5669" stroke-miterlimit="10" d="M132.53,219.648v32.366V219.648z"/>
<line fill="#FFFFFF" stroke="#000000" stroke-width="0.5669" stroke-miterlimit="10" x1="97.667" y1="241.347" x2="154.543" y2="241.347"/>
<line fill="#FFFFFF" stroke="#000000" stroke-width="0.5669" stroke-miterlimit="10" x1="97.667" y1="230.681" x2="154.543" y2="230.681"/>
<text transform="matrix(1 0 0 1 138.1211 228.127)" font-family="'CMR10'" font-size="8.5039">v4</text>
<text transform="matrix(1 0 0 1 138.1211 239.0244)" font-family="'CMR10'" font-size="8.5039">v5</text>
<text transform="matrix(1 0 0 1 138.1211 249.627)" font-family="'CMR10'" font-size="8.5039">v6</text>
<line fill="#FFFFFF" stroke="#000000" stroke-width="0.5669" stroke-miterlimit="10" x1="38.245" y1="219.785" x2="154.538" y2="219.785"/>
<path fill="none" stroke="#000000" stroke-width="0.5669" stroke-miterlimit="10" d="M154.538,246.059
	c0,3.131-2.538,5.669-5.669,5.669H43.914c-3.131,0-5.669-2.538-5.669-5.669v-53.005c0-3.131,2.538-5.669,5.669-5.669h104.954
	c3.131,0,5.669,2.538,5.669,5.669V246.059z"/>
<text transform="matrix(1 0 0 1 213.8022 201.8599)" font-family="'CMR10'" font-size="8.5039">redundancy</text>
<text transform="matrix(1 0 0 1 213.8022 213.041)" font-family="'CMR10'" font-size="8.5039">device</text>
<path fill="#FFFFFF" stroke="#000000" stroke-width="0.5669" stroke-miterlimit="10" d="M210.891,192.774v54.262V192.774z"/>
<text transform="matrix(1 0 0 1 172.7617 207.0176)" font-family="'CMR10'" font-size="8.5039">legset.</text>
<path fill="#E6E7E8" d="M281.662,215.712l-3.539-0.088l-8.16,0.088l-10.309,0.076v-23.017c0,0,10.227-0.034,15.442,0
	c4.437,0.03,3.919,0.455,5.475,1.962c0.374,0.361,1.07,1.854,1.078,3.24c0.019,3.381,0.089,7.648,0.11,10.308
	C281.793,212.622,281.662,215.712,281.662,215.712z"/>
<path fill="#FFFFFF" stroke="#000000" stroke-width="0.5669" stroke-miterlimit="10" d="M259.654,192.805v32.366V192.805z"/>
<line fill="#FFFFFF" stroke="#000000" stroke-width="0.5669" stroke-miterlimit="10" x1="165.369" y1="215.639" x2="281.668" y2="215.639"/>
<line fill="#FFFFFF" stroke="#000000" stroke-width="0.5669" stroke-miterlimit="10" x1="210.892" y1="204.406" x2="281.668" y2="204.406"/>
<text transform="matrix(1 0 0 1 265.8145 201.8599)" font-family="'CMR10'" font-size="8.5039">s1</text>
<text transform="matrix(1 0 0 1 265.8145 213.3247)" font-family="'CMR10'" font-size="8.5039">s2</text>
<text transform="matrix(1 0 0 1 213.8022 223.0337)" font-family="'CMR10'" font-size="8.5039">redundancy</text>
<text transform="matrix(1 0 0 1 213.8022 233.6479)" font-family="'CMR10'" font-size="8.5039">device</text>
<text transform="matrix(1 0 0 1 213.8027 243.9668)" font-family="'CMR10'" font-size="8.5039">optimal</text>
<text transform="matrix(1 0 0 1 172.7617 233.2939)" font-family="'CMR10'" font-size="8.5039">pmuset.</text>
<path fill="#E6E7E8" d="M280.855,244.175l-2.732,2.334l-8.16,0.413l-10.309,0.113v-32.513c0,0,5.093,0.07,10.309,0.121
	c4.437,0.044,11.699,0.049,11.699,0.049s-0.021,3.814-0.013,5.873c0.019,5.023,0.089,11.365,0.11,15.316
	C281.793,242.33,280.855,244.175,280.855,244.175z"/>
<path fill="#FFFFFF" stroke="#000000" stroke-width="0.5669" stroke-miterlimit="10" d="M259.654,214.556v32.366V214.556z"/>
<line fill="#FFFFFF" stroke="#000000" stroke-width="0.5669" stroke-miterlimit="10" x1="210.891" y1="236.255" x2="281.668" y2="236.255"/>
<line fill="#FFFFFF" stroke="#000000" stroke-width="0.5669" stroke-miterlimit="10" x1="210.891" y1="225.589" x2="281.668" y2="225.589"/>
<text transform="matrix(1 0 0 1 265.8145 223.0337)" font-family="'CMR10'" font-size="8.5039">s3</text>
<text transform="matrix(1 0 0 1 265.8145 233.9312)" font-family="'CMR10'" font-size="8.5039">s4</text>
<text transform="matrix(1 0 0 1 265.8145 244.5337)" font-family="'CMR10'" font-size="8.5039">s5</text>
<path fill="none" stroke="#000000" stroke-width="0.5669" stroke-miterlimit="10" d="M281.662,242.254
	c0,2.641-2.538,4.781-5.669,4.781H171.039c-3.131,0-5.669-2.141-5.669-4.781v-44.701c0-2.641,2.538-4.781,5.669-4.781h104.955
	c3.131,0,5.669,2.141,5.669,4.781V242.254z"/>
<g>
	<g>
		<path fill="none" stroke="#000000" stroke-width="0.5669" stroke-miterlimit="10" d="M170.544,153.909v10.558
			c0,3.118,2.551,5.669,5.669,5.669l42.412-0.004c3.118,0,5.669,2.551,5.669,5.669v15.023"/>
		<g>
			<polygon points="168.864,155.183 170.544,154.469 172.224,155.183 170.544,151.202 			"/>
		</g>
	</g>
</g>
<g>
	<g>
		<path fill="none" stroke="#000000" stroke-width="0.5669" stroke-miterlimit="10" d="M150.908,153.909v10.558
			c0,3.118-2.551,5.669-5.669,5.669l-42.412-0.004c-3.118,0-5.669,2.551-5.669,5.669v9.925"/>
		<g>
			<polygon points="149.228,155.183 150.908,154.469 152.587,155.183 150.908,151.202 			"/>
		</g>
	</g>
</g>
<path fill="#E6E7E8" d="M662.342,168.73h-22.014v11.316c0,0,5.063,0.17,10.486,0.178c8.422,0.016,7.203-0.668,9.699-1.506
	c1.484-0.5,1.889-4.232,1.92-6.191C662.467,170.332,662.342,168.73,662.342,168.73z"/>
<path fill="#BE362A" d="M304.263,123.287l-73.446,0.226c0,0-2.815,0.782-3.29,1.979c-0.995,2.513-1.203,1.966-1.203,1.966v17.39
	l1.416,2.839c0,0,0.641,1.995,5.037,1.95c13.546-0.137,71.628,0.001,71.628,0.001l3.066-1.463c0,0,1.492-2.179,1.871-4.206
	l0.02-5.452c0,0,0.098-10.1-0.67-12.194C307.972,124.356,304.263,123.287,304.263,123.287z"/>
<text transform="matrix(1 0 0 1 236.3794 138.438)" fill="#FFFFFF" font-family="'CMR10'" font-size="8.5039">State Estimation</text>
<g>
	<line fill="#FFFFFF" x1="310.666" y1="136.462" x2="327.666" y2="136.462"/>
	<g>
		
			<line fill="none" stroke="#000000" stroke-width="0.5669" stroke-miterlimit="10" x1="310.666" y1="136.462" x2="324.958" y2="136.462"/>
		<g>
			<polygon points="323.685,138.142 324.398,136.462 323.685,134.783 327.666,136.462 			"/>
		</g>
	</g>
</g>
<path fill="none" stroke="#000000" stroke-width="0.5669" stroke-miterlimit="10" d="M309.343,143.968
	c0,3.131-2.537,5.668-5.67,5.668h-71.66c-3.132,0-5.67-2.537-5.67-5.668v-15.012c0-3.133,2.538-5.67,5.67-5.67h71.66
	c3.133,0,5.67,2.537,5.67,5.67V143.968z"/>
<path fill="#E6E7E8" d="M418.931,150.648c-0.654,1.1-3.449,2.162-3.449,2.162h-17.641v-32.643c0,0,10.666-0.531,18.043,0.039
	c1.02,0.078,2.051,1.283,2.814,1.549c0.416,0.145,1.293,2.166,1.297,5.213c0.008,6.373,0.133,11.738,0.145,15.393
	c0.01,2.869-0.273,2.869-0.227,4.771C419.944,148.392,419.874,149.056,418.931,150.648z"/>
<line fill="#FFFFFF" stroke="#000000" stroke-width="0.5669" stroke-miterlimit="10" x1="397.841" y1="142.228" x2="420.14" y2="142.228"/>
<text transform="matrix(1 0 0 1 406.5176 139.6685)" font-family="'CMR10'" font-size="8.5039">2</text>
<text transform="matrix(1 0 0 1 406.5176 150.5659)" font-family="'CMR10'" font-size="8.5039">3</text>
<path fill="#FFFFFF" stroke="#000000" stroke-width="0.5669" stroke-miterlimit="10" d="M398.005,119.929v32.881V119.929z"/>
<text transform="matrix(1 0 0 1 332.9922 139.6108)" font-family="'CMR10'" font-size="8.5039">estimate.module</text>
<line fill="#FFFFFF" stroke="#000000" stroke-width="0.5669" stroke-miterlimit="10" x1="397.989" y1="131.062" x2="420.003" y2="131.062"/>
<text transform="matrix(1 0 0 1 406.5176 128.3301)" font-family="'CMR10'" font-size="8.5039">1</text>
<path fill="none" stroke="#000000" stroke-width="0.5669" stroke-miterlimit="10" d="M420.003,147.14c0,3.133-2.6,5.67-5.809,5.67
	H334.7c-3.209,0-5.81-2.537-5.81-5.67v-21.529c0-3.131,2.601-5.668,5.81-5.668h79.494c3.209,0,5.809,2.537,5.809,5.668V147.14z"/>
<g>
	<g>
		<path fill="none" stroke="#000000" stroke-width="0.5669" stroke-miterlimit="10" d="M444.979,103.603h-6.178
			c-3.119,0-5.67,2.551-5.67,5.669l0.002,12.092c0,3.118-2.551,5.669-5.67,5.669h-6.318"/>
		<g>
			<polygon points="443.706,101.923 444.421,103.603 443.706,105.283 447.688,103.603 			"/>
		</g>
	</g>
</g>
<g>
	<g>
		<path fill="none" stroke="#000000" stroke-width="0.5669" stroke-miterlimit="10" d="M444.979,169.869h-6.178
			c-3.119,0-5.67-2.551-5.67-5.669l0.002-12.09c0-3.118-2.551-5.669-5.67-5.669h-6.318"/>
		<g>
			<polygon points="443.706,168.189 444.421,169.869 443.706,171.548 447.688,169.869 			"/>
		</g>
	</g>
</g>
<text transform="matrix(1 0 0 1 469.207 101.6099)"><tspan x="0" y="0" font-family="'CMR10'" font-size="8.5039">Non-linear</tspan><tspan x="-11.981" y="10.205" font-family="'CMR10'" font-size="8.5039">State Estimation</tspan></text>
<path fill="none" stroke="#000000" stroke-width="0.5669" stroke-miterlimit="10" d="M528.555,109.826c0,3.131-2.539,5.67-5.67,5.67
	h-68.386c-3.135,0-5.672-2.539-5.672-5.67V97.445c0-3.131,2.537-5.67,5.672-5.67h68.386c3.131,0,5.67,2.539,5.67,5.67V109.826z"/>
<text transform="matrix(1 0 0 1 478.7139 134.208)"><tspan x="0" y="0" font-family="'CMR10'" font-size="8.5039">PMU</tspan><tspan x="-21.488" y="10.205" font-family="'CMR10'" font-size="8.5039">State Estimation</tspan></text>
<path fill="none" stroke="#000000" stroke-width="0.5669" stroke-miterlimit="10" d="M528.555,142.449
	c0,3.131-2.539,5.668-5.67,5.668h-68.386c-3.135,0-5.672-2.537-5.672-5.668v-12.381c0-3.131,2.537-5.67,5.672-5.67h68.386
	c3.131,0,5.67,2.539,5.67,5.67V142.449z"/>
<text transform="matrix(1 0 0 1 482.375 167.0903)"><tspan x="0" y="0" font-family="'CMR10'" font-size="8.5039">DC</tspan><tspan x="-25.149" y="10.205" font-family="'CMR10'" font-size="8.5039">State Estimation</tspan></text>
<path fill="none" stroke="#000000" stroke-width="0.5669" stroke-miterlimit="10" d="M528.555,175.328c0,3.131-2.539,5.67-5.67,5.67
	h-68.386c-3.135,0-5.672-2.539-5.672-5.67v-12.381c0-3.131,2.537-5.668,5.672-5.668h68.386c3.131,0,5.67,2.537,5.67,5.668V175.328z"
	/>
<g>
	<line fill="#FFFFFF" x1="421.147" y1="136.462" x2="447.69" y2="136.462"/>
	<g>
		
			<line fill="none" stroke="#000000" stroke-width="0.5669" stroke-miterlimit="10" x1="421.147" y1="136.462" x2="444.981" y2="136.462"/>
		<g>
			<polygon points="443.708,138.142 444.423,136.462 443.708,134.783 447.69,136.462 			"/>
		</g>
	</g>
</g>
<g>
	<text transform="matrix(1 0 0 1 409.3477 55.2803)" font-family="'CMR10'" font-size="8.5039">flat</text>
	<text transform="matrix(1 0 0 1 409.3477 65.8945)" font-family="'CMR10'" font-size="8.5039">warm</text>
	<text transform="matrix(1 0 0 1 409.3477 76.7803)" font-family="'CMR10'" font-size="8.5039">random</text>
	<path fill="#FFFFFF" stroke="#000000" stroke-width="0.5669" stroke-miterlimit="10" d="M406.399,46.771v32.396V46.771z"/>
	<text transform="matrix(1 0 0 1 367.8398 66.1074)" font-family="'CMR10'" font-size="8.5039">estimate.</text>
	<path fill="#E6E7E8" d="M462.465,76.42l-2.732,2.335l-8.163,0.412l-10.309,0.113V46.769c0,0,5.094,0.07,10.309,0.121
		c4.44,0.043,8.683-0.447,10.237,1.791c0.375,0.537,1.445,2.071,1.453,4.131c0.018,5.022,0.088,11.363,0.109,15.314
		C463.402,74.574,462.465,76.42,462.465,76.42z"/>
	<path fill="#FFFFFF" stroke="#000000" stroke-width="0.5669" stroke-miterlimit="10" d="M441.261,46.801v32.366V46.801z"/>
	
		<line fill="#FFFFFF" stroke="#000000" stroke-width="0.5669" stroke-miterlimit="10" x1="406.397" y1="68.501" x2="463.277" y2="68.501"/>
	
		<line fill="#FFFFFF" stroke="#000000" stroke-width="0.5669" stroke-miterlimit="10" x1="406.397" y1="57.834" x2="463.277" y2="57.834"/>
	<text transform="matrix(1 0 0 1 447.9219 55.2808)" font-family="'CMR10'" font-size="8.5039">i1</text>
	<text transform="matrix(1 0 0 1 447.9219 66.1782)" font-family="'CMR10'" font-size="8.5039">i2</text>
	<text transform="matrix(1 0 0 1 447.9219 76.7803)" font-family="'CMR10'" font-size="8.5039">i3</text>
	<path fill="none" stroke="#000000" stroke-width="0.5669" stroke-miterlimit="10" d="M463.277,73.498
		c0,3.132-2.537,5.67-5.668,5.67H370.2c-3.131,0-5.67-2.538-5.67-5.67V52.437c0-3.131,2.539-5.669,5.67-5.669h87.409
		c3.131,0,5.668,2.538,5.668,5.669V73.498z"/>
</g>
<g>
	<g>
		<path fill="none" stroke="#000000" stroke-width="0.5669" stroke-miterlimit="10" d="M464.545,63.025h18.691
			c3.119,0,5.67,2.551,5.67,5.669v18.857"/>
		<g>
			<polygon points="487.227,86.277 488.906,86.991 490.586,86.277 488.906,90.258 			"/>
		</g>
	</g>
</g>
<g>
	<g>
		<path fill="none" stroke="#000000" stroke-width="0.5669" stroke-miterlimit="10" d="M553.836,127.033h-6.154
			c-3.117,0-5.668-2.551-5.668-5.669v-12.092c0-3.118-2.551-5.669-5.67-5.669h-6.297"/>
		<g>
			<polygon points="552.563,125.353 553.277,127.033 552.563,128.712 556.545,127.033 			"/>
		</g>
	</g>
</g>
<g>
	<g>
		<path fill="none" stroke="#000000" stroke-width="0.5669" stroke-miterlimit="10" d="M553.836,146.441h-6.154
			c-3.117,0-5.668,2.551-5.668,5.669v12.09c0,3.118-2.551,5.669-5.67,5.669h-6.297"/>
		<g>
			<polygon points="552.563,144.761 553.277,146.441 552.563,148.121 556.545,146.441 			"/>
		</g>
	</g>
</g>
<g>
	<line fill="#FFFFFF" x1="530.049" y1="136.462" x2="556.545" y2="136.462"/>
	<g>
		
			<line fill="none" stroke="#000000" stroke-width="0.5669" stroke-miterlimit="10" x1="530.049" y1="136.462" x2="553.838" y2="136.462"/>
		<g>
			<polygon points="552.564,138.142 553.277,136.462 552.564,134.783 556.545,136.462 			"/>
		</g>
	</g>
</g>
<path fill="#E6E7E8" d="M662.199,125.097h-22.016v10.75c0,0,5.506,0.105,11.193,0c3.023-0.057,10.807-0.084,10.807-0.084
	s0.076-4.91,0.105-6.869C662.322,126.699,662.199,125.097,662.199,125.097z"/>
<path fill="#FFFFFF" stroke="#000000" stroke-width="0.5669" stroke-miterlimit="10" d="M640.328,49.125v87.204V49.125z"/>
<line fill="#FFFFFF" stroke="#000000" stroke-width="0.5669" stroke-miterlimit="10" x1="558.076" y1="114.287" x2="662.342" y2="114.287"/>
<line fill="#FFFFFF" stroke="#000000" stroke-width="0.5669" stroke-miterlimit="10" x1="640.328" y1="103.62" x2="662.342" y2="103.62"/>
<line fill="none" stroke="#000000" stroke-width="0.5669" stroke-miterlimit="10" x1="640.328" y1="124.953" x2="662.342" y2="124.953"/>
<text transform="matrix(1 0 0 1 562.7803 128.6284)" font-family="'CMR10'" font-size="8.5039">estimate.branch</text>
<text transform="matrix(1 0 0 1 562.7813 106.1128)" font-family="'CMR10'" font-size="8.5039">estimate.bus</text>
<text transform="matrix(1 0 0 1 648.1816 101.0654)" font-family="'CMR10'" font-size="8.5039">1</text>
<text transform="matrix(1 0 0 1 648.1816 111.9629)" font-family="'CMR10'" font-size="8.5039">0</text>
<text transform="matrix(1 0 0 1 648.1816 122.5654)" font-family="'CMR10'" font-size="8.5039">0</text>
<text transform="matrix(1 0 0 1 648.1816 133.396)" font-family="'CMR10'" font-size="8.5039">1</text>
<path fill="#E6E7E8" d="M662.342,158.177h-22.014v-11.066h22.014c0,0,0.061,5.311,0.092,7.27
	C662.467,156.576,662.342,158.177,662.342,158.177z"/>
<path fill="#FFFFFF" stroke="#000000" stroke-width="0.5669" stroke-miterlimit="10" d="M640.328,136.33v43.777V136.33z"/>
<line fill="#FFFFFF" stroke="#000000" stroke-width="0.5669" stroke-miterlimit="10" x1="558.074" y1="158.064" x2="662.342" y2="158.064"/>
<line fill="#FFFFFF" stroke="#000000" stroke-width="0.5669" stroke-miterlimit="10" x1="640.328" y1="147.396" x2="662.342" y2="147.396"/>
<line fill="none" stroke="#000000" stroke-width="0.5669" stroke-miterlimit="10" x1="640.328" y1="168.73" x2="662.342" y2="168.73"/>
<text transform="matrix(1 0 0 1 562.7813 172.4053)" font-family="'CMR10'" font-size="8.5039">estimate.evaluation</text>
<text transform="matrix(1 0 0 1 562.7803 149.8896)" font-family="'CMR10'" font-size="8.5039">estimate.estimation</text>
<text transform="matrix(1 0 0 1 648.1816 144.8423)" font-family="'CMR10'" font-size="8.5039">0</text>
<text transform="matrix(1 0 0 1 648.1816 155.7397)" font-family="'CMR10'" font-size="8.5039">1</text>
<text transform="matrix(1 0 0 1 648.1816 166.3423)" font-family="'CMR10'" font-size="8.5039">0</text>
<text transform="matrix(1 0 0 1 648.1816 177.1729)" font-family="'CMR10'" font-size="8.5039">1</text>
<line fill="#FFFFFF" stroke="#000000" stroke-width="0.5669" stroke-miterlimit="10" x1="558.076" y1="136.33" x2="662.342" y2="136.33"/>
<g>
	<path fill="none" stroke="#000000" stroke-width="0.5669" stroke-miterlimit="10" d="M770.527,34.5
		c0,4.677-3.643,7.335-8.096,5.905l-5.023-1.611c-4.453-1.43-11.82-1.718-16.373-0.642c0,0-21.699,5.132-28.879,5.135
		c-6.877,0.003-10.613-0.433-10.613-0.433c-4.646-0.542-8.447-4.813-8.447-9.489V28.65c0-4.677,3.828-8.504,8.504-8.504h60.424
		c4.678,0,8.504,3.827,8.504,8.504V34.5z"/>
</g>
<g>
	<path fill="#F1F2F2" d="M759.387,113.04c0.143,3.883-1.08,8.598-1.08,8.598c-0.393,1.51-1.988,2.744-3.547,2.744h-46.676
		c-1.561,0-3.652-0.98-4.65-2.178l-4.4-5.283c-0.998-1.197-1.137-3.259-0.309-4.579l4.451-7.1c0.828-1.32,2.781-2.401,4.342-2.401
		h45.541c1.559,0,3.463,1.11,4.229,2.468C757.287,105.308,759.229,108.745,759.387,113.04z"/>
	<path fill="none" stroke="#000000" stroke-width="0.5669" stroke-miterlimit="10" d="M759.387,113.04
		c0.143,3.883-1.08,8.598-1.08,8.598c-0.393,1.51-1.988,2.744-3.547,2.744h-46.676c-1.561,0-3.652-0.98-4.65-2.178l-4.4-5.283
		c-0.998-1.197-1.137-3.259-0.309-4.579l4.451-7.1c0.828-1.32,2.781-2.401,4.342-2.401h45.541c1.559,0,3.463,1.11,4.229,2.468
		C757.287,105.308,759.229,108.745,759.387,113.04z"/>
</g>
<text transform="matrix(1 0 0 1 718.127 115.7026)" font-family="'CMR10'" font-size="8.5039">Display</text>
<path fill="#E6E7E8" d="M768.764,61.379c-0.652-0.354-1.084-0.176-1.084-0.176h-18.207v10.498c0,0,11.518,0.17,18.893-0.013
	c1.02-0.025,2.795,0.169,3.559,0.083c0.416-0.047-0.287-1.282-0.014-2.258c0.432-1.537-0.395-3.637-0.383-4.813
	c0.01-0.922-0.568-1.582-1.107-2.092C770.014,62.227,769.709,61.891,768.764,61.379z"/>
<line fill="#FFFFFF" stroke="#000000" stroke-width="0.5669" stroke-miterlimit="10" x1="749.473" y1="71.997" x2="771.924" y2="71.997"/>
<text transform="matrix(1 0 0 1 758.1563 69.4443)" font-family="'CMR10'" font-size="8.5039">1</text>
<text transform="matrix(1 0 0 1 758.1563 80.3418)" font-family="'CMR10'" font-size="8.5039">0</text>
<path fill="#FFFFFF" stroke="#000000" stroke-width="0.5669" stroke-miterlimit="10" d="M749.635,60.829v21.736V60.829z"/>
<text transform="matrix(1 0 0 1 696.1074 74.772)" font-family="'CMR10'" font-size="8.5039">estimate.save</text>
<path fill="none" stroke="#000000" stroke-width="0.5669" stroke-miterlimit="10" d="M771.924,76.896
	c0,3.132-2.338,5.669-5.223,5.669h-69.283c-2.885,0-5.223-2.537-5.223-5.669V66.502c0-3.131,2.338-5.67,5.223-5.67h69.283
	c2.885,0,5.223,2.539,5.223,5.67V76.896z"/>
<g>
	<line fill="#FFFFFF" x1="731.732" y1="100.94" x2="731.732" y2="83.94"/>
	<g>
		
			<line fill="none" stroke="#000000" stroke-width="0.5669" stroke-miterlimit="10" x1="731.732" y1="100.94" x2="731.732" y2="86.647"/>
		<g>
			<polygon points="733.412,87.921 731.732,87.208 730.053,87.921 731.732,83.94 			"/>
		</g>
	</g>
</g>
<text transform="matrix(1 0 0 1 712.6338 32.1079)" font-family="'CMR10'" font-size="8.5039">Save Data</text>
<g>
	<g>
		<path fill="none" stroke="#000000" stroke-width="0.5669" stroke-miterlimit="10" d="M732.127,44.836c0,0.609,0,1.29,0,2.007
			c0,2.592,2.551,4.713,5.67,4.713h16.465c3.119,0,5.67,1.747,5.67,3.882s0,3.882,0,3.882"/>
		<g>
			<polygon points="730.447,46.111 732.127,45.397 733.807,46.111 732.127,42.129 			"/>
		</g>
	</g>
</g>
<g>
	<g>
		<path fill="none" stroke="#000000" stroke-width="0.5669" stroke-miterlimit="10" d="M694.496,111.967H683.27
			c-3.117,0-5.668-2.551-5.668-5.669v-0.708c0-3.118-2.551-5.669-5.67-5.669h-7.322"/>
		<g>
			<polygon points="693.221,110.288 693.936,111.967 693.221,113.647 697.203,111.967 			"/>
		</g>
	</g>
</g>
<g>
	<g>
		<path fill="none" stroke="#000000" stroke-width="0.5669" stroke-miterlimit="10" d="M535.629,203.909v-56.012
			c0-3.118-1.23-5.669-2.732-5.669s-2.73,0-2.73,0"/>
		<g>
			<polygon points="537.309,202.635 535.629,203.349 533.949,202.635 535.629,206.617 			"/>
		</g>
	</g>
</g>
<g>
	<g>
		<path fill="none" stroke="#000000" stroke-width="0.5669" stroke-miterlimit="10" d="M488.408,182.661v30.359
			c0,3.118,2.551,5.669,5.668,5.669h4.24"/>
		<g>
			<polygon points="497.043,220.369 497.758,218.689 497.043,217.009 501.025,218.689 			"/>
		</g>
	</g>
</g>
<path fill="#E6E7E8" d="M584.123,208.656c-0.652-0.355-1.084-0.178-1.084-0.178h-18.207v10.498c0,0,11.518,0.172,18.893-0.012
	c1.02-0.025,2.795,0.168,3.559,0.082c0.416-0.045-0.287-1.281-0.014-2.258c0.432-1.537-0.395-3.637-0.383-4.811
	c0.01-0.924-0.568-1.584-1.107-2.092C585.373,209.501,585.068,209.166,584.123,208.656z"/>
<line fill="#FFFFFF" stroke="#000000" stroke-width="0.5669" stroke-miterlimit="10" x1="564.832" y1="219.273" x2="587.283" y2="219.273"/>
<text transform="matrix(1 0 0 1 573.5195 216.7183)" font-family="'CMR10'" font-size="8.5039">1</text>
<text transform="matrix(1 0 0 1 573.5195 227.6157)" font-family="'CMR10'" font-size="8.5039">0</text>
<path fill="#FFFFFF" stroke="#000000" stroke-width="0.5669" stroke-miterlimit="10" d="M564.994,208.103v21.738V208.103z"/>
<text transform="matrix(1 0 0 1 506.1748 222.0459)" font-family="'CMR10'" font-size="8.5039">estimate.linear</text>
<path fill="none" stroke="#000000" stroke-width="0.5669" stroke-miterlimit="10" d="M587.283,224.171
	c0,3.131-2.537,5.67-5.668,5.67h-73.371c-3.129,0-5.668-2.539-5.668-5.67v-10.398c0-3.131,2.539-5.67,5.668-5.67h73.371
	c3.131,0,5.668,2.539,5.668,5.67V224.171z"/>
<g>
	<line fill="#FFFFFF" x1="588.873" y1="214.734" x2="605.873" y2="214.734"/>
	<g>
		
			<line fill="none" stroke="#000000" stroke-width="0.5669" stroke-miterlimit="10" x1="588.873" y1="214.734" x2="603.166" y2="214.734"/>
		<g>
			<polygon points="601.893,216.414 602.605,214.734 601.893,213.054 605.873,214.734 			"/>
		</g>
	</g>
</g>
<g>
	<path fill="none" stroke="#000000" stroke-width="0.5669" stroke-miterlimit="10" d="M693.611,217.291
		c0,4.677-3.68,7.452-8.178,6.166l-7.461-2.133c-4.498-1.286-11.922-1.549-16.498-0.584c0,0-25.324,5.336-33.383,5.34
		c-7.719,0.002-12.938-0.54-12.938-0.54c-4.65-0.484-8.457-4.707-8.457-9.384v-4.715c0-4.677,3.826-8.504,8.504-8.504h69.906
		c4.676,0,8.504,3.827,8.504,8.504V217.291z"/>
</g>
<text transform="matrix(1 0 0 1 612.4648 214.8989)" font-family="'CMR10'" font-size="8.5039">Export Matrix Form</text>
<g>
	<line fill="#FFFFFF" x1="195.89" y1="137.041" x2="224.213" y2="137.041"/>
	<g>
		
			<line fill="none" stroke="#000000" stroke-width="0.5669" stroke-miterlimit="10" x1="195.89" y1="137.041" x2="221.505" y2="137.041"/>
		<g>
			<polygon points="220.231,138.72 220.945,137.041 220.231,135.361 224.213,137.041 			"/>
		</g>
	</g>
</g>
<path fill="#E6E7E8" d="M662.465,59.766h-22.014v-10.75c0,0,12.965-1.189,19.619,1.047c1.484,0.498,2.455,3.948,2.486,5.907
	C662.59,58.165,662.465,59.766,662.465,59.766z"/>
<line fill="#FFFFFF" stroke="#000000" stroke-width="0.5669" stroke-miterlimit="10" x1="558.074" y1="70.433" x2="662.461" y2="70.433"/>
<line fill="#FFFFFF" stroke="#000000" stroke-width="0.5669" stroke-miterlimit="10" x1="640.451" y1="59.766" x2="662.465" y2="59.766"/>
<line fill="none" stroke="#000000" stroke-width="0.5669" stroke-miterlimit="10" x1="640.451" y1="81.1" x2="662.465" y2="81.1"/>
<text transform="matrix(1 0 0 1 562.7803 84.7817)" font-family="'CMR10'" font-size="8.5039">flow.branch</text>
<text transform="matrix(1 0 0 1 562.7803 62.2661)" font-family="'CMR10'" font-size="8.5039">flow.bus</text>
<text transform="matrix(1 0 0 1 648.3066 57.2188)" font-family="'CMR10'" font-size="8.5039">1</text>
<text transform="matrix(1 0 0 1 648.3066 68.1162)" font-family="'CMR10'" font-size="8.5039">0</text>
<text transform="matrix(1 0 0 1 648.3066 78.7188)" font-family="'CMR10'" font-size="8.5039">1</text>
<text transform="matrix(1 0 0 1 648.3066 89.5493)" font-family="'CMR10'" font-size="8.5039">1</text>
<path fill="none" stroke="#000000" stroke-width="0.5669" stroke-miterlimit="10" d="M662.631,174.437
	c0,3.131-2.539,5.669-5.67,5.669h-93.219c-3.131,0-5.668-2.538-5.668-5.669V54.37c0-3.131,2.537-5.669,5.668-5.669h93.219
	c3.131,0,5.67,2.538,5.67,5.669V174.437z"/>
<line fill="#FFFFFF" stroke="#000000" stroke-width="0.5669" stroke-miterlimit="10" x1="558.076" y1="92.763" x2="662.631" y2="92.763"/>
<g>
	<g>
		<path fill="none" stroke="#000000" stroke-width="0.5669" stroke-miterlimit="10" d="M664.609,55.284h12.621
			c3.119,0,5.67,2.551,5.67,5.669v33.767c0,3.118,2.551,5.669,5.668,5.669h3.135c3.119,0,6.807,0.552,8.197,1.228
			c0.031,0.015,0.061,0.03,0.092,0.045"/>
		<g>
			<polygon points="698.111,102.648 699.479,101.438 699.555,99.615 702.428,102.842 			"/>
		</g>
	</g>
</g>
<g>
	<g>
		<path fill="none" stroke="#000000" stroke-width="0.5669" stroke-miterlimit="10" d="M664.609,75.573h9.148
			c3.119,0,5.67,2.551,5.67,5.669v18.888c0,3.118,2.551,5.669,5.668,5.669h6.051c2.275,0,4.602,0.122,6.008,0.297"/>
		<g>
			<polygon points="695.492,107.479 696.592,106.023 696.309,104.221 699.762,106.818 			"/>
		</g>
	</g>
</g>
<g>
	<g>
		<path fill="none" stroke="#000000" stroke-width="0.5669" stroke-miterlimit="10" d="M694.496,117.478H683.27
			c-3.117,0-5.668,2.551-5.668,5.669v0.708c0,3.118-2.551,5.669-5.67,5.669h-7.322"/>
		<g>
			<polygon points="693.221,115.798 693.936,117.478 693.221,119.158 697.203,117.478 			"/>
		</g>
	</g>
</g>
<g>
	<g>
		<path fill="none" stroke="#000000" stroke-width="0.5669" stroke-miterlimit="10" d="M664.609,172.522h12.621
			c3.119,0,5.67-2.551,5.67-5.669v-33.767c0-3.118,2.551-5.669,5.668-5.669h3.135c3.119,0,6.807-0.552,8.197-1.228
			c0.031-0.015,0.061-0.03,0.092-0.045"/>
		<g>
			<polygon points="699.555,128.191 699.479,126.368 698.111,125.158 702.428,124.963 			"/>
		</g>
	</g>
</g>
<g>
	<g>
		<path fill="none" stroke="#000000" stroke-width="0.5669" stroke-miterlimit="10" d="M664.609,152.233h9.148
			c3.119,0,5.67-2.551,5.67-5.669v-18.888c0-3.118,2.551-5.669,5.668-5.669h6.051c2.275,0,4.602-0.122,6.008-0.297"/>
		<g>
			<polygon points="696.309,123.584 696.592,121.783 695.492,120.327 699.762,120.988 			"/>
		</g>
	</g>
</g>
<g>
	<g>
		<path fill="none" stroke="#000000" stroke-width="0.5669" stroke-miterlimit="10" d="M202.239,77.812h6.942
			c1.93,0,3.508-1.579,3.508-3.508v-3.206c0-1.929,1.579-3.508,3.508-3.508h5.674c1.93,0,3.508-1.579,3.508-3.508l0-29.014
			c0-1.929,1.579-3.508,3.508-3.508h305.99c1.929,0,3.508,1.579,3.508,3.508l-0.001,42.112c0,1.929,1.579,3.508,3.508,3.508h10.05"
			/>
		<g>
			<polygon points="550.668,82.369 551.382,80.689 550.668,79.009 554.649,80.689 			"/>
		</g>
	</g>
</g>
<g>
	<line fill="#FFFFFF" x1="160.187" y1="93.011" x2="160.187" y2="121.334"/>
	<g>
		
			<line fill="none" stroke="#000000" stroke-width="0.5669" stroke-miterlimit="10" x1="160.187" y1="93.011" x2="160.187" y2="118.627"/>
		<g>
			<polygon points="158.507,117.353 160.187,118.067 161.867,117.353 160.187,121.334 			"/>
		</g>
	</g>
</g>
</svg>
