<?xml version="1.0" encoding="utf-8"?>
<!-- Generator: Adobe Illustrator 16.0.0, SVG Export Plug-In . SVG Version: 6.00 Build 0)  -->
<!DOCTYPE svg PUBLIC "-//W3C//DTD SVG 1.1//EN" "http://www.w3.org/Graphics/SVG/1.1/DTD/svg11.dtd">
<svg version="1.1" id="Layer_1" xmlns="http://www.w3.org/2000/svg" xmlns:xlink="http://www.w3.org/1999/xlink" x="0px" y="0px"
	 width="866px" height="260px" viewBox="0 0 866 260" enable-background="new 0 0 866 260" xml:space="preserve">
<path fill="#E6E7E8" d="M750.031,143.884c0,3.131-2.539,5.668-5.67,5.668h-29.689c-1.761,0-5.669-0.151-5.669-0.151s0-4.146,0-5.517
	V90.429c0-1.758,0-5.669,0-5.669s4.297,0,5.669,0h29.689c3.131,0,5.67,2.538,5.67,5.669V143.884z"/>
<text transform="matrix(1 0 0 1 123.6067 129.5762)" fill="#231F20" font-family="'CMR10'" font-size="8.5039">AC Power Flow</text>
<g>
	<line fill="none" x1="83.699" y1="127.28" x2="112.024" y2="127.28"/>
	<g>
		
			<line fill="none" stroke="#231F20" stroke-width="0.5669" stroke-miterlimit="10" x1="83.699" y1="127.28" x2="109.316" y2="127.28"/>
		<g>
			<polygon fill="#231F20" points="108.041,128.96 108.755,127.28 108.041,125.601 112.024,127.28 			"/>
		</g>
	</g>
</g>
<path fill="none" stroke="#231F20" stroke-width="0.5669" stroke-miterlimit="10" d="M193.353,132.278
	c0,3.135-2.338,5.678-5.225,5.678h-69.281c-2.887,0-5.225-2.542-5.225-5.678v-10.395c0-3.132,2.338-5.668,5.225-5.668h69.281
	c2.887,0,5.225,2.536,5.225,5.668V132.278z"/>
<g>
	<g>
		<path fill="none" stroke="#231F20" stroke-width="0.5669" stroke-miterlimit="10" d="M134.205,111.974v-6.182
			c0-3.118-2.551-5.669-5.669-5.669l-12.09,0.001c-3.118,0-5.669-2.551-5.669-5.669v-6.319"/>
		<g>
			<polygon fill="#231F20" points="135.886,110.699 134.205,111.413 132.527,110.699 134.205,114.681 			"/>
		</g>
	</g>
</g>
<g>
	<g>
		<path fill="none" stroke="#231F20" stroke-width="0.5669" stroke-miterlimit="10" d="M170.353,111.974v-6.182
			c0-3.118,2.551-5.669,5.669-5.669l12.06,0.001c3.118,0,5.669-2.551,5.669-5.669v-6.319"/>
		<g>
			<polygon fill="#231F20" points="172.031,110.699 170.353,111.413 168.672,110.699 170.353,114.681 			"/>
		</g>
	</g>
</g>
<g>
	<line fill="none" x1="47.541" y1="94.136" x2="47.541" y2="111.136"/>
	<g>
		
			<line fill="none" stroke="#231F20" stroke-width="0.5669" stroke-miterlimit="10" x1="47.541" y1="94.136" x2="47.541" y2="108.429"/>
		<g>
			<polygon fill="#231F20" points="45.863,107.154 47.541,107.868 49.222,107.154 47.541,111.136 			"/>
		</g>
	</g>
</g>
<g>
	<line fill="none" x1="195.044" y1="131.532" x2="223.368" y2="131.532"/>
	<g>
		
			<line fill="none" stroke="#231F20" stroke-width="0.5669" stroke-miterlimit="10" x1="195.044" y1="131.532" x2="220.66" y2="131.532"/>
		<g>
			<polygon fill="#231F20" points="219.387,133.212 220.101,131.532 219.387,129.853 223.368,131.532 			"/>
		</g>
	</g>
</g>
<g>
	<path fill="#BE3629" d="M289.991,118.074l-61.306,0.226c0,0-2.14,0.688-2.535,1.887c-0.356,1.078-0.915,0.979-1.111,2.127
		c-0.262,1.527-0.104,4.181-0.104,4.181v14.067c0,0,1.947,3.521,4.193,3.72c1.234,0.106,3.907,0.166,3.907,0.166h48.728l8.588-0.243
		c0,0,2.406-1.445,3.758-3.257l0.139-7.642c0,0,0.271-9.764-0.373-11.856C293.275,119.481,289.991,118.074,289.991,118.074z"/>
	<text transform="matrix(1 0 0 1 232.9836 133.7793)" fill="#FFFFFF" font-family="'CMR10'" font-size="8.5039">Measurements</text>
	<path fill="none" stroke="#231F20" stroke-width="0.5669" stroke-miterlimit="10" d="M294.247,139.237
		c0,2.877-2.538,5.208-5.669,5.208h-57.974c-3.131,0-5.669-2.331-5.669-5.208v-15.941c0-2.877,2.538-5.209,5.669-5.209h57.974
		c3.131,0,5.669,2.332,5.669,5.209V139.237z"/>
</g>
<g>
	<g>
		<path fill="none" stroke="#231F20" stroke-width="0.5669" stroke-miterlimit="10" d="M251.765,148.929v10.56
			c0,3.116-2.553,5.669-5.669,5.669l-42.412-0.004c-3.118,0-5.669,2.551-5.669,5.669v9.925"/>
		<g>
			<polygon fill="#231F20" points="250.084,150.203 251.765,149.489 253.445,150.203 251.765,146.222 			"/>
		</g>
	</g>
</g>
<path fill="#BE3629" d="M404.04,117.496l-73.444,0.226c0,0-2.815,0.782-3.29,1.979c-0.995,2.513-1.203,1.966-1.203,1.966v17.397
	l1.416,2.839c0,0,0.641,1.995,5.037,1.949c13.546-0.137,71.627,0.002,71.627,0.002l3.066-1.463c0,0,1.491-2.181,1.871-4.207
	l0.02-5.459c0,0,0.1-10.102-0.67-12.194C407.749,118.565,404.04,117.496,404.04,117.496z"/>
<text transform="matrix(1 0 0 1 336.1565 132.6514)" fill="#FFFFFF" font-family="'CMR10'" font-size="8.5039">State Estimation</text>
<g>
	<line fill="none" x1="410.444" y1="130.673" x2="427.444" y2="130.673"/>
	<g>
		
			<line fill="none" stroke="#231F20" stroke-width="0.5669" stroke-miterlimit="10" x1="410.444" y1="130.673" x2="424.736" y2="130.673"/>
		<g>
			<polygon fill="#231F20" points="423.461,132.351 424.175,130.673 423.461,128.992 427.444,130.673 			"/>
		</g>
	</g>
</g>
<path fill="none" stroke="#231F20" stroke-width="0.5669" stroke-miterlimit="10" d="M409.12,138.185
	c0,3.132-2.538,5.668-5.67,5.668h-71.66c-3.132,0-5.67-2.536-5.67-5.668v-15.021c0-3.133,2.538-5.67,5.67-5.67h71.66
	c3.132,0,5.67,2.537,5.67,5.67V138.185z"/>
<g>
	<line fill="none" x1="295.666" y1="131.25" x2="323.99" y2="131.25"/>
	<g>
		
			<line fill="none" stroke="#231F20" stroke-width="0.5669" stroke-miterlimit="10" x1="295.666" y1="131.25" x2="321.282" y2="131.25"/>
		<g>
			<polygon fill="#231F20" points="320.008,132.931 320.722,131.25 320.008,129.57 323.99,131.25 			"/>
		</g>
	</g>
</g>
<g>
	<g>
		<path fill="none" stroke="#231F20" stroke-width="0.5669" stroke-miterlimit="10" d="M195.324,121.325h7.977
			c3.118,0,5.671-2.551,5.671-5.669v-9.106c0-3.118,2.551-5.669,5.669-5.669h5.231c3.118,0,5.669-2.551,5.669-5.669V23.445
			c0-3.118,2.551-5.669,5.669-5.669h397.387c3.118,0,5.669,2.551,5.669,5.669l-0.001,63.886c0,3.118,2.553,5.669,5.669,5.669h12.861
			"/>
		<g>
			<polygon fill="#231F20" points="651.523,94.68 652.237,93 651.523,91.32 655.504,93 			"/>
		</g>
	</g>
</g>
<g>
	<path fill="#BE3629" d="M77.943,66.388l-61.306,0.283c0,0-2.14,0.857-2.535,1.525c-0.831,1.4-1.215,2.885-1.215,2.885v9.904
		c0,0,43.306,0.209,69.313,0v-6.106c0,0-0.005-4.45-0.646-5.618C80.95,68.165,77.943,66.388,77.943,66.388z"/>
	<path fill="#E6E7E8" d="M77.657,92.738H17.202l-3.3-2.019l-1.019-2.168v-7.399c0,0,43.308-0.166,69.313,0v7.684
		c0,0-0.572,0.815-1.214,1.743C80.382,91.449,77.657,92.738,77.657,92.738z"/>
	<path fill="#FFFFFF" stroke="#231F20" stroke-width="0.5669" stroke-miterlimit="10" d="M12.885,81.14h69.313H12.885z"/>
	<text transform="matrix(1 0 0 1 25.342 76.4453)" fill="#FFFFFF" font-family="'CMR10'" font-size="8.5039">Power Flow</text>
	<text transform="matrix(1 0 0 1 16.6331 89.3955)" fill="#231F20" font-family="'CMR10'" font-size="7.0866">power</text>
	<text transform="matrix(1 0 0 1 35.1438 89.3955)" fill="#231F20" font-family="'ArialMT'" font-size="5.6693">_</text>
	<text transform="matrix(1 0 0 1 38.2961 89.3955)" fill="#231F20" font-family="'CMR10'" font-size="7.0866">estimation.m</text>
	<path fill="none" stroke="#231F20" stroke-width="0.5669" stroke-miterlimit="10" d="M82.198,87.53
		c0,2.877-2.538,5.208-5.669,5.208H18.555c-3.133,0-5.669-2.331-5.669-5.208V71.597c0-2.877,2.536-5.209,5.669-5.209h57.974
		c3.131,0,5.669,2.332,5.669,5.209V87.53z"/>
</g>
<text transform="matrix(1 0 0 1 34.8499 124.4385)" fill="#231F20" font-family="'CMR10'" font-size="8.5039">DATA</text>
<path fill="#E6E7E8" d="M77.657,140.463H17.202l-3.3-2.019l-1.019-2.17v-7.405c0,0,43.308-0.166,69.313,0v7.688
	c0,0-0.572,0.817-1.214,1.748C80.382,139.175,77.657,140.463,77.657,140.463z"/>
<path fill="#FFFFFF" stroke="#231F20" stroke-width="0.5669" stroke-miterlimit="10" d="M12.885,128.857h69.313H12.885z"/>
<text transform="matrix(1 0 0 1 26.2039 137.1143)" fill="#231F20" font-family="'CMR10'" font-size="7.0866">mat-file name</text>
<path fill="none" stroke="#231F20" stroke-width="0.5669" stroke-miterlimit="10" d="M82.198,135.25
	c0,2.882-2.538,5.212-5.669,5.212H18.555c-3.133,0-5.669-2.33-5.669-5.212v-15.937c0-2.877,2.536-5.209,5.669-5.209h57.974
	c3.131,0,5.669,2.332,5.669,5.209V135.25z"/>
<g>
	<path fill="#E6E7E8" d="M97.518,76h55.978v10.917c0,0-32.538,0.09-50.166-0.178c-6.357-0.097-5.969-5.198-6.043-7.084
		C97.203,77.542,97.518,76,97.518,76z"/>
	<path fill="#E6E7E8" d="M209.323,76h-55.881v10.917c0,0,32.48,0.09,50.08-0.178c6.349-0.097,5.959-5.198,6.033-7.084
		C209.638,77.542,209.323,76,209.323,76z"/>
	<path fill="#FFFFFF" stroke="#231F20" stroke-width="0.5669" stroke-miterlimit="10" d="M153.556,76.003v11.004V76.003z"/>
	
		<line fill="none" stroke="#231F20" stroke-width="0.5669" stroke-miterlimit="10" x1="97.494" y1="76.003" x2="209.615" y2="76.003"/>
	<text transform="matrix(1 0 0 1 140.8621 69.0928)" fill="#231F20" font-family="'CMR10'" font-size="8.5039">LIMIT</text>
	<text transform="matrix(1 0 0 1 170.3938 83.5654)" fill="#231F20" font-family="'CMR10'" font-size="7.0866">voltage</text>
	<path fill="none" stroke="#231F20" stroke-width="0.5669" stroke-miterlimit="10" d="M209.615,81.225
		c0,3.132-2.537,5.67-5.668,5.67H103.163c-3.131,0-5.669-2.538-5.669-5.67V62.837c0-3.132,2.538-5.67,5.669-5.67h100.784
		c3.131,0,5.668,2.538,5.668,5.67L209.615,81.225L209.615,81.225z"/>
	<text transform="matrix(1 0 0 1 113.2791 83.5654)" fill="#231F20" font-family="'CMR10'" font-size="7.0866">reactive</text>
</g>
<g>
	<path fill="#E6E7E8" d="M395.472,236.372c0,3.125-3.268,5.664-7.299,5.664h-69.269c-2.391,0-7.297,0-7.297,0s0-4.393,0-5.664
		V193.45c0-1.549,0-5.67,0-5.67s5.26,0,7.297,0h69.269c4.031,0,7.299,2.539,7.299,5.67V236.372z"/>
	<path fill="#FFFFFF" stroke="#231F20" stroke-width="0.5669" stroke-miterlimit="10" d="M311.61,187.78v54.256V187.78z"/>
	
		<line fill="none" stroke="#231F20" stroke-width="0.5669" stroke-miterlimit="10" x1="311.515" y1="199.413" x2="395.24" y2="199.413"/>
	<text transform="matrix(1 0 0 1 316.5276 196.2969)" fill="#231F20" font-family="'CMR10'" font-size="7.0866">pmuRedundancy, value</text>
	
		<line fill="none" stroke="#231F20" stroke-width="0.5669" stroke-miterlimit="10" x1="311.515" y1="231.263" x2="395.24" y2="231.263"/>
	
		<line fill="none" stroke="#231F20" stroke-width="0.5669" stroke-miterlimit="10" x1="311.515" y1="220.597" x2="395.24" y2="220.597"/>
	<text transform="matrix(1 0 0 1 275.7595 217.4189)" fill="#231F20" font-family="'CMR10'" font-size="8.5039">SET</text>
	
		<line fill="none" stroke="#231F20" stroke-width="0.5669" stroke-miterlimit="10" x1="311.516" y1="210.646" x2="395.24" y2="210.646"/>
	<text transform="matrix(1 0 0 1 316.5276 207.2822)" fill="#231F20" font-family="'CMR10'" font-size="7.0866">pmuDevice, value</text>
	<text transform="matrix(1 0 0 1 316.5276 217.9658)" fill="#231F20" font-family="'CMR10'" font-size="7.0866">pmuOptimal</text>
	<text transform="matrix(1 0 0 1 316.5276 228.2969)" fill="#231F20" font-family="'CMR10'" font-size="7.0866">legRedundancy, value</text>
	<text transform="matrix(1 0 0 1 316.5276 239.3984)" fill="#231F20" font-family="'CMR10'" font-size="7.0866">legDevice, value</text>
	<path fill="none" stroke="#231F20" stroke-width="0.5669" stroke-miterlimit="10" d="M395.472,236.372
		c0,3.125-2.537,5.664-5.671,5.664H271.756c-3.131,0-5.669-2.539-5.669-5.664V193.45c0-3.131,2.538-5.67,5.669-5.67h118.046
		c3.134,0,5.671,2.539,5.671,5.67L395.472,236.372L395.472,236.372z"/>
</g>
<g>
	<g>
		<path fill="none" stroke="#231F20" stroke-width="0.5669" stroke-miterlimit="10" d="M267.426,148.929v10.56
			c0,3.116,2.553,5.669,5.671,5.669l46.496-0.004c3.118,0,5.671,2.551,5.671,5.669v15.308"/>
		<g>
			<polygon fill="#231F20" points="265.746,150.203 267.426,149.489 269.106,150.203 267.426,146.222 			"/>
		</g>
	</g>
</g>
<g>
	<path fill="#E6E7E8" d="M259.577,241.724c0,3.738-2.835,5.646-6.334,5.646h-60.13c-2.076,0-6.334,0-6.334,0s0-5.256,0-6.776v-51.36
		c0-1.854,0-6.783,0-6.783s4.566,0,6.334,0h60.13c3.499,0,6.334,1.903,6.334,5.649V241.724z"/>
	<path fill="#FFFFFF" stroke="#231F20" stroke-width="0.5669" stroke-miterlimit="10" d="M187.064,182.447v64.922V182.447z"/>
	
		<line fill="none" stroke="#231F20" stroke-width="0.5669" stroke-miterlimit="10" x1="186.781" y1="194.08" x2="259.366" y2="194.08"/>
	<text transform="matrix(1 0 0 1 191.2839 190.9639)" fill="#231F20" font-family="'CMR10'" font-size="7.0866">pmuUnique, value</text>
	
		<line fill="none" stroke="#231F20" stroke-width="0.5669" stroke-miterlimit="10" x1="186.781" y1="225.931" x2="259.366" y2="225.931"/>
	
		<line fill="none" stroke="#231F20" stroke-width="0.5669" stroke-miterlimit="10" x1="186.781" y1="215.265" x2="259.366" y2="215.265"/>
	<text transform="matrix(1 0 0 1 134.2625 217.4189)" fill="#231F20" font-family="'CMR10'" font-size="8.5039">VARIANCE</text>
	
		<line fill="none" stroke="#231F20" stroke-width="0.5669" stroke-miterlimit="10" x1="186.781" y1="205.312" x2="259.366" y2="205.312"/>
	<text transform="matrix(1 0 0 1 191.2839 201.9492)" fill="#231F20" font-family="'CMR10'" font-size="7.0866">pmuRandom, value</text>
	<text transform="matrix(1 0 0 1 191.2839 212.6328)" fill="#231F20" font-family="'CMR10'" font-size="7.0866">pmuType, value</text>
	<text transform="matrix(1 0 0 1 191.2839 222.9639)" fill="#231F20" font-family="'CMR10'" font-size="7.0866">legUnique, value</text>
	<text transform="matrix(1 0 0 1 191.2839 234.0654)" fill="#231F20" font-family="'CMR10'" font-size="7.0866">legRandom, value</text>
	<text transform="matrix(1 0 0 1 191.2839 244.5732)" fill="#231F20" font-family="'CMR10'" font-size="7.0866">legType, value</text>
	
		<line fill="none" stroke="#231F20" stroke-width="0.5669" stroke-miterlimit="10" x1="186.921" y1="236.703" x2="259.508" y2="236.703"/>
	<path fill="none" stroke="#231F20" stroke-width="0.5669" stroke-miterlimit="10" d="M259.508,241.7
		c0,3.131-2.536,5.669-5.669,5.669H135.863c-3.131,0-5.669-2.538-5.669-5.669v-53.584c0-3.131,2.538-5.669,5.669-5.669h117.977
		c3.133,0,5.669,2.538,5.669,5.669V241.7z"/>
</g>
<path fill="#E6E7E8" d="M702.09,218.401c0,3.132-2.257,5.67-5.04,5.67h-38.42c-1.604,0-5.04,0-5.04,0s0-4.342,0-5.67v-10.397
	c0-1.55,0-5.67,0-5.67s3.634,0,5.04,0h38.42c2.783,0,5.04,2.538,5.04,5.67V218.401z"/>
<path fill="#E6E7E8" d="M518.106,145.445c-1.064,1.1-3.063,1.596-3.063,1.596h-31.277v-32.649c0,0,16.608-0.228,30.229-0.246
	c1.662-0.002,2.204,0.717,3.449,0.981c0.677,0.146,2.389,3.019,2.395,6.064c0.013,6.37-0.066,11.17-0.047,14.829
	c0.016,2.873-0.163,3.438-0.088,5.342C519.756,142.623,519.642,143.854,518.106,145.445z"/>
<line fill="none" stroke="#231F20" stroke-width="0.5669" stroke-miterlimit="10" x1="484.017" y1="136.454" x2="520.074" y2="136.454"/>
<path fill="#FFFFFF" stroke="#231F20" stroke-width="0.5669" stroke-miterlimit="10" d="M483.756,114.15v32.891V114.15z"/>
<text transform="matrix(1 0 0 1 435.6252 133.8428)" fill="#231F20" font-family="'CMR10'" font-size="8.5039">METHOD</text>
<line fill="none" stroke="#231F20" stroke-width="0.5669" stroke-miterlimit="10" x1="483.756" y1="125.285" x2="519.856" y2="125.285"/>
<path fill="none" stroke="#231F20" stroke-width="0.5669" stroke-miterlimit="10" d="M519.94,141.371c0,3.131-2.603,5.67-5.811,5.67
	h-79.496c-3.207,0-5.809-2.539-5.809-5.67v-21.537c0-3.131,2.602-5.67,5.809-5.67h79.496c3.208,0,5.811,2.539,5.811,5.67V141.371z"
	/>
<g>
	<g>
		<path fill="none" stroke="#231F20" stroke-width="0.5669" stroke-miterlimit="10" d="M545.485,97.826h-6.183
			c-3.118,0-5.669,2.551-5.669,5.669l0.001,12.09c0,3.118-2.551,5.669-5.669,5.669h-6.316"/>
		<g>
			<polygon fill="#231F20" points="544.21,96.146 544.924,97.826 544.21,99.506 548.192,97.826 			"/>
		</g>
	</g>
</g>
<g>
	<g>
		<path fill="none" stroke="#231F20" stroke-width="0.5669" stroke-miterlimit="10" d="M545.485,164.099h-6.183
			c-3.118,0-5.669-2.551-5.669-5.668l0.001-12.093c0-3.116-2.551-5.669-5.669-5.669h-6.316"/>
		<g>
			<polygon fill="#231F20" points="544.21,162.42 544.924,164.099 544.21,165.779 548.192,164.099 			"/>
		</g>
	</g>
</g>
<text transform="matrix(1 0 0 1 569.7092 95.8408)" fill="#231F20" font-family="'CMR10'" font-size="8.5039">Non-linear</text>
<text transform="matrix(1 0 0 1 557.7278 106.0459)" fill="#231F20" font-family="'CMR10'" font-size="8.5039">State Estimation</text>
<path fill="none" stroke="#231F20" stroke-width="0.5669" stroke-miterlimit="10" d="M629.053,104.048
	c0,3.132-2.538,5.669-5.669,5.669h-68.387c-3.132,0-5.669-2.539-5.669-5.669v-12.38c0-3.132,2.537-5.67,5.669-5.67h68.387
	c3.131,0,5.669,2.538,5.669,5.67V104.048z"/>
<text transform="matrix(1 0 0 1 582.8782 128.4395)" fill="#231F20" font-family="'CMR10'" font-size="8.5039">DC</text>
<text transform="matrix(1 0 0 1 557.7278 138.6436)" fill="#231F20" font-family="'CMR10'" font-size="8.5039">State Estimation</text>
<path fill="none" stroke="#231F20" stroke-width="0.5669" stroke-miterlimit="10" d="M629.053,136.677
	c0,3.133-2.538,5.672-5.669,5.672h-68.387c-3.132,0-5.669-2.539-5.669-5.672V124.29c0-3.132,2.537-5.669,5.669-5.669h68.387
	c3.131,0,5.669,2.537,5.669,5.669V136.677z"/>
<text transform="matrix(1 0 0 1 579.217 161.3213)" fill="#231F20" font-family="'CMR10'" font-size="8.5039">PMU</text>
<text transform="matrix(1 0 0 1 557.7278 171.5264)" fill="#231F20" font-family="'CMR10'" font-size="8.5039">State Estimation</text>
<path fill="none" stroke="#231F20" stroke-width="0.5669" stroke-miterlimit="10" d="M629.053,169.558
	c0,3.131-2.538,5.67-5.669,5.67h-68.387c-3.132,0-5.669-2.539-5.669-5.67v-12.381c0-3.132,2.537-5.67,5.669-5.67h68.387
	c3.131,0,5.669,2.538,5.669,5.67V169.558z"/>
<g>
	<line fill="none" x1="521.651" y1="130.683" x2="548.194" y2="130.683"/>
	<g>
		
			<line fill="none" stroke="#231F20" stroke-width="0.5669" stroke-miterlimit="10" x1="521.651" y1="130.683" x2="545.487" y2="130.683"/>
		<g>
			<polygon fill="#231F20" points="544.212,132.363 544.926,130.683 544.212,129.004 548.194,130.683 			"/>
		</g>
	</g>
</g>
<path fill="#E6E7E8" d="M563.065,70.696l-2.607,2.186l-2.121,0.509l-24.869-0.038l-26.564,0.151V30.199
	c0,0,27.439,0.058,40.883,0.125c11.433,0.059,11.053-0.342,14.17,1.509c1.032,0.612,1.895,3.673,1.914,6.415
	c0.049,6.69-0.055,15.137,0.001,20.399C563.953,67.234,563.065,70.696,563.065,70.696z"/>
<text transform="matrix(1 0 0 1 510.679 38.3096)" fill="#231F20" font-family="'CMR10'" font-size="7.0866">flat, value</text>
<text transform="matrix(1 0 0 1 510.679 48.9795)" fill="#231F20" font-family="'CMR10'" font-size="7.0866">warm</text>
<text transform="matrix(1 0 0 1 510.679 70.7275)" fill="#231F20" font-family="'CMR10'" font-size="7.0866">random, value</text>
<path fill="#FFFFFF" stroke="#231F20" stroke-width="0.5669" stroke-miterlimit="10" d="M506.903,30.472V73.39V30.472z"/>
<text transform="matrix(1 0 0 1 470.2981 54.374)" fill="#231F20" font-family="'CMR10'" font-size="8.5039">START</text>
<line fill="none" stroke="#231F20" stroke-width="0.5669" stroke-miterlimit="10" x1="506.901" y1="62.723" x2="563.778" y2="62.723"/>
<line fill="none" stroke="#231F20" stroke-width="0.5669" stroke-miterlimit="10" x1="506.901" y1="52.056" x2="563.778" y2="52.056"/>
<line fill="none" stroke="#231F20" stroke-width="0.5669" stroke-miterlimit="10" x1="506.948" y1="40.99" x2="563.824" y2="40.99"/>
<path fill="none" stroke="#231F20" stroke-width="0.5669" stroke-miterlimit="10" d="M563.778,67.721c0,3.131-2.537,5.67-5.669,5.67
	h-88.354c-3.131,0-5.67-2.539-5.67-5.67V35.994c0-3.132,2.539-5.67,5.67-5.67h88.354c3.132,0,5.669,2.538,5.669,5.67V67.721z"/>
<g>
	<g>
		<path fill="none" stroke="#231F20" stroke-width="0.5669" stroke-miterlimit="10" d="M565.045,51.851h18.692
			c3.118,0,5.669,2.551,5.669,5.669v24.82"/>
		<g>
			<polygon fill="#231F20" points="587.725,81.067 589.406,81.781 591.086,81.067 589.406,85.049 			"/>
		</g>
	</g>
</g>
<g>
	<g>
		<path fill="none" stroke="#231F20" stroke-width="0.5669" stroke-miterlimit="10" d="M654.338,121.254h-6.155
			c-3.116,0-5.669-2.551-5.669-5.669v-12.09c0-3.118-2.551-5.669-5.669-5.669h-6.297"/>
		<g>
			<polygon fill="#231F20" points="653.063,119.574 653.778,121.254 653.063,122.933 657.045,121.254 			"/>
		</g>
	</g>
</g>
<g>
	<g>
		<path fill="none" stroke="#231F20" stroke-width="0.5669" stroke-miterlimit="10" d="M654.338,140.671h-6.155
			c-3.116,0-5.669,2.551-5.669,5.67v12.09c0,3.119-2.551,5.67-5.669,5.67h-6.297"/>
		<g>
			<polygon fill="#231F20" points="653.063,138.991 653.778,140.671 653.063,142.351 657.045,140.671 			"/>
		</g>
	</g>
</g>
<g>
	<line fill="none" x1="630.549" y1="130.683" x2="657.046" y2="130.683"/>
	<g>
		
			<line fill="none" stroke="#231F20" stroke-width="0.5669" stroke-miterlimit="10" x1="630.549" y1="130.683" x2="654.338" y2="130.683"/>
		<g>
			<polygon fill="#231F20" points="653.065,132.363 653.779,130.683 653.065,129.004 657.046,130.683 			"/>
		</g>
	</g>
</g>
<g>
	<g>
		<path fill="none" stroke="#231F20" stroke-width="0.5669" stroke-miterlimit="10" d="M635.56,198.14v-56.016
			c0-3.117-1.229-5.671-2.729-5.671s-2.731,0-2.731,0"/>
		<g>
			<polygon fill="#231F20" points="637.241,196.866 635.56,197.58 633.882,196.866 635.56,200.847 			"/>
		</g>
	</g>
</g>
<g>
	<g>
		<path fill="none" stroke="#231F20" stroke-width="0.5669" stroke-miterlimit="10" d="M588.908,176.89v30.358
			c0,3.118,2.551,5.669,5.669,5.669h4.241"/>
		<g>
			<polygon fill="#231F20" points="597.544,214.599 598.258,212.919 597.544,211.239 601.526,212.919 			"/>
		</g>
	</g>
</g>
<line fill="none" stroke="#231F20" stroke-width="0.5669" stroke-miterlimit="10" x1="653.59" y1="213.203" x2="702.09" y2="213.203"/>
<text transform="matrix(1 0 0 1 657.387 210.0996)" fill="#231F20" font-family="'CMR10'" font-size="7.0866">export</text>
<text transform="matrix(1 0 0 1 657.387 221.2803)" fill="#231F20" font-family="'CMR10'" font-size="7.0866">exportSlack</text>
<path fill="#FFFFFF" stroke="#231F20" stroke-width="0.5669" stroke-miterlimit="10" d="M653.599,202.334v21.737V202.334z"/>
<text transform="matrix(1 0 0 1 609.4153 216.2773)" fill="#231F20" font-family="'CMR10'" font-size="8.5039">EXPORT</text>
<g>
	<line fill="none" x1="703.818" y1="213.222" x2="720.818" y2="213.222"/>
	<g>
		
			<line fill="none" stroke="#231F20" stroke-width="0.5669" stroke-miterlimit="10" x1="703.818" y1="213.222" x2="718.11" y2="213.222"/>
		<g>
			<polygon fill="#231F20" points="716.836,214.902 717.55,213.222 716.836,211.543 720.818,213.222 			"/>
		</g>
	</g>
</g>
<g>
	<path fill="none" stroke="#231F20" stroke-width="0.5669" stroke-miterlimit="10" d="M808.553,215.78
		c0,4.677-3.68,7.452-8.177,6.166l-7.462-2.133c-4.497-1.286-11.921-1.549-16.498-0.584c0,0-25.323,5.336-33.383,5.338
		c-7.719,0.004-12.938-0.539-12.938-0.539c-4.649-0.483-8.458-4.706-8.458-9.383v-4.715c0-4.679,3.827-8.504,8.504-8.504h69.906
		c4.678,0,8.504,3.825,8.504,8.504L808.553,215.78L808.553,215.78z"/>
</g>
<text transform="matrix(1 0 0 1 727.4241 213.3818)" fill="#231F20" font-family="'CMR10'" font-size="8.5039">Export Matrix Form</text>
<text transform="matrix(1 0 0 1 487.4397 122.1914)" fill="#231F20" font-family="'CMR10'" font-size="7.0866">nonlinear</text>
<text transform="matrix(1 0 0 1 487.4397 133.0674)" fill="#231F20" font-family="'CMR10'" font-size="7.0866">dc</text>
<text transform="matrix(1 0 0 1 487.4397 143.3828)" fill="#231F20" font-family="'CMR10'" font-size="7.0866">pmu</text>
<text transform="matrix(1 0 0 1 510.679 59.4824)" fill="#231F20" font-family="'CMR10'" font-size="7.0866">exact</text>
<path fill="none" stroke="#231F20" stroke-width="0.5669" stroke-miterlimit="10" d="M702.09,218.401c0,3.132-2.392,5.67-5.342,5.67
	h-88.329c-2.95,0-5.342-2.538-5.342-5.67v-10.397c0-3.132,2.392-5.67,5.342-5.67h88.329c2.95,0,5.342,2.538,5.342,5.67V218.401z"/>
<text transform="matrix(1 0 0 1 713.6194 114.3066)" fill="#231F20" font-family="'CMR10'" font-size="7.0866">bus</text>
<text transform="matrix(1 0 0 1 713.6194 124.9775)" fill="#231F20" font-family="'CMR10'" font-size="7.0866">branch</text>
<text transform="matrix(1 0 0 1 713.6194 146.7256)" fill="#231F20" font-family="'CMR10'" font-size="7.0866">error</text>
<path fill="#FFFFFF" stroke="#231F20" stroke-width="0.5669" stroke-miterlimit="10" d="M709.002,84.76v64.639V84.76z"/>
<text transform="matrix(1 0 0 1 663.6223 119.4922)" fill="#231F20" font-family="'CMR10'" font-size="8.5039">DISPLAY</text>
<line fill="none" stroke="#231F20" stroke-width="0.5669" stroke-miterlimit="10" x1="709.01" y1="138.732" x2="750.296" y2="138.732"/>
<line fill="none" stroke="#231F20" stroke-width="0.5669" stroke-miterlimit="10" x1="709.01" y1="128.058" x2="750.296" y2="128.058"/>
<line fill="none" stroke="#231F20" stroke-width="0.5669" stroke-miterlimit="10" x1="709.046" y1="116.991" x2="750.329" y2="116.991"/>
<text transform="matrix(1 0 0 1 713.6194 135.4805)" fill="#231F20" font-family="'CMR10'" font-size="7.0866">estimate</text>
<g>
	<path fill="none" stroke="#231F20" stroke-width="0.5669" stroke-miterlimit="10" d="M851.173,37.158
		c0,4.677-3.644,7.335-8.097,5.905l-5.023-1.611c-4.453-1.43-11.818-1.718-16.372-0.642c0,0-21.697,5.133-28.879,5.136
		c-6.877,0.003-10.614-0.434-10.614-0.434c-4.646-0.542-8.444-4.813-8.444-9.489v-4.715c0-4.677,3.827-8.504,8.504-8.504h60.424
		c4.677,0,8.504,3.827,8.504,8.504L851.173,37.158L851.173,37.158z"/>
</g>
<g>
	<path fill="#F1F1F2" d="M840.032,115.134c0.143,3.881-1.081,8.596-1.081,8.596c-0.394,1.511-1.987,2.744-3.547,2.744h-46.678
		c-1.56,0-3.649-0.979-4.647-2.179l-4.4-5.282c-0.998-1.196-1.137-3.26-0.309-4.58l4.451-7.099c0.827-1.32,2.779-2.401,4.341-2.401
		h45.541c1.56,0,3.463,1.11,4.229,2.468C837.931,107.4,839.874,110.836,840.032,115.134z"/>
	<path fill="none" stroke="#231F20" stroke-width="0.5669" stroke-miterlimit="10" d="M840.032,115.134
		c0.143,3.881-1.081,8.596-1.081,8.596c-0.394,1.511-1.987,2.744-3.547,2.744h-46.678c-1.56,0-3.649-0.979-4.647-2.179l-4.4-5.282
		c-0.998-1.196-1.137-3.26-0.309-4.58l4.451-7.099c0.827-1.32,2.779-2.401,4.341-2.401h45.541c1.56,0,3.463,1.11,4.229,2.468
		C837.931,107.4,839.874,110.836,840.032,115.134z"/>
</g>
<text transform="matrix(1 0 0 1 798.7512 117.7842)" fill="#231F20" font-family="'CMR10'" font-size="8.5039">Display</text>
<text transform="matrix(1 0 0 1 801.0569 76.8535)" fill="#231F20" font-family="'CMR10'" font-size="8.5039">SAVE</text>
<path fill="none" stroke="#231F20" stroke-width="0.5669" stroke-miterlimit="10" d="M852.57,78.988c0,3.131-2.338,5.67-5.225,5.67
	h-69.282c-2.886,0-5.224-2.539-5.224-5.67V68.594c0-3.131,2.338-5.669,5.224-5.669h69.282c2.887,0,5.225,2.538,5.225,5.669V78.988z"
	/>
<g>
	<line fill="none" x1="812.378" y1="103.031" x2="812.378" y2="86.031"/>
	<g>
		
			<line fill="none" stroke="#231F20" stroke-width="0.5669" stroke-miterlimit="10" x1="812.378" y1="103.031" x2="812.378" y2="88.739"/>
		<g>
			<polygon fill="#231F20" points="814.056,90.013 812.378,89.299 810.698,90.013 812.378,86.031 			"/>
		</g>
	</g>
</g>
<text transform="matrix(1 0 0 1 793.2571 34.7578)" fill="#231F20" font-family="'CMR10'" font-size="8.5039">Save Data</text>
<g>
	<g>
		<path fill="none" stroke="#231F20" stroke-width="0.5669" stroke-miterlimit="10" d="M812.773,47.496c0,0.609,0,1.29,0,2.007
			c0,2.593,2.551,4.714,5.669,4.714l16.466-0.002c3.118,0,5.669,1.747,5.669,3.882c0,2.136,0,3.883,0,3.883"/>
		<g>
			<polygon fill="#231F20" points="811.093,48.77 812.773,48.056 814.452,48.77 812.773,44.789 			"/>
		</g>
	</g>
</g>
<line fill="none" stroke="#231F20" stroke-width="0.5669" stroke-miterlimit="10" x1="708.744" y1="106.142" x2="750.029" y2="106.142"/>
<line fill="none" stroke="#231F20" stroke-width="0.5669" stroke-miterlimit="10" x1="708.744" y1="95.475" x2="750.029" y2="95.475"/>
<path fill="none" stroke="#231F20" stroke-width="0.5669" stroke-miterlimit="10" d="M750.06,90.078
	c0-3.131-2.536-5.669-5.669-5.669h-80.753c-3.131,0-5.669,2.538-5.669,5.669v53.806c0,3.131,2.538,5.668,5.669,5.668h80.753
	c3.133,0,5.669-2.537,5.669-5.668V90.078z"/>
<text transform="matrix(1 0 0 1 713.6204 92.3408)" fill="#231F20" font-family="'CMR10'" font-size="7.0866">main</text>
<text transform="matrix(1 0 0 1 713.6204 103.2744)" fill="#231F20" font-family="'CMR10'" font-size="7.0866">flow</text>
<g>
	<line fill="none" x1="750.891" y1="116.821" x2="777.388" y2="116.821"/>
	<g>
		
			<line fill="none" stroke="#231F20" stroke-width="0.5669" stroke-miterlimit="10" x1="750.891" y1="116.821" x2="774.68" y2="116.821"/>
		<g>
			<polygon fill="#231F20" points="773.408,118.501 774.122,116.821 773.408,115.142 777.388,116.821 			"/>
		</g>
	</g>
</g>
</svg>
