<?xml version="1.0" encoding="utf-8"?>
<!-- Generator: Adobe Illustrator 16.0.0, SVG Export Plug-In . SVG Version: 6.00 Build 0)  -->
<!DOCTYPE svg PUBLIC "-//W3C//DTD SVG 1.1//EN" "http://www.w3.org/Graphics/SVG/1.1/DTD/svg11.dtd">
<svg version="1.1" id="Layer_1" xmlns="http://www.w3.org/2000/svg" xmlns:xlink="http://www.w3.org/1999/xlink" x="0px" y="0px"
	 width="634px" height="180.333px" viewBox="0 0 634 180.333" enable-background="new 0 0 634 180.333" xml:space="preserve">
<g>
	<path fill="none" stroke="#231F20" stroke-width="0.8504" stroke-miterlimit="10" d="M629.919,24.607
		c0,4.677-3.644,7.334-8.098,5.906l-11.386-3.654c-4.454-1.429-11.821-1.717-16.373-0.641c0,0-30.692,7.259-40.025,7.263
		c-8.94,0.004-16.333-0.858-16.333-0.858c-4.646-0.542-8.446-4.812-8.446-9.489V11.901c0-4.677,3.827-8.504,8.504-8.504h83.653
		c4.677,0,8.504,3.827,8.504,8.504V24.607z"/>
</g>
<g>
	<path fill="#F1F1F2" d="M615.437,123.445c0.186,5.046-1.619,11.999-1.619,11.999c-0.392,1.51-1.987,2.744-3.547,2.744h-62.379
		c-1.56,0-3.651-0.98-4.649-2.178l-6.81-8.174c-0.998-1.197-1.137-3.259-0.309-4.579l6.69-10.67c0.828-1.32,2.781-2.401,4.341-2.401
		h60.904c1.56,0,3.463,1.11,4.229,2.468C612.289,112.654,615.231,117.861,615.437,123.445z"/>
	<path fill="none" stroke="#231F20" stroke-width="0.8504" stroke-miterlimit="10" d="M615.437,123.445
		c0.186,5.046-1.619,11.999-1.619,11.999c-0.392,1.51-1.987,2.744-3.547,2.744h-62.379c-1.56,0-3.651-0.98-4.649-2.178l-6.81-8.174
		c-0.998-1.197-1.137-3.259-0.309-4.579l6.69-10.67c0.828-1.32,2.781-2.401,4.341-2.401h60.904c1.56,0,3.463,1.11,4.229,2.468
		C612.289,112.654,615.231,117.861,615.437,123.445z"/>
</g>
<text transform="matrix(1 0 0 1 276.1765 92.7324)" fill="#231F20" font-family="'CMR10'" font-size="11.0551">AC Power Flow</text>
<g>
	<line fill="#FFFFFF" x1="97.315" y1="125.519" x2="119.414" y2="125.519"/>
	<g>
		
			<line fill="none" stroke="#231F20" stroke-width="0.5669" stroke-miterlimit="10" x1="97.315" y1="125.519" x2="116.707" y2="125.519"/>
		<g>
			<polygon fill="#231F20" points="115.433,127.199 116.147,125.519 115.433,123.839 119.414,125.519 			"/>
		</g>
	</g>
</g>
<path fill="none" stroke="#231F20" stroke-width="0.8504" stroke-miterlimit="10" d="M366.851,96.264
	c0,4.071-3.039,7.371-6.789,7.371h-90.105c-3.75,0-6.789-3.3-6.789-7.371V82.733c0-4.075,3.039-7.375,6.789-7.375h90.105
	c3.75,0,6.789,3.3,6.789,7.375V96.264z"/>
<text transform="matrix(1 0 0 1 276.1047 164.7163)" fill="#231F20" font-family="'CMR10'" font-size="11.0551">DC Power Flow</text>
<path fill="none" stroke="#231F20" stroke-width="0.8504" stroke-miterlimit="10" d="M366.854,168.251
	c0,4.071-3.039,7.371-6.789,7.371h-90.107c-3.75,0-6.79-3.3-6.79-7.371V154.74c0-4.07,3.04-7.371,6.79-7.371h90.107
	c3.75,0,6.789,3.301,6.789,7.371V168.251z"/>
<g>
	<g>
		<path fill="none" stroke="#231F20" stroke-width="0.5669" stroke-miterlimit="10" d="M258.962,89.557h-10.546
			c-3.118,0-5.669,2.555-5.669,5.677l0.001,19.119c0,3.118-2.551,5.669-5.669,5.669h-9.915"/>
		<g>
			<polygon fill="#231F20" points="257.688,87.875 258.402,89.557 257.688,91.24 261.669,89.557 			"/>
		</g>
	</g>
</g>
<g>
	<g>
		<path fill="none" stroke="#231F20" stroke-width="0.5669" stroke-miterlimit="10" d="M258.962,161.696h-10.546
			c-3.118,0-5.669-2.551-5.669-5.669l0.001-19.118c0-3.118-2.551-5.669-5.669-5.669h-9.915"/>
		<g>
			<polygon fill="#231F20" points="257.688,160.016 258.402,161.696 257.688,163.375 261.669,161.696 			"/>
		</g>
	</g>
</g>
<g>
	<g>
		<path fill="none" stroke="#231F20" stroke-width="0.5669" stroke-miterlimit="10" d="M400.011,118.864h-10.548
			c-3.118,0-5.669-2.551-5.669-5.669v-19.12c0-3.124-2.551-5.679-5.669-5.679h-9.913"/>
		<g>
			<polygon fill="#231F20" points="398.737,117.184 399.45,118.864 398.737,120.543 402.718,118.864 			"/>
		</g>
	</g>
</g>
<g>
	<g>
		<path fill="none" stroke="#231F20" stroke-width="0.5669" stroke-miterlimit="10" d="M400.011,133.031h-10.548
			c-3.118,0-5.669,2.551-5.669,5.669v19.119c0,3.118-2.551,5.669-5.669,5.669h-9.913"/>
		<g>
			<polygon fill="#231F20" points="398.737,131.351 399.45,133.031 398.737,134.71 402.718,133.031 			"/>
		</g>
	</g>
</g>
<text transform="matrix(1 0 0 1 561.7571 126.896)" fill="#231F20" font-family="'CMR10'" font-size="11.0551">Display</text>
<text transform="matrix(1 0 0 1 564.7542 73.687)" fill="#231F20" font-family="'CMR10'" font-size="11.0551">SAVE</text>
<path fill="none" stroke="#231F20" stroke-width="0.8504" stroke-miterlimit="10" d="M631.735,76.434
	c0,4.074-3.039,7.376-6.789,7.376h-90.068c-3.75,0-6.789-3.302-6.789-7.376V62.922c0-4.07,3.039-7.37,6.789-7.37h90.068
	c3.75,0,6.789,3.3,6.789,7.37V76.434z"/>
<g>
	<line fill="#FFFFFF" x1="579.487" y1="107.715" x2="579.487" y2="85.6"/>
	<g>
		
			<line fill="none" stroke="#231F20" stroke-width="0.5669" stroke-miterlimit="10" x1="579.487" y1="107.715" x2="579.487" y2="88.313"/>
		<g>
			<polygon fill="#231F20" points="581.166,89.589 579.487,88.874 577.807,89.589 579.487,85.6 			"/>
		</g>
	</g>
</g>
<text transform="matrix(1 0 0 1 554.6155 18.9609)" fill="#231F20" font-family="'CMR10'" font-size="11.0551">Save Data</text>
<g>
	<line fill="#FFFFFF" x1="50.309" y1="82.412" x2="50.309" y2="104.531"/>
	<g>
		
			<line fill="none" stroke="#231F20" stroke-width="0.5669" stroke-miterlimit="10" x1="50.309" y1="82.412" x2="50.309" y2="101.823"/>
		<g>
			<polygon fill="#231F20" points="48.629,100.549 50.309,101.263 51.989,100.549 50.309,104.531 			"/>
		</g>
	</g>
</g>
<path fill="#E6E7E8" d="M506.198,137.873c-0.952,0.952-3.792,1.873-3.792,1.873h-26.601v-28.258c0,0,15.167-0.462,25.945,0.033
	c1.487,0.067,3.409,1.849,4.525,2.078c0.607,0.126,1.909,1.149,2.309,3.775c0.63,4.138,0.194,10.16,0.212,13.325
	c0.015,2.483,0.041,2.39-0.746,3.762C507.458,135.495,507.581,136.496,506.198,137.873z"/>
<line fill="#FFFFFF" stroke="#231F20" stroke-width="0.5669" stroke-miterlimit="10" x1="475.983" y1="125.618" x2="508.441" y2="125.618"/>
<text transform="matrix(1 0 0 1 481.3547 121.2358)" fill="#231F20" font-family="'CMR10'" font-size="9.2126">main</text>
<text transform="matrix(1 0 0 1 481.3547 135.3745)" fill="#231F20" font-family="'CMR10'" font-size="9.2126">flow</text>
<path fill="#FFFFFF" stroke="#231F20" stroke-width="0.5669" stroke-miterlimit="10" d="M475.983,111.488v28.258V111.488z"/>
<text transform="matrix(1 0 0 1 416.2825 129.2368)" fill="#231F20" font-family="'CMR10'" font-size="11.0551">DISPLAY</text>
<path fill="none" stroke="#231F20" stroke-width="0.8504" stroke-miterlimit="10" d="M508.643,132.375
	c0,4.071-3.039,7.371-6.79,7.371h-90.069c-3.75,0-6.789-3.3-6.789-7.371v-13.512c0-4.07,3.039-7.369,6.789-7.369h90.069
	c3.751,0,6.79,3.299,6.79,7.369V132.375z"/>
<g>
	<line fill="#FFFFFF" x1="510.768" y1="125.519" x2="532.867" y2="125.519"/>
	<g>
		
			<line fill="none" stroke="#231F20" stroke-width="0.5669" stroke-miterlimit="10" x1="510.768" y1="125.519" x2="530.159" y2="125.519"/>
		<g>
			<polygon fill="#231F20" points="528.886,127.199 529.6,125.519 528.886,123.839 532.867,125.519 			"/>
		</g>
	</g>
</g>
<g>
	<path fill="#BE3629" d="M89.829,46.334l-79.697,0.369c0,0-2.78,1.114-3.296,1.982c-1.079,1.819-1.579,3.75-1.579,3.75v12.876
		c0,0,56.297,0.271,90.105,0v-7.938c0,0-0.006-5.785-0.84-7.305C93.74,48.645,89.829,46.334,89.829,46.334z"/>
	<path fill="#E6E7E8" d="M89.46,80.591H10.868l-4.29-2.626l-1.322-2.816v-9.62c0,0,56.297-0.216,90.106,0v9.988
		c0,0-0.744,1.061-1.578,2.267C93.002,78.914,89.46,80.591,89.46,80.591z"/>
	<path fill="#FFFFFF" stroke="#231F20" stroke-width="0.5669" stroke-miterlimit="10" d="M5.256,65.513h90.106H5.256z"/>
	<text transform="matrix(1 0 0 1 21.468 59.416)" fill="#FFFFFF" font-family="'CMR10'" font-size="11.0551">Power Flow</text>
	<text transform="matrix(1 0 0 1 32.0486 76.2515)" fill="#231F20" font-family="'CMR10'" font-size="9.2126">runpf(...)</text>
	<path fill="none" stroke="#231F20" stroke-width="0.8504" stroke-miterlimit="10" d="M95.363,73.82c0,3.739-3.3,6.771-7.37,6.771
		H12.626c-4.07,0-7.37-3.032-7.37-6.771V53.106c0-3.74,3.3-6.771,7.37-6.771h75.366c4.07,0,7.37,3.031,7.37,6.771V73.82z"/>
</g>
<g>
	<text transform="matrix(1 0 0 1 33.8264 121.0698)" fill="#231F20" font-family="'CMR10'" font-size="11.0551">DATA</text>
	<path fill="#E6E7E8" d="M89.46,142.646H10.868l-4.29-2.624l-1.322-2.818v-9.619c0,0,56.297-0.216,90.106,0v9.988
		c0,0-0.744,1.061-1.578,2.267C93.002,140.97,89.46,142.646,89.46,142.646z"/>
	<path fill="#FFFFFF" stroke="#231F20" stroke-width="0.5669" stroke-miterlimit="10" d="M5.256,127.569h90.106H5.256z"/>
	<text transform="matrix(1 0 0 1 22.5872 138.2847)" fill="#231F20" font-family="'CMR10'" font-size="9.2126">mat-file name</text>
	<path fill="none" stroke="#231F20" stroke-width="0.8504" stroke-miterlimit="10" d="M95.363,135.875c0,3.74-3.3,6.771-7.37,6.771
		H12.626c-4.07,0-7.37-3.03-7.37-6.771v-20.713c0-3.74,3.3-6.772,7.37-6.772h75.366c4.07,0,7.37,3.032,7.37,6.772V135.875z"/>
</g>
<path fill="#E6E7E8" d="M225.293,155.419l-1.639,3.242l-2.905,1.959l-13.942-0.245l-16.49,0.245V90.189
	c0,0,17.033,0.094,25.377,0.203c7.096,0.094,7.036-0.799,8.971,2.215c0.641,0.999,1.021,4.287,1.013,10.678
	c-0.015,10.88-0.034,24.615,0,33.174C225.731,150.426,225.293,155.419,225.293,155.419z"/>
<text transform="matrix(1 0 0 1 196.3679 100.5386)" fill="#231F20" font-family="'CMR10'" font-size="9.2126">nr</text>
<text transform="matrix(1 0 0 1 196.3674 113.9233)" fill="#231F20" font-family="'CMR10'" font-size="9.2126">gs</text>
<text transform="matrix(1 0 0 1 196.3674 142.7144)" fill="#231F20" font-family="'CMR10'" font-size="9.2126">fdnr</text>
<path fill="#FFFFFF" stroke="#231F20" stroke-width="0.5669" stroke-miterlimit="10" d="M190.317,90.643v69.83V90.643z"/>
<text transform="matrix(1 0 0 1 130.4172 128.5835)" fill="#231F20" font-family="'CMR10'" font-size="11.0551">METHOD</text>
<line fill="#FFFFFF" stroke="#231F20" stroke-width="0.5669" stroke-miterlimit="10" x1="190.242" y1="132.74" x2="225.585" y2="132.74"/>
<line fill="#FFFFFF" stroke="#231F20" stroke-width="0.5669" stroke-miterlimit="10" x1="190.271" y1="118.354" x2="225.615" y2="118.354"/>
<line fill="#FFFFFF" stroke="#231F20" stroke-width="0.5669" stroke-miterlimit="10" x1="190.242" y1="146.606" x2="225.585" y2="146.606"/>
<text transform="matrix(1 0 0 1 196.3679 128.5835)" fill="#231F20" font-family="'CMR10'" font-size="9.2126">dnr</text>
<line fill="#FFFFFF" stroke="#231F20" stroke-width="0.5669" stroke-miterlimit="10" x1="190.26" y1="104.681" x2="225.603" y2="104.681"/>
<text transform="matrix(1 0 0 1 196.3679 157.145)" fill="#231F20" font-family="'CMR10'" font-size="9.2126">dc</text>
<path fill="none" stroke="#231F20" stroke-width="0.8504" stroke-miterlimit="10" d="M225.682,153.103c0,4.07-3.3,7.37-7.37,7.37
	h-89.315c-4.071,0-7.37-3.3-7.37-7.37V97.567c0-4.071,3.299-7.377,7.37-7.377h89.315c4.07,0,7.37,3.306,7.37,7.377V153.103z"/>
<text transform="matrix(1 0 0 1 339.4924 28.2617)" fill="#231F20" font-family="'CMR10'" font-size="11.0551">ATTACH</text>
<path fill="#E6E7E8" d="M403.057,49.814h-78.59l-4.291-2.624l-1.323-2.817v-9.62c0,0,56.297-0.216,90.107,0v9.989
	c0,0-0.744,1.06-1.579,2.266C406.599,48.138,403.057,49.814,403.057,49.814z"/>
<path fill="#FFFFFF" stroke="#231F20" stroke-width="0.5669" stroke-miterlimit="10" d="M318.853,34.738h90.107H318.853z"/>
<text transform="matrix(1 0 0 1 334.6204 45.4741)" fill="#231F20" font-family="'CMR10'" font-size="9.2126">maxIter, value</text>
<path fill="none" stroke="#231F20" stroke-width="0.8504" stroke-miterlimit="10" d="M408.96,43.043c0,3.74-3.301,6.771-7.371,6.771
	h-75.365c-4.07,0-7.371-3.03-7.371-6.771V22.33c0-3.74,3.301-6.771,7.371-6.771h75.365c4.07,0,7.371,3.03,7.371,6.771V43.043z"/>
<text transform="matrix(1 0 0 1 249.6497 28.2593)" fill="#231F20" font-family="'CMR10'" font-size="11.0551">LIMIT</text>
<path fill="#E6E7E8" d="M305.279,49.814h-78.607l-4.291-2.624l-1.323-2.817v-9.62c0,0,56.296-0.216,90.135,0v9.989
	c0,0-0.746,1.06-1.582,2.266C308.827,48.138,305.279,49.814,305.279,49.814z"/>
<path fill="#FFFFFF" stroke="#231F20" stroke-width="0.5669" stroke-miterlimit="10" d="M221.058,34.738h90.135H221.058z"/>
<text transform="matrix(1 0 0 1 228.303 45.4741)" fill="#231F20" font-family="'CMR10'" font-size="9.2126">reactive</text>
<path fill="none" stroke="#231F20" stroke-width="0.8504" stroke-miterlimit="10" d="M311.214,43.043
	c0,3.74-3.307,6.771-7.384,6.771h-75.381c-4.07,0-7.371-3.03-7.371-6.771V22.33c0-3.74,3.301-6.771,7.371-6.771h75.381
	c4.077,0,7.384,3.03,7.384,6.771V43.043z"/>
<text transform="matrix(1 0 0 1 272.8347 45.4741)" fill="#231F20" font-family="'CMR10'" font-size="9.2126">voltage</text>
<path fill="#FFFFFF" stroke="#231F20" stroke-width="0.5669" stroke-miterlimit="10" d="M266.126,35.083v14.305V35.083z"/>
<g>
	<g>
		<path fill="none" stroke="#231F20" stroke-width="0.5669" stroke-miterlimit="10" d="M296.573,71.119v-4.094
			c0-3.118-2.554-5.669-5.672-5.669h-19.119c-3.118,0-5.669-2.311-5.669-5.135s0-5.135,0-5.135"/>
		<g>
			<polygon fill="#231F20" points="298.255,69.845 296.573,70.559 294.89,69.845 296.573,73.827 			"/>
		</g>
	</g>
</g>
<g>
	<g>
		<path fill="none" stroke="#231F20" stroke-width="0.5669" stroke-miterlimit="10" d="M333.6,71.119v-4.094
			c0-3.118,2.551-5.669,5.669-5.669h19.12c3.118,0,5.669-2.311,5.669-5.135s0-5.135,0-5.135"/>
		<g>
			<polygon fill="#231F20" points="335.28,69.845 333.6,70.559 331.92,69.845 333.6,73.827 			"/>
		</g>
	</g>
</g>
<g>
	<line fill="#FFFFFF" x1="579.487" y1="53.68" x2="579.487" y2="31.581"/>
	<g>
		
			<line fill="none" stroke="#231F20" stroke-width="0.5669" stroke-miterlimit="10" x1="579.487" y1="53.68" x2="579.487" y2="34.288"/>
		<g>
			<polygon fill="#231F20" points="581.166,35.562 579.487,34.848 577.807,35.562 579.487,31.581 			"/>
		</g>
	</g>
</g>
</svg>
