<?xml version="1.0" encoding="utf-8"?>
<!-- Generator: Adobe Illustrator 16.0.0, SVG Export Plug-In . SVG Version: 6.00 Build 0)  -->
<!DOCTYPE svg PUBLIC "-//W3C//DTD SVG 1.1//EN" "http://www.w3.org/Graphics/SVG/1.1/DTD/svg11.dtd">
<svg version="1.1" id="Layer_1" xmlns="http://www.w3.org/2000/svg" xmlns:xlink="http://www.w3.org/1999/xlink" x="0px" y="0px"
	 width="866px" height="260px" viewBox="-100.5 23 866 260" enable-background="new -100.5 23 866 260" xml:space="preserve">
<path fill="#E6E7E8" d="M653.093,166.14c0,3.131-2.539,5.669-5.67,5.669h-29.689c-1.761,0-5.669-0.153-5.669-0.153s0-4.146,0-5.516
	v-53.454c0-1.758,0-5.669,0-5.669s4.297,0,5.669,0h29.689c3.131,0,5.67,2.538,5.67,5.669V166.14z"/>
<text transform="matrix(1 0 0 1 26.6692 151.833)" fill="#231F20" font-family="'CMR10'" font-size="8.5039">AC Power Flow</text>
<g>
	<line fill="#FFFFFF" x1="-13.238" y1="149.537" x2="15.086" y2="149.537"/>
	<g>
		
			<line fill="none" stroke="#231F20" stroke-width="0.5669" stroke-miterlimit="10" x1="-13.238" y1="149.537" x2="12.378" y2="149.537"/>
		<g>
			<polygon fill="#231F20" points="11.104,151.217 11.818,149.537 11.104,147.857 15.086,149.537 			"/>
		</g>
	</g>
</g>
<path fill="none" stroke="#231F20" stroke-width="0.5669" stroke-miterlimit="10" d="M96.415,154.535
	c0,3.135-2.338,5.678-5.223,5.678H21.909c-2.885,0-5.223-2.542-5.223-5.678v-10.394c0-3.131,2.338-5.669,5.223-5.669h69.283
	c2.885,0,5.223,2.538,5.223,5.669V154.535z"/>
<g>
	<g>
		<path fill="none" stroke="#231F20" stroke-width="0.5669" stroke-miterlimit="10" d="M37.268,134.23v-6.18
			c0-3.118-2.551-5.669-5.669-5.669l-12.09,0.001c-3.118,0-5.669-2.551-5.669-5.669v-6.319"/>
		<g>
			<polygon fill="#231F20" points="38.948,132.956 37.268,133.67 35.589,132.956 37.268,136.938 			"/>
		</g>
	</g>
</g>
<g>
	<g>
		<path fill="none" stroke="#231F20" stroke-width="0.5669" stroke-miterlimit="10" d="M73.415,134.23v-6.18
			c0-3.118,2.551-5.669,5.669-5.669l12.06,0.001c3.118,0,5.669-2.551,5.669-5.669v-6.319"/>
		<g>
			<polygon fill="#231F20" points="75.094,132.956 73.415,133.67 71.735,132.956 73.415,136.938 			"/>
		</g>
	</g>
</g>
<g>
	<line fill="#FFFFFF" x1="-49.396" y1="116.393" x2="-49.396" y2="133.393"/>
	<g>
		
			<line fill="none" stroke="#231F20" stroke-width="0.5669" stroke-miterlimit="10" x1="-49.396" y1="116.393" x2="-49.396" y2="130.686"/>
		<g>
			<polygon fill="#231F20" points="-51.075,129.411 -49.396,130.125 -47.716,129.411 -49.396,133.393 			"/>
		</g>
	</g>
</g>
<g>
	<line fill="#FFFFFF" x1="98.107" y1="153.789" x2="126.431" y2="153.789"/>
	<g>
		
			<line fill="none" stroke="#231F20" stroke-width="0.5669" stroke-miterlimit="10" x1="98.107" y1="153.789" x2="123.723" y2="153.789"/>
		<g>
			<polygon fill="#231F20" points="122.449,155.469 123.163,153.789 122.449,152.109 126.431,153.789 			"/>
		</g>
	</g>
</g>
<g>
	<path fill="#BE3629" d="M193.054,140.331l-61.306,0.225c0,0-2.138,0.688-2.535,1.887c-0.356,1.078-0.915,0.978-1.111,2.128
		c-0.262,1.527-0.104,4.179-0.104,4.179l0,14.069c0,0,1.949,3.521,4.195,3.718c1.234,0.108,3.907,0.166,3.907,0.166h48.726
		l8.588-0.243c0,0,2.408-1.446,3.758-3.257l0.139-7.641c0,0,0.269-9.763-0.373-11.857
		C196.337,141.738,193.054,140.331,193.054,140.331z"/>
	<text transform="matrix(1 0 0 1 136.0471 156.0361)" fill="#FFFFFF" font-family="'CMR10'" font-size="8.5039">Measurements</text>
	<path fill="none" stroke="#231F20" stroke-width="0.5669" stroke-miterlimit="10" d="M197.31,161.494
		c0,2.877-2.538,5.208-5.669,5.208h-57.974c-3.131,0-5.669-2.331-5.669-5.208v-15.941c0-2.877,2.538-5.209,5.669-5.209h57.974
		c3.131,0,5.669,2.332,5.669,5.209V161.494z"/>
</g>
<g>
	<g>
		<path fill="none" stroke="#231F20" stroke-width="0.5669" stroke-miterlimit="10" d="M154.827,171.186v10.558
			c0,3.118-2.551,5.669-5.669,5.669l-42.412-0.004c-3.118,0-5.669,2.551-5.669,5.669v9.925"/>
		<g>
			<polygon fill="#231F20" points="153.147,172.46 154.827,171.746 156.507,172.46 154.827,168.479 			"/>
		</g>
	</g>
</g>
<path fill="#BE3629" d="M307.103,139.753l-73.446,0.226c0,0-2.815,0.782-3.29,1.979c-0.995,2.513-1.203,1.966-1.203,1.966v17.397
	l1.416,2.839c0,0,0.641,1.995,5.037,1.95c13.546-0.137,71.629,0.001,71.629,0.001l3.066-1.463c0,0,1.491-2.179,1.871-4.206
	l0.02-5.46c0,0,0.098-10.1-0.67-12.194C310.812,140.822,307.103,139.753,307.103,139.753z"/>
<text transform="matrix(1 0 0 1 239.219 154.9077)" fill="#FFFFFF" font-family="'CMR10'" font-size="8.5039">State Estimation</text>
<g>
	<line fill="#FFFFFF" x1="313.506" y1="152.929" x2="330.506" y2="152.929"/>
	<g>
		
			<line fill="none" stroke="#231F20" stroke-width="0.5669" stroke-miterlimit="10" x1="313.506" y1="152.929" x2="327.798" y2="152.929"/>
		<g>
			<polygon fill="#231F20" points="326.524,154.608 327.238,152.929 326.524,151.249 330.506,152.929 			"/>
		</g>
	</g>
</g>
<path fill="none" stroke="#231F20" stroke-width="0.5669" stroke-miterlimit="10" d="M312.183,160.442
	c0,3.131-2.538,5.668-5.67,5.668h-71.66c-3.132,0-5.67-2.537-5.67-5.668v-15.02c0-3.133,2.538-5.67,5.67-5.67h71.66
	c3.132,0,5.67,2.537,5.67,5.67V160.442z"/>
<g>
	<line fill="#FFFFFF" x1="198.729" y1="153.507" x2="227.052" y2="153.507"/>
	<g>
		
			<line fill="none" stroke="#231F20" stroke-width="0.5669" stroke-miterlimit="10" x1="198.729" y1="153.507" x2="224.345" y2="153.507"/>
		<g>
			<polygon fill="#231F20" points="223.071,155.187 223.784,153.507 223.071,151.827 227.052,153.507 			"/>
		</g>
	</g>
</g>
<g>
	<g>
		<path fill="none" stroke="#231F20" stroke-width="0.5669" stroke-miterlimit="10" d="M98.387,143.582h7.977
			c3.118,0,5.669-2.551,5.669-5.669v-9.106c0-3.118,2.551-5.669,5.669-5.669h5.233c3.118,0,5.669-2.551,5.669-5.669l0-71.767
			c0-3.118,2.551-5.669,5.669-5.669h397.387c3.118,0,5.669,2.551,5.669,5.669l-0.001,63.886c0,3.118,2.551,5.669,5.669,5.669h12.861
			"/>
		<g>
			<polygon fill="#231F20" points="554.585,116.937 555.299,115.257 554.585,113.577 558.567,115.257 			"/>
		</g>
	</g>
</g>
<g>
	<path fill="#BE3629" d="M-18.995,88.645l-61.306,0.283c0,0-2.138,0.857-2.535,1.525c-0.831,1.4-1.215,2.885-1.215,2.885v9.904
		c0,0,43.306,0.209,69.313,0v-6.106c0,0-0.005-4.45-0.646-5.618C-15.987,90.422-18.995,88.645-18.995,88.645z"/>
	<path fill="#E6E7E8" d="M-19.28,114.995h-60.455l-3.3-2.019l-1.017-2.168v-7.399c0,0,43.306-0.166,69.313,0v7.684
		c0,0-0.572,0.815-1.214,1.743C-16.555,113.706-19.28,114.995-19.28,114.995z"/>
	<path fill="#FFFFFF" stroke="#231F20" stroke-width="0.5669" stroke-miterlimit="10" d="M-84.052,103.397h69.313H-84.052z"/>
	<text transform="matrix(1 0 0 1 -71.5945 98.7021)" fill="#FFFFFF" font-family="'CMR10'" font-size="8.5039">Power Flow</text>
	<text transform="matrix(1 0 0 1 -80.3035 111.6528)"><tspan x="0" y="0" fill="#231F20" font-family="'CMR10'" font-size="7.0866">power</tspan><tspan x="18.51" y="0" fill="#231F20" font-family="'ArialMT'" font-size="5.6693">_</tspan><tspan x="21.663" y="0" fill="#231F20" font-family="'CMR10'" font-size="7.0866">estimation.m</tspan></text>
	<path fill="none" stroke="#231F20" stroke-width="0.5669" stroke-miterlimit="10" d="M-14.74,109.787
		c0,2.877-2.538,5.208-5.669,5.208h-57.974c-3.131,0-5.669-2.331-5.669-5.208V93.854c0-2.877,2.538-5.209,5.669-5.209h57.974
		c3.131,0,5.669,2.332,5.669,5.209V109.787z"/>
</g>
<text transform="matrix(1 0 0 1 -62.0872 146.6953)" fill="#231F20" font-family="'CMR10'" font-size="8.5039">DATA</text>
<path fill="#E6E7E8" d="M-19.28,162.72h-60.455l-3.3-2.019l-1.017-2.17v-7.405c0,0,43.306-0.166,69.313,0v7.689
	c0,0-0.572,0.818-1.214,1.747C-16.555,161.431-19.28,162.72-19.28,162.72z"/>
<path fill="#FFFFFF" stroke="#231F20" stroke-width="0.5669" stroke-miterlimit="10" d="M-84.052,151.114h69.313H-84.052z"/>
<text transform="matrix(1 0 0 1 -70.7336 159.3706)" fill="#231F20" font-family="'CMR10'" font-size="7.0866">mat-file name</text>
<path fill="none" stroke="#231F20" stroke-width="0.5669" stroke-miterlimit="10" d="M-14.74,157.507
	c0,2.881-2.538,5.212-5.669,5.212h-57.974c-3.131,0-5.669-2.331-5.669-5.212V141.57c0-2.877,2.538-5.208,5.669-5.208h57.974
	c3.131,0,5.669,2.331,5.669,5.208V157.507z"/>
<g>
	<path fill="#E6E7E8" d="M0.58,98.257h55.978v10.917c0,0-32.538,0.09-50.166-0.178c-6.359-0.097-5.969-5.198-6.043-7.084
		C0.266,99.799,0.58,98.257,0.58,98.257z"/>
	<path fill="#E6E7E8" d="M112.386,98.257H56.505v10.917c0,0,32.482,0.09,50.08-0.178c6.349-0.097,5.959-5.198,6.033-7.084
		C112.7,99.799,112.386,98.257,112.386,98.257z"/>
	<path fill="#FFFFFF" stroke="#231F20" stroke-width="0.5669" stroke-miterlimit="10" d="M56.618,98.26v11.004V98.26z"/>
	
		<line fill="#FFFFFF" stroke="#231F20" stroke-width="0.5669" stroke-miterlimit="10" x1="0.557" y1="98.26" x2="112.677" y2="98.26"/>
	<text transform="matrix(1 0 0 1 43.9255 91.3496)" fill="#231F20" font-family="'CMR10'" font-size="8.5039">LIMIT</text>
	<text transform="matrix(1 0 0 1 73.4563 105.8218)" fill="#231F20" font-family="'CMR10'" font-size="7.0866">voltage</text>
	<path fill="none" stroke="#231F20" stroke-width="0.5669" stroke-miterlimit="10" d="M112.677,103.482
		c0,3.132-2.537,5.67-5.668,5.67H6.226c-3.131,0-5.669-2.538-5.669-5.67V85.094c0-3.132,2.538-5.67,5.669-5.67H107.01
		c3.131,0,5.668,2.538,5.668,5.67V103.482z"/>
	<text transform="matrix(1 0 0 1 16.342 105.8218)" fill="#231F20" font-family="'CMR10'" font-size="7.0866">reactive</text>
</g>
<g>
	<path fill="#E6E7E8" d="M298.534,258.629c0,3.125-3.266,5.664-7.297,5.664h-69.269c-2.391,0-7.297,0-7.297,0s0-4.393,0-5.664
		v-42.922c0-1.549,0-5.67,0-5.67s5.26,0,7.297,0h69.269c4.031,0,7.297,2.539,7.297,5.67V258.629z"/>
	<path fill="#FFFFFF" stroke="#231F20" stroke-width="0.5669" stroke-miterlimit="10" d="M214.672,210.037v54.256V210.037z"/>
	
		<line fill="#FFFFFF" stroke="#231F20" stroke-width="0.5669" stroke-miterlimit="10" x1="214.577" y1="221.67" x2="298.302" y2="221.67"/>
	<text transform="matrix(1 0 0 1 219.5901 218.5537)" fill="#231F20" font-family="'CMR10'" font-size="7.0866">pmuRedundancy, value</text>
	
		<line fill="#FFFFFF" stroke="#231F20" stroke-width="0.5669" stroke-miterlimit="10" x1="214.577" y1="253.52" x2="298.302" y2="253.52"/>
	
		<line fill="#FFFFFF" stroke="#231F20" stroke-width="0.5669" stroke-miterlimit="10" x1="214.577" y1="242.854" x2="298.302" y2="242.854"/>
	<text transform="matrix(1 0 0 1 178.823 239.6758)" fill="#231F20" font-family="'CMR10'" font-size="8.5039">SET</text>
	
		<line fill="#FFFFFF" stroke="#231F20" stroke-width="0.5669" stroke-miterlimit="10" x1="214.578" y1="232.902" x2="298.302" y2="232.902"/>
	<text transform="matrix(1 0 0 1 219.5901 229.5391)" fill="#231F20" font-family="'CMR10'" font-size="7.0866">pmuDevice, value</text>
	<text transform="matrix(1 0 0 1 219.5901 240.2227)" fill="#231F20" font-family="'CMR10'" font-size="7.0866">pmuOptimal</text>
	<text transform="matrix(1 0 0 1 219.5901 250.5537)" fill="#231F20" font-family="'CMR10'" font-size="7.0866">legRedundancy, value</text>
	<text transform="matrix(1 0 0 1 219.5901 261.6553)" fill="#231F20" font-family="'CMR10'" font-size="7.0866">legDevice, value</text>
	<path fill="none" stroke="#231F20" stroke-width="0.5669" stroke-miterlimit="10" d="M298.534,258.629
		c0,3.125-2.537,5.664-5.669,5.664H174.819c-3.131,0-5.669-2.539-5.669-5.664v-42.922c0-3.131,2.538-5.67,5.669-5.67h118.046
		c3.132,0,5.669,2.539,5.669,5.67V258.629z"/>
</g>
<g>
	<g>
		<path fill="none" stroke="#231F20" stroke-width="0.5669" stroke-miterlimit="10" d="M170.489,171.186v10.558
			c0,3.118,2.551,5.669,5.669,5.669l46.498-0.004c3.118,0,5.669,2.551,5.669,5.669v15.308"/>
		<g>
			<polygon fill="#231F20" points="168.809,172.46 170.489,171.746 172.168,172.46 170.489,168.479 			"/>
		</g>
	</g>
</g>
<g>
	<path fill="#E6E7E8" d="M162.64,263.981c0,3.739-2.835,5.645-6.334,5.645h-60.13c-2.076,0-6.334,0-6.334,0s0-5.256,0-6.777v-51.36
		c0-1.853,0-6.784,0-6.784s4.566,0,6.334,0h60.13c3.499,0,6.334,1.905,6.334,5.651V263.981z"/>
	<path fill="#FFFFFF" stroke="#231F20" stroke-width="0.5669" stroke-miterlimit="10" d="M90.126,204.704v64.922V204.704z"/>
	
		<line fill="#FFFFFF" stroke="#231F20" stroke-width="0.5669" stroke-miterlimit="10" x1="89.843" y1="216.337" x2="162.429" y2="216.337"/>
	<text transform="matrix(1 0 0 1 94.3474 213.2207)" fill="#231F20" font-family="'CMR10'" font-size="7.0866">pmuUnique, value</text>
	
		<line fill="#FFFFFF" stroke="#231F20" stroke-width="0.5669" stroke-miterlimit="10" x1="89.843" y1="248.187" x2="162.429" y2="248.187"/>
	
		<line fill="#FFFFFF" stroke="#231F20" stroke-width="0.5669" stroke-miterlimit="10" x1="89.843" y1="237.521" x2="162.429" y2="237.521"/>
	<text transform="matrix(1 0 0 1 37.325 239.6758)" fill="#231F20" font-family="'CMR10'" font-size="8.5039">VARIANCE</text>
	
		<line fill="#FFFFFF" stroke="#231F20" stroke-width="0.5669" stroke-miterlimit="10" x1="89.843" y1="227.569" x2="162.429" y2="227.569"/>
	<text transform="matrix(1 0 0 1 94.3474 224.2061)" fill="#231F20" font-family="'CMR10'" font-size="7.0866">pmuRandom, value</text>
	<text transform="matrix(1 0 0 1 94.3474 234.8896)" fill="#231F20" font-family="'CMR10'" font-size="7.0866">pmuType, value</text>
	<text transform="matrix(1 0 0 1 94.3474 245.2207)" fill="#231F20" font-family="'CMR10'" font-size="7.0866">legUnique, value</text>
	<text transform="matrix(1 0 0 1 94.3474 256.3223)" fill="#231F20" font-family="'CMR10'" font-size="7.0866">legRandom, value</text>
	<text transform="matrix(1 0 0 1 94.3474 266.8301)" fill="#231F20" font-family="'CMR10'" font-size="7.0866">legType, value</text>
	
		<line fill="#FFFFFF" stroke="#231F20" stroke-width="0.5669" stroke-miterlimit="10" x1="89.984" y1="258.96" x2="162.571" y2="258.96"/>
	<path fill="none" stroke="#231F20" stroke-width="0.5669" stroke-miterlimit="10" d="M162.571,263.957
		c0,3.131-2.538,5.669-5.669,5.669H38.925c-3.131,0-5.669-2.538-5.669-5.669v-53.584c0-3.131,2.538-5.669,5.669-5.669h117.977
		c3.131,0,5.669,2.538,5.669,5.669V263.957z"/>
</g>
<path fill="#E6E7E8" d="M605.153,240.658c0,3.132-2.257,5.67-5.04,5.67h-38.42c-1.604,0-5.04,0-5.04,0s0-4.342,0-5.67v-10.397
	c0-1.55,0-5.67,0-5.67s3.634,0,5.04,0h38.42c2.783,0,5.04,2.538,5.04,5.67V240.658z"/>
<path fill="#E6E7E8" d="M421.168,167.702c-1.064,1.1-3.061,1.596-3.061,1.596H386.83v-32.65c0,0,16.608-0.227,30.229-0.246
	c1.662-0.002,2.204,0.716,3.449,0.982c0.677,0.145,2.389,3.018,2.395,6.064c0.013,6.371-0.068,11.17-0.047,14.83
	c0.016,2.872-0.163,3.439-0.088,5.341C422.819,164.88,422.706,166.111,421.168,167.702z"/>
<line fill="#FFFFFF" stroke="#231F20" stroke-width="0.5669" stroke-miterlimit="10" x1="387.081" y1="158.711" x2="423.137" y2="158.711"/>
<path fill="#FFFFFF" stroke="#231F20" stroke-width="0.5669" stroke-miterlimit="10" d="M386.819,136.407v32.891V136.407z"/>
<text transform="matrix(1 0 0 1 338.6877 156.0991)" fill="#231F20" font-family="'CMR10'" font-size="8.5039">METHOD</text>
<line fill="#FFFFFF" stroke="#231F20" stroke-width="0.5669" stroke-miterlimit="10" x1="386.819" y1="147.542" x2="422.918" y2="147.542"/>
<path fill="none" stroke="#231F20" stroke-width="0.5669" stroke-miterlimit="10" d="M423.002,163.628
	c0,3.131-2.601,5.67-5.809,5.67h-79.496c-3.207,0-5.809-2.539-5.809-5.67v-21.537c0-3.131,2.602-5.67,5.809-5.67h79.496
	c3.208,0,5.809,2.539,5.809,5.67V163.628z"/>
<g>
	<g>
		<path fill="none" stroke="#231F20" stroke-width="0.5669" stroke-miterlimit="10" d="M448.547,120.083h-6.181
			c-3.118,0-5.669,2.551-5.669,5.669l0.001,12.09c0,3.118-2.551,5.669-5.669,5.669h-6.318"/>
		<g>
			<polygon fill="#231F20" points="447.273,118.403 447.987,120.083 447.273,121.763 451.254,120.083 			"/>
		</g>
	</g>
</g>
<g>
	<g>
		<path fill="none" stroke="#231F20" stroke-width="0.5669" stroke-miterlimit="10" d="M448.547,186.356h-6.181
			c-3.118,0-5.669-2.551-5.669-5.669l0.001-12.091c0-3.118-2.551-5.669-5.669-5.669h-6.318"/>
		<g>
			<polygon fill="#231F20" points="447.273,184.677 447.987,186.356 447.273,188.036 451.254,186.356 			"/>
		</g>
	</g>
</g>
<text transform="matrix(1 0 0 1 472.7717 118.0977)"><tspan x="0" y="0" fill="#231F20" font-family="'CMR10'" font-size="8.5039">Non-linear</tspan><tspan x="-11.981" y="10.205" fill="#231F20" font-family="'CMR10'" font-size="8.5039">State Estimation</tspan></text>
<path fill="none" stroke="#231F20" stroke-width="0.5669" stroke-miterlimit="10" d="M532.117,126.305
	c0,3.132-2.538,5.669-5.669,5.669h-68.387c-3.132,0-5.669-2.537-5.669-5.669v-12.38c0-3.132,2.537-5.67,5.669-5.67h68.387
	c3.131,0,5.669,2.538,5.669,5.67V126.305z"/>
<text transform="matrix(1 0 0 1 485.9407 150.6963)"><tspan x="0" y="0" fill="#231F20" font-family="'CMR10'" font-size="8.5039">DC</tspan><tspan x="-25.15" y="10.204" fill="#231F20" font-family="'CMR10'" font-size="8.5039">State Estimation</tspan></text>
<path fill="none" stroke="#231F20" stroke-width="0.5669" stroke-miterlimit="10" d="M532.117,158.933
	c0,3.134-2.538,5.672-5.669,5.672h-68.387c-3.132,0-5.669-2.538-5.669-5.672v-12.386c0-3.132,2.537-5.669,5.669-5.669h68.387
	c3.131,0,5.669,2.537,5.669,5.669V158.933z"/>
<text transform="matrix(1 0 0 1 482.2795 183.5781)"><tspan x="0" y="0" fill="#231F20" font-family="'CMR10'" font-size="8.5039">PMU</tspan><tspan x="-21.489" y="10.205" fill="#231F20" font-family="'CMR10'" font-size="8.5039">State Estimation</tspan></text>
<path fill="none" stroke="#231F20" stroke-width="0.5669" stroke-miterlimit="10" d="M532.117,191.815
	c0,3.131-2.538,5.669-5.669,5.669h-68.387c-3.132,0-5.669-2.538-5.669-5.669v-12.381c0-3.131,2.537-5.67,5.669-5.67h68.387
	c3.131,0,5.669,2.539,5.669,5.67V191.815z"/>
<g>
	<line fill="#FFFFFF" x1="424.713" y1="152.94" x2="451.256" y2="152.94"/>
	<g>
		
			<line fill="none" stroke="#231F20" stroke-width="0.5669" stroke-miterlimit="10" x1="424.713" y1="152.94" x2="448.549" y2="152.94"/>
		<g>
			<polygon fill="#231F20" points="447.275,154.62 447.989,152.94 447.275,151.261 451.256,152.94 			"/>
		</g>
	</g>
</g>
<path fill="#E6E7E8" d="M466.127,92.953l-2.607,2.186l-2.121,0.509l-24.869-0.038l-26.566,0.151V52.456
	c0,0,27.441,0.058,40.883,0.125c11.433,0.059,11.053-0.342,14.17,1.509c1.032,0.612,1.895,3.673,1.914,6.415
	c0.049,6.69-0.055,15.137,0.001,20.399C467.016,89.491,466.127,92.953,466.127,92.953z"/>
<text transform="matrix(1 0 0 1 413.7424 60.5659)" fill="#231F20" font-family="'CMR10'" font-size="7.0866">flat, value</text>
<text transform="matrix(1 0 0 1 413.7424 71.2368)" fill="#231F20" font-family="'CMR10'" font-size="7.0866">warm</text>
<text transform="matrix(1 0 0 1 413.7424 92.9844)" fill="#231F20" font-family="'CMR10'" font-size="7.0866">random, value</text>
<path fill="#FFFFFF" stroke="#231F20" stroke-width="0.5669" stroke-miterlimit="10" d="M409.965,52.729v42.918V52.729z"/>
<text transform="matrix(1 0 0 1 373.3606 76.6313)" fill="#231F20" font-family="'CMR10'" font-size="8.5039">START</text>
<line fill="#FFFFFF" stroke="#231F20" stroke-width="0.5669" stroke-miterlimit="10" x1="409.963" y1="84.98" x2="466.84" y2="84.98"/>
<line fill="#FFFFFF" stroke="#231F20" stroke-width="0.5669" stroke-miterlimit="10" x1="409.963" y1="74.313" x2="466.84" y2="74.313"/>
<line fill="#FFFFFF" stroke="#231F20" stroke-width="0.5669" stroke-miterlimit="10" x1="410.01" y1="63.247" x2="466.887" y2="63.247"/>
<path fill="none" stroke="#231F20" stroke-width="0.5669" stroke-miterlimit="10" d="M466.84,89.978c0,3.131-2.537,5.67-5.669,5.67
	h-88.354c-3.131,0-5.67-2.539-5.67-5.67V58.251c0-3.132,2.539-5.67,5.67-5.67h88.354c3.132,0,5.669,2.538,5.669,5.67V89.978z"/>
<g>
	<g>
		<path fill="none" stroke="#231F20" stroke-width="0.5669" stroke-miterlimit="10" d="M468.108,74.108H486.8
			c3.118,0,5.669,2.551,5.669,5.669v24.82"/>
		<g>
			<polygon fill="#231F20" points="490.789,103.324 492.469,104.038 494.149,103.324 492.469,107.306 			"/>
		</g>
	</g>
</g>
<g>
	<g>
		<path fill="none" stroke="#231F20" stroke-width="0.5669" stroke-miterlimit="10" d="M557.401,143.511h-6.155
			c-3.118,0-5.669-2.551-5.669-5.669v-12.09c0-3.118-2.551-5.669-5.669-5.669h-6.297"/>
		<g>
			<polygon fill="#231F20" points="556.126,141.831 556.84,143.511 556.126,145.19 560.108,143.511 			"/>
		</g>
	</g>
</g>
<g>
	<g>
		<path fill="none" stroke="#231F20" stroke-width="0.5669" stroke-miterlimit="10" d="M557.401,162.928h-6.155
			c-3.118,0-5.669,2.551-5.669,5.669v12.091c0,3.118-2.551,5.669-5.669,5.669h-6.297"/>
		<g>
			<polygon fill="#231F20" points="556.126,161.248 556.84,162.928 556.126,164.607 560.108,162.928 			"/>
		</g>
	</g>
</g>
<g>
	<line fill="#FFFFFF" x1="533.612" y1="152.94" x2="560.109" y2="152.94"/>
	<g>
		
			<line fill="none" stroke="#231F20" stroke-width="0.5669" stroke-miterlimit="10" x1="533.612" y1="152.94" x2="557.401" y2="152.94"/>
		<g>
			<polygon fill="#231F20" points="556.127,154.62 556.841,152.94 556.127,151.261 560.109,152.94 			"/>
		</g>
	</g>
</g>
<g>
	<g>
		<path fill="none" stroke="#231F20" stroke-width="0.5669" stroke-miterlimit="10" d="M538.624,220.396v-56.014
			c0-3.118-1.229-5.671-2.731-5.671s-2.731,0-2.731,0"/>
		<g>
			<polygon fill="#231F20" points="540.304,219.123 538.624,219.837 536.945,219.123 538.624,223.104 			"/>
		</g>
	</g>
</g>
<g>
	<g>
		<path fill="none" stroke="#231F20" stroke-width="0.5669" stroke-miterlimit="10" d="M491.971,199.147v30.359
			c0,3.118,2.551,5.669,5.669,5.669h4.241"/>
		<g>
			<polygon fill="#231F20" points="500.607,236.855 501.321,235.176 500.607,233.496 504.588,235.176 			"/>
		</g>
	</g>
</g>
<line fill="#FFFFFF" stroke="#231F20" stroke-width="0.5669" stroke-miterlimit="10" x1="556.653" y1="235.46" x2="605.153" y2="235.46"/>
<text transform="matrix(1 0 0 1 560.4495 232.3564)" fill="#231F20" font-family="'CMR10'" font-size="7.0866">export</text>
<text transform="matrix(1 0 0 1 560.4495 243.5371)" fill="#231F20" font-family="'CMR10'" font-size="7.0866">export slack</text>
<path fill="#FFFFFF" stroke="#231F20" stroke-width="0.5669" stroke-miterlimit="10" d="M556.663,224.591v21.737V224.591z"/>
<text transform="matrix(1 0 0 1 512.4778 238.5342)" fill="#231F20" font-family="'CMR10'" font-size="8.5039">EXPORT</text>
<g>
	<line fill="#FFFFFF" x1="606.88" y1="235.479" x2="623.88" y2="235.479"/>
	<g>
		
			<line fill="none" stroke="#231F20" stroke-width="0.5669" stroke-miterlimit="10" x1="606.88" y1="235.479" x2="621.172" y2="235.479"/>
		<g>
			<polygon fill="#231F20" points="619.899,237.159 620.613,235.479 619.899,233.8 623.88,235.479 			"/>
		</g>
	</g>
</g>
<g>
	<path fill="none" stroke="#231F20" stroke-width="0.5669" stroke-miterlimit="10" d="M711.617,238.037
		c0,4.677-3.68,7.452-8.177,6.166l-7.462-2.133c-4.497-1.286-11.921-1.549-16.498-0.584c0,0-25.323,5.336-33.383,5.338
		c-7.719,0.004-12.937-0.539-12.937-0.539c-4.651-0.483-8.458-4.706-8.458-9.383v-4.715c0-4.677,3.827-8.504,8.504-8.504h69.906
		c4.677,0,8.504,3.827,8.504,8.504V238.037z"/>
</g>
<text transform="matrix(1 0 0 1 630.4866 235.6387)" fill="#231F20" font-family="'CMR10'" font-size="8.5039">Export Matrix Form</text>
<text transform="matrix(1 0 0 1 390.5022 144.4478)" fill="#231F20" font-family="'CMR10'" font-size="7.0866">nonlinear</text>
<text transform="matrix(1 0 0 1 390.5022 155.3237)" fill="#231F20" font-family="'CMR10'" font-size="7.0866">dc</text>
<text transform="matrix(1 0 0 1 390.5022 165.6396)" fill="#231F20" font-family="'CMR10'" font-size="7.0866">pmu</text>
<text transform="matrix(1 0 0 1 413.7424 81.7393)" fill="#231F20" font-family="'CMR10'" font-size="7.0866">exact</text>
<path fill="none" stroke="#231F20" stroke-width="0.5669" stroke-miterlimit="10" d="M605.153,240.658
	c0,3.132-2.392,5.67-5.342,5.67h-88.329c-2.95,0-5.342-2.538-5.342-5.67v-10.397c0-3.132,2.392-5.67,5.342-5.67h88.329
	c2.95,0,5.342,2.538,5.342,5.67V240.658z"/>
<text transform="matrix(1 0 0 1 616.6819 136.5635)" fill="#231F20" font-family="'CMR10'" font-size="7.0866">bus</text>
<text transform="matrix(1 0 0 1 616.6819 147.2349)" fill="#231F20" font-family="'CMR10'" font-size="7.0866">branch</text>
<text transform="matrix(1 0 0 1 616.6819 168.9824)" fill="#231F20" font-family="'CMR10'" font-size="7.0866">error</text>
<path fill="#FFFFFF" stroke="#231F20" stroke-width="0.5669" stroke-miterlimit="10" d="M612.065,107.017v64.639V107.017z"/>
<text transform="matrix(1 0 0 1 566.6848 141.749)" fill="#231F20" font-family="'CMR10'" font-size="8.5039">DISPLAY</text>
<line fill="#FFFFFF" stroke="#231F20" stroke-width="0.5669" stroke-miterlimit="10" x1="612.074" y1="160.989" x2="653.359" y2="160.989"/>
<line fill="#FFFFFF" stroke="#231F20" stroke-width="0.5669" stroke-miterlimit="10" x1="612.074" y1="150.314" x2="653.359" y2="150.314"/>
<line fill="#FFFFFF" stroke="#231F20" stroke-width="0.5669" stroke-miterlimit="10" x1="612.109" y1="139.248" x2="653.392" y2="139.248"/>
<text transform="matrix(1 0 0 1 616.6819 157.7373)" fill="#231F20" font-family="'CMR10'" font-size="7.0866">estimate</text>
<g>
	<path fill="none" stroke="#231F20" stroke-width="0.5669" stroke-miterlimit="10" d="M754.236,59.415
		c0,4.677-3.644,7.335-8.097,5.905l-5.023-1.611c-4.453-1.43-11.82-1.718-16.372-0.642c0,0-21.699,5.133-28.879,5.136
		c-6.877,0.003-10.614-0.434-10.614-0.434c-4.646-0.542-8.446-4.813-8.446-9.489v-4.715c0-4.677,3.827-8.504,8.504-8.504h60.424
		c4.677,0,8.504,3.827,8.504,8.504V59.415z"/>
</g>
<g>
	<path fill="#F1F1F2" d="M743.095,137.39c0.143,3.881-1.081,8.596-1.081,8.596c-0.392,1.51-1.987,2.744-3.547,2.744h-46.676
		c-1.56,0-3.651-0.98-4.649-2.178l-4.4-5.283c-0.998-1.197-1.137-3.259-0.309-4.579l4.451-7.099c0.828-1.32,2.781-2.401,4.341-2.401
		h45.541c1.56,0,3.463,1.11,4.229,2.468C740.995,129.657,742.937,133.093,743.095,137.39z"/>
	<path fill="none" stroke="#231F20" stroke-width="0.5669" stroke-miterlimit="10" d="M743.095,137.39
		c0.143,3.881-1.081,8.596-1.081,8.596c-0.392,1.51-1.987,2.744-3.547,2.744h-46.676c-1.56,0-3.651-0.98-4.649-2.178l-4.4-5.283
		c-0.998-1.197-1.137-3.259-0.309-4.579l4.451-7.099c0.828-1.32,2.781-2.401,4.341-2.401h45.541c1.56,0,3.463,1.11,4.229,2.468
		C740.995,129.657,742.937,133.093,743.095,137.39z"/>
</g>
<text transform="matrix(1 0 0 1 701.8137 140.0415)" fill="#231F20" font-family="'CMR10'" font-size="8.5039">Display</text>
<text transform="matrix(1 0 0 1 704.1194 99.1108)" fill="#231F20" font-family="'CMR10'" font-size="8.5039">SAVE</text>
<path fill="none" stroke="#231F20" stroke-width="0.5669" stroke-miterlimit="10" d="M755.632,101.245
	c0,3.131-2.338,5.67-5.223,5.67h-69.283c-2.885,0-5.223-2.539-5.223-5.67V90.851c0-3.131,2.338-5.669,5.223-5.669h69.283
	c2.885,0,5.223,2.538,5.223,5.669V101.245z"/>
<g>
	<line fill="#FFFFFF" x1="715.441" y1="125.288" x2="715.441" y2="108.288"/>
	<g>
		
			<line fill="none" stroke="#231F20" stroke-width="0.5669" stroke-miterlimit="10" x1="715.441" y1="125.288" x2="715.441" y2="110.996"/>
		<g>
			<polygon fill="#231F20" points="717.12,112.27 715.441,111.556 713.761,112.27 715.441,108.288 			"/>
		</g>
	</g>
</g>
<text transform="matrix(1 0 0 1 696.3196 57.0142)" fill="#231F20" font-family="'CMR10'" font-size="8.5039">Save Data</text>
<g>
	<g>
		<path fill="none" stroke="#231F20" stroke-width="0.5669" stroke-miterlimit="10" d="M715.835,69.753c0,0.609,0,1.29,0,2.007
			c0,2.593,2.551,4.714,5.669,4.714l16.466-0.002c3.118,0,5.669,1.747,5.669,3.882c0,2.136,0,3.883,0,3.883"/>
		<g>
			<polygon fill="#231F20" points="714.156,71.027 715.835,70.313 717.515,71.027 715.835,67.046 			"/>
		</g>
	</g>
</g>
<line fill="#FFFFFF" stroke="#231F20" stroke-width="0.5669" stroke-miterlimit="10" x1="611.807" y1="128.399" x2="653.091" y2="128.399"/>
<line fill="#FFFFFF" stroke="#231F20" stroke-width="0.5669" stroke-miterlimit="10" x1="611.807" y1="117.732" x2="653.091" y2="117.732"/>
<path fill="none" stroke="#231F20" stroke-width="0.5669" stroke-miterlimit="10" d="M653.124,112.335
	c0-3.131-2.538-5.669-5.669-5.669h-80.753c-3.131,0-5.669,2.538-5.669,5.669v53.805c0,3.131,2.538,5.669,5.669,5.669h80.753
	c3.131,0,5.669-2.538,5.669-5.669V112.335z"/>
<text transform="matrix(1 0 0 1 616.6829 114.5977)" fill="#231F20" font-family="'CMR10'" font-size="7.0866">main</text>
<text transform="matrix(1 0 0 1 616.6829 125.5308)" fill="#231F20" font-family="'CMR10'" font-size="7.0866">flow</text>
<g>
	<line fill="#FFFFFF" x1="653.955" y1="139.078" x2="680.452" y2="139.078"/>
	<g>
		
			<line fill="none" stroke="#231F20" stroke-width="0.5669" stroke-miterlimit="10" x1="653.955" y1="139.078" x2="677.744" y2="139.078"/>
		<g>
			<polygon fill="#231F20" points="676.471,140.758 677.185,139.078 676.471,137.398 680.452,139.078 			"/>
		</g>
	</g>
</g>
</svg>
