<?xml version="1.0" encoding="utf-8"?>
<!-- Generator: Adobe Illustrator 16.0.0, SVG Export Plug-In . SVG Version: 6.00 Build 0)  -->
<!DOCTYPE svg PUBLIC "-//W3C//DTD SVG 1.1//EN" "http://www.w3.org/Graphics/SVG/1.1/DTD/svg11.dtd">
<svg version="1.1" id="Layer_1" xmlns="http://www.w3.org/2000/svg" xmlns:xlink="http://www.w3.org/1999/xlink" x="0px" y="0px"
	 width="632px" height="251px" viewBox="-42 -8 632 251" enable-background="new -42 -8 632 251" xml:space="preserve">
<path fill="#E6E7E8" d="M426.815,197.764c0,3.132-2.257,5.67-5.04,5.67h-38.42c-1.604,0-5.04,0-5.04,0s0-4.342,0-5.67v-10.398
	c0-1.549,0-5.669,0-5.669s3.634,0,5.04,0h38.42c2.783,0,5.04,2.538,5.04,5.669V197.764z"/>
<g>
	<line fill="#FFFFFF" x1="135.327" y1="110.054" x2="152.327" y2="110.054"/>
	<g>
		
			<line fill="none" stroke="#231F20" stroke-width="0.5669" stroke-miterlimit="10" x1="135.327" y1="110.054" x2="149.62" y2="110.054"/>
		<g>
			<polygon fill="#231F20" points="148.346,111.734 149.06,110.054 148.346,108.375 152.327,110.054 			"/>
		</g>
	</g>
</g>
<path fill="#E6E7E8" d="M242.83,124.807c-1.063,1.101-3.061,1.596-3.061,1.596h-31.277V93.76c0,0,16.609-0.226,30.229-0.246
	c1.661-0.002,2.204,0.716,3.449,0.982c0.677,0.145,2.388,3.018,2.395,6.064c0.013,6.372-0.068,11.17-0.047,14.826
	c0.016,2.868-0.163,3.436-0.087,5.338C244.481,121.985,244.368,123.217,242.83,124.807z"/>
<line fill="#FFFFFF" stroke="#231F20" stroke-width="0.5669" stroke-miterlimit="10" x1="208.743" y1="115.82" x2="244.8" y2="115.82"/>
<path fill="#FFFFFF" stroke="#231F20" stroke-width="0.5669" stroke-miterlimit="10" d="M208.481,93.521v32.882V93.521z"/>
<text transform="matrix(1 0 0 1 160.3503 113.21)" fill="#231F20" font-family="'CMR10'" font-size="8.5039">METHOD</text>
<line fill="#FFFFFF" stroke="#231F20" stroke-width="0.5669" stroke-miterlimit="10" x1="208.481" y1="104.655" x2="244.58" y2="104.655"/>
<path fill="none" stroke="#231F20" stroke-width="0.5669" stroke-miterlimit="10" d="M244.664,120.733
	c0,3.132-2.6,5.669-5.808,5.669H159.36c-3.208,0-5.808-2.537-5.808-5.669V99.204c0-3.131,2.6-5.669,5.808-5.669h79.496
	c3.208,0,5.808,2.538,5.808,5.669V120.733z"/>
<g>
	<g>
		<path fill="none" stroke="#231F20" stroke-width="0.5669" stroke-miterlimit="10" d="M270.209,77.196h-6.179
			c-3.118,0-5.669,2.551-5.669,5.669l0,12.09c0,3.118-2.551,5.669-5.669,5.669h-6.318"/>
		<g>
			<polygon fill="#231F20" points="268.935,75.516 269.648,77.196 268.935,78.875 272.916,77.196 			"/>
		</g>
	</g>
</g>
<g>
	<g>
		<path fill="none" stroke="#231F20" stroke-width="0.5669" stroke-miterlimit="10" d="M270.209,143.462h-6.179
			c-3.118,0-5.669-2.552-5.669-5.669l0-12.09c0-3.119-2.551-5.67-5.669-5.67h-6.318"/>
		<g>
			<polygon fill="#231F20" points="268.935,141.782 269.648,143.462 268.935,145.142 272.916,143.462 			"/>
		</g>
	</g>
</g>
<text transform="matrix(1 0 0 1 294.4348 75.2085)"><tspan x="0" y="0" fill="#231F20" font-family="'CMR10'" font-size="8.5039">Non-linear</tspan><tspan x="-11.981" y="10.205" fill="#231F20" font-family="'CMR10'" font-size="8.5039">State Estimation</tspan></text>
<path fill="none" stroke="#231F20" stroke-width="0.5669" stroke-miterlimit="10" d="M353.78,83.418
	c0,3.131-2.538,5.669-5.669,5.669h-68.387c-3.132,0-5.669-2.538-5.669-5.669v-12.38c0-3.131,2.538-5.669,5.669-5.669h68.387
	c3.131,0,5.669,2.538,5.669,5.669V83.418z"/>
<text transform="matrix(1 0 0 1 307.6038 107.8071)"><tspan x="0" y="0" fill="#231F20" font-family="'CMR10'" font-size="8.5039">DC</tspan><tspan x="-25.15" y="10.205" fill="#231F20" font-family="'CMR10'" font-size="8.5039">State Estimation</tspan></text>
<path fill="none" stroke="#231F20" stroke-width="0.5669" stroke-miterlimit="10" d="M353.78,116.041
	c0,3.131-2.538,5.669-5.669,5.669h-68.387c-3.132,0-5.669-2.538-5.669-5.669V103.66c0-3.131,2.538-5.669,5.669-5.669h68.387
	c3.131,0,5.669,2.538,5.669,5.669V116.041z"/>
<text transform="matrix(1 0 0 1 303.9417 140.6895)"><tspan x="0" y="0" fill="#231F20" font-family="'CMR10'" font-size="8.5039">PMU</tspan><tspan x="-21.488" y="10.205" fill="#231F20" font-family="'CMR10'" font-size="8.5039">State Estimation</tspan></text>
<path fill="none" stroke="#231F20" stroke-width="0.5669" stroke-miterlimit="10" d="M353.78,148.92c0,3.132-2.538,5.67-5.669,5.67
	h-68.387c-3.132,0-5.669-2.538-5.669-5.67v-12.38c0-3.132,2.538-5.669,5.669-5.669h68.387c3.131,0,5.669,2.537,5.669,5.669V148.92z"
	/>
<g>
	<line fill="#FFFFFF" x1="246.375" y1="110.054" x2="272.918" y2="110.054"/>
	<g>
		
			<line fill="none" stroke="#231F20" stroke-width="0.5669" stroke-miterlimit="10" x1="246.375" y1="110.054" x2="270.21" y2="110.054"/>
		<g>
			<polygon fill="#231F20" points="268.936,111.734 269.65,110.054 268.936,108.375 272.918,110.054 			"/>
		</g>
	</g>
</g>
<path fill="#E6E7E8" d="M287.789,50.066l-2.607,2.186l-2.121,0.508l-24.869-0.038l-26.566,0.151V9.57c0,0,27.44,0.057,40.882,0.125
	c11.433,0.058,11.053-0.342,14.17,1.509c1.032,0.613,1.895,3.673,1.914,6.416c0.049,6.69-0.055,15.136,0.001,20.399
	C288.678,46.605,287.789,50.066,287.789,50.066z"/>
<text transform="matrix(1 0 0 1 235.405 17.6768)" fill="#231F20" font-family="'CMR10'" font-size="7.0866">flat, value</text>
<text transform="matrix(1 0 0 1 235.405 28.3481)" fill="#231F20" font-family="'CMR10'" font-size="7.0866">warm</text>
<text transform="matrix(1 0 0 1 235.405 50.0952)" fill="#231F20" font-family="'CMR10'" font-size="7.0866">random, value</text>
<path fill="#FFFFFF" stroke="#231F20" stroke-width="0.5669" stroke-miterlimit="10" d="M231.627,9.843V52.76V9.843z"/>
<text transform="matrix(1 0 0 1 195.0237 33.7422)" fill="#231F20" font-family="'CMR10'" font-size="8.5039">START</text>
<line fill="#FFFFFF" stroke="#231F20" stroke-width="0.5669" stroke-miterlimit="10" x1="231.626" y1="42.094" x2="288.502" y2="42.094"/>
<line fill="#FFFFFF" stroke="#231F20" stroke-width="0.5669" stroke-miterlimit="10" x1="231.626" y1="31.427" x2="288.502" y2="31.427"/>
<line fill="#FFFFFF" stroke="#231F20" stroke-width="0.5669" stroke-miterlimit="10" x1="231.672" y1="20.361" x2="288.549" y2="20.361"/>
<path fill="none" stroke="#231F20" stroke-width="0.5669" stroke-miterlimit="10" d="M288.502,47.091
	c0,3.131-2.537,5.669-5.669,5.669h-88.354c-3.131,0-5.669-2.538-5.669-5.669V15.364c0-3.131,2.538-5.669,5.669-5.669h88.354
	c3.132,0,5.669,2.538,5.669,5.669V47.091z"/>
<g>
	<g>
		<path fill="none" stroke="#231F20" stroke-width="0.5669" stroke-miterlimit="10" d="M289.77,31.222h18.691
			c3.119,0,5.67,2.551,5.67,5.669v24.82"/>
		<g>
			<polygon fill="#231F20" points="312.451,60.438 314.131,61.151 315.811,60.438 314.131,64.419 			"/>
		</g>
	</g>
</g>
<g>
	<g>
		<path fill="none" stroke="#231F20" stroke-width="0.5669" stroke-miterlimit="10" d="M379.062,100.625h-6.154
			c-3.118,0-5.669-2.551-5.669-5.669v-12.09c0-3.118-2.551-5.669-5.669-5.669h-6.297"/>
		<g>
			<polygon fill="#231F20" points="377.788,98.945 378.502,100.625 377.788,102.304 381.77,100.625 			"/>
		</g>
	</g>
</g>
<g>
	<g>
		<path fill="none" stroke="#231F20" stroke-width="0.5669" stroke-miterlimit="10" d="M379.062,120.033h-6.154
			c-3.118,0-5.669,2.551-5.669,5.67v12.09c0,3.117-2.551,5.669-5.669,5.669h-6.297"/>
		<g>
			<polygon fill="#231F20" points="377.788,118.354 378.502,120.033 377.788,121.713 381.77,120.033 			"/>
		</g>
	</g>
</g>
<g>
	<line fill="#FFFFFF" x1="355.274" y1="110.054" x2="381.771" y2="110.054"/>
	<g>
		
			<line fill="none" stroke="#231F20" stroke-width="0.5669" stroke-miterlimit="10" x1="355.274" y1="110.054" x2="379.064" y2="110.054"/>
		<g>
			<polygon fill="#231F20" points="377.789,111.734 378.503,110.054 377.789,108.375 381.771,110.054 			"/>
		</g>
	</g>
</g>
<g>
	<g>
		<path fill="none" stroke="#231F20" stroke-width="0.5669" stroke-miterlimit="10" d="M502.906,107.589h-6.18
			c-3.118,0-5.669-2.551-5.669-5.669v-1.305c0-3.118-2.551-5.669-5.669-5.669h-6.317"/>
		<g>
			<polygon fill="#231F20" points="501.633,105.91 502.347,107.589 501.633,109.269 505.615,107.589 			"/>
		</g>
	</g>
</g>
<g>
	<g>
		<path fill="none" stroke="#231F20" stroke-width="0.5669" stroke-miterlimit="10" d="M502.906,112.535h-6.18
			c-3.118,0-5.669,2.551-5.669,5.669v1.305c0,3.118-2.551,5.669-5.669,5.669h-6.317"/>
		<g>
			<polygon fill="#231F20" points="501.633,110.855 502.347,112.535 501.633,114.214 505.615,112.535 			"/>
		</g>
	</g>
</g>
<g>
	<g>
		<path fill="none" stroke="#231F20" stroke-width="0.5669" stroke-miterlimit="10" d="M360.286,177.502v-56.013
			c0-3.118-1.229-5.669-2.731-5.669s-2.731,0-2.731,0"/>
		<g>
			<polygon fill="#231F20" points="361.966,176.229 360.286,176.941 358.607,176.229 360.286,180.21 			"/>
		</g>
	</g>
</g>
<g>
	<g>
		<path fill="none" stroke="#231F20" stroke-width="0.5669" stroke-miterlimit="10" d="M313.633,156.253v30.358
			c0,3.119,2.551,5.67,5.669,5.67h4.241"/>
		<g>
			<polygon fill="#231F20" points="322.269,193.961 322.983,192.281 322.269,190.602 326.25,192.281 			"/>
		</g>
	</g>
</g>
<line fill="#FFFFFF" stroke="#231F20" stroke-width="0.5669" stroke-miterlimit="10" x1="378.315" y1="192.564" x2="426.815" y2="192.564"/>
<text transform="matrix(1 0 0 1 382.1116 189.4668)" fill="#231F20" font-family="'CMR10'" font-size="7.0866">export</text>
<text transform="matrix(1 0 0 1 382.1116 200.6484)" fill="#231F20" font-family="'CMR10'" font-size="7.0866">export slack</text>
<path fill="#FFFFFF" stroke="#231F20" stroke-width="0.5669" stroke-miterlimit="10" d="M378.325,181.696v21.737V181.696z"/>
<text transform="matrix(1 0 0 1 334.1409 195.6445)" fill="#231F20" font-family="'CMR10'" font-size="8.5039">EXPORT</text>
<g>
	<line fill="#FFFFFF" x1="428.542" y1="192.584" x2="445.542" y2="192.584"/>
	<g>
		
			<line fill="none" stroke="#231F20" stroke-width="0.5669" stroke-miterlimit="10" x1="428.542" y1="192.584" x2="442.835" y2="192.584"/>
		<g>
			<polygon fill="#231F20" points="441.561,194.264 442.275,192.584 441.561,190.904 445.542,192.584 			"/>
		</g>
	</g>
</g>
<g>
	<path fill="none" stroke="#231F20" stroke-width="0.5669" stroke-miterlimit="10" d="M533.28,195.143
		c0,4.678-3.68,7.452-8.177,6.166l-7.462-2.133c-4.497-1.286-11.921-1.549-16.498-0.584c0,0-25.323,5.336-33.383,5.338
		c-7.719,0.004-12.937-0.539-12.937-0.539c-4.651-0.483-8.458-4.705-8.458-9.383v-4.715c0-4.678,3.827-8.504,8.504-8.504h69.906
		c4.677,0,8.504,3.826,8.504,8.504V195.143z"/>
</g>
<text transform="matrix(1 0 0 1 452.1487 192.75)" fill="#231F20" font-family="'CMR10'" font-size="8.5039">Export Matrix Form</text>
<text transform="matrix(1 0 0 1 212.1648 101.5586)" fill="#231F20" font-family="'CMR10'" font-size="7.0866">nonlinear</text>
<text transform="matrix(1 0 0 1 212.1648 112.4346)" fill="#231F20" font-family="'CMR10'" font-size="7.0866">dc</text>
<text transform="matrix(1 0 0 1 212.1648 122.75)" fill="#231F20" font-family="'CMR10'" font-size="7.0866">pmu</text>
<text transform="matrix(1 0 0 1 235.405 38.8506)" fill="#231F20" font-family="'CMR10'" font-size="7.0866">exact</text>
<path fill="none" stroke="#231F20" stroke-width="0.5669" stroke-miterlimit="10" d="M426.815,197.764
	c0,3.132-2.392,5.67-5.342,5.67h-88.329c-2.95,0-5.342-2.538-5.342-5.67v-10.398c0-3.131,2.392-5.669,5.342-5.669h88.329
	c2.95,0,5.342,2.538,5.342,5.669V197.764z"/>
<path fill="#E6E7E8" d="M477.346,128.898l-1.907,2.186l-1.549,0.509l-18.183-0.038l-19.423,0.151V88.402
	c0,0,20.063,0.057,29.889,0.125c8.359,0.058,8.081-0.342,10.36,1.509c0.755,0.613,1.385,3.673,1.399,6.416
	c0.036,6.69-0.04,15.136,0.001,20.398C477.995,125.438,477.346,128.898,477.346,128.898z"/>
<text transform="matrix(1 0 0 1 440.8967 96.5093)" fill="#231F20" font-family="'CMR10'" font-size="7.0866">bus</text>
<text transform="matrix(1 0 0 1 440.8948 107.1807)" fill="#231F20" font-family="'CMR10'" font-size="7.0866">branch</text>
<text transform="matrix(1 0 0 1 440.8967 128.9277)" fill="#231F20" font-family="'CMR10'" font-size="7.0866">error</text>
<path fill="#FFFFFF" stroke="#231F20" stroke-width="0.5669" stroke-miterlimit="10" d="M436.276,88.675v42.917V88.675z"/>
<text transform="matrix(1 0 0 1 390.8987 112.5747)" fill="#231F20" font-family="'CMR10'" font-size="8.5039">DISPLAY</text>
<line fill="#FFFFFF" stroke="#231F20" stroke-width="0.5669" stroke-miterlimit="10" x1="436.569" y1="120.926" x2="477.853" y2="120.926"/>
<line fill="#FFFFFF" stroke="#231F20" stroke-width="0.5669" stroke-miterlimit="10" x1="436.569" y1="110.26" x2="477.853" y2="110.26"/>
<line fill="#FFFFFF" stroke="#231F20" stroke-width="0.5669" stroke-miterlimit="10" x1="436.603" y1="99.193" x2="477.886" y2="99.193"/>
<path fill="none" stroke="#231F20" stroke-width="0.5669" stroke-miterlimit="10" d="M477.847,125.924
	c0,3.131-2.357,5.669-5.267,5.669h-82.069c-2.908,0-5.267-2.538-5.267-5.669V94.196c0-3.131,2.358-5.669,5.267-5.669h82.069
	c2.909,0,5.267,2.538,5.267,5.669V125.924z"/>
<text transform="matrix(1 0 0 1 440.8958 117.6836)" fill="#231F20" font-family="'CMR10'" font-size="7.0866">estimate</text>
<g>
	<path fill="none" stroke="#231F20" stroke-width="0.5669" stroke-miterlimit="10" d="M579.296,30.406
		c0,4.677-3.644,7.334-8.097,5.905l-5.023-1.611c-4.453-1.429-11.82-1.718-16.372-0.642c0,0-21.699,5.132-28.879,5.135
		c-6.877,0.003-10.614-0.433-10.614-0.433c-4.646-0.542-8.446-4.812-8.446-9.489v-4.715c0-4.677,3.827-8.504,8.504-8.504h60.424
		c4.677,0,8.504,3.827,8.504,8.504V30.406z"/>
</g>
<g>
	<path fill="#F1F1F2" d="M568.156,108.379c0.143,3.881-1.081,8.597-1.081,8.597c-0.392,1.508-1.987,2.743-3.547,2.743h-46.676
		c-1.56,0-3.651-0.979-4.649-2.178l-4.4-5.283c-0.998-1.198-1.137-3.258-0.309-4.579l4.451-7.099
		c0.828-1.321,2.781-2.401,4.341-2.401h45.541c1.56,0,3.463,1.11,4.229,2.468C566.056,100.647,567.997,104.083,568.156,108.379z"/>
	<path fill="none" stroke="#231F20" stroke-width="0.5669" stroke-miterlimit="10" d="M568.156,108.379
		c0.143,3.881-1.081,8.597-1.081,8.597c-0.392,1.508-1.987,2.743-3.547,2.743h-46.676c-1.56,0-3.651-0.979-4.649-2.178l-4.4-5.283
		c-0.998-1.198-1.137-3.258-0.309-4.579l4.451-7.099c0.828-1.321,2.781-2.401,4.341-2.401h45.541c1.56,0,3.463,1.11,4.229,2.468
		C566.056,100.647,567.997,104.083,568.156,108.379z"/>
</g>
<text transform="matrix(1 0 0 1 526.8772 111.0425)" fill="#231F20" font-family="'CMR10'" font-size="8.5039">Display</text>
<text transform="matrix(1 0 0 1 529.1838 70.1118)" fill="#231F20" font-family="'CMR10'" font-size="8.5039">SAVE</text>
<path fill="none" stroke="#231F20" stroke-width="0.5669" stroke-miterlimit="10" d="M580.693,72.235
	c0,3.131-2.338,5.669-5.223,5.669h-69.283c-2.885,0-5.223-2.538-5.223-5.669V61.841c0-3.131,2.338-5.669,5.223-5.669h69.283
	c2.885,0,5.223,2.539,5.223,5.669V72.235z"/>
<g>
	<line fill="#FFFFFF" x1="540.501" y1="96.279" x2="540.501" y2="79.279"/>
	<g>
		
			<line fill="none" stroke="#231F20" stroke-width="0.5669" stroke-miterlimit="10" x1="540.501" y1="96.279" x2="540.501" y2="81.986"/>
		<g>
			<polygon fill="#231F20" points="542.181,83.26 540.501,82.546 538.822,83.26 540.501,79.279 			"/>
		</g>
	</g>
</g>
<text transform="matrix(1 0 0 1 521.384 28.0146)" fill="#231F20" font-family="'CMR10'" font-size="8.5039">Save Data</text>
<g>
	<g>
		<path fill="none" stroke="#231F20" stroke-width="0.5669" stroke-miterlimit="10" d="M540.896,40.743c0,0.61,0,1.291,0,2.007
			c0,2.593,2.551,4.714,5.669,4.714l16.466-0.001c3.118,0,5.669,1.747,5.669,3.882c0,2.135,0,3.882,0,3.882"/>
		<g>
			<polygon fill="#231F20" points="539.216,42.018 540.896,41.304 542.575,42.018 540.896,38.036 			"/>
		</g>
	</g>
</g>
<g>
	<g>
		<line fill="#FFFFFF" x1="101.299" y1="32.087" x2="101.299" y2="49.087"/>
		<g>
			
				<line fill="none" stroke="#231F20" stroke-width="0.5669" stroke-miterlimit="10" x1="101.299" y1="32.087" x2="101.299" y2="46.379"/>
			<g>
				<polygon fill="#231F20" points="99.619,45.105 101.299,45.819 102.979,45.105 101.299,49.087 				"/>
			</g>
		</g>
	</g>
	<g>
		<text transform="matrix(1 0 0 1 89.4504 59.8706)" fill="#231F20" font-family="'CMR10'" font-size="8.5039">DATA</text>
		<path fill="#E6E7E8" d="M132.266,76.42H71.811l-3.301-2.019l-1.017-2.167v-7.4c0,0,43.306-0.166,69.313,0v7.684
			c0,0-0.572,0.815-1.214,1.743C134.991,75.131,132.266,76.42,132.266,76.42z"/>
		<path fill="#FFFFFF" stroke="#231F20" stroke-width="0.5669" stroke-miterlimit="10" d="M67.494,64.823h69.313H67.494z"/>
		<text transform="matrix(1 0 0 1 80.8049 73.1123)" fill="#231F20" font-family="'CMR10'" font-size="7.0866">mat-file name</text>
		<path fill="none" stroke="#231F20" stroke-width="0.5669" stroke-miterlimit="10" d="M136.806,71.212
			c0,2.877-2.538,5.208-5.669,5.208H73.163c-3.131,0-5.669-2.332-5.669-5.208V55.278c0-2.877,2.538-5.208,5.669-5.208h57.975
			c3.131,0,5.669,2.332,5.669,5.208V71.212z"/>
	</g>
	<g>
		<path fill="#BE3629" d="M138.57,4.338L65.124,4.622c0,0-2.563,0.857-3.037,1.525c-0.995,1.399-1.456,2.884-1.456,2.884v9.905
			c0,0,51.88,0.209,83.038,0V12.83c0,0-0.007-4.45-0.774-5.619C142.174,6.115,138.57,4.338,138.57,4.338z"/>
		<path fill="#E6E7E8" d="M138.213,30.689H65.82l-3.953-2.019l-1.217-2.167v-7.4c0,0,51.857-0.166,83,0v7.684
			c0,0-0.685,0.815-1.454,1.743C141.476,29.4,138.213,30.689,138.213,30.689z"/>
		<path fill="#FFFFFF" stroke="#231F20" stroke-width="0.5669" stroke-miterlimit="10" d="M60.65,19.091h83H60.65z"/>
		<text transform="matrix(1 0 0 1 70.6785 14.4321)" fill="#FFFFFF" font-family="'CMR10'" font-size="8.5039">State Estimation</text>
		<text transform="matrix(1 0 0 1 74.3958 27.3828)"><tspan x="0" y="0" fill="#231F20" font-family="'CMR10'" font-size="7.0866">state</tspan><tspan x="14.981" y="0" fill="#231F20" font-family="'ArialMT'" font-size="5.6693">_</tspan><tspan x="18.134" y="0" fill="#231F20" font-family="'CMR10'" font-size="7.0866">etimation.m</tspan></text>
		<path fill="none" stroke="#231F20" stroke-width="0.5669" stroke-miterlimit="10" d="M143.65,25.02
			c0,3.131-2.538,5.669-5.669,5.669H66.32c-3.131,0-5.669-2.538-5.669-5.669V10.008c0-3.131,2.538-5.669,5.669-5.669h71.661
			c3.131,0,5.669,2.538,5.669,5.669V25.02z"/>
	</g>
	<g>
		<line fill="#FFFFFF" x1="101.299" y1="78.329" x2="101.299" y2="95.329"/>
		<g>
			
				<line fill="none" stroke="#231F20" stroke-width="0.5669" stroke-miterlimit="10" x1="101.299" y1="78.329" x2="101.299" y2="92.621"/>
			<g>
				<polygon fill="#231F20" points="99.619,91.347 101.299,92.061 102.979,91.347 101.299,95.329 				"/>
			</g>
		</g>
	</g>
	<g>
		<path fill="#BE3629" d="M128.879,97.499l-61.306,0.225c0,0-2.138,0.688-2.535,1.887c-0.356,1.078-0.915,0.978-1.111,2.128
			c-0.262,1.527-0.104,4.179-0.104,4.179l0,14.062c0,0,1.949,3.521,4.195,3.718c1.234,0.108,3.907,0.166,3.907,0.166h48.726
			l8.588-0.243c0,0,2.408-1.446,3.758-3.257l0.139-7.633c0,0,0.269-9.763-0.373-11.857
			C132.161,98.906,128.879,97.499,128.879,97.499z"/>
		<text transform="matrix(1 0 0 1 71.8684 113.1987)" fill="#FFFFFF" font-family="'CMR10'" font-size="8.5039">Measurements</text>
		<path fill="none" stroke="#231F20" stroke-width="0.5669" stroke-miterlimit="10" d="M133.135,118.654
			c0,2.877-2.538,5.208-5.669,5.208H69.491c-3.131,0-5.669-2.331-5.669-5.208v-15.934c0-2.877,2.538-5.209,5.669-5.209h57.974
			c3.131,0,5.669,2.332,5.669,5.209V118.654z"/>
	</g>
</g>
<g>
	<g>
		<g>
			<path fill="none" stroke="#231F20" stroke-width="0.5669" stroke-miterlimit="10" d="M90.651,128.346v10.558
				c0,3.118-2.551,5.669-5.669,5.669l-42.412-0.004c-3.118,0-5.669,2.551-5.669,5.669v9.925"/>
			<g>
				<polygon fill="#231F20" points="88.971,129.62 90.651,128.906 92.331,129.62 90.651,125.639 				"/>
			</g>
		</g>
	</g>
	<g>
		<path fill="#E6E7E8" d="M234.358,215.786c0,3.124-3.266,5.663-7.297,5.663h-69.269c-2.391,0-7.297,0-7.297,0s0-4.393,0-5.663
			v-42.919c0-1.549,0-5.67,0-5.67s5.26,0,7.297,0h69.269c4.031,0,7.297,2.539,7.297,5.67V215.786z"/>
		<path fill="#FFFFFF" stroke="#231F20" stroke-width="0.5669" stroke-miterlimit="10" d="M150.496,167.197v54.252V167.197z"/>
		
			<line fill="#FFFFFF" stroke="#231F20" stroke-width="0.5669" stroke-miterlimit="10" x1="150.402" y1="178.83" x2="234.126" y2="178.83"/>
		<text transform="matrix(1 0 0 1 155.4114 175.7158)" fill="#231F20" font-family="'CMR10'" font-size="7.0866">pmuRedundancy, value</text>
		
			<line fill="#FFFFFF" stroke="#231F20" stroke-width="0.5669" stroke-miterlimit="10" x1="150.402" y1="210.68" x2="234.126" y2="210.68"/>
		
			<line fill="#FFFFFF" stroke="#231F20" stroke-width="0.5669" stroke-miterlimit="10" x1="150.402" y1="200.014" x2="234.126" y2="200.014"/>
		<text transform="matrix(1 0 0 1 114.6443 196.8379)" fill="#231F20" font-family="'CMR10'" font-size="8.5039">SET</text>
		
			<line fill="#FFFFFF" stroke="#231F20" stroke-width="0.5669" stroke-miterlimit="10" x1="150.402" y1="190.063" x2="234.126" y2="190.063"/>
		<text transform="matrix(1 0 0 1 155.4114 186.7012)" fill="#231F20" font-family="'CMR10'" font-size="7.0866">pmuDevice, value</text>
		<text transform="matrix(1 0 0 1 155.4114 197.3848)" fill="#231F20" font-family="'CMR10'" font-size="7.0866">pmuOptimal</text>
		<text transform="matrix(1 0 0 1 155.4114 207.7158)" fill="#231F20" font-family="'CMR10'" font-size="7.0866">legRedundancy, value</text>
		<text transform="matrix(1 0 0 1 155.4114 218.8174)" fill="#231F20" font-family="'CMR10'" font-size="7.0866">legDevice, value</text>
		<path fill="none" stroke="#231F20" stroke-width="0.5669" stroke-miterlimit="10" d="M234.358,215.786
			c0,3.124-2.537,5.663-5.669,5.663H110.643c-3.131,0-5.669-2.539-5.669-5.663v-42.919c0-3.131,2.538-5.67,5.669-5.67h118.046
			c3.132,0,5.669,2.539,5.669,5.67V215.786z"/>
	</g>
	<g>
		<g>
			<path fill="none" stroke="#231F20" stroke-width="0.5669" stroke-miterlimit="10" d="M106.313,128.346v10.558
				c0,3.118,2.551,5.669,5.669,5.669l46.498-0.004c3.118,0,5.669,2.551,5.669,5.669v15.308"/>
			<g>
				<polygon fill="#231F20" points="104.633,129.62 106.313,128.906 107.992,129.62 106.313,125.639 				"/>
			</g>
		</g>
	</g>
	<g>
		<path fill="#E6E7E8" d="M98.465,221.137c0,3.74-2.835,5.645-6.334,5.645h-60.13c-2.076,0-6.334,0-6.334,0s0-5.256,0-6.777v-51.355
			c0-1.853,0-6.784,0-6.784s4.566,0,6.334,0h60.13c3.499,0,6.334,1.905,6.334,5.651V221.137z"/>
		<path fill="#FFFFFF" stroke="#231F20" stroke-width="0.5669" stroke-miterlimit="10" d="M25.95,161.864v64.917V161.864z"/>
		
			<line fill="#FFFFFF" stroke="#231F20" stroke-width="0.5669" stroke-miterlimit="10" x1="25.667" y1="173.497" x2="98.254" y2="173.497"/>
		<text transform="matrix(1 0 0 1 30.1687 170.3828)" fill="#231F20" font-family="'CMR10'" font-size="7.0866">pmuUnique, value</text>
		
			<line fill="#FFFFFF" stroke="#231F20" stroke-width="0.5669" stroke-miterlimit="10" x1="25.667" y1="205.347" x2="98.254" y2="205.347"/>
		
			<line fill="#FFFFFF" stroke="#231F20" stroke-width="0.5669" stroke-miterlimit="10" x1="25.667" y1="194.681" x2="98.254" y2="194.681"/>
		<text transform="matrix(1 0 0 1 -26.8538 196.8379)" fill="#231F20" font-family="'CMR10'" font-size="8.5039">VARIANCE</text>
		
			<line fill="#FFFFFF" stroke="#231F20" stroke-width="0.5669" stroke-miterlimit="10" x1="25.667" y1="184.729" x2="98.254" y2="184.729"/>
		<text transform="matrix(1 0 0 1 30.1687 181.3682)" fill="#231F20" font-family="'CMR10'" font-size="7.0866">pmuRandom, value</text>
		<text transform="matrix(1 0 0 1 30.1687 192.0518)" fill="#231F20" font-family="'CMR10'" font-size="7.0866">pmuType, value</text>
		<text transform="matrix(1 0 0 1 30.1687 202.3828)" fill="#231F20" font-family="'CMR10'" font-size="7.0866">legUnique, value</text>
		<text transform="matrix(1 0 0 1 30.1687 213.4844)" fill="#231F20" font-family="'CMR10'" font-size="7.0866">legRandom, value</text>
		<text transform="matrix(1 0 0 1 30.1687 223.9922)" fill="#231F20" font-family="'CMR10'" font-size="7.0866">legType, value</text>
		
			<line fill="#FFFFFF" stroke="#231F20" stroke-width="0.5669" stroke-miterlimit="10" x1="25.808" y1="216.116" x2="98.395" y2="216.116"/>
		<path fill="none" stroke="#231F20" stroke-width="0.5669" stroke-miterlimit="10" d="M98.395,221.113
			c0,3.131-2.538,5.668-5.669,5.668H-25.251c-3.131,0-5.669-2.537-5.669-5.668v-53.58c0-3.131,2.538-5.669,5.669-5.669H92.726
			c3.131,0,5.669,2.538,5.669,5.669V221.113z"/>
	</g>
</g>
</svg>
