<?xml version="1.0" encoding="utf-8"?>
<!-- Generator: Adobe Illustrator 16.0.0, SVG Export Plug-In . SVG Version: 6.00 Build 0)  -->
<!DOCTYPE svg PUBLIC "-//W3C//DTD SVG 1.1//EN" "http://www.w3.org/Graphics/SVG/1.1/DTD/svg11.dtd">
<svg version="1.1" id="Layer_1" xmlns="http://www.w3.org/2000/svg" xmlns:xlink="http://www.w3.org/1999/xlink" x="0px" y="0px"
	 width="465.5px" height="174.5px" viewBox="0 0 465.5 174.5" enable-background="new 0 0 465.5 174.5" xml:space="preserve">
<path fill="#E6E7E8" d="M368.236,115.111h-18.029v9.27c0-0.002,4.146,0.137,8.59,0.145c6.897,0.012,5.9-0.547,7.944-1.234
	c1.215-0.408,1.545-3.467,1.571-5.07C368.341,116.422,368.236,115.111,368.236,115.111z"/>
<text transform="matrix(1 0 0 1 25.4097 48.2031)" font-family="'CMR10'" font-size="6.9647">estimate.grid</text>
<path fill="#BE362A" d="M74.974,77.893l-60.152,0.233c0,0-2.099,0.701-2.487,1.249c-0.815,1.146-1.192,2.361-1.192,2.361v8.113
	c0,0,42.49,0.17,68.009,0v-5.002c0,0-0.006-3.644-0.635-4.602C77.925,79.349,74.974,77.893,74.974,77.893z"/>
<path fill="#E6E7E8" d="M74.682,99.475H15.391l-3.236-1.652l-0.997-1.777v-6.059c0,0,42.472-0.137,67.978,0v6.291
	c0,0-0.562,0.668-1.19,1.43C77.354,98.418,74.682,99.475,74.682,99.475z"/>
<path fill="#FFFFFF" stroke="#000000" stroke-width="0.4643" stroke-miterlimit="10" d="M11.157,89.977h67.978H11.157z"/>
<text transform="matrix(1 0 0 1 19.3784 86.1299)" fill="#FFFFFF" font-family="'CMR10'" font-size="6.9647">State Estimation</text>
<text transform="matrix(1 0 0 1 22.4229 96.7373)"><tspan x="0" y="0" font-family="'CMR10'" font-size="5.8039">state</tspan><tspan x="12.269" y="0" font-family="'ArialMT'" font-size="4.6431">_</tspan><tspan x="14.852" y="0" font-family="'CMR10'" font-size="5.8039">etimation.m</tspan></text>
<g>
	<line fill="#FFFFFF" x1="80.218" y1="88.683" x2="94.141" y2="88.683"/>
	<g>
		
			<line fill="none" stroke="#000000" stroke-width="0.4643" stroke-miterlimit="10" x1="80.218" y1="88.683" x2="91.923" y2="88.683"/>
		<g>
			<polygon points="90.88,90.059 91.464,88.683 90.88,87.308 94.141,88.683 			"/>
		</g>
	</g>
</g>
<g>
	<line fill="#FFFFFF" x1="45.146" y1="63.166" x2="45.146" y2="77.088"/>
	<g>
		
			<line fill="none" stroke="#000000" stroke-width="0.4643" stroke-miterlimit="10" x1="45.146" y1="63.166" x2="45.146" y2="74.871"/>
		<g>
			<polygon points="43.77,73.828 45.146,74.412 46.521,73.828 45.146,77.088 			"/>
		</g>
	</g>
</g>
<path fill="#E6E7E8" d="M69.812,62.021H20.298l-2.703-1.654l-0.833-1.774v-6.061c0,0,35.468-0.137,56.768,0v6.292
	c0,0-0.469,0.668-0.994,1.428C72.043,60.964,69.812,62.021,69.812,62.021z"/>
<path fill="#FFFFFF" stroke="#000000" stroke-width="0.4643" stroke-miterlimit="10" d="M16.762,52.522h56.768H16.762z"/>
<text transform="matrix(1 0 0 1 27.6724 59.2813)" font-family="'CMR10'" font-size="5.8039">mat-file name</text>
<path fill="none" stroke="#000000" stroke-width="0.4643" stroke-miterlimit="10" d="M73.529,57.754
	c0,2.356-2.078,4.267-4.643,4.267H21.405c-2.563,0-4.644-1.91-4.644-4.267v-13.05c0-2.355,2.08-4.266,4.644-4.266h47.481
	c2.564,0,4.643,1.91,4.643,4.266V57.754z"/>
<path fill="none" stroke="#000000" stroke-width="0.4643" stroke-miterlimit="10" d="M79.135,94.832
	c0,2.563-2.079,4.643-4.644,4.643h-58.69c-2.564,0-4.644-2.08-4.644-4.643V82.537c0-2.564,2.079-4.644,4.644-4.644h58.69
	c2.564,0,4.644,2.079,4.644,4.644V94.832z"/>
<path fill="#E6E7E8" d="M168.885,100.303c-0.535,0.9-2.823,1.771-2.823,1.771h-14.448V75.338c0,0,8.736-0.435,14.777,0.032
	c0.834,0.064,1.68,1.051,2.306,1.269c0.34,0.118,1.059,1.774,1.062,4.27c0.007,5.22,0.108,9.613,0.118,12.607
	c0.009,2.348-0.224,2.348-0.186,3.908C169.715,98.457,169.658,99,168.885,100.303z"/>
<line fill="#FFFFFF" stroke="#000000" stroke-width="0.4643" stroke-miterlimit="10" x1="151.613" y1="93.406" x2="169.875" y2="93.406"/>
<text transform="matrix(1 0 0 1 158.7207 91.3164)" font-family="'CMR10'" font-size="6.9647">2</text>
<text transform="matrix(1 0 0 1 158.7207 100.2412)" font-family="'CMR10'" font-size="6.9647">3</text>
<path fill="#FFFFFF" stroke="#000000" stroke-width="0.4643" stroke-miterlimit="10" d="M151.747,75.143v26.931V75.143z"/>
<text transform="matrix(1 0 0 1 98.5044 91.2695)" font-family="'CMR10'" font-size="6.9647">estimate.module</text>
<line fill="#FFFFFF" stroke="#000000" stroke-width="0.4643" stroke-miterlimit="10" x1="151.734" y1="84.262" x2="169.765" y2="84.262"/>
<text transform="matrix(1 0 0 1 158.7207 82.0303)" font-family="'CMR10'" font-size="6.9647">1</text>
<path fill="none" stroke="#000000" stroke-width="0.4643" stroke-miterlimit="10" d="M169.765,97.43c0,2.564-2.13,4.645-4.758,4.645
	H99.9c-2.627,0-4.757-2.08-4.757-4.645V79.797c0-2.564,2.13-4.643,4.757-4.643h65.106c2.628,0,4.758,2.078,4.758,4.643V97.43z"/>
<g>
	<g>
		<path fill="none" stroke="#000000" stroke-width="0.4643" stroke-miterlimit="10" d="M190.685,61.773h-5.061
			c-2.554,0-4.643,2.089-4.643,4.643v9.902c0,2.554-2.089,4.643-4.643,4.643h-5.174"/>
		<g>
			<polygon points="189.642,60.397 190.226,61.773 189.642,63.148 192.902,61.773 			"/>
		</g>
	</g>
</g>
<g>
	<g>
		<path fill="none" stroke="#000000" stroke-width="0.4643" stroke-miterlimit="10" d="M190.685,116.045h-5.061
			c-2.554,0-4.643-2.09-4.643-4.644v-9.9c0-2.554-2.089-4.644-4.643-4.644h-5.174"/>
		<g>
			<polygon points="189.642,114.669 190.226,116.045 189.642,117.421 192.902,116.045 			"/>
		</g>
	</g>
</g>
<text transform="matrix(1 0 0 1 210.5273 60.1455)"><tspan x="0" y="0" font-family="'CMR10'" font-size="6.9647">Non-linear</tspan><tspan x="-9.813" y="8.358" font-family="'CMR10'" font-size="6.9647">State Estimation</tspan></text>
<path fill="none" stroke="#000000" stroke-width="0.4643" stroke-miterlimit="10" d="M259.13,66.869
	c0,2.565-2.078,4.644-4.643,4.644h-56.009c-2.564,0-4.644-2.078-4.644-4.644v-10.14c0-2.564,2.079-4.643,4.644-4.643h56.009
	c2.564,0,4.643,2.078,4.643,4.643V66.869z"/>
<text transform="matrix(1 0 0 1 218.314 86.8438)"><tspan x="0" y="0" font-family="'CMR10'" font-size="6.9647">PMU</tspan><tspan x="-17.6" y="8.357" font-family="'CMR10'" font-size="6.9647">State Estimation</tspan></text>
<path fill="none" stroke="#000000" stroke-width="0.4643" stroke-miterlimit="10" d="M259.13,93.586
	c0,2.564-2.078,4.645-4.643,4.645h-56.009c-2.564,0-4.644-2.08-4.644-4.645V83.448c0-2.564,2.079-4.644,4.644-4.644h56.009
	c2.564,0,4.643,2.079,4.643,4.644V93.586z"/>
<text transform="matrix(1 0 0 1 221.312 113.7744)"><tspan x="0" y="0" font-family="'CMR10'" font-size="6.9647">DC</tspan><tspan x="-20.598" y="8.357" font-family="'CMR10'" font-size="6.9647">State Estimation</tspan></text>
<path fill="none" stroke="#000000" stroke-width="0.4643" stroke-miterlimit="10" d="M259.13,120.516
	c0,2.564-2.078,4.643-4.643,4.643h-56.009c-2.564,0-4.644-2.078-4.644-4.643v-10.141c0-2.564,2.079-4.643,4.644-4.643h56.009
	c2.564,0,4.643,2.078,4.643,4.643V120.516z"/>
<g>
	<line fill="#FFFFFF" x1="171.165" y1="88.683" x2="192.903" y2="88.683"/>
	<g>
		
			<line fill="none" stroke="#000000" stroke-width="0.4643" stroke-miterlimit="10" x1="171.165" y1="88.683" x2="190.686" y2="88.683"/>
		<g>
			<polygon points="189.643,90.059 190.227,88.683 189.643,87.308 192.903,88.683 			"/>
		</g>
	</g>
</g>
<g>
	<text transform="matrix(1 0 0 1 161.5039 22.2021)" font-family="'CMR10'" font-size="6.9647">flat</text>
	<text transform="matrix(1 0 0 1 161.5039 30.8945)" font-family="'CMR10'" font-size="6.9647">warm</text>
	<text transform="matrix(1 0 0 1 161.5024 39.8105)" font-family="'CMR10'" font-size="6.9647">random</text>
	<path fill="#FFFFFF" stroke="#000000" stroke-width="0.4643" stroke-miterlimit="10" d="M159.087,15.227V41.76V15.227z"/>
	<text transform="matrix(1 0 0 1 127.5083 31.0684)" font-family="'CMR10'" font-size="6.9647">estimate.</text>
	<path fill="#E6E7E8" d="M205.002,39.51l-2.237,1.912l-6.683,0.338l-8.443,0.093V15.225c0,0,4.172,0.058,8.443,0.1
		c3.634,0.035,7.107-0.366,8.382,1.468c0.307,0.439,1.183,1.696,1.189,3.382c0.015,4.114,0.072,9.308,0.091,12.544
		C205.771,37.999,205.002,39.51,205.002,39.51z"/>
	<path fill="#FFFFFF" stroke="#000000" stroke-width="0.4643" stroke-miterlimit="10" d="M187.639,15.251V41.76V15.251z"/>
	
		<line fill="#FFFFFF" stroke="#000000" stroke-width="0.4643" stroke-miterlimit="10" x1="159.086" y1="33.024" x2="205.668" y2="33.024"/>
	
		<line fill="#FFFFFF" stroke="#000000" stroke-width="0.4643" stroke-miterlimit="10" x1="159.086" y1="24.289" x2="205.668" y2="24.289"/>
	<text transform="matrix(1 0 0 1 193.0952 22.2021)" font-family="'CMR10'" font-size="6.9647">i1</text>
	<text transform="matrix(1 0 0 1 193.0952 31.126)" font-family="'CMR10'" font-size="6.9647">i2</text>
	<text transform="matrix(1 0 0 1 193.0952 39.8105)" font-family="'CMR10'" font-size="6.9647">i3</text>
	<path fill="none" stroke="#000000" stroke-width="0.4643" stroke-miterlimit="10" d="M205.668,37.117
		c0,2.564-2.078,4.644-4.643,4.644h-71.586c-2.564,0-4.643-2.079-4.643-4.644V19.868c0-2.563,2.078-4.643,4.643-4.643h71.586
		c2.564,0,4.643,2.079,4.643,4.643V37.117z"/>
</g>
<g>
	<g>
		<path fill="none" stroke="#000000" stroke-width="0.4643" stroke-miterlimit="10" d="M206.705,28.54h15.311
			c2.554,0,4.643,2.089,4.643,4.643v15.908"/>
		<g>
			<polygon points="225.284,48.047 226.659,48.632 228.035,48.047 226.659,51.308 			"/>
		</g>
	</g>
</g>
<g>
	<g>
		<path fill="none" stroke="#000000" stroke-width="0.4643" stroke-miterlimit="10" d="M279.837,80.961h-5.041
			c-2.554,0-4.643-2.089-4.643-4.643v-9.902c0-2.554-2.089-4.643-4.643-4.643h-5.158"/>
		<g>
			<polygon points="278.794,79.586 279.378,80.961 278.794,82.337 282.055,80.961 			"/>
		</g>
	</g>
</g>
<g>
	<g>
		<path fill="none" stroke="#000000" stroke-width="0.4643" stroke-miterlimit="10" d="M279.837,96.857h-5.041
			c-2.554,0-4.643,2.09-4.643,4.644v9.9c0,2.554-2.089,4.644-4.643,4.644h-5.158"/>
		<g>
			<polygon points="278.794,95.481 279.378,96.857 278.794,98.233 282.055,96.857 			"/>
		</g>
	</g>
</g>
<g>
	<line fill="#FFFFFF" x1="260.354" y1="88.683" x2="282.055" y2="88.683"/>
	<g>
		
			<line fill="none" stroke="#000000" stroke-width="0.4643" stroke-miterlimit="10" x1="260.354" y1="88.683" x2="279.837" y2="88.683"/>
		<g>
			<polygon points="278.794,90.059 279.378,88.683 278.794,87.308 282.055,88.683 			"/>
		</g>
	</g>
</g>
<path fill="#E6E7E8" d="M368.239,70.522h-18.032v8.805c0,0,4.509,0.086,9.168,0c2.476-0.047,8.852-0.068,8.852-0.068
	s0.061-4.022,0.086-5.627C368.341,71.834,368.239,70.522,368.239,70.522z"/>
<path fill="#E6E7E8" d="M368.236,61.787h-18.029v-8.805c0,0,4.146-0.369,8.59-0.378c6.897-0.012,5.436,0.316,7.479,1.002
	c1.217,0.409,2.01,3.467,2.036,5.071C368.341,60.474,368.236,61.787,368.236,61.787z"/>
<path fill="#FFFFFF" stroke="#000000" stroke-width="0.4643" stroke-miterlimit="10" d="M350.207,52.75v35.827V52.75z"/>
<line fill="#FFFFFF" stroke="#000000" stroke-width="0.4643" stroke-miterlimit="10" x1="283.773" y1="70.522" x2="368.236" y2="70.522"/>
<line fill="#FFFFFF" stroke="#000000" stroke-width="0.4643" stroke-miterlimit="10" x1="350.207" y1="61.787" x2="368.236" y2="61.787"/>
<line fill="none" stroke="#000000" stroke-width="0.4643" stroke-miterlimit="10" x1="350.207" y1="79.258" x2="368.236" y2="79.258"/>
<text transform="matrix(1 0 0 1 287.6289 82.2734)" font-family="'CMR10'" font-size="6.9647">estimate.branch</text>
<text transform="matrix(1 0 0 1 287.6284 63.833)" font-family="'CMR10'" font-size="6.9647">estimate.bus</text>
<text transform="matrix(1 0 0 1 356.6445 59.7002)" font-family="'CMR10'" font-size="6.9647">1</text>
<text transform="matrix(1 0 0 1 356.6445 68.625)" font-family="'CMR10'" font-size="6.9647">0</text>
<text transform="matrix(1 0 0 1 356.6445 77.3086)" font-family="'CMR10'" font-size="6.9647">1</text>
<text transform="matrix(1 0 0 1 356.6445 86.1787)" font-family="'CMR10'" font-size="6.9647">0</text>
<path fill="#E6E7E8" d="M368.236,106.467h-18.029v-9.063h18.029c0,0,0.05,4.35,0.076,5.955
	C368.341,105.156,368.236,106.467,368.236,106.467z"/>
<path fill="#FFFFFF" stroke="#000000" stroke-width="0.4643" stroke-miterlimit="10" d="M350.207,88.577v35.851V88.577z"/>
<line fill="#FFFFFF" stroke="#000000" stroke-width="0.4643" stroke-miterlimit="10" x1="283.773" y1="106.375" x2="368.236" y2="106.375"/>
<line fill="#FFFFFF" stroke="#000000" stroke-width="0.4643" stroke-miterlimit="10" x1="350.207" y1="97.641" x2="368.236" y2="97.641"/>
<line fill="none" stroke="#000000" stroke-width="0.4643" stroke-miterlimit="10" x1="350.207" y1="115.111" x2="368.236" y2="115.111"/>
<text transform="matrix(1 0 0 1 287.6289 118.126)" font-family="'CMR10'" font-size="6.9647">estimate.evaluation</text>
<text transform="matrix(1 0 0 1 287.6284 99.6875)" font-family="'CMR10'" font-size="6.9647">estimate.estimation</text>
<text transform="matrix(1 0 0 1 356.6445 95.5537)" font-family="'CMR10'" font-size="6.9647">0</text>
<text transform="matrix(1 0 0 1 356.6445 104.4785)" font-family="'CMR10'" font-size="6.9647">1</text>
<text transform="matrix(1 0 0 1 356.6445 113.1621)" font-family="'CMR10'" font-size="6.9647">0</text>
<text transform="matrix(1 0 0 1 356.6445 122.0313)" font-family="'CMR10'" font-size="6.9647">1</text>
<line fill="#FFFFFF" stroke="#000000" stroke-width="0.4643" stroke-miterlimit="10" x1="283.773" y1="88.577" x2="368.236" y2="88.577"/>
<g>
	<path fill="none" stroke="#000000" stroke-width="0.4643" stroke-miterlimit="10" d="M451.927,23.489
		c0,3.831-2.984,6.007-6.632,4.837l-4.113-1.32c-3.647-1.17-9.682-1.407-13.409-0.525c0,0-17.771,4.204-23.651,4.206
		c-5.633,0.002-8.692-0.354-8.692-0.354c-3.805-0.444-6.918-3.941-6.918-7.771v-3.861c0-3.831,3.134-6.965,6.965-6.965h49.486
		c3.831,0,6.965,3.134,6.965,6.965V23.489z"/>
</g>
<g>
	<path fill="#F1F2F2" d="M442.802,87.349c0.118,3.18-0.884,7.041-0.884,7.041c-0.32,1.236-1.628,2.247-2.904,2.247h-38.229
		c-1.276,0-2.99-0.803-3.808-1.783l-3.604-4.326c-0.817-0.981-0.932-2.669-0.253-3.75l3.647-5.814
		c0.679-1.082,2.278-1.967,3.555-1.967h37.299c1.276,0,2.835,0.91,3.464,2.021C441.084,81.017,442.675,83.832,442.802,87.349z"/>
	<path fill="none" stroke="#000000" stroke-width="0.4643" stroke-miterlimit="10" d="M442.802,87.349
		c0.118,3.18-0.884,7.041-0.884,7.041c-0.32,1.236-1.628,2.247-2.904,2.247h-38.229c-1.276,0-2.99-0.803-3.808-1.783l-3.604-4.326
		c-0.817-0.981-0.932-2.669-0.253-3.75l3.647-5.814c0.679-1.082,2.278-1.967,3.555-1.967h37.299c1.276,0,2.835,0.91,3.464,2.021
		C441.084,81.017,442.675,83.832,442.802,87.349z"/>
</g>
<g>
	<g>
		<path fill="none" stroke="#000000" stroke-width="0.4643" stroke-miterlimit="10" d="M388.916,86.666h-5.06
			c-2.554,0-4.644-2.089-4.644-4.643v-1.069c0-2.554-2.09-4.643-4.644-4.643h-5.174"/>
		<g>
			<polygon points="387.873,85.29 388.457,86.666 387.873,88.041 391.134,86.666 			"/>
		</g>
	</g>
</g>
<g>
	<g>
		<path fill="none" stroke="#000000" stroke-width="0.4643" stroke-miterlimit="10" d="M388.916,90.717h-5.06
			c-2.554,0-4.644,2.09-4.644,4.644v1.066c0,2.554-2.09,4.644-4.644,4.644h-5.174"/>
		<g>
			<polygon points="387.873,89.341 388.457,90.717 387.873,92.093 391.134,90.717 			"/>
		</g>
	</g>
</g>
<text transform="matrix(1 0 0 1 409.0176 89.5342)" font-family="'CMR10'" font-size="6.9647">Display</text>
<path fill="#E6E7E8" d="M450.482,45.04c-0.535-0.289-0.888-0.145-0.888-0.145h-14.912v8.598c0,0,9.434,0.141,15.474-0.01
	c0.836-0.021,2.288,0.138,2.916,0.067c0.34-0.037-0.236-1.05-0.013-1.849c0.354-1.259-0.324-2.979-0.313-3.94
	c0.009-0.756-0.465-1.297-0.905-1.714C451.505,45.733,451.257,45.458,450.482,45.04z"/>
<line fill="#FFFFFF" stroke="#000000" stroke-width="0.4643" stroke-miterlimit="10" x1="434.683" y1="53.735" x2="453.072" y2="53.735"/>
<text transform="matrix(1 0 0 1 441.8018 51.6494)" font-family="'CMR10'" font-size="6.9647">1</text>
<text transform="matrix(1 0 0 1 441.8018 60.5742)" font-family="'CMR10'" font-size="6.9647">0</text>
<path fill="#FFFFFF" stroke="#000000" stroke-width="0.4643" stroke-miterlimit="10" d="M434.816,44.588v17.803V44.588z"/>
<text transform="matrix(1 0 0 1 390.9834 56.0127)" font-family="'CMR10'" font-size="6.9647">estimate.save</text>
<path fill="none" stroke="#000000" stroke-width="0.4643" stroke-miterlimit="10" d="M453.072,57.748
	c0,2.564-1.915,4.644-4.278,4.644h-56.743c-2.362,0-4.278-2.079-4.278-4.644v-8.513c0-2.563,1.916-4.644,4.278-4.644h56.743
	c2.363,0,4.278,2.08,4.278,4.644V57.748z"/>
<g>
	<line fill="#FFFFFF" x1="420.153" y1="77.439" x2="420.153" y2="63.516"/>
	<g>
		
			<line fill="none" stroke="#000000" stroke-width="0.4643" stroke-miterlimit="10" x1="420.153" y1="77.439" x2="420.153" y2="65.733"/>
		<g>
			<polygon points="421.529,66.777 420.153,66.192 418.777,66.777 420.153,63.516 			"/>
		</g>
	</g>
</g>
<text transform="matrix(1 0 0 1 404.5176 21.5342)" font-family="'CMR10'" font-size="6.9647">Save Data</text>
<g>
	<g>
		<path fill="none" stroke="#000000" stroke-width="0.4643" stroke-miterlimit="10" d="M420.478,31.955c0,0.5,0,1.057,0,1.644
			c0,2.124,2.09,3.861,4.644,3.861l13.483-0.001c2.554,0,4.644,1.431,4.644,3.179s0,3.179,0,3.179"/>
		<g>
			<polygon points="419.102,32.999 420.478,32.414 421.854,32.999 420.478,29.738 			"/>
		</g>
	</g>
</g>
<g>
	<g>
		<path fill="none" stroke="#000000" stroke-width="0.4643" stroke-miterlimit="10" d="M369.396,59.517h7.493
			c2.554,0,4.644,2.089,4.644,4.643v13.469c0,2.554,2.09,4.643,4.644,4.643h0.314c1.878,0,3.796,0.125,4.94,0.302"/>
		<g>
			<polygon points="390.001,83.64 390.968,82.5 390.817,81.013 393.523,83.294 			"/>
		</g>
	</g>
</g>
<g>
	<g>
		<path fill="none" stroke="#000000" stroke-width="0.4643" stroke-miterlimit="10" d="M369.396,117.82h7.493
			c2.554,0,4.644-2.09,4.644-4.644V99.71c0-2.554,2.09-4.644,4.644-4.644h0.314c1.856,0,3.752-0.1,4.901-0.242"/>
		<g>
			<polygon points="390.698,96.36 390.929,94.883 390.025,93.692 393.523,94.229 			"/>
		</g>
	</g>
</g>
<path fill="none" stroke="#000000" stroke-width="0.4643" stroke-miterlimit="10" d="M368.24,119.785
	c0,2.566-2.078,4.643-4.643,4.643h-75.183c-2.563,0-4.642-2.076-4.642-4.643V57.247c0-2.563,2.078-4.643,4.642-4.643h75.183
	c2.564,0,4.643,2.079,4.643,4.643V119.785z"/>
<g>
	<g>
		<path fill="none" stroke="#000000" stroke-width="0.4643" stroke-miterlimit="10" d="M264.459,143.923V98.05
			c0-2.554-1.007-4.644-2.237-4.644s-2.237,0-2.237,0"/>
		<g>
			<polygon points="265.834,142.88 264.459,143.464 263.083,142.88 264.459,146.141 			"/>
		</g>
	</g>
</g>
<g>
	<g>
		<path fill="none" stroke="#000000" stroke-width="0.4643" stroke-miterlimit="10" d="M226.25,126.521v24.862
			c0,2.554,2.089,4.644,4.643,4.644h3.474"/>
		<g>
			<polygon points="233.323,157.403 233.908,156.027 233.323,154.651 236.584,156.027 			"/>
		</g>
	</g>
</g>
<path fill="#E6E7E8" d="M304.64,147.811c-0.533-0.289-0.886-0.145-0.886-0.145h-14.912v8.598c0,0,9.433,0.139,15.473-0.01
	c0.836-0.021,2.289,0.137,2.915,0.068c0.34-0.039-0.236-1.053-0.012-1.852c0.354-1.258-0.323-2.977-0.313-3.939
	c0.008-0.756-0.465-1.297-0.906-1.713C305.664,148.504,305.415,148.23,304.64,147.811z"/>
<line fill="#FFFFFF" stroke="#000000" stroke-width="0.4643" stroke-miterlimit="10" x1="288.842" y1="156.508" x2="307.229" y2="156.508"/>
<text transform="matrix(1 0 0 1 295.959 154.4199)" font-family="'CMR10'" font-size="6.9647">1</text>
<text transform="matrix(1 0 0 1 295.959 163.3447)" font-family="'CMR10'" font-size="6.9647">0</text>
<path fill="#FFFFFF" stroke="#000000" stroke-width="0.4643" stroke-miterlimit="10" d="M288.975,147.359v17.803V147.359z"/>
<text transform="matrix(1 0 0 1 240.8042 158.7832)" font-family="'CMR10'" font-size="6.9647">estimate.linear</text>
<path fill="none" stroke="#000000" stroke-width="0.4643" stroke-miterlimit="10" d="M307.229,160.518
	c0,2.566-2.079,4.645-4.644,4.645h-60.09c-2.563,0-4.642-2.078-4.642-4.645v-8.516c0-2.564,2.078-4.643,4.642-4.643h60.09
	c2.564,0,4.644,2.078,4.644,4.643V160.518z"/>
<g>
	<line fill="#FFFFFF" x1="308.532" y1="153.256" x2="322.454" y2="153.256"/>
	<g>
		
			<line fill="none" stroke="#000000" stroke-width="0.4643" stroke-miterlimit="10" x1="308.532" y1="153.256" x2="320.236" y2="153.256"/>
		<g>
			<polygon points="319.193,154.632 319.777,153.256 319.193,151.88 322.454,153.256 			"/>
		</g>
	</g>
</g>
<g>
	<path fill="none" stroke="#000000" stroke-width="0.4643" stroke-miterlimit="10" d="M394.311,155.352
		c0,3.831-3.014,6.104-6.696,5.05l-6.112-1.748c-3.683-1.054-9.763-1.269-13.512-0.479c0,0-20.739,4.37-27.342,4.372
		c-6.32,0.004-10.592-0.44-10.592-0.44c-3.811-0.396-6.928-3.854-6.928-7.685v-3.861c0-3.831,3.134-6.965,6.965-6.965h57.252
		c3.831,0,6.965,3.134,6.965,6.965V155.352z"/>
</g>
<text transform="matrix(1 0 0 1 327.8564 153.3936)" font-family="'CMR10'" font-size="6.9647">Export Matrix Form</text>
</svg>
