<?xml version="1.0" encoding="utf-8"?>
<!-- Generator: Adobe Illustrator 16.0.0, SVG Export Plug-In . SVG Version: 6.00 Build 0)  -->
<!DOCTYPE svg PUBLIC "-//W3C//DTD SVG 1.1//EN" "http://www.w3.org/Graphics/SVG/1.1/DTD/svg11.dtd">
<svg version="1.1" id="Layer_1" xmlns="http://www.w3.org/2000/svg" xmlns:xlink="http://www.w3.org/1999/xlink" x="0px" y="0px"
	 width="358px" height="135.667px" viewBox="0 0 358 135.667" enable-background="new 0 0 358 135.667" xml:space="preserve">
<path fill="#E6E7E8" d="M284.168,88.458h-13.869v7.13c0-0.001,3.189,0.106,6.607,0.111c5.306,0.01,4.539-0.421,6.111-0.949
	c0.935-0.314,1.188-2.666,1.209-3.9C284.248,89.467,284.168,88.458,284.168,88.458z"/>
<text transform="matrix(1 0 0 1 20.4546 36.9907)" font-family="'CMR10'" font-size="5.3575">estimate.grid</text>
<path fill="#BE362A" d="M58.581,59.829L12.31,60.008c0,0-1.614,0.54-1.913,0.961c-0.627,0.881-0.917,1.816-0.917,1.816v6.24
	c0,0,32.685,0.131,52.314,0v-3.847c0,0-0.004-2.803-0.488-3.54C60.851,60.948,58.581,59.829,58.581,59.829z"/>
<path fill="#E6E7E8" d="M58.356,76.43H12.748l-2.49-1.271l-0.767-1.366v-4.661c0,0,32.67-0.105,52.29,0v4.84
	c0,0-0.432,0.514-0.916,1.1C60.412,75.617,58.356,76.43,58.356,76.43z"/>
<path fill="#FFFFFF" stroke="#000000" stroke-width="0.3572" stroke-miterlimit="10" d="M9.492,69.123h52.29H9.492z"/>
<text transform="matrix(1 0 0 1 15.8149 66.1646)" fill="#FFFFFF" font-family="'CMR10'" font-size="5.3575">State Estimation</text>
<text transform="matrix(1 0 0 1 18.1572 74.3242)"><tspan x="0" y="0" font-family="'CMR10'" font-size="4.4646">state</tspan><tspan x="9.438" y="0" font-family="'ArialMT'" font-size="3.5717">_</tspan><tspan x="11.424" y="0" font-family="'CMR10'" font-size="4.4646">etimation.m</tspan></text>
<g>
	<line fill="#FFFFFF" x1="62.615" y1="68.129" x2="73.325" y2="68.129"/>
	<g>
		
			<line fill="none" stroke="#000000" stroke-width="0.3572" stroke-miterlimit="10" x1="62.615" y1="68.129" x2="71.619" y2="68.129"/>
		<g>
			<polygon points="70.816,69.188 71.266,68.129 70.816,67.071 73.325,68.129 			"/>
		</g>
	</g>
</g>
<g>
	<line fill="#FFFFFF" x1="35.636" y1="48.5" x2="35.636" y2="59.209"/>
	<g>
		
			<line fill="none" stroke="#000000" stroke-width="0.3572" stroke-miterlimit="10" x1="35.636" y1="48.5" x2="35.636" y2="57.504"/>
		<g>
			<polygon points="34.578,56.701 35.636,57.151 36.694,56.701 35.636,59.209 			"/>
		</g>
	</g>
</g>
<path fill="#E6E7E8" d="M54.61,47.619H16.523l-2.08-1.272l-0.641-1.365V40.32c0,0,27.283-0.105,43.667,0v4.84
	c0,0-0.36,0.514-0.765,1.098C56.326,46.807,54.61,47.619,54.61,47.619z"/>
<path fill="#FFFFFF" stroke="#000000" stroke-width="0.3572" stroke-miterlimit="10" d="M13.803,40.312H57.47H13.803z"/>
<text transform="matrix(1 0 0 1 22.1948 45.5117)" font-family="'CMR10'" font-size="4.4646">mat-file name</text>
<path fill="none" stroke="#000000" stroke-width="0.3572" stroke-miterlimit="10" d="M57.47,44.337c0,1.813-1.599,3.282-3.571,3.282
	H17.375c-1.972,0-3.572-1.469-3.572-3.282V34.299c0-1.813,1.6-3.282,3.572-3.282h36.524c1.973,0,3.571,1.469,3.571,3.282V44.337z"/>
<path fill="none" stroke="#000000" stroke-width="0.3572" stroke-miterlimit="10" d="M61.782,72.858
	c0,1.972-1.599,3.571-3.572,3.571H13.063c-1.973,0-3.571-1.6-3.571-3.571V63.4c0-1.973,1.599-3.572,3.571-3.572h45.146
	c1.973,0,3.572,1.599,3.572,3.572V72.858z"/>
<path fill="#E6E7E8" d="M130.82,77.066c-0.412,0.693-2.172,1.363-2.172,1.363h-11.114V57.864c0,0,6.72-0.335,11.367,0.024
	c0.642,0.049,1.292,0.808,1.774,0.976c0.262,0.091,0.814,1.365,0.816,3.284c0.005,4.015,0.083,7.395,0.091,9.697
	c0.006,1.807-0.172,1.807-0.143,3.006C131.459,75.646,131.416,76.064,130.82,77.066z"/>
<line fill="#FFFFFF" stroke="#000000" stroke-width="0.3572" stroke-miterlimit="10" x1="117.535" y1="71.762" x2="131.582" y2="71.762"/>
<text transform="matrix(1 0 0 1 123.002 70.1543)" font-family="'CMR10'" font-size="5.3575">2</text>
<text transform="matrix(1 0 0 1 123.002 77.0195)" font-family="'CMR10'" font-size="5.3575">3</text>
<path fill="#FFFFFF" stroke="#000000" stroke-width="0.3572" stroke-miterlimit="10" d="M117.637,57.713V78.43V57.713z"/>
<text transform="matrix(1 0 0 1 76.6812 70.1182)" font-family="'CMR10'" font-size="5.3575">estimate.module</text>
<line fill="#FFFFFF" stroke="#000000" stroke-width="0.3572" stroke-miterlimit="10" x1="117.628" y1="64.728" x2="131.497" y2="64.728"/>
<text transform="matrix(1 0 0 1 123.002 63.0112)" font-family="'CMR10'" font-size="5.3575">1</text>
<path fill="none" stroke="#000000" stroke-width="0.3572" stroke-miterlimit="10" d="M131.497,74.857
	c0,1.973-1.639,3.572-3.66,3.572H77.755c-2.021,0-3.659-1.6-3.659-3.572V61.293c0-1.973,1.638-3.571,3.659-3.571h50.082
	c2.021,0,3.66,1.599,3.66,3.571V74.857z"/>
<g>
	<g>
		<path fill="none" stroke="#000000" stroke-width="0.3572" stroke-miterlimit="10" d="M147.59,47.428h-3.893
			c-1.964,0-3.572,1.607-3.572,3.572v7.617c0,1.964-1.607,3.572-3.572,3.572h-3.98"/>
		<g>
			<polygon points="146.787,46.37 147.237,47.428 146.787,48.486 149.295,47.428 			"/>
		</g>
	</g>
</g>
<g>
	<g>
		<path fill="none" stroke="#000000" stroke-width="0.3572" stroke-miterlimit="10" d="M147.59,89.176h-3.893
			c-1.964,0-3.572-1.607-3.572-3.571v-7.617c0-1.964-1.607-3.571-3.572-3.571h-3.98"/>
		<g>
			<polygon points="146.787,88.117 147.237,89.176 146.787,90.234 149.295,89.176 			"/>
		</g>
	</g>
</g>
<text transform="matrix(1 0 0 1 162.853 46.1768)"><tspan x="0" y="0" font-family="'CMR10'" font-size="5.3575">Non-linear</tspan><tspan x="-7.548" y="6.429" font-family="'CMR10'" font-size="5.3575">State Estimation</tspan></text>
<path fill="none" stroke="#000000" stroke-width="0.3572" stroke-miterlimit="10" d="M200.239,51.348
	c0,1.973-1.599,3.572-3.571,3.572h-43.083c-1.973,0-3.572-1.599-3.572-3.572v-7.799c0-1.973,1.599-3.572,3.572-3.572h43.083
	c1.973,0,3.571,1.599,3.571,3.572V51.348z"/>
<text transform="matrix(1 0 0 1 168.8428 66.7139)"><tspan x="0" y="0" font-family="'CMR10'" font-size="5.3575">PMU</tspan><tspan x="-13.538" y="6.429" font-family="'CMR10'" font-size="5.3575">State Estimation</tspan></text>
<path fill="none" stroke="#000000" stroke-width="0.3572" stroke-miterlimit="10" d="M200.239,71.9c0,1.973-1.599,3.572-3.571,3.572
	h-43.083c-1.973,0-3.572-1.6-3.572-3.572v-7.799c0-1.973,1.599-3.572,3.572-3.572h43.083c1.973,0,3.571,1.599,3.571,3.572V71.9z"/>
<text transform="matrix(1 0 0 1 171.1489 87.4297)"><tspan x="0" y="0" font-family="'CMR10'" font-size="5.3575">DC</tspan><tspan x="-15.844" y="6.429" font-family="'CMR10'" font-size="5.3575">State Estimation</tspan></text>
<path fill="none" stroke="#000000" stroke-width="0.3572" stroke-miterlimit="10" d="M200.239,92.615
	c0,1.973-1.599,3.571-3.571,3.571h-43.083c-1.973,0-3.572-1.599-3.572-3.571v-7.801c0-1.973,1.599-3.571,3.572-3.571h43.083
	c1.973,0,3.571,1.599,3.571,3.571V92.615z"/>
<g>
	<line fill="#FFFFFF" x1="132.574" y1="68.129" x2="149.296" y2="68.129"/>
	<g>
		
			<line fill="none" stroke="#000000" stroke-width="0.3572" stroke-miterlimit="10" x1="132.574" y1="68.129" x2="147.591" y2="68.129"/>
		<g>
			<polygon points="146.788,69.188 147.238,68.129 146.788,67.071 149.296,68.129 			"/>
		</g>
	</g>
</g>
<g>
	<text transform="matrix(1 0 0 1 125.1426 16.9893)" font-family="'CMR10'" font-size="5.3575">flat</text>
	<text transform="matrix(1 0 0 1 125.1421 23.6763)" font-family="'CMR10'" font-size="5.3575">warm</text>
	<text transform="matrix(1 0 0 1 125.1416 30.5342)" font-family="'CMR10'" font-size="5.3575">random</text>
	<path fill="#FFFFFF" stroke="#000000" stroke-width="0.3572" stroke-miterlimit="10" d="M123.284,11.624v20.41V11.624z"/>
	<text transform="matrix(1 0 0 1 98.9922 23.8101)" font-family="'CMR10'" font-size="5.3575">estimate.</text>
	<path fill="#E6E7E8" d="M158.603,30.303l-1.721,1.471l-5.141,0.26l-6.495,0.071V11.623c0,0,3.208,0.044,6.495,0.076
		c2.795,0.027,5.467-0.281,6.448,1.129c0.235,0.338,0.91,1.305,0.915,2.602c0.012,3.165,0.056,7.159,0.07,9.649
		C159.194,29.141,158.603,30.303,158.603,30.303z"/>
	<path fill="#FFFFFF" stroke="#000000" stroke-width="0.3572" stroke-miterlimit="10" d="M145.247,11.643v20.391V11.643z"/>
	
		<line fill="#FFFFFF" stroke="#000000" stroke-width="0.3572" stroke-miterlimit="10" x1="123.283" y1="25.314" x2="159.115" y2="25.314"/>
	
		<line fill="#FFFFFF" stroke="#000000" stroke-width="0.3572" stroke-miterlimit="10" x1="123.283" y1="18.594" x2="159.115" y2="18.594"/>
	<text transform="matrix(1 0 0 1 149.4434 16.9893)" font-family="'CMR10'" font-size="5.3575">i1</text>
	<text transform="matrix(1 0 0 1 149.4434 23.854)" font-family="'CMR10'" font-size="5.3575">i2</text>
	<text transform="matrix(1 0 0 1 149.4434 30.5342)" font-family="'CMR10'" font-size="5.3575">i3</text>
	<path fill="none" stroke="#000000" stroke-width="0.3572" stroke-miterlimit="10" d="M159.115,28.462
		c0,1.973-1.599,3.572-3.571,3.572h-55.066c-1.972,0-3.571-1.599-3.571-3.572V15.194c0-1.972,1.599-3.571,3.571-3.571h55.066
		c1.972,0,3.571,1.599,3.571,3.571V28.462z"/>
</g>
<g>
	<g>
		<path fill="none" stroke="#000000" stroke-width="0.3572" stroke-miterlimit="10" d="M159.913,21.864h11.776
			c1.965,0,3.572,1.607,3.572,3.572v12.237"/>
		<g>
			<polygon points="174.203,36.871 175.262,37.32 176.319,36.871 175.262,39.379 			"/>
		</g>
	</g>
</g>
<g>
	<g>
		<path fill="none" stroke="#000000" stroke-width="0.3572" stroke-miterlimit="10" d="M216.168,62.188h-3.878
			c-1.964,0-3.571-1.607-3.571-3.572V51c0-1.964-1.607-3.572-3.571-3.572h-3.968"/>
		<g>
			<polygon points="215.366,61.13 215.815,62.188 215.366,63.247 217.874,62.188 			"/>
		</g>
	</g>
</g>
<g>
	<g>
		<path fill="none" stroke="#000000" stroke-width="0.3572" stroke-miterlimit="10" d="M216.168,74.416h-3.878
			c-1.964,0-3.571,1.607-3.571,3.571v7.617c0,1.964-1.607,3.571-3.571,3.571h-3.968"/>
		<g>
			<polygon points="215.366,73.357 215.815,74.416 215.366,75.475 217.874,74.416 			"/>
		</g>
	</g>
</g>
<g>
	<line fill="#FFFFFF" x1="201.181" y1="68.129" x2="217.874" y2="68.129"/>
	<g>
		
			<line fill="none" stroke="#000000" stroke-width="0.3572" stroke-miterlimit="10" x1="201.181" y1="68.129" x2="216.168" y2="68.129"/>
		<g>
			<polygon points="215.366,69.188 215.815,68.129 215.366,67.071 217.874,68.129 			"/>
		</g>
	</g>
</g>
<path fill="#E6E7E8" d="M284.17,54.159h-13.871v6.772c0,0,3.469,0.066,7.053,0c1.904-0.036,6.809-0.053,6.809-0.053
	s0.047-3.094,0.066-4.328C284.248,55.168,284.17,54.159,284.17,54.159z"/>
<path fill="#E6E7E8" d="M284.168,47.439h-13.869v-6.772c0,0,3.189-0.285,6.607-0.291c5.306-0.009,4.182,0.243,5.754,0.771
	c0.936,0.314,1.546,2.667,1.566,3.901C284.248,46.429,284.168,47.439,284.168,47.439z"/>
<path fill="#FFFFFF" stroke="#000000" stroke-width="0.3572" stroke-miterlimit="10" d="M270.299,40.487v27.559V40.487z"/>
<line fill="#FFFFFF" stroke="#000000" stroke-width="0.3572" stroke-miterlimit="10" x1="219.196" y1="54.159" x2="284.168" y2="54.159"/>
<line fill="#FFFFFF" stroke="#000000" stroke-width="0.3572" stroke-miterlimit="10" x1="270.299" y1="47.439" x2="284.168" y2="47.439"/>
<line fill="none" stroke="#000000" stroke-width="0.3572" stroke-miterlimit="10" x1="270.299" y1="60.878" x2="284.168" y2="60.878"/>
<text transform="matrix(1 0 0 1 222.1621 63.1982)" font-family="'CMR10'" font-size="5.3575">estimate.branch</text>
<text transform="matrix(1 0 0 1 222.1621 49.0137)" font-family="'CMR10'" font-size="5.3575">estimate.bus</text>
<text transform="matrix(1 0 0 1 275.25 45.834)" font-family="'CMR10'" font-size="5.3575">1</text>
<text transform="matrix(1 0 0 1 275.25 52.6997)" font-family="'CMR10'" font-size="5.3575">0</text>
<text transform="matrix(1 0 0 1 275.25 59.3794)" font-family="'CMR10'" font-size="5.3575">1</text>
<text transform="matrix(1 0 0 1 275.25 66.2026)" font-family="'CMR10'" font-size="5.3575">0</text>
<path fill="#E6E7E8" d="M284.168,81.809h-13.869v-6.971h13.869c0,0,0.038,3.346,0.059,4.58
	C284.248,80.801,284.168,81.809,284.168,81.809z"/>
<path fill="#FFFFFF" stroke="#000000" stroke-width="0.3572" stroke-miterlimit="10" d="M270.299,68.046v27.579V68.046z"/>
<line fill="#FFFFFF" stroke="#000000" stroke-width="0.3572" stroke-miterlimit="10" x1="219.196" y1="81.738" x2="284.168" y2="81.738"/>
<line fill="#FFFFFF" stroke="#000000" stroke-width="0.3572" stroke-miterlimit="10" x1="270.299" y1="75.02" x2="284.168" y2="75.02"/>
<line fill="none" stroke="#000000" stroke-width="0.3572" stroke-miterlimit="10" x1="270.299" y1="88.458" x2="284.168" y2="88.458"/>
<text transform="matrix(1 0 0 1 222.1611 90.7773)" font-family="'CMR10'" font-size="5.3575">estimate.evaluation</text>
<text transform="matrix(1 0 0 1 222.1611 76.5938)" font-family="'CMR10'" font-size="5.3575">estimate.estimation</text>
<text transform="matrix(1 0 0 1 275.25 73.4141)" font-family="'CMR10'" font-size="5.3575">0</text>
<text transform="matrix(1 0 0 1 275.25 80.2793)" font-family="'CMR10'" font-size="5.3575">1</text>
<text transform="matrix(1 0 0 1 275.25 86.959)" font-family="'CMR10'" font-size="5.3575">0</text>
<text transform="matrix(1 0 0 1 275.25 93.7813)" font-family="'CMR10'" font-size="5.3575">1</text>
<line fill="#FFFFFF" stroke="#000000" stroke-width="0.3572" stroke-miterlimit="10" x1="219.196" y1="68.046" x2="284.168" y2="68.046"/>
<g>
	<path fill="none" stroke="#000000" stroke-width="0.3572" stroke-miterlimit="10" d="M348.545,17.979
		c0,2.947-2.296,4.621-5.102,3.721l-3.164-1.016c-2.806-0.9-7.447-1.082-10.315-0.404c0,0-13.669,3.233-18.192,3.235
		c-4.333,0.001-6.687-0.273-6.687-0.273c-2.927-0.341-5.321-3.031-5.321-5.978v-2.971c0-2.947,2.411-5.357,5.357-5.357h38.066
		c2.946,0,5.357,2.411,5.357,5.357V17.979z"/>
</g>
<g>
	<path fill="#F1F2F2" d="M341.525,67.103c0.091,2.446-0.68,5.416-0.68,5.416c-0.246,0.95-1.252,1.729-2.234,1.729h-29.406
		c-0.982,0-2.301-0.617-2.93-1.372l-2.772-3.328c-0.629-0.755-0.717-2.053-0.194-2.885l2.805-4.473
		c0.522-0.832,1.753-1.513,2.735-1.513h28.69c0.982,0,2.182,0.7,2.665,1.555C340.204,62.231,341.428,64.396,341.525,67.103z"/>
	<path fill="none" stroke="#000000" stroke-width="0.3572" stroke-miterlimit="10" d="M341.525,67.103
		c0.091,2.446-0.68,5.416-0.68,5.416c-0.246,0.95-1.252,1.729-2.234,1.729h-29.406c-0.982,0-2.301-0.617-2.93-1.372l-2.772-3.328
		c-0.629-0.755-0.717-2.053-0.194-2.885l2.805-4.473c0.522-0.832,1.753-1.513,2.735-1.513h28.69c0.982,0,2.182,0.7,2.665,1.555
		C340.204,62.231,341.428,64.396,341.525,67.103z"/>
</g>
<g>
	<g>
		<path fill="none" stroke="#000000" stroke-width="0.3572" stroke-miterlimit="10" d="M300.075,66.577h-3.893
			c-1.964,0-3.571-1.607-3.571-3.572v-0.822c0-1.964-1.607-3.572-3.571-3.572h-3.98"/>
		<g>
			<polygon points="299.273,65.519 299.723,66.577 299.273,67.635 301.781,66.577 			"/>
		</g>
	</g>
</g>
<g>
	<g>
		<path fill="none" stroke="#000000" stroke-width="0.3572" stroke-miterlimit="10" d="M300.075,69.693h-3.893
			c-1.964,0-3.571,1.607-3.571,3.571v0.821c0,1.964-1.607,3.571-3.571,3.571h-3.98"/>
		<g>
			<polygon points="299.273,68.635 299.723,69.693 299.273,70.752 301.781,69.693 			"/>
		</g>
	</g>
</g>
<text transform="matrix(1 0 0 1 315.5371 68.7837)" font-family="'CMR10'" font-size="5.3575">Display</text>
<path fill="#E6E7E8" d="M347.434,34.557c-0.411-0.223-0.683-0.111-0.683-0.111H335.28v6.613c0,0,7.257,0.108,11.902-0.008
	c0.644-0.016,1.761,0.106,2.243,0.052c0.262-0.029-0.182-0.808-0.01-1.422c0.272-0.968-0.249-2.291-0.241-3.031
	c0.007-0.581-0.357-0.997-0.696-1.318C348.221,35.09,348.029,34.879,347.434,34.557z"/>
<line fill="#FFFFFF" stroke="#000000" stroke-width="0.3572" stroke-miterlimit="10" x1="335.28" y1="41.246" x2="349.426" y2="41.246"/>
<text transform="matrix(1 0 0 1 340.7559 39.6411)" font-family="'CMR10'" font-size="5.3575">1</text>
<text transform="matrix(1 0 0 1 340.7559 46.5068)" font-family="'CMR10'" font-size="5.3575">0</text>
<path fill="#FFFFFF" stroke="#000000" stroke-width="0.3572" stroke-miterlimit="10" d="M335.383,34.209v13.694V34.209z"/>
<text transform="matrix(1 0 0 1 301.665 42.9976)" font-family="'CMR10'" font-size="5.3575">estimate.save</text>
<path fill="none" stroke="#000000" stroke-width="0.3572" stroke-miterlimit="10" d="M349.426,44.332
	c0,1.973-1.473,3.572-3.291,3.572h-43.648c-1.817,0-3.291-1.599-3.291-3.572v-6.548c0-1.972,1.474-3.572,3.291-3.572h43.648
	c1.818,0,3.291,1.6,3.291,3.572V44.332z"/>
<g>
	<line fill="#FFFFFF" x1="324.104" y1="59.479" x2="324.104" y2="48.77"/>
	<g>
		
			<line fill="none" stroke="#000000" stroke-width="0.3572" stroke-miterlimit="10" x1="324.104" y1="59.479" x2="324.104" y2="50.475"/>
		<g>
			<polygon points="325.162,51.278 324.104,50.828 323.045,51.278 324.104,48.77 			"/>
		</g>
	</g>
</g>
<text transform="matrix(1 0 0 1 312.0762 16.4761)" font-family="'CMR10'" font-size="5.3575">Save Data</text>
<g>
	<g>
		<path fill="none" stroke="#000000" stroke-width="0.3572" stroke-miterlimit="10" d="M324.354,24.491c0,0.384,0,0.813,0,1.265
			c0,1.633,1.607,2.97,3.571,2.97l10.373,0c1.964,0,3.571,1.101,3.571,2.446c0,1.345,0,2.445,0,2.445"/>
		<g>
			<polygon points="323.295,25.294 324.354,24.845 325.412,25.294 324.354,22.786 			"/>
		</g>
	</g>
</g>
<g>
	<g>
		<path fill="none" stroke="#000000" stroke-width="0.3572" stroke-miterlimit="10" d="M285.06,45.693h5.765
			c1.964,0,3.571,1.607,3.571,3.572v10.36c0,1.964,1.607,3.572,3.571,3.572h0.243c1.444,0,2.919,0.096,3.799,0.232"/>
		<g>
			<polygon points="300.91,64.25 301.653,63.373 301.538,62.229 303.619,63.983 			"/>
		</g>
	</g>
</g>
<g>
	<g>
		<path fill="none" stroke="#000000" stroke-width="0.3572" stroke-miterlimit="10" d="M285.06,90.542h5.765
			c1.964,0,3.571-1.607,3.571-3.571V76.61c0-1.964,1.607-3.571,3.571-3.571h0.243c1.428,0,2.886-0.076,3.77-0.187"/>
		<g>
			<polygon points="301.446,74.034 301.623,72.898 300.928,71.982 303.619,72.395 			"/>
		</g>
	</g>
</g>
<path fill="none" stroke="#000000" stroke-width="0.3572" stroke-miterlimit="10" d="M284.171,92.054
	c0,1.974-1.599,3.571-3.571,3.571h-57.833c-1.972,0-3.57-1.598-3.57-3.571V43.947c0-1.972,1.599-3.571,3.57-3.571H280.6
	c1.973,0,3.571,1.599,3.571,3.571V92.054z"/>
<g>
	<g>
		<path fill="none" stroke="#000000" stroke-width="0.3572" stroke-miterlimit="10" d="M204.339,110.62V75.333
			c0-1.964-0.774-3.571-1.721-3.571c-0.947,0-1.722,0-1.722,0"/>
		<g>
			<polygon points="205.397,109.818 204.339,110.268 203.28,109.818 204.339,112.326 			"/>
		</g>
	</g>
</g>
<g>
	<g>
		<path fill="none" stroke="#000000" stroke-width="0.3572" stroke-miterlimit="10" d="M174.947,97.234v19.127
			c0,1.964,1.607,3.571,3.572,3.571h2.671"/>
		<g>
			<polygon points="180.389,120.99 180.838,119.933 180.389,118.875 182.896,119.933 			"/>
		</g>
	</g>
</g>
<path fill="#E6E7E8" d="M235.247,113.611c-0.41-0.223-0.682-0.111-0.682-0.111h-11.471v6.613c0,0,7.256,0.107,11.902-0.008
	c0.643-0.016,1.761,0.105,2.242,0.053c0.262-0.029-0.182-0.809-0.009-1.424c0.272-0.967-0.249-2.29-0.241-3.03
	c0.006-0.581-0.357-0.997-0.697-1.317C236.035,114.145,235.844,113.934,235.247,113.611z"/>
<line fill="#FFFFFF" stroke="#000000" stroke-width="0.3572" stroke-miterlimit="10" x1="223.095" y1="120.301" x2="237.239" y2="120.301"/>
<text transform="matrix(1 0 0 1 228.5693 118.6953)" font-family="'CMR10'" font-size="5.3575">1</text>
<text transform="matrix(1 0 0 1 228.5693 125.5605)" font-family="'CMR10'" font-size="5.3575">0</text>
<path fill="#FFFFFF" stroke="#000000" stroke-width="0.3572" stroke-miterlimit="10" d="M223.197,113.264v13.695V113.264z"/>
<text transform="matrix(1 0 0 1 186.1426 122.0518)" font-family="'CMR10'" font-size="5.3575">estimate.linear</text>
<path fill="none" stroke="#000000" stroke-width="0.3572" stroke-miterlimit="10" d="M237.239,123.386
	c0,1.974-1.6,3.573-3.572,3.573h-46.223c-1.972,0-3.57-1.6-3.57-3.573v-6.55c0-1.973,1.599-3.572,3.57-3.572h46.223
	c1.973,0,3.572,1.6,3.572,3.572V123.386z"/>
<g>
	<line fill="#FFFFFF" x1="238.241" y1="117.8" x2="248.95" y2="117.8"/>
	<g>
		
			<line fill="none" stroke="#000000" stroke-width="0.3572" stroke-miterlimit="10" x1="238.241" y1="117.8" x2="247.244" y2="117.8"/>
		<g>
			<polygon points="246.442,118.857 246.892,117.8 246.442,116.742 248.95,117.8 			"/>
		</g>
	</g>
</g>
<g>
	<path fill="none" stroke="#000000" stroke-width="0.3572" stroke-miterlimit="10" d="M304.225,119.412
		c0,2.946-2.318,4.694-5.151,3.885l-4.701-1.345c-2.833-0.81-7.511-0.976-10.394-0.368c0,0-15.953,3.361-21.032,3.363
		c-4.862,0.002-8.147-0.339-8.147-0.339c-2.931-0.305-5.329-2.965-5.329-5.911v-2.971c0-2.946,2.411-5.357,5.357-5.357h44.04
		c2.946,0,5.357,2.411,5.357,5.357V119.412z"/>
</g>
<text transform="matrix(1 0 0 1 253.1055 117.9063)" font-family="'CMR10'" font-size="5.3575">Export Matrix Form</text>
</svg>
