<?xml version="1.0" encoding="utf-8"?>
<!-- Generator: Adobe Illustrator 16.0.0, SVG Export Plug-In . SVG Version: 6.00 Build 0)  -->
<!DOCTYPE svg PUBLIC "-//W3C//DTD SVG 1.1//EN" "http://www.w3.org/Graphics/SVG/1.1/DTD/svg11.dtd">
<svg version="1.1" id="Layer_1" xmlns="http://www.w3.org/2000/svg" xmlns:xlink="http://www.w3.org/1999/xlink" x="0px" y="0px"
	 width="836px" height="304px" viewBox="-15.167 0 836 304" enable-background="new -15.167 0 836 304" xml:space="preserve">
<path fill="#E6E7E8" d="M614.845,258.865c0,4.072-2.934,7.371-6.553,7.371h-49.945c-2.084,0-6.553,0-6.553,0s0-5.645,0-7.371
	v-13.518c0-2.014,0-7.369,0-7.369s4.725,0,6.553,0h49.945c3.619,0,6.553,3.299,6.553,7.369V258.865z"/>
<g>
	<line fill="#FFFFFF" x1="208.254" y1="144.844" x2="230.354" y2="144.844"/>
	<g>
		
			<line fill="none" stroke="#231F20" stroke-width="0.5669" stroke-miterlimit="10" x1="208.254" y1="144.844" x2="227.646" y2="144.844"/>
		<g>
			<polygon fill="#231F20" points="226.372,146.523 227.086,144.844 226.372,143.164 230.354,144.844 			"/>
		</g>
	</g>
</g>
<path fill="#E6E7E8" d="M374.301,164.021c-2.222,1.431-6.392,2.074-6.392,2.074h-65.294v-42.435c0,0,34.673-0.292,63.108-0.319
	c3.467-0.004,4.6,0.931,7.198,1.276c1.414,0.188,4.986,3.923,4.999,7.884c0.026,8.285-0.142,14.521-0.099,19.273
	c0.033,3.729-0.339,4.467-0.181,6.939C377.746,160.354,377.513,161.955,374.301,164.021z"/>
<line fill="#FFFFFF" stroke="#231F20" stroke-width="0.5669" stroke-miterlimit="10" x1="302.615" y1="152.34" x2="378.229" y2="152.34"/>
<path fill="#FFFFFF" stroke="#231F20" stroke-width="0.5669" stroke-miterlimit="10" d="M302.615,123.351v42.747V123.351z"/>
<text transform="matrix(1 0 0 1 241.9104 148.9463)" fill="#231F20" font-family="'CMR10'" font-size="11.0551">METHOD</text>
<line fill="#FFFFFF" stroke="#231F20" stroke-width="0.5669" stroke-miterlimit="10" x1="302.615" y1="137.825" x2="377.943" y2="137.825"/>
<g>
	<g>
		<path fill="none" stroke="#231F20" stroke-width="0.5669" stroke-miterlimit="10" d="M412.07,102.127h-10.542
			c-3.118,0-5.669,2.551-5.669,5.669v19.12c0,3.118-2.551,5.669-5.669,5.669h-9.915"/>
		<g>
			<polygon fill="#231F20" points="410.795,100.447 411.509,102.127 410.795,103.807 414.777,102.127 			"/>
		</g>
	</g>
</g>
<g>
	<g>
		<path fill="none" stroke="#231F20" stroke-width="0.5669" stroke-miterlimit="10" d="M412.07,188.273h-10.542
			c-3.118,0-5.669-2.551-5.669-5.669v-19.119c0-3.118-2.551-5.669-5.669-5.669h-9.915"/>
		<g>
			<polygon fill="#231F20" points="410.795,186.594 411.509,188.273 410.795,189.953 414.777,188.273 			"/>
		</g>
	</g>
</g>
<text transform="matrix(1 0 0 1 442.7522 99.5439)"><tspan x="0" y="0" fill="#231F20" font-family="'CMR10'" font-size="11.0551">Non-linear</tspan><tspan x="-15.576" y="13.267" fill="#231F20" font-family="'CMR10'" font-size="11.0551">State Estimation</tspan></text>
<path fill="none" stroke="#231F20" stroke-width="0.5669" stroke-miterlimit="10" d="M519.9,110.217c0,4.069-3.301,7.37-7.369,7.37
	h-88.904c-4.07,0-7.371-3.301-7.371-7.37V94.121c0-4.07,3.301-7.369,7.371-7.369h88.904c4.068,0,7.369,3.299,7.369,7.369V110.217z"
	/>
<text transform="matrix(1 0 0 1 459.8713 141.9224)"><tspan x="0" y="0" fill="#231F20" font-family="'CMR10'" font-size="11.0551">DC</tspan><tspan x="-32.695" y="13.266" fill="#231F20" font-family="'CMR10'" font-size="11.0551">State Estimation</tspan></text>
<path fill="none" stroke="#231F20" stroke-width="0.5669" stroke-miterlimit="10" d="M519.9,152.626c0,4.07-3.301,7.37-7.369,7.37
	h-88.904c-4.07,0-7.371-3.3-7.371-7.37v-16.095c0-4.07,3.301-7.371,7.371-7.371h88.904c4.068,0,7.369,3.301,7.369,7.371V152.626z"/>
<text transform="matrix(1 0 0 1 455.1116 184.6689)"><tspan x="0" y="0" fill="#231F20" font-family="'CMR10'" font-size="11.0551">PMU</tspan><tspan x="-27.936" y="13.267" fill="#231F20" font-family="'CMR10'" font-size="11.0551">State Estimation</tspan></text>
<path fill="none" stroke="#231F20" stroke-width="0.5669" stroke-miterlimit="10" d="M519.9,195.369c0,4.071-3.301,7.37-7.369,7.37
	h-88.904c-4.07,0-7.371-3.299-7.371-7.37v-16.094c0-4.072,3.301-7.37,7.371-7.37h88.904c4.068,0,7.369,3.298,7.369,7.37V195.369z"/>
<g>
	<line fill="#FFFFFF" x1="380.275" y1="144.844" x2="414.779" y2="144.844"/>
	<g>
		
			<line fill="none" stroke="#231F20" stroke-width="0.5669" stroke-miterlimit="10" x1="380.275" y1="144.844" x2="412.072" y2="144.844"/>
		<g>
			<polygon fill="#231F20" points="410.797,146.523 411.511,144.844 410.797,143.164 414.779,144.844 			"/>
		</g>
	</g>
</g>
<g>
	<g>
		<path fill="none" stroke="#231F20" stroke-width="0.5669" stroke-miterlimit="10" d="M420.46,42.361h26.009
			c3.118,0,5.669,2.551,5.669,5.669V82.81"/>
		<g>
			<polygon fill="#231F20" points="450.458,81.536 452.138,82.25 453.818,81.536 452.138,85.518 			"/>
		</g>
	</g>
</g>
<g>
	<g>
		<path fill="none" stroke="#231F20" stroke-width="0.5669" stroke-miterlimit="10" d="M553.579,132.586h-10.515
			c-3.118,0-5.669-2.551-5.669-5.669v-19.12c0-3.118-2.551-5.669-5.669-5.669h-9.886"/>
		<g>
			<polygon fill="#231F20" points="552.305,130.906 553.019,132.586 552.305,134.266 556.286,132.586 			"/>
		</g>
	</g>
</g>
<g>
	<g>
		<path fill="none" stroke="#231F20" stroke-width="0.5669" stroke-miterlimit="10" d="M553.579,157.816h-10.515
			c-3.118,0-5.669,2.551-5.669,5.669v19.119c0,3.118-2.551,5.669-5.669,5.669h-9.886"/>
		<g>
			<polygon fill="#231F20" points="552.305,156.137 553.019,157.816 552.305,159.496 556.286,157.816 			"/>
		</g>
	</g>
</g>
<g>
	<line fill="#FFFFFF" x1="521.841" y1="144.844" x2="556.288" y2="144.844"/>
	<g>
		
			<line fill="none" stroke="#231F20" stroke-width="0.5669" stroke-miterlimit="10" x1="521.841" y1="144.844" x2="553.581" y2="144.844"/>
		<g>
			<polygon fill="#231F20" points="552.307,146.523 553.021,144.844 552.307,143.164 556.288,144.844 			"/>
		</g>
	</g>
</g>
<g>
	<g>
		<path fill="none" stroke="#231F20" stroke-width="0.5669" stroke-miterlimit="10" d="M714.577,141.64H704.03
			c-3.118,0-5.669-2.551-5.669-5.669v-5.099c0-3.118-2.551-5.669-5.669-5.669h-9.913"/>
		<g>
			<polygon fill="#231F20" points="713.303,139.96 714.017,141.64 713.303,143.319 717.284,141.64 			"/>
		</g>
	</g>
</g>
<g>
	<g>
		<path fill="none" stroke="#231F20" stroke-width="0.5669" stroke-miterlimit="10" d="M714.577,148.068H704.03
			c-3.118,0-5.669,2.551-5.669,5.669v5.098c0,3.118-2.551,5.669-5.669,5.669h-9.913"/>
		<g>
			<polygon fill="#231F20" points="713.303,146.389 714.017,148.068 713.303,149.748 717.284,148.068 			"/>
		</g>
	</g>
</g>
<g>
	<g>
		<path fill="none" stroke="#231F20" stroke-width="0.5669" stroke-miterlimit="10" d="M528.359,233.338v-75.329
			c0-3.118-1.598-5.669-3.551-5.669s-3.551,0-3.551,0"/>
		<g>
			<polygon fill="#231F20" points="530.038,232.064 528.359,232.778 526.679,232.064 528.359,236.046 			"/>
		</g>
	</g>
</g>
<g>
	<g>
		<path fill="none" stroke="#231F20" stroke-width="0.5669" stroke-miterlimit="10" d="M467.708,204.901v41.168
			c0,3.118,2.551,5.669,5.669,5.669h8.026"/>
		<g>
			<polygon fill="#231F20" points="480.129,253.418 480.843,251.738 480.129,250.059 484.111,251.738 			"/>
		</g>
	</g>
</g>
<line fill="#FFFFFF" stroke="#231F20" stroke-width="0.5669" stroke-miterlimit="10" x1="551.794" y1="252.106" x2="614.845" y2="252.106"/>
<text transform="matrix(1 0 0 1 556.7327 248.0801)" fill="#231F20" font-family="'CMR10'" font-size="9.2126">export</text>
<text transform="matrix(1 0 0 1 557.5247 262.6152)" fill="#231F20" font-family="'CMR10'" font-size="9.2126">exportSlack</text>
<path fill="#FFFFFF" stroke="#231F20" stroke-width="0.5669" stroke-miterlimit="10" d="M551.81,237.979v28.258V237.979z"/>
<text transform="matrix(1 0 0 1 494.3694 256.1113)" fill="#231F20" font-family="'CMR10'" font-size="11.0551">EXPORT</text>
<g>
	<line fill="#FFFFFF" x1="617.091" y1="252.132" x2="639.191" y2="252.132"/>
	<g>
		
			<line fill="none" stroke="#231F20" stroke-width="0.5669" stroke-miterlimit="10" x1="617.091" y1="252.132" x2="636.484" y2="252.132"/>
		<g>
			<polygon fill="#231F20" points="635.209,253.812 635.923,252.132 635.209,250.452 639.191,252.132 			"/>
		</g>
	</g>
</g>
<g>
	<path fill="none" stroke="#231F20" stroke-width="0.5669" stroke-miterlimit="10" d="M753.249,258.01
		c0,4.677-3.68,7.452-8.177,6.166L730.465,260c-4.497-1.286-11.921-1.549-16.498-0.584c0,0-35.415,7.463-45.894,7.466
		c-10.033,0.005-19.354-0.964-19.354-0.964c-4.651-0.484-8.458-4.707-8.458-9.384v-11.231c0-4.677,3.827-8.504,8.504-8.504h95.98
		c4.677,0,8.504,3.827,8.504,8.504V258.01z"/>
</g>
<text transform="matrix(1 0 0 1 647.7805 252.3477)" fill="#231F20" font-family="'CMR10'" font-size="11.0551">Export Matrix Form</text>
<text transform="matrix(1 0 0 1 356.5071 133.7993)" fill="#231F20" font-family="'CMR10'" font-size="9.2126">lav</text>
<text transform="matrix(1 0 0 1 356.5071 147.938)" fill="#231F20" font-family="'CMR10'" font-size="9.2126">lav</text>
<text transform="matrix(1 0 0 1 356.5071 161.3486)" fill="#231F20" font-family="'CMR10'" font-size="9.2126">lav</text>
<g>
	<path fill="#E6E7E8" d="M417.884,66.859l-3.389,2.841l-2.76,0.66l-32.325-0.048l-34.536,0.195V14.215
		c0,0,35.673,0.073,53.146,0.161c14.861,0.074,14.365-0.444,18.42,1.961c1.342,0.798,2.461,4.774,2.488,8.341
		c0.063,8.696-0.07,19.677,0,26.519C419.042,62.36,417.884,66.859,417.884,66.859z"/>
	<text transform="matrix(1 0 0 1 349.7991 24.7529)" fill="#231F20" font-family="'CMR10'" font-size="9.2126">flat, value</text>
	<text transform="matrix(1 0 0 1 349.7996 38.626)" fill="#231F20" font-family="'CMR10'" font-size="9.2126">warm</text>
	<text transform="matrix(1 0 0 1 349.7996 66.8965)" fill="#231F20" font-family="'CMR10'" font-size="9.2126">random, value</text>
	<path fill="#FFFFFF" stroke="#231F20" stroke-width="0.5669" stroke-miterlimit="10" d="M344.876,14.568V70.36V14.568z"/>
	<text transform="matrix(1 0 0 1 297.3035 45.6377)" fill="#231F20" font-family="'CMR10'" font-size="11.0551">START</text>
	
		<line fill="#FFFFFF" stroke="#231F20" stroke-width="0.5669" stroke-miterlimit="10" x1="344.874" y1="56.495" x2="418.814" y2="56.495"/>
	
		<line fill="#FFFFFF" stroke="#231F20" stroke-width="0.5669" stroke-miterlimit="10" x1="344.874" y1="42.629" x2="418.814" y2="42.629"/>
	
		<line fill="#FFFFFF" stroke="#231F20" stroke-width="0.5669" stroke-miterlimit="10" x1="344.935" y1="28.243" x2="418.872" y2="28.243"/>
	<path fill="none" stroke="#231F20" stroke-width="0.5669" stroke-miterlimit="10" d="M418.814,62.991
		c0,4.071-3.301,7.369-7.371,7.369H296.583c-4.07,0-7.37-3.298-7.37-7.369V21.745c0-4.07,3.3-7.369,7.37-7.369h114.859
		c4.07,0,7.371,3.299,7.371,7.369V62.991z"/>
	<text transform="matrix(1 0 0 1 349.7991 52.2788)" fill="#231F20" font-family="'CMR10'" font-size="9.2126">exact</text>
</g>
<path fill="none" stroke="#231F20" stroke-width="0.5669" stroke-miterlimit="10" d="M614.845,258.865
	c0,4.072-3.109,7.371-6.943,7.371H493.073c-3.836,0-6.945-3.299-6.945-7.371v-13.518c0-4.07,3.109-7.369,6.945-7.369h114.828
	c3.834,0,6.943,3.299,6.943,7.369V258.865z"/>
<path fill="#E6E7E8" d="M680.536,169.341l-2.48,2.841l-2.014,0.662l-23.637-0.05l-25.25,0.197v-56.295
	c0,0,26.082,0.073,38.855,0.162c10.867,0.075,10.506-0.444,13.469,1.96c0.98,0.798,1.801,4.776,1.818,8.341
	c0.047,8.696-0.051,19.678,0.002,26.519C681.38,164.842,680.536,169.341,680.536,169.341z"/>
<text transform="matrix(1 0 0 1 633.1526 127.2354)" fill="#231F20" font-family="'CMR10'" font-size="9.2126">bus</text>
<text transform="matrix(1 0 0 1 633.1516 141.1079)" fill="#231F20" font-family="'CMR10'" font-size="9.2126">branch</text>
<text transform="matrix(1 0 0 1 633.1516 169.3789)" fill="#231F20" font-family="'CMR10'" font-size="9.2126">error</text>
<path fill="#FFFFFF" stroke="#231F20" stroke-width="0.5669" stroke-miterlimit="10" d="M627.144,117.052v55.792V117.052z"/>
<text transform="matrix(1 0 0 1 568.1555 148.1201)" fill="#231F20" font-family="'CMR10'" font-size="11.0551">DISPLAY</text>
<line fill="#FFFFFF" stroke="#231F20" stroke-width="0.5669" stroke-miterlimit="10" x1="627.525" y1="158.977" x2="681.195" y2="158.977"/>
<line fill="#FFFFFF" stroke="#231F20" stroke-width="0.5669" stroke-miterlimit="10" x1="627.525" y1="145.11" x2="681.195" y2="145.11"/>
<line fill="#FFFFFF" stroke="#231F20" stroke-width="0.5669" stroke-miterlimit="10" x1="627.57" y1="130.725" x2="681.238" y2="130.725"/>
<path fill="none" stroke="#231F20" stroke-width="0.5669" stroke-miterlimit="10" d="M681.187,165.474c0,4.07-3.064,7.37-6.846,7.37
	H567.65c-3.779,0-6.846-3.3-6.846-7.37v-41.245c0-4.071,3.066-7.37,6.846-7.37h106.691c3.781,0,6.846,3.299,6.846,7.37V165.474z"/>
<text transform="matrix(1 0 0 1 633.1516 154.7607)" fill="#231F20" font-family="'CMR10'" font-size="9.2126">estimate</text>
<g>
	<path fill="none" stroke="#231F20" stroke-width="0.5669" stroke-miterlimit="10" d="M813.072,43.853
		c0,4.677-3.644,7.334-8.098,5.905l-11.387-3.654c-4.454-1.429-11.821-1.718-16.373-0.642c0,0-30.691,7.259-40.025,7.263
		c-8.939,0.004-16.333-0.858-16.333-0.858c-4.646-0.542-8.446-4.812-8.446-9.489V31.146c0-4.677,3.827-8.504,8.504-8.504h83.654
		c4.677,0,8.504,3.827,8.504,8.504V43.853z"/>
</g>
<g>
	<path fill="#F1F1F2" d="M798.587,142.666c0.186,5.046-1.618,11.998-1.618,11.998c-0.392,1.51-1.987,2.744-3.547,2.744h-62.379
		c-1.56,0-3.651-0.979-4.649-2.178l-6.811-8.173c-0.998-1.198-1.137-3.258-0.309-4.579l6.691-10.671
		c0.828-1.321,2.781-2.401,4.341-2.401h60.904c1.56,0,3.462,1.111,4.229,2.468C795.441,131.875,798.382,137.082,798.587,142.666z"/>
	<path fill="none" stroke="#231F20" stroke-width="0.5669" stroke-miterlimit="10" d="M798.587,142.666
		c0.186,5.046-1.618,11.998-1.618,11.998c-0.392,1.51-1.987,2.744-3.547,2.744h-62.379c-1.56,0-3.651-0.979-4.649-2.178
		l-6.811-8.173c-0.998-1.198-1.137-3.258-0.309-4.579l6.691-10.671c0.828-1.321,2.781-2.401,4.341-2.401h60.904
		c1.56,0,3.462,1.111,4.229,2.468C795.441,131.875,798.382,137.082,798.587,142.666z"/>
</g>
<text transform="matrix(1 0 0 1 744.927 146.1279)" fill="#231F20" font-family="'CMR10'" font-size="11.0551">Display</text>
<text transform="matrix(1 0 0 1 747.925 92.9185)" fill="#231F20" font-family="'CMR10'" font-size="11.0551">SAVE</text>
<path fill="none" stroke="#231F20" stroke-width="0.5669" stroke-miterlimit="10" d="M814.886,95.679c0,4.071-3.039,7.37-6.789,7.37
	h-90.068c-3.75,0-6.789-3.299-6.789-7.37V82.167c0-4.069,3.039-7.37,6.789-7.37h90.068c3.75,0,6.789,3.301,6.789,7.37V95.679z"/>
<g>
	<line fill="#FFFFFF" x1="762.638" y1="126.937" x2="762.638" y2="104.836"/>
	<g>
		
			<line fill="none" stroke="#231F20" stroke-width="0.5669" stroke-miterlimit="10" x1="762.638" y1="126.937" x2="762.638" y2="107.543"/>
		<g>
			<polygon fill="#231F20" points="764.318,108.817 762.638,108.104 760.958,108.817 762.638,104.836 			"/>
		</g>
	</g>
</g>
<text transform="matrix(1 0 0 1 737.7864 38.1924)" fill="#231F20" font-family="'CMR10'" font-size="11.0551">Save Data</text>
<g>
	<g>
		<path fill="none" stroke="#231F20" stroke-width="0.5669" stroke-miterlimit="10" d="M763.15,53.927v3.878
			c0,3.118,2.551,5.669,5.669,5.669h24.809c3.118,0,5.669,2.271,5.669,5.046s0,5.046,0,5.046"/>
		<g>
			<polygon fill="#231F20" points="761.47,55.201 763.15,54.487 764.829,55.201 763.15,51.22 			"/>
		</g>
	</g>
</g>
<g>
	<line fill="#FFFFFF" x1="164.017" y1="43.486" x2="164.017" y2="65.586"/>
	<g>
		
			<line fill="none" stroke="#231F20" stroke-width="0.5669" stroke-miterlimit="10" x1="164.017" y1="43.486" x2="164.017" y2="62.878"/>
		<g>
			<polygon fill="#231F20" points="162.337,61.604 164.017,62.318 165.697,61.604 164.017,65.586 			"/>
		</g>
	</g>
</g>
<g>
	<text transform="matrix(1 0 0 1 148.635 79.6045)" fill="#231F20" font-family="'CMR10'" font-size="11.0551">DATA</text>
	<path fill="#E6E7E8" d="M204.275,101.119h-78.592l-4.291-2.624l-1.321-2.817v-9.62c0,0,56.298-0.216,90.106,0v9.988
		c0,0-0.744,1.062-1.578,2.268C207.817,99.443,204.275,101.119,204.275,101.119z"/>
	<path fill="#FFFFFF" stroke="#231F20" stroke-width="0.5669" stroke-miterlimit="10" d="M120.071,86.042h90.106H120.071z"/>
	<text transform="matrix(1 0 0 1 137.3958 96.8193)" fill="#231F20" font-family="'CMR10'" font-size="9.2126">mat-file name</text>
	<path fill="none" stroke="#231F20" stroke-width="0.5669" stroke-miterlimit="10" d="M210.177,94.349c0,3.74-3.3,6.771-7.37,6.771
		h-75.366c-4.07,0-7.37-3.03-7.37-6.771V73.635c0-3.74,3.3-6.771,7.37-6.771h75.366c4.07,0,7.37,3.03,7.37,6.771V94.349z"/>
</g>
<g>
	<path fill="#BE3629" d="M212.469,7.412L116.99,7.781c0,0-3.331,1.114-3.948,1.983c-1.293,1.819-1.893,3.749-1.893,3.749v12.877
		c0,0,67.444,0.271,107.95,0v-7.938c0,0-0.01-5.785-1.007-7.305C217.155,9.723,212.469,7.412,212.469,7.412z"/>
	<path fill="#E6E7E8" d="M212.005,41.669h-94.11l-5.139-2.625l-1.582-2.817v-9.619c0,0,67.414-0.216,107.899,0v9.989
		c0,0-0.891,1.059-1.89,2.265C216.247,39.993,212.005,41.669,212.005,41.669z"/>
	<path fill="#FFFFFF" stroke="#231F20" stroke-width="0.5669" stroke-miterlimit="10" d="M111.174,26.593h107.899H111.174z"/>
	<text transform="matrix(1 0 0 1 124.2312 20.5352)" fill="#FFFFFF" font-family="'CMR10'" font-size="11.0551">State Estimation</text>
	<text transform="matrix(1 0 0 1 129.0647 37.3701)"><tspan x="0" y="0" fill="#231F20" font-family="'CMR10'" font-size="9.2126">state</tspan><tspan x="19.475" y="0" fill="#231F20" font-family="'ArialMT'" font-size="7.3701">_</tspan><tspan x="23.574" y="0" fill="#231F20" font-family="'CMR10'" font-size="9.2126">etimation.m</tspan></text>
	<path fill="none" stroke="#231F20" stroke-width="0.5669" stroke-miterlimit="10" d="M219.073,34.299c0,4.069-3.299,7.37-7.37,7.37
		h-93.159c-4.071,0-7.37-3.301-7.37-7.37V14.783c0-4.07,3.299-7.371,7.37-7.371h93.159c4.071,0,7.37,3.301,7.37,7.371V34.299z"/>
</g>
<g>
	<line fill="#FFFFFF" x1="164.017" y1="103.6" x2="164.017" y2="125.699"/>
	<g>
		
			<line fill="none" stroke="#231F20" stroke-width="0.5669" stroke-miterlimit="10" x1="164.017" y1="103.6" x2="164.017" y2="122.992"/>
		<g>
			<polygon fill="#231F20" points="162.337,121.718 164.017,122.432 165.697,121.718 164.017,125.699 			"/>
		</g>
	</g>
</g>
<g>
	<path fill="#BE3629" d="M199.87,128.521l-79.697,0.292c0,0-2.78,0.896-3.295,2.453c-0.464,1.401-1.189,1.271-1.445,2.767
		c-0.341,1.985-0.135,5.432-0.135,5.432l-0.001,18.28c0,0,2.534,4.576,5.453,4.833c1.604,0.141,5.079,0.216,5.079,0.216h63.344
		l11.164-0.316c0,0,3.13-1.88,4.886-4.233l0.181-9.923c0,0,0.351-12.691-0.483-15.415
		C204.138,130.352,199.87,128.521,199.87,128.521z"/>
	<text transform="matrix(1 0 0 1 125.7786 148.9316)" fill="#FFFFFF" font-family="'CMR10'" font-size="11.0551">Measurements</text>
	<path fill="none" stroke="#231F20" stroke-width="0.5669" stroke-miterlimit="10" d="M205.404,156.023c0,3.74-3.3,6.771-7.37,6.771
		h-75.366c-4.07,0-7.37-3.03-7.37-6.771V135.31c0-3.739,3.3-6.771,7.37-6.771h75.366c4.07,0,7.37,3.032,7.37,6.771V156.023z"/>
</g>
<g>
	<line fill="#FFFFFF" x1="484.948" y1="118.729" x2="484.948" y2="128.27"/>
	<g>
		
			<line fill="none" stroke="#231F20" stroke-width="0.5669" stroke-miterlimit="10" x1="484.948" y1="118.729" x2="484.948" y2="125.562"/>
		<g>
			<polygon fill="#231F20" points="483.269,124.288 484.948,125.002 486.628,124.288 484.948,128.27 			"/>
		</g>
	</g>
</g>
<g>
	<g>
		<g>
			<path fill="none" stroke="#231F20" stroke-width="0.5669" stroke-miterlimit="10" d="M150.175,167.811v16.237
				c0,3.118-2.551,5.669-5.669,5.669l-58.537-0.005c-3.118,0-5.669,2.551-5.669,5.669v14.603"/>
			<g>
				<polygon fill="#231F20" points="148.495,169.085 150.175,168.371 151.855,169.085 150.175,165.104 				"/>
			</g>
		</g>
	</g>
	<g>
		<path fill="#E6E7E8" d="M336.994,282.295c0,4.062-4.245,7.362-9.486,7.362h-90.049c-3.108,0-9.486,0-9.486,0s0-5.711,0-7.362
			V226.5c0-2.014,0-7.371,0-7.371s6.839,0,9.486,0h90.049c5.241,0,9.486,3.301,9.486,7.371V282.295z"/>
		<path fill="#FFFFFF" stroke="#231F20" stroke-width="0.5669" stroke-miterlimit="10" d="M227.973,219.129v70.528V219.129z"/>
		
			<line fill="#FFFFFF" stroke="#231F20" stroke-width="0.5669" stroke-miterlimit="10" x1="227.851" y1="234.252" x2="336.692" y2="234.252"/>
		<text transform="matrix(1 0 0 1 234.3845 230.2031)" fill="#231F20" font-family="'CMR10'" font-size="9.2126">pmuRedundancy, value</text>
		
			<line fill="#FFFFFF" stroke="#231F20" stroke-width="0.5669" stroke-miterlimit="10" x1="227.851" y1="275.656" x2="336.692" y2="275.656"/>
		
			<line fill="#FFFFFF" stroke="#231F20" stroke-width="0.5669" stroke-miterlimit="10" x1="227.851" y1="261.791" x2="336.692" y2="261.791"/>
		<text transform="matrix(1 0 0 1 181.387 257.6621)" fill="#231F20" font-family="'CMR10'" font-size="11.0551">SET</text>
		
			<line fill="#FFFFFF" stroke="#231F20" stroke-width="0.5669" stroke-miterlimit="10" x1="227.851" y1="248.854" x2="336.692" y2="248.854"/>
		<text transform="matrix(1 0 0 1 234.384 244.4844)" fill="#231F20" font-family="'CMR10'" font-size="9.2126">pmuDevice, value</text>
		<text transform="matrix(1 0 0 1 234.3845 258.373)" fill="#231F20" font-family="'CMR10'" font-size="9.2126">pmuOptimal</text>
		<text transform="matrix(1 0 0 1 234.384 271.8037)" fill="#231F20" font-family="'CMR10'" font-size="9.2126">legRedundancy, value</text>
		<text transform="matrix(1 0 0 1 234.3845 286.2363)" fill="#231F20" font-family="'CMR10'" font-size="9.2126">legDevice, value</text>
		<path fill="none" stroke="#231F20" stroke-width="0.5669" stroke-miterlimit="10" d="M336.994,282.295
			c0,4.062-3.299,7.362-7.37,7.362h-153.46c-4.071,0-7.37-3.301-7.37-7.362V226.5c0-4.07,3.299-7.371,7.37-7.371h153.46
			c4.071,0,7.37,3.301,7.37,7.371V282.295z"/>
	</g>
	<g>
		<g>
			<path fill="none" stroke="#231F20" stroke-width="0.5669" stroke-miterlimit="10" d="M170.535,167.811v16.237
				c0,3.118,2.551,5.669,5.669,5.669l63.849-0.005c3.118,0,5.669,2.551,5.669,5.669v21.601"/>
			<g>
				<polygon fill="#231F20" points="168.856,169.085 170.535,168.371 172.215,169.085 170.535,165.104 				"/>
			</g>
		</g>
	</g>
	<g>
		<path fill="#E6E7E8" d="M160.332,289.251c0,4.862-3.686,7.338-8.234,7.338H73.93c-2.699,0-8.234,0-8.234,0s0-6.833,0-8.811
			v-66.763c0-2.408,0-8.819,0-8.819s5.937,0,8.234,0h78.168c4.549,0,8.234,2.477,8.234,7.347V289.251z"/>
		<path fill="#FFFFFF" stroke="#231F20" stroke-width="0.5669" stroke-miterlimit="10" d="M66.064,212.196v84.393V212.196z"/>
		
			<line fill="#FFFFFF" stroke="#231F20" stroke-width="0.5669" stroke-miterlimit="10" x1="65.696" y1="227.319" x2="160.058" y2="227.319"/>
		<text transform="matrix(1 0 0 1 71.5686 223.2705)" fill="#231F20" font-family="'CMR10'" font-size="9.2126">pmuUnique, value</text>
		
			<line fill="#FFFFFF" stroke="#231F20" stroke-width="0.5669" stroke-miterlimit="10" x1="65.696" y1="268.724" x2="160.058" y2="268.724"/>
		
			<line fill="#FFFFFF" stroke="#231F20" stroke-width="0.5669" stroke-miterlimit="10" x1="65.696" y1="254.857" x2="160.058" y2="254.857"/>
		<text transform="matrix(1 0 0 1 -2.5623 257.6621)" fill="#231F20" font-family="'CMR10'" font-size="11.0551">VARIANCE</text>
		
			<line fill="#FFFFFF" stroke="#231F20" stroke-width="0.5669" stroke-miterlimit="10" x1="65.696" y1="241.921" x2="160.058" y2="241.921"/>
		<text transform="matrix(1 0 0 1 71.5681 237.5518)" fill="#231F20" font-family="'CMR10'" font-size="9.2126">pmuRandom, value</text>
		<text transform="matrix(1 0 0 1 71.5691 251.4404)" fill="#231F20" font-family="'CMR10'" font-size="9.2126">pmuType, value</text>
		<text transform="matrix(1 0 0 1 71.5691 264.8701)" fill="#231F20" font-family="'CMR10'" font-size="9.2126">legUnique, value</text>
		<text transform="matrix(1 0 0 1 71.5691 279.3037)" fill="#231F20" font-family="'CMR10'" font-size="9.2126">legRandom, value</text>
		<text transform="matrix(1 0 0 1 71.5686 292.9639)" fill="#231F20" font-family="'CMR10'" font-size="9.2126">legType, value</text>
		
			<line fill="#FFFFFF" stroke="#231F20" stroke-width="0.5669" stroke-miterlimit="10" x1="65.879" y1="282.724" x2="160.242" y2="282.724"/>
		<path fill="none" stroke="#231F20" stroke-width="0.5669" stroke-miterlimit="10" d="M160.242,289.22c0,4.07-3.3,7.369-7.37,7.369
			H-0.498c-4.07,0-7.37-3.299-7.37-7.369v-69.653c0-4.07,3.3-7.37,7.37-7.37h153.37c4.07,0,7.37,3.3,7.37,7.37V289.22z"/>
	</g>
</g>
<g>
	<text transform="matrix(1 0 0 1 549.6106 37.9258)" fill="#231F20" font-family="'CMR10'" font-size="11.0551">BAD</text>
	<path fill="#E6E7E8" d="M601.021,59.488h-78.59l-4.291-2.624l-1.322-2.817v-9.62c0,0,56.297-0.216,90.107,0v9.988
		c0,0-0.744,1.062-1.58,2.268C604.564,57.813,601.021,59.488,601.021,59.488z"/>
	<path fill="#FFFFFF" stroke="#231F20" stroke-width="0.5669" stroke-miterlimit="10" d="M516.818,44.411h90.107H516.818z"/>
	<text transform="matrix(1 0 0 1 541.053 55.1406)" fill="#231F20" font-family="'CMR10'" font-size="9.2126">bad, value</text>
	<path fill="none" stroke="#231F20" stroke-width="0.5669" stroke-miterlimit="10" d="M606.925,52.718
		c0,3.74-3.301,6.771-7.371,6.771h-75.365c-4.07,0-7.371-3.03-7.371-6.771V32.004c0-3.739,3.301-6.77,7.371-6.77h75.365
		c4.07,0,7.371,3.03,7.371,6.77V52.718z"/>
</g>
<g>
	<g>
		<path fill="none" stroke="#231F20" stroke-width="0.5669" stroke-miterlimit="10" d="M516.585,42.361h-25.954
			c-3.118,0-5.669,2.551-5.669,5.669V82.81"/>
		<g>
			<polygon fill="#231F20" points="483.282,81.536 484.962,82.25 486.642,81.536 484.962,85.518 			"/>
		</g>
	</g>
</g>
<g>
	<line fill="#FFFFFF" x1="484.948" y1="161.327" x2="484.948" y2="170.867"/>
	<g>
		
			<line fill="none" stroke="#231F20" stroke-width="0.5669" stroke-miterlimit="10" x1="484.948" y1="161.327" x2="484.948" y2="168.16"/>
		<g>
			<polygon fill="#231F20" points="483.269,166.886 484.948,167.6 486.628,166.886 484.948,170.867 			"/>
		</g>
	</g>
</g>
<text transform="matrix(1 0 0 1 308.532 133.7993)" fill="#231F20" font-family="'CMR10'" font-size="9.2126">nonlinear</text>
<text transform="matrix(1 0 0 1 308.532 147.938)" fill="#231F20" font-family="'CMR10'" font-size="9.2126">dc</text>
<text transform="matrix(1 0 0 1 308.5325 161.3486)" fill="#231F20" font-family="'CMR10'" font-size="9.2126">pmu</text>
<path fill="#FFFFFF" stroke="#231F20" stroke-width="0.5669" stroke-miterlimit="10" d="M349.823,123.351v42.747V123.351z"/>
<path fill="none" stroke="#231F20" stroke-width="0.5669" stroke-miterlimit="10" d="M377.924,158.727c0,4.071-3.3,7.369-7.37,7.369
	H241.387c-4.07,0-7.37-3.298-7.37-7.369v-28.015c0-4.07,3.3-7.37,7.37-7.37h129.167c4.07,0,7.37,3.3,7.37,7.37V158.727z"/>
</svg>
