<?xml version="1.0" encoding="utf-8"?>
<!-- Generator: Adobe Illustrator 16.0.0, SVG Export Plug-In . SVG Version: 6.00 Build 0)  -->
<!DOCTYPE svg PUBLIC "-//W3C//DTD SVG 1.1//EN" "http://www.w3.org/Graphics/SVG/1.1/DTD/svg11.dtd">
<svg version="1.1" id="Layer_1" xmlns="http://www.w3.org/2000/svg" xmlns:xlink="http://www.w3.org/1999/xlink" x="0px" y="0px"
	 width="549px" height="231px" viewBox="0 0 549 231" enable-background="new 0 0 549 231" xml:space="preserve">
<path fill="#E6E7E8" d="M382.887,202.185c0,3.133-2.257,5.67-5.04,5.67h-38.42c-1.604,0-5.04,0-5.04,0s0-4.342,0-5.67v-10.396
	c0-1.551,0-5.669,0-5.669s3.634,0,5.04,0h38.42c2.783,0,5.04,2.536,5.04,5.669V202.185L382.887,202.185z"/>
<g>
	<line fill="none" x1="91.411" y1="114.475" x2="108.411" y2="114.475"/>
	<g>
		
			<line fill="none" stroke="#231F20" stroke-width="0.5669" stroke-miterlimit="10" x1="91.411" y1="114.475" x2="105.704" y2="114.475"/>
		<g>
			<polygon fill="#231F20" points="104.429,116.154 105.143,114.475 104.429,112.796 108.411,114.475 			"/>
		</g>
	</g>
</g>
<g>
	<line fill="none" x1="54.546" y1="36.508" x2="54.546" y2="53.508"/>
	<g>
		
			<line fill="none" stroke="#231F20" stroke-width="0.5669" stroke-miterlimit="10" x1="54.546" y1="36.508" x2="54.546" y2="50.8"/>
		<g>
			<polygon fill="#231F20" points="52.866,49.526 54.546,50.24 56.225,49.526 54.546,53.508 			"/>
		</g>
	</g>
</g>
<g>
	<text transform="matrix(1 0 0 1 42.6941 64.292)" fill="#231F20" font-family="'CMR10'" font-size="8.5039">DATA</text>
	<path fill="#E6E7E8" d="M85.512,80.841H25.057l-3.301-2.019l-1.019-2.167v-7.4c0,0,43.308-0.166,69.313,0v7.684
		c0,0-0.572,0.815-1.214,1.743C88.237,79.552,85.512,80.841,85.512,80.841z"/>
	<path fill="#FFFFFF" stroke="#231F20" stroke-width="0.5669" stroke-miterlimit="10" d="M20.741,69.244h69.313H20.741z"/>
	<text transform="matrix(1 0 0 1 34.0486 77.5332)" fill="#231F20" font-family="'CMR10'" font-size="7.0866">mat-file name</text>
	<path fill="none" stroke="#231F20" stroke-width="0.5669" stroke-miterlimit="10" d="M90.052,75.633
		c0,2.877-2.538,5.208-5.669,5.208H26.41c-3.133,0-5.669-2.332-5.669-5.208V59.699c0-2.877,2.536-5.208,5.669-5.208h57.975
		c3.131,0,5.669,2.332,5.669,5.208L90.052,75.633L90.052,75.633z"/>
</g>
<path fill="#E6E7E8" d="M198.914,129.229c-1.063,1.101-3.063,1.596-3.063,1.596h-31.275V98.181c0,0,16.607-0.226,30.229-0.246
	c1.661-0.002,2.204,0.716,3.449,0.982c0.677,0.145,2.388,3.018,2.395,6.064c0.015,6.372-0.066,11.169-0.047,14.826
	c0.018,2.868-0.163,3.438-0.087,5.338C200.564,126.406,200.452,127.638,198.914,129.229z"/>
<line fill="none" stroke="#231F20" stroke-width="0.5669" stroke-miterlimit="10" x1="164.827" y1="120.24" x2="200.884" y2="120.24"/>
<path fill="#FFFFFF" stroke="#231F20" stroke-width="0.5669" stroke-miterlimit="10" d="M164.564,97.942v32.882V97.942z"/>
<text transform="matrix(1 0 0 1 116.428 117.6309)" fill="#231F20" font-family="'CMR10'" font-size="8.5039">METHOD</text>
<line fill="none" stroke="#231F20" stroke-width="0.5669" stroke-miterlimit="10" x1="164.564" y1="109.076" x2="200.664" y2="109.076"/>
<path fill="none" stroke="#231F20" stroke-width="0.5669" stroke-miterlimit="10" d="M200.748,125.154
	c0,3.132-2.602,5.668-5.81,5.668h-79.495c-3.208,0-5.808-2.536-5.808-5.668v-21.529c0-3.131,2.6-5.669,5.808-5.669h79.496
	c3.208,0,5.81,2.538,5.81,5.669L200.748,125.154L200.748,125.154z"/>
<g>
	<g>
		<path fill="none" stroke="#231F20" stroke-width="0.5669" stroke-miterlimit="10" d="M226.293,81.617h-6.181
			c-3.116,0-5.669,2.551-5.669,5.669v12.09c0,3.118-2.551,5.669-5.669,5.669h-6.316"/>
		<g>
			<polygon fill="#231F20" points="225.018,79.937 225.731,81.617 225.018,83.296 229,81.617 			"/>
		</g>
	</g>
</g>
<g>
	<g>
		<path fill="none" stroke="#231F20" stroke-width="0.5669" stroke-miterlimit="10" d="M226.293,147.883h-6.181
			c-3.116,0-5.669-2.552-5.669-5.669v-12.09c0-3.119-2.551-5.67-5.669-5.67h-6.316"/>
		<g>
			<polygon fill="#231F20" points="225.018,146.203 225.731,147.883 225.018,149.563 229,147.883 			"/>
		</g>
	</g>
</g>
<text transform="matrix(1 0 0 1 250.5125 79.6299)" fill="#231F20" font-family="'CMR10'" font-size="8.5039">Non-linear</text>
<text transform="matrix(1 0 0 1 238.532 89.834)" fill="#231F20" font-family="'CMR10'" font-size="8.5039">State Estimation</text>
<path fill="none" stroke="#231F20" stroke-width="0.5669" stroke-miterlimit="10" d="M309.852,87.839
	c0,3.131-2.536,5.669-5.669,5.669h-68.375c-3.131,0-5.669-2.538-5.669-5.669v-12.38c0-3.131,2.538-5.669,5.669-5.669h68.375
	c3.133,0,5.669,2.538,5.669,5.669V87.839z"/>
<text transform="matrix(1 0 0 1 263.6819 112.2275)" fill="#231F20" font-family="'CMR10'" font-size="8.5039">DC</text>
<text transform="matrix(1 0 0 1 238.5315 122.4326)" fill="#231F20" font-family="'CMR10'" font-size="8.5039">State Estimation</text>
<path fill="none" stroke="#231F20" stroke-width="0.5669" stroke-miterlimit="10" d="M309.852,120.462
	c0,3.131-2.536,5.669-5.669,5.669h-68.375c-3.131,0-5.669-2.538-5.669-5.669v-12.381c0-3.131,2.538-5.669,5.669-5.669h68.375
	c3.133,0,5.669,2.538,5.669,5.669V120.462z"/>
<text transform="matrix(1 0 0 1 260.0203 145.1104)" fill="#231F20" font-family="'CMR10'" font-size="8.5039">PMU</text>
<text transform="matrix(1 0 0 1 238.5315 155.3154)" fill="#231F20" font-family="'CMR10'" font-size="8.5039">State Estimation</text>
<path fill="none" stroke="#231F20" stroke-width="0.5669" stroke-miterlimit="10" d="M309.852,153.341
	c0,3.132-2.536,5.67-5.669,5.67h-68.375c-3.131,0-5.669-2.538-5.669-5.67v-12.38c0-3.132,2.538-5.669,5.669-5.669h68.375
	c3.133,0,5.669,2.537,5.669,5.669V153.341z"/>
<g>
	<line fill="none" x1="202.459" y1="114.475" x2="229.002" y2="114.475"/>
	<g>
		
			<line fill="none" stroke="#231F20" stroke-width="0.5669" stroke-miterlimit="10" x1="202.459" y1="114.475" x2="226.294" y2="114.475"/>
		<g>
			<polygon fill="#231F20" points="225.019,116.154 225.733,114.475 225.019,112.796 229.002,114.475 			"/>
		</g>
	</g>
</g>
<path fill="#E6E7E8" d="M243.873,54.487l-2.607,2.186l-2.122,0.508l-24.869-0.038l-26.564,0.151V13.991
	c0,0,27.438,0.057,40.882,0.125c11.433,0.058,11.053-0.342,14.17,1.509c1.032,0.613,1.894,3.673,1.915,6.416
	c0.048,6.69-0.055,15.136,0,20.399C244.761,51.026,243.873,54.487,243.873,54.487z"/>
<text transform="matrix(1 0 0 1 191.4822 22.0977)" fill="#231F20" font-family="'CMR10'" font-size="7.0866">flat, value</text>
<text transform="matrix(1 0 0 1 191.4822 32.7686)" fill="#231F20" font-family="'CMR10'" font-size="7.0866">warm</text>
<text transform="matrix(1 0 0 1 191.4822 54.5166)" fill="#231F20" font-family="'CMR10'" font-size="7.0866">random, value</text>
<path fill="#FFFFFF" stroke="#231F20" stroke-width="0.5669" stroke-miterlimit="10" d="M187.711,14.264v42.917V14.264z"/>
<text transform="matrix(1 0 0 1 151.1018 38.1631)" fill="#231F20" font-family="'CMR10'" font-size="8.5039">START</text>
<line fill="none" stroke="#231F20" stroke-width="0.5669" stroke-miterlimit="10" x1="187.71" y1="46.515" x2="244.587" y2="46.515"/>
<line fill="none" stroke="#231F20" stroke-width="0.5669" stroke-miterlimit="10" x1="187.71" y1="35.848" x2="244.587" y2="35.848"/>
<line fill="none" stroke="#231F20" stroke-width="0.5669" stroke-miterlimit="10" x1="187.756" y1="24.782" x2="244.633" y2="24.782"/>
<path fill="none" stroke="#231F20" stroke-width="0.5669" stroke-miterlimit="10" d="M244.587,51.512
	c0,3.131-2.538,5.669-5.669,5.669h-88.354c-3.131,0-5.669-2.538-5.669-5.669V19.785c0-3.131,2.538-5.669,5.669-5.669h88.354
	c3.131,0,5.669,2.538,5.669,5.669V51.512L244.587,51.512z"/>
<g>
	<g>
		<path fill="none" stroke="#231F20" stroke-width="0.5669" stroke-miterlimit="10" d="M245.853,35.643h18.692
			c3.119,0,5.669,2.551,5.669,5.669v24.82"/>
		<g>
			<polygon fill="#231F20" points="268.535,64.859 270.215,65.572 271.894,64.859 270.215,68.84 			"/>
		</g>
	</g>
</g>
<g>
	<g>
		<path fill="none" stroke="#231F20" stroke-width="0.5669" stroke-miterlimit="10" d="M335.134,105.046h-6.154
			c-3.118,0-5.669-2.551-5.669-5.669v-12.09c0-3.118-2.551-5.669-5.669-5.669h-6.297"/>
		<g>
			<polygon fill="#231F20" points="333.859,103.366 334.574,105.046 333.859,106.725 337.842,105.046 			"/>
		</g>
	</g>
</g>
<g>
	<g>
		<path fill="none" stroke="#231F20" stroke-width="0.5669" stroke-miterlimit="10" d="M335.134,124.454h-6.154
			c-3.118,0-5.669,2.551-5.669,5.67v12.09c0,3.117-2.551,5.669-5.669,5.669h-6.297"/>
		<g>
			<polygon fill="#231F20" points="333.859,122.775 334.574,124.454 333.859,126.134 337.842,124.454 			"/>
		</g>
	</g>
</g>
<g>
	<line fill="none" x1="311.346" y1="114.475" x2="337.843" y2="114.475"/>
	<g>
		
			<line fill="none" stroke="#231F20" stroke-width="0.5669" stroke-miterlimit="10" x1="311.346" y1="114.475" x2="335.136" y2="114.475"/>
		<g>
			<polygon fill="#231F20" points="333.86,116.154 334.575,114.475 333.86,112.796 337.843,114.475 			"/>
		</g>
	</g>
</g>
<g>
	<g>
		<path fill="none" stroke="#231F20" stroke-width="0.5669" stroke-miterlimit="10" d="M458.978,112.01h-6.18
			c-3.118,0-5.669-2.551-5.669-5.669v-1.305c0-3.118-2.551-5.669-5.669-5.669h-6.317"/>
		<g>
			<polygon fill="#231F20" points="457.705,110.331 458.419,112.01 457.705,113.69 461.687,112.01 			"/>
		</g>
	</g>
</g>
<g>
	<g>
		<path fill="none" stroke="#231F20" stroke-width="0.5669" stroke-miterlimit="10" d="M458.978,116.956h-6.18
			c-3.118,0-5.669,2.551-5.669,5.669v1.305c0,3.118-2.551,5.669-5.669,5.669h-6.317"/>
		<g>
			<polygon fill="#231F20" points="457.705,115.276 458.419,116.956 457.705,118.636 461.687,116.956 			"/>
		</g>
	</g>
</g>
<g>
	<g>
		<path fill="none" stroke="#231F20" stroke-width="0.5669" stroke-miterlimit="10" d="M316.359,181.923V125.91
			c0-3.118-1.229-5.67-2.731-5.67s-2.729,0-2.729,0"/>
		<g>
			<polygon fill="#231F20" points="318.038,180.649 316.359,181.362 314.679,180.649 316.359,184.631 			"/>
		</g>
	</g>
</g>
<g>
	<g>
		<path fill="none" stroke="#231F20" stroke-width="0.5669" stroke-miterlimit="10" d="M269.717,160.674v30.358
			c0,3.119,2.551,5.67,5.668,5.67h4.233"/>
		<g>
			<polygon fill="#231F20" points="278.347,198.382 279.059,196.702 278.347,195.022 282.323,196.702 			"/>
		</g>
	</g>
</g>
<line fill="none" stroke="#231F20" stroke-width="0.5669" stroke-miterlimit="10" x1="334.387" y1="196.985" x2="382.887" y2="196.985"/>
<text transform="matrix(1 0 0 1 338.1897 193.8877)" fill="#231F20" font-family="'CMR10'" font-size="7.0866">export</text>
<text transform="matrix(1 0 0 1 338.1897 205.0684)" fill="#231F20" font-family="'CMR10'" font-size="7.0866">exportSlack</text>
<path fill="#FFFFFF" stroke="#231F20" stroke-width="0.5669" stroke-miterlimit="10" d="M334.396,186.116v21.738V186.116z"/>
<text transform="matrix(1 0 0 1 290.218 200.0654)" fill="#231F20" font-family="'CMR10'" font-size="8.5039">EXPORT</text>
<g>
	<line fill="none" x1="384.613" y1="197.005" x2="401.613" y2="197.005"/>
	<g>
		
			<line fill="none" stroke="#231F20" stroke-width="0.5669" stroke-miterlimit="10" x1="384.613" y1="197.005" x2="398.907" y2="197.005"/>
		<g>
			<polygon fill="#231F20" points="397.633,198.685 398.347,197.005 397.633,195.325 401.613,197.005 			"/>
		</g>
	</g>
</g>
<g>
	<path fill="none" stroke="#231F20" stroke-width="0.5669" stroke-miterlimit="10" d="M489.352,199.563
		c0,4.678-3.68,7.452-8.177,6.166l-7.462-2.133c-4.497-1.285-11.921-1.549-16.498-0.584c0,0-25.323,5.336-33.383,5.338
		c-7.719,0.004-12.938-0.539-12.938-0.539c-4.649-0.481-8.458-4.705-8.458-9.383v-4.715c0-4.678,3.827-8.504,8.504-8.504h69.906
		c4.677,0,8.504,3.826,8.504,8.504L489.352,199.563L489.352,199.563z"/>
</g>
<text transform="matrix(1 0 0 1 408.2278 197.1709)" fill="#231F20" font-family="'CMR10'" font-size="8.5039">Export Matrix Form</text>
<text transform="matrix(1 0 0 1 168.2424 105.9795)" fill="#231F20" font-family="'CMR10'" font-size="7.0866">nonlinear</text>
<text transform="matrix(1 0 0 1 168.2424 116.8555)" fill="#231F20" font-family="'CMR10'" font-size="7.0866">dc</text>
<text transform="matrix(1 0 0 1 168.2424 127.1709)" fill="#231F20" font-family="'CMR10'" font-size="7.0866">pmu</text>
<text transform="matrix(1 0 0 1 191.4822 43.2715)" fill="#231F20" font-family="'CMR10'" font-size="7.0866">exact</text>
<path fill="none" stroke="#231F20" stroke-width="0.5669" stroke-miterlimit="10" d="M382.887,202.185
	c0,3.133-2.392,5.67-5.342,5.67h-88.329c-2.95,0-5.342-2.537-5.342-5.67v-10.396c0-3.133,2.392-5.669,5.342-5.669h88.329
	c2.95,0,5.342,2.536,5.342,5.669V202.185z"/>
<path fill="#E6E7E8" d="M433.418,133.318l-1.907,2.187l-1.549,0.509l-18.185-0.038l-19.423,0.151V92.823
	c0,0,20.063,0.057,29.891,0.125c8.357,0.058,8.081-0.342,10.358,1.509c0.755,0.613,1.387,3.673,1.399,6.416
	c0.036,6.69-0.04,15.136,0.001,20.398C434.066,129.859,433.418,133.318,433.418,133.318z"/>
<text transform="matrix(1 0 0 1 396.9739 100.9307)" fill="#231F20" font-family="'CMR10'" font-size="7.0866">bus</text>
<text transform="matrix(1 0 0 1 396.9739 111.6016)" fill="#231F20" font-family="'CMR10'" font-size="7.0866">branch</text>
<text transform="matrix(1 0 0 1 396.9749 133.3486)" fill="#231F20" font-family="'CMR10'" font-size="7.0866">error</text>
<path fill="#FFFFFF" stroke="#231F20" stroke-width="0.5669" stroke-miterlimit="10" d="M392.348,93.096v42.917V93.096z"/>
<text transform="matrix(1 0 0 1 346.9768 116.9951)" fill="#231F20" font-family="'CMR10'" font-size="8.5039">DISPLAY</text>
<line fill="none" stroke="#231F20" stroke-width="0.5669" stroke-miterlimit="10" x1="392.641" y1="125.347" x2="433.925" y2="125.347"/>
<line fill="none" stroke="#231F20" stroke-width="0.5669" stroke-miterlimit="10" x1="392.641" y1="114.681" x2="433.925" y2="114.681"/>
<line fill="none" stroke="#231F20" stroke-width="0.5669" stroke-miterlimit="10" x1="392.675" y1="103.614" x2="433.958" y2="103.614"/>
<path fill="none" stroke="#231F20" stroke-width="0.5669" stroke-miterlimit="10" d="M433.919,130.345
	c0,3.132-2.357,5.669-5.269,5.669h-82.067c-2.908,0-5.269-2.537-5.269-5.669V98.617c0-3.131,2.358-5.669,5.269-5.669h82.067
	c2.909,0,5.269,2.538,5.269,5.669V130.345z"/>
<text transform="matrix(1 0 0 1 396.9739 122.1035)" fill="#231F20" font-family="'CMR10'" font-size="7.0866">estimate</text>
<g>
	<path fill="none" stroke="#231F20" stroke-width="0.5669" stroke-miterlimit="10" d="M535.368,34.827
		c0,4.677-3.646,7.334-8.099,5.905l-5.021-1.611c-4.453-1.429-11.82-1.718-16.372-0.642c0,0-21.699,5.132-28.879,5.135
		c-6.877,0.003-10.614-0.433-10.614-0.433c-4.646-0.542-8.446-4.812-8.446-9.489v-4.715c0-4.677,3.827-8.504,8.504-8.504h60.425
		c4.678,0,8.505,3.827,8.505,8.504L535.368,34.827L535.368,34.827z"/>
</g>
<g>
	<path fill="#F1F1F2" d="M524.228,112.8c0.145,3.881-1.081,8.597-1.081,8.597c-0.392,1.508-1.985,2.743-3.547,2.743h-46.676
		c-1.56,0-3.651-0.979-4.649-2.178l-4.398-5.283c-0.998-1.198-1.137-3.258-0.311-4.579l4.451-7.099
		c0.828-1.321,2.781-2.401,4.341-2.401h45.541c1.562,0,3.463,1.11,4.229,2.468C522.128,105.068,524.068,108.504,524.228,112.8z"/>
	<path fill="none" stroke="#231F20" stroke-width="0.5669" stroke-miterlimit="10" d="M524.228,112.8
		c0.145,3.881-1.081,8.597-1.081,8.597c-0.392,1.508-1.985,2.743-3.547,2.743h-46.676c-1.56,0-3.651-0.979-4.649-2.178l-4.398-5.283
		c-0.998-1.198-1.137-3.258-0.311-4.579l4.451-7.099c0.828-1.321,2.781-2.401,4.341-2.401h45.541c1.562,0,3.463,1.11,4.229,2.468
		C522.128,105.068,524.068,108.504,524.228,112.8z"/>
</g>
<text transform="matrix(1 0 0 1 482.9563 115.4639)" fill="#231F20" font-family="'CMR10'" font-size="8.5039">Display</text>
<text transform="matrix(1 0 0 1 485.262 74.5322)" fill="#231F20" font-family="'CMR10'" font-size="8.5039">SAVE</text>
<path fill="none" stroke="#231F20" stroke-width="0.5669" stroke-miterlimit="10" d="M536.765,76.656
	c0,3.131-2.338,5.669-5.223,5.669h-69.283c-2.885,0-5.223-2.538-5.223-5.669V66.262c0-3.131,2.338-5.669,5.223-5.669h69.283
	c2.885,0,5.223,2.539,5.223,5.669V76.656z"/>
<g>
	<line fill="none" x1="496.573" y1="100.7" x2="496.573" y2="83.7"/>
	<g>
		
			<line fill="none" stroke="#231F20" stroke-width="0.5669" stroke-miterlimit="10" x1="496.573" y1="100.7" x2="496.573" y2="86.407"/>
		<g>
			<polygon fill="#231F20" points="498.253,87.681 496.573,86.967 494.894,87.681 496.573,83.7 			"/>
		</g>
	</g>
</g>
<text transform="matrix(1 0 0 1 477.4612 32.4355)" fill="#231F20" font-family="'CMR10'" font-size="8.5039">Save Data</text>
<g>
	<g>
		<path fill="none" stroke="#231F20" stroke-width="0.5669" stroke-miterlimit="10" d="M496.968,45.164c0,0.61,0,1.291,0,2.007
			c0,2.593,2.551,4.714,5.669,4.714l16.466-0.001c3.118,0,5.669,1.747,5.669,3.882c0,2.135,0,3.882,0,3.882"/>
		<g>
			<polygon fill="#231F20" points="495.288,46.439 496.968,45.725 498.646,46.439 496.968,42.457 			"/>
		</g>
	</g>
</g>
<g>
	<path fill="#BE3629" d="M91.816,8.759L18.371,9.043c0,0-2.563,0.857-3.037,1.525c-0.995,1.399-1.456,2.884-1.456,2.884v9.905
		c0,0,51.88,0.209,83.038,0v-6.106c0,0-0.007-4.45-0.774-5.619C95.421,10.536,91.816,8.759,91.816,8.759z"/>
	<path fill="#E6E7E8" d="M91.46,35.11H19.066l-3.952-2.019l-1.217-2.167v-7.4c0,0,51.857-0.166,83,0v7.684
		c0,0-0.685,0.815-1.454,1.743C94.722,33.821,91.46,35.11,91.46,35.11z"/>
	<path fill="#FFFFFF" stroke="#231F20" stroke-width="0.5669" stroke-miterlimit="10" d="M13.896,23.512h83H13.896z"/>
	<text transform="matrix(1 0 0 1 23.9221 18.8525)" fill="#FFFFFF" font-family="'CMR10'" font-size="8.5039">State Estimation</text>
	<text transform="matrix(1 0 0 1 27.6394 31.8037)" fill="#231F20" font-family="'CMR10'" font-size="7.0866">state</text>
	<text transform="matrix(1 0 0 1 42.6199 31.8037)" fill="#231F20" font-family="'ArialMT'" font-size="5.6693">_</text>
	<text transform="matrix(1 0 0 1 45.7732 31.8037)" fill="#231F20" font-family="'CMR10'" font-size="7.0866">etimation.m</text>
	<path fill="none" stroke="#231F20" stroke-width="0.5669" stroke-miterlimit="10" d="M96.896,29.441
		c0,3.131-2.538,5.669-5.669,5.669H19.566c-3.131,0-5.669-2.538-5.669-5.669V14.429c0-3.131,2.538-5.669,5.669-5.669h71.661
		c3.131,0,5.669,2.538,5.669,5.669V29.441z"/>
</g>
<g>
	<path fill="#BE3629" d="M85.793,101.443l-61.307,0.225c0,0-2.139,0.688-2.533,1.887c-0.355,1.078-0.914,0.978-1.111,2.128
		c-0.262,1.527-0.104,4.179-0.104,4.179v14.062c0,0,1.949,3.521,4.194,3.719c1.233,0.107,3.907,0.166,3.907,0.166h48.725
		l8.588-0.244c0,0,2.407-1.445,3.761-3.256l0.139-7.634c0,0,0.27-9.763-0.373-11.857C89.074,102.851,85.793,101.443,85.793,101.443z
		"/>
	<text transform="matrix(1 0 0 1 28.7737 117.1602)" fill="#FFFFFF" font-family="'CMR10'" font-size="8.5039">Measurements</text>
	<path fill="none" stroke="#231F20" stroke-width="0.5669" stroke-miterlimit="10" d="M90.049,122.599
		c0,2.878-2.539,5.208-5.67,5.208H26.405c-3.132,0-5.669-2.33-5.669-5.208v-15.934c0-2.877,2.537-5.209,5.669-5.209h57.976
		c3.131,0,5.67,2.332,5.67,5.209L90.049,122.599L90.049,122.599z"/>
</g>
<g>
	<line fill="none" x1="54.546" y1="82.75" x2="54.546" y2="99.75"/>
	<g>
		
			<line fill="none" stroke="#231F20" stroke-width="0.5669" stroke-miterlimit="10" x1="54.546" y1="82.75" x2="54.546" y2="97.042"/>
		<g>
			<polygon fill="#231F20" points="52.866,95.768 54.546,96.482 56.225,95.768 54.546,99.75 			"/>
		</g>
	</g>
</g>
<path fill="#E6E7E8" d="M172.548,219.319c0,3.125-3.269,5.664-7.297,5.664H95.98c-2.391,0-7.297,0-7.297,0s0-4.395,0-5.664v-42.922
	c0-1.55,0-5.67,0-5.67s5.26,0,7.297,0h69.271c4.028,0,7.297,2.537,7.297,5.67V219.319L172.548,219.319z"/>
<path fill="#FFFFFF" stroke="#231F20" stroke-width="0.5669" stroke-miterlimit="10" d="M88.684,170.729v54.254V170.729z"/>
<line fill="none" stroke="#231F20" stroke-width="0.5669" stroke-miterlimit="10" x1="88.591" y1="182.36" x2="172.313" y2="182.36"/>
<text transform="matrix(1 0 0 1 93.5974 179.249)" fill="#231F20" font-family="'CMR10'" font-size="7.0866">pmuRedundancy, value</text>
<line fill="none" stroke="#231F20" stroke-width="0.5669" stroke-miterlimit="10" x1="88.591" y1="214.21" x2="172.313" y2="214.21"/>
<line fill="none" stroke="#231F20" stroke-width="0.5669" stroke-miterlimit="10" x1="88.591" y1="203.544" x2="172.313" y2="203.544"/>
<text transform="matrix(1 0 0 1 52.8303 200.3711)" fill="#231F20" font-family="'CMR10'" font-size="8.5039">SET</text>
<line fill="none" stroke="#231F20" stroke-width="0.5669" stroke-miterlimit="10" x1="88.591" y1="193.594" x2="172.313" y2="193.594"/>
<text transform="matrix(1 0 0 1 93.5974 190.2344)" fill="#231F20" font-family="'CMR10'" font-size="7.0866">pmuDevice, value</text>
<text transform="matrix(1 0 0 1 93.5974 200.918)" fill="#231F20" font-family="'CMR10'" font-size="7.0866">pmuOptimal</text>
<text transform="matrix(1 0 0 1 93.5974 211.249)" fill="#231F20" font-family="'CMR10'" font-size="7.0866">legRedundancy, value</text>
<text transform="matrix(1 0 0 1 93.5974 222.3506)" fill="#231F20" font-family="'CMR10'" font-size="7.0866">legDevice, value</text>
<path fill="none" stroke="#231F20" stroke-width="0.5669" stroke-miterlimit="10" d="M172.548,219.319
	c0,3.125-2.538,5.664-5.669,5.664H48.832c-3.131,0-5.669-2.539-5.669-5.664v-42.922c0-3.133,2.538-5.67,5.669-5.67h118.046
	c3.131,0,5.669,2.537,5.669,5.67L172.548,219.319L172.548,219.319z"/>
<g>
	<g>
		<path fill="none" stroke="#231F20" stroke-width="0.5669" stroke-miterlimit="10" d="M54.546,132.307v10.558
			c0,3.117,2.551,5.668,5.669,5.668l42.412-0.002c3.118-0.002,5.669,2.552,5.669,5.668v15.023"/>
		<g>
			<polygon fill="#231F20" points="52.866,133.581 54.546,132.867 56.224,133.581 54.546,129.599 			"/>
		</g>
	</g>
</g>
</svg>
