<?xml version="1.0" encoding="utf-8"?>
<!-- Generator: Adobe Illustrator 16.0.0, SVG Export Plug-In . SVG Version: 6.00 Build 0)  -->
<!DOCTYPE svg PUBLIC "-//W3C//DTD SVG 1.1//EN" "http://www.w3.org/Graphics/SVG/1.1/DTD/svg11.dtd">
<svg version="1.1" id="Layer_1" xmlns="http://www.w3.org/2000/svg" xmlns:xlink="http://www.w3.org/1999/xlink" x="0px" y="0px"
	 width="520.5px" height="196.5px" viewBox="0 0 520.5 196.5" enable-background="new 0 0 520.5 196.5" xml:space="preserve">
<path fill="#E6E7E8" d="M417.552,128.745h-20.824v10.706c0-0.002,4.789,0.158,9.922,0.167c7.967,0.014,6.814-0.632,9.176-1.427
	c1.402-0.472,1.783-4.004,1.814-5.855C417.673,130.259,417.552,128.745,417.552,128.745z"/>
<text transform="matrix(1 0 0 1 21.583 51.4658)" font-family="'CMR10'" font-size="8.0443">estimate.grid</text>
<path fill="#BE362A" d="M78.829,85.758l-69.477,0.27c0,0-2.424,0.81-2.872,1.442c-0.942,1.323-1.378,2.728-1.378,2.728v9.37
	c0,0,49.076,0.196,78.551,0v-5.778c0,0-0.007-4.208-0.733-5.314C82.237,87.439,78.829,85.758,78.829,85.758z"/>
<path fill="#E6E7E8" d="M78.491,110.684H10.01l-3.738-1.908l-1.151-2.053v-6.997c0,0,49.055-0.158,78.514,0v7.266
	c0,0-0.649,0.771-1.375,1.651C81.578,109.464,78.491,110.684,78.491,110.684z"/>
<path fill="#FFFFFF" stroke="#000000" stroke-width="0.5363" stroke-miterlimit="10" d="M5.121,99.714h78.514H5.121z"/>
<text transform="matrix(1 0 0 1 14.6167 95.2715)" fill="#FFFFFF" font-family="'CMR10'" font-size="8.0443">State Estimation</text>
<text transform="matrix(1 0 0 1 18.1328 107.5225)"><tspan x="0" y="0" font-family="'CMR10'" font-size="6.7035">state</tspan><tspan x="14.171" y="0" font-family="'ArialMT'" font-size="5.3628">_</tspan><tspan x="17.153" y="0" font-family="'CMR10'" font-size="6.7035">etimation.m</tspan></text>
<g>
	<line fill="#FFFFFF" x1="84.885" y1="98.22" x2="100.966" y2="98.22"/>
	<g>
		
			<line fill="none" stroke="#000000" stroke-width="0.5363" stroke-miterlimit="10" x1="84.885" y1="98.22" x2="98.405" y2="98.22"/>
		<g>
			<polygon points="97.2,99.809 97.875,98.22 97.2,96.631 100.966,98.22 			"/>
		</g>
	</g>
</g>
<g>
	<line fill="#FFFFFF" x1="44.376" y1="68.747" x2="44.376" y2="84.828"/>
	<g>
		
			<line fill="none" stroke="#000000" stroke-width="0.5363" stroke-miterlimit="10" x1="44.376" y1="68.747" x2="44.376" y2="82.267"/>
		<g>
			<polygon points="42.788,81.062 44.376,81.737 45.965,81.062 44.376,84.828 			"/>
		</g>
	</g>
</g>
<path fill="#E6E7E8" d="M72.866,67.426H15.677l-3.122-1.911l-0.962-2.049v-7.001c0,0,40.966-0.157,65.566,0v7.268
	c0,0-0.541,0.771-1.148,1.648C75.444,66.204,72.866,67.426,72.866,67.426z"/>
<path fill="#FFFFFF" stroke="#000000" stroke-width="0.5363" stroke-miterlimit="10" d="M11.593,56.454H77.16H11.593z"/>
<text transform="matrix(1 0 0 1 24.1958 64.2617)" font-family="'CMR10'" font-size="6.7035">mat-file name</text>
<path fill="none" stroke="#000000" stroke-width="0.5363" stroke-miterlimit="10" d="M77.16,62.498c0,2.721-2.4,4.928-5.361,4.928
	H16.957c-2.961,0-5.363-2.207-5.363-4.928V47.425c0-2.721,2.402-4.927,5.363-4.927h54.842c2.961,0,5.361,2.206,5.361,4.927V62.498z"
	/>
<path fill="none" stroke="#000000" stroke-width="0.5363" stroke-miterlimit="10" d="M83.634,105.322
	c0,2.959-2.401,5.361-5.364,5.361H10.484c-2.962,0-5.363-2.402-5.363-5.361V91.12c0-2.961,2.401-5.362,5.363-5.362H78.27
	c2.963,0,5.364,2.401,5.364,5.362V105.322z"/>
<path fill="#E6E7E8" d="M187.295,111.641c-0.617,1.039-3.261,2.047-3.261,2.047h-16.688V82.807c0,0,10.09-0.502,17.067,0.038
	c0.963,0.073,1.94,1.213,2.663,1.465c0.393,0.137,1.223,2.049,1.227,4.932c0.007,6.028,0.125,11.103,0.137,14.561
	c0.01,2.712-0.259,2.712-0.215,4.514C188.253,109.509,188.189,110.136,187.295,111.641z"/>
<line fill="#FFFFFF" stroke="#000000" stroke-width="0.5363" stroke-miterlimit="10" x1="167.347" y1="103.675" x2="188.44" y2="103.675"/>
<text transform="matrix(1 0 0 1 175.5562 101.2617)" font-family="'CMR10'" font-size="8.0443">2</text>
<text transform="matrix(1 0 0 1 175.5562 111.5693)" font-family="'CMR10'" font-size="8.0443">3</text>
<path fill="#FFFFFF" stroke="#000000" stroke-width="0.5363" stroke-miterlimit="10" d="M167.501,82.581v31.106V82.581z"/>
<text transform="matrix(1 0 0 1 106.0059 101.207)" font-family="'CMR10'" font-size="8.0443">estimate.module</text>
<line fill="#FFFFFF" stroke="#000000" stroke-width="0.5363" stroke-miterlimit="10" x1="167.487" y1="93.113" x2="188.311" y2="93.113"/>
<text transform="matrix(1 0 0 1 175.5562 90.5361)" font-family="'CMR10'" font-size="8.0443">1</text>
<path fill="none" stroke="#000000" stroke-width="0.5363" stroke-miterlimit="10" d="M188.311,108.322
	c0,2.962-2.46,5.365-5.495,5.365h-75.197c-3.034,0-5.494-2.403-5.494-5.365V87.957c0-2.962,2.46-5.361,5.494-5.361h75.197
	c3.035,0,5.495,2.399,5.495,5.361V108.322z"/>
<g>
	<g>
		<path fill="none" stroke="#000000" stroke-width="0.5363" stroke-miterlimit="10" d="M212.475,67.139h-5.845
			c-2.95,0-5.363,2.413-5.363,5.363v11.438c0,2.95-2.413,5.363-5.363,5.363h-5.976"/>
		<g>
			<polygon points="211.27,65.55 211.944,67.139 211.27,68.728 215.036,67.139 			"/>
		</g>
	</g>
</g>
<g>
	<g>
		<path fill="none" stroke="#000000" stroke-width="0.5363" stroke-miterlimit="10" d="M212.475,129.822h-5.845
			c-2.95,0-5.363-2.413-5.363-5.363v-11.435c0-2.95-2.413-5.363-5.363-5.363h-5.976"/>
		<g>
			<polygon points="211.27,128.233 211.944,129.822 211.27,131.411 215.036,129.822 			"/>
		</g>
	</g>
</g>
<text transform="matrix(1 0 0 1 235.3931 65.2588)"><tspan x="0" y="0" font-family="'CMR10'" font-size="8.0443">Non-linear</tspan><tspan x="-11.334" y="9.653" font-family="'CMR10'" font-size="8.0443">State Estimation</tspan></text>
<path fill="none" stroke="#000000" stroke-width="0.5363" stroke-miterlimit="10" d="M291.528,73.024
	c0,2.963-2.399,5.363-5.361,5.363h-64.69c-2.962,0-5.363-2.4-5.363-5.363V61.313c0-2.963,2.401-5.363,5.363-5.363h64.69
	c2.962,0,5.361,2.4,5.361,5.363V73.024z"/>
<text transform="matrix(1 0 0 1 244.3862 96.0957)"><tspan x="0" y="0" font-family="'CMR10'" font-size="8.0443">PMU</tspan><tspan x="-20.327" y="9.653" font-family="'CMR10'" font-size="8.0443">State Estimation</tspan></text>
<path fill="none" stroke="#000000" stroke-width="0.5363" stroke-miterlimit="10" d="M291.528,103.882
	c0,2.963-2.399,5.365-5.361,5.365h-64.69c-2.962,0-5.363-2.402-5.363-5.365V92.174c0-2.963,2.401-5.364,5.363-5.364h64.69
	c2.962,0,5.361,2.401,5.361,5.364V103.882z"/>
<text transform="matrix(1 0 0 1 247.8496 127.2012)"><tspan x="0" y="0" font-family="'CMR10'" font-size="8.0443">DC</tspan><tspan x="-23.791" y="9.653" font-family="'CMR10'" font-size="8.0443">State Estimation</tspan></text>
<path fill="none" stroke="#000000" stroke-width="0.5363" stroke-miterlimit="10" d="M291.528,134.986
	c0,2.963-2.399,5.362-5.361,5.362h-64.69c-2.962,0-5.363-2.399-5.363-5.362v-11.712c0-2.962,2.401-5.362,5.363-5.362h64.69
	c2.962,0,5.361,2.4,5.361,5.362V134.986z"/>
<g>
	<line fill="#FFFFFF" x1="189.929" y1="98.22" x2="215.037" y2="98.22"/>
	<g>
		
			<line fill="none" stroke="#000000" stroke-width="0.5363" stroke-miterlimit="10" x1="189.929" y1="98.22" x2="212.476" y2="98.22"/>
		<g>
			<polygon points="211.271,99.809 211.945,98.22 211.271,96.631 215.037,98.22 			"/>
		</g>
	</g>
</g>
<g>
	<text transform="matrix(1 0 0 1 178.771 21.4346)" font-family="'CMR10'" font-size="8.0443">flat</text>
	<text transform="matrix(1 0 0 1 178.7715 31.4746)" font-family="'CMR10'" font-size="8.0443">warm</text>
	<text transform="matrix(1 0 0 1 178.769 41.7725)" font-family="'CMR10'" font-size="8.0443">random</text>
	<path fill="#FFFFFF" stroke="#000000" stroke-width="0.5363" stroke-miterlimit="10" d="M175.979,13.378v30.646V13.378z"/>
	<text transform="matrix(1 0 0 1 139.5063 31.6758)" font-family="'CMR10'" font-size="8.0443">estimate.</text>
	<path fill="#E6E7E8" d="M229.011,41.426l-2.584,2.208l-7.72,0.391l-9.751,0.106V13.376c0,0,4.818,0.067,9.751,0.115
		c4.197,0.041,8.21-0.424,9.683,1.695c0.354,0.507,1.365,1.959,1.373,3.906c0.017,4.752,0.084,10.75,0.105,14.487
		C229.898,39.68,229.011,41.426,229.011,41.426z"/>
	<path fill="#FFFFFF" stroke="#000000" stroke-width="0.5363" stroke-miterlimit="10" d="M208.957,13.406v30.618V13.406z"/>
	
		<line fill="#FFFFFF" stroke="#000000" stroke-width="0.5363" stroke-miterlimit="10" x1="175.978" y1="33.934" x2="229.78" y2="33.934"/>
	
		<line fill="#FFFFFF" stroke="#000000" stroke-width="0.5363" stroke-miterlimit="10" x1="175.978" y1="23.845" x2="229.78" y2="23.845"/>
	<text transform="matrix(1 0 0 1 215.2598 21.4346)" font-family="'CMR10'" font-size="8.0443">i1</text>
	<text transform="matrix(1 0 0 1 215.2598 31.7412)" font-family="'CMR10'" font-size="8.0443">i2</text>
	<text transform="matrix(1 0 0 1 215.2598 41.7725)" font-family="'CMR10'" font-size="8.0443">i3</text>
	<path fill="none" stroke="#000000" stroke-width="0.5363" stroke-miterlimit="10" d="M229.78,38.66c0,2.963-2.4,5.364-5.361,5.364
		h-82.683c-2.961,0-5.361-2.401-5.361-5.364V18.738c0-2.961,2.4-5.362,5.361-5.362h82.683c2.961,0,5.361,2.401,5.361,5.362V38.66z"
		/>
</g>
<g>
	<g>
		<path fill="none" stroke="#000000" stroke-width="0.5363" stroke-miterlimit="10" d="M230.978,28.754h17.684
			c2.95,0,5.363,2.413,5.363,5.363v18.374"/>
		<g>
			<polygon points="252.436,51.286 254.025,51.96 255.614,51.286 254.025,55.052 			"/>
		</g>
	</g>
</g>
<g>
	<g>
		<path fill="none" stroke="#000000" stroke-width="0.5363" stroke-miterlimit="10" d="M315.445,89.302h-5.822
			c-2.95,0-5.363-2.413-5.363-5.363V72.501c0-2.95-2.413-5.363-5.363-5.363h-5.957"/>
		<g>
			<polygon points="314.24,87.713 314.915,89.302 314.24,90.891 318.006,89.302 			"/>
		</g>
	</g>
</g>
<g>
	<g>
		<path fill="none" stroke="#000000" stroke-width="0.5363" stroke-miterlimit="10" d="M315.445,107.661h-5.822
			c-2.95,0-5.363,2.413-5.363,5.363v11.435c0,2.95-2.413,5.363-5.363,5.363h-5.957"/>
		<g>
			<polygon points="314.24,106.072 314.915,107.661 314.24,109.25 318.006,107.661 			"/>
		</g>
	</g>
</g>
<g>
	<line fill="#FFFFFF" x1="292.942" y1="98.22" x2="318.006" y2="98.22"/>
	<g>
		
			<line fill="none" stroke="#000000" stroke-width="0.5363" stroke-miterlimit="10" x1="292.942" y1="98.22" x2="315.445" y2="98.22"/>
		<g>
			<polygon points="314.24,99.809 314.915,98.22 314.24,96.631 318.006,98.22 			"/>
		</g>
	</g>
</g>
<path fill="#E6E7E8" d="M417.554,77.244h-20.826v10.169c0,0,5.209,0.1,10.59,0c2.859-0.054,10.223-0.078,10.223-0.078
	s0.07-4.646,0.1-6.499C417.673,78.761,417.554,77.244,417.554,77.244z"/>
<path fill="#E6E7E8" d="M417.552,67.155h-20.824v-10.17c0,0,4.789-0.427,9.922-0.438c7.967-0.013,6.277,0.366,8.639,1.158
	c1.404,0.473,2.32,4.004,2.352,5.856C417.673,65.639,417.552,67.155,417.552,67.155z"/>
<path fill="#FFFFFF" stroke="#000000" stroke-width="0.5363" stroke-miterlimit="10" d="M396.728,56.717v41.38V56.717z"/>
<line fill="#FFFFFF" stroke="#000000" stroke-width="0.5363" stroke-miterlimit="10" x1="319.992" y1="77.244" x2="417.552" y2="77.244"/>
<line fill="#FFFFFF" stroke="#000000" stroke-width="0.5363" stroke-miterlimit="10" x1="396.728" y1="67.155" x2="417.552" y2="67.155"/>
<line fill="none" stroke="#000000" stroke-width="0.5363" stroke-miterlimit="10" x1="396.728" y1="87.335" x2="417.552" y2="87.335"/>
<text transform="matrix(1 0 0 1 324.4443 90.8164)" font-family="'CMR10'" font-size="8.0443">estimate.branch</text>
<text transform="matrix(1 0 0 1 324.4448 69.5186)" font-family="'CMR10'" font-size="8.0443">estimate.bus</text>
<text transform="matrix(1 0 0 1 404.1572 64.7441)" font-family="'CMR10'" font-size="8.0443">1</text>
<text transform="matrix(1 0 0 1 404.1572 75.0527)" font-family="'CMR10'" font-size="8.0443">0</text>
<text transform="matrix(1 0 0 1 404.1572 85.083)" font-family="'CMR10'" font-size="8.0443">1</text>
<text transform="matrix(1 0 0 1 404.1572 95.3271)" font-family="'CMR10'" font-size="8.0443">0</text>
<path fill="#E6E7E8" d="M417.552,118.76h-20.824v-10.467h20.824c0,0,0.057,5.024,0.088,6.878
	C417.673,117.246,417.552,118.76,417.552,118.76z"/>
<path fill="#FFFFFF" stroke="#000000" stroke-width="0.5363" stroke-miterlimit="10" d="M396.728,98.097v41.409V98.097z"/>
<line fill="#FFFFFF" stroke="#000000" stroke-width="0.5363" stroke-miterlimit="10" x1="319.992" y1="118.654" x2="417.552" y2="118.654"/>
<line fill="#FFFFFF" stroke="#000000" stroke-width="0.5363" stroke-miterlimit="10" x1="396.728" y1="108.566" x2="417.552" y2="108.566"/>
<line fill="none" stroke="#000000" stroke-width="0.5363" stroke-miterlimit="10" x1="396.728" y1="128.745" x2="417.552" y2="128.745"/>
<text transform="matrix(1 0 0 1 324.4448 132.2266)" font-family="'CMR10'" font-size="8.0443">estimate.evaluation</text>
<text transform="matrix(1 0 0 1 324.4448 110.9297)" font-family="'CMR10'" font-size="8.0443">estimate.estimation</text>
<text transform="matrix(1 0 0 1 404.1572 106.1553)" font-family="'CMR10'" font-size="8.0443">0</text>
<text transform="matrix(1 0 0 1 404.1572 116.4639)" font-family="'CMR10'" font-size="8.0443">1</text>
<text transform="matrix(1 0 0 1 404.1572 126.4932)" font-family="'CMR10'" font-size="8.0443">0</text>
<text transform="matrix(1 0 0 1 404.1572 136.7373)" font-family="'CMR10'" font-size="8.0443">1</text>
<line fill="#FFFFFF" stroke="#000000" stroke-width="0.5363" stroke-miterlimit="10" x1="319.992" y1="98.097" x2="417.552" y2="98.097"/>
<g>
	<path fill="none" stroke="#000000" stroke-width="0.5363" stroke-miterlimit="10" d="M514.214,22.921
		c0,4.424-3.447,6.938-7.659,5.586l-4.752-1.524c-4.212-1.352-11.182-1.625-15.487-0.606c0,0-20.525,4.855-27.316,4.857
		c-6.506,0.002-10.041-0.41-10.041-0.41c-4.395-0.512-7.99-4.551-7.99-8.975v-4.461c0-4.424,3.62-8.044,8.044-8.044h57.158
		c4.424,0,8.044,3.62,8.044,8.044V22.921z"/>
</g>
<g>
	<path fill="#F1F2F2" d="M503.675,96.679c0.137,3.673-1.021,8.132-1.021,8.132c-0.37,1.428-1.881,2.596-3.355,2.596h-44.152
		c-1.475,0-3.454-0.927-4.398-2.06l-4.164-4.997c-0.944-1.133-1.075-3.082-0.292-4.331l4.213-6.716
		c0.783-1.25,2.632-2.271,4.106-2.271h43.08c1.475,0,3.275,1.05,4.001,2.334C501.691,89.366,503.528,92.616,503.675,96.679z"/>
	<path fill="none" stroke="#000000" stroke-width="0.5363" stroke-miterlimit="10" d="M503.675,96.679
		c0.137,3.673-1.021,8.132-1.021,8.132c-0.37,1.428-1.881,2.596-3.355,2.596h-44.152c-1.475,0-3.454-0.927-4.398-2.06l-4.164-4.997
		c-0.944-1.133-1.075-3.082-0.292-4.331l4.213-6.716c0.783-1.25,2.632-2.271,4.106-2.271h43.08c1.475,0,3.275,1.05,4.001,2.334
		C501.691,89.366,503.528,92.616,503.675,96.679z"/>
</g>
<g>
	<g>
		<path fill="none" stroke="#000000" stroke-width="0.5363" stroke-miterlimit="10" d="M441.438,95.89h-5.845
			c-2.95,0-5.363-2.413-5.363-5.363v-1.234c0-2.95-2.413-5.363-5.363-5.363h-5.977"/>
		<g>
			<polygon points="440.232,94.301 440.908,95.89 440.232,97.479 443.999,95.89 			"/>
		</g>
	</g>
</g>
<g>
	<g>
		<path fill="none" stroke="#000000" stroke-width="0.5363" stroke-miterlimit="10" d="M441.438,100.569h-5.845
			c-2.95,0-5.363,2.413-5.363,5.363v1.231c0,2.95-2.413,5.363-5.363,5.363h-5.977"/>
		<g>
			<polygon points="440.232,98.98 440.908,100.569 440.232,102.158 443.999,100.569 			"/>
		</g>
	</g>
</g>
<text transform="matrix(1 0 0 1 464.6475 99.2031)" font-family="'CMR10'" font-size="8.0443">Display</text>
<path fill="#E6E7E8" d="M512.546,47.812c-0.619-0.334-1.025-0.167-1.025-0.167h-17.225v9.93c0,0,10.896,0.163,17.873-0.011
	c0.965-0.023,2.643,0.159,3.367,0.078c0.393-0.043-0.271-1.212-0.014-2.135c0.408-1.454-0.375-3.44-0.361-4.552
	c0.01-0.873-0.537-1.497-1.047-1.979C513.728,48.612,513.44,48.296,512.546,47.812z"/>
<line fill="#FFFFFF" stroke="#000000" stroke-width="0.5363" stroke-miterlimit="10" x1="494.296" y1="57.854" x2="515.536" y2="57.854"/>
<text transform="matrix(1 0 0 1 502.5137 55.4463)" font-family="'CMR10'" font-size="8.0443">1</text>
<text transform="matrix(1 0 0 1 502.5137 65.7539)" font-family="'CMR10'" font-size="8.0443">0</text>
<path fill="#FFFFFF" stroke="#000000" stroke-width="0.5363" stroke-miterlimit="10" d="M494.452,47.291v20.563V47.291z"/>
<text transform="matrix(1 0 0 1 443.8193 60.4854)" font-family="'CMR10'" font-size="8.0443">estimate.save</text>
<path fill="none" stroke="#000000" stroke-width="0.5363" stroke-miterlimit="10" d="M515.536,62.489
	c0,2.963-2.211,5.364-4.941,5.364h-65.537c-2.729,0-4.941-2.401-4.941-5.364v-9.832c0-2.961,2.213-5.363,4.941-5.363h65.537
	c2.73,0,4.941,2.402,4.941,5.363V62.489z"/>
<g>
	<line fill="#FFFFFF" x1="477.515" y1="85.232" x2="477.515" y2="69.152"/>
	<g>
		
			<line fill="none" stroke="#000000" stroke-width="0.5363" stroke-miterlimit="10" x1="477.515" y1="85.232" x2="477.515" y2="71.713"/>
		<g>
			<polygon points="479.104,72.918 477.515,72.244 475.926,72.918 477.515,69.152 			"/>
		</g>
	</g>
</g>
<text transform="matrix(1 0 0 1 459.4502 20.6631)" font-family="'CMR10'" font-size="8.0443">Save Data</text>
<g>
	<g>
		<path fill="none" stroke="#000000" stroke-width="0.5363" stroke-miterlimit="10" d="M477.89,32.699c0,0.577,0,1.221,0,1.899
			c0,2.453,2.413,4.459,5.363,4.459l15.574-0.002c2.95,0,5.363,1.652,5.363,3.672s0,3.673,0,3.673"/>
		<g>
			<polygon points="476.301,33.905 477.89,33.23 479.479,33.905 477.89,30.139 			"/>
		</g>
	</g>
</g>
<g>
	<g>
		<path fill="none" stroke="#000000" stroke-width="0.5363" stroke-miterlimit="10" d="M418.89,64.533h8.656
			c2.95,0,5.363,2.413,5.363,5.363v15.556c0,2.95,2.413,5.363,5.363,5.363h0.363c2.166,0,4.378,0.143,5.7,0.348"/>
		<g>
			<polygon points="442.688,92.395 443.806,91.078 443.633,89.36 446.757,91.996 			"/>
		</g>
	</g>
</g>
<g>
	<g>
		<path fill="none" stroke="#000000" stroke-width="0.5363" stroke-miterlimit="10" d="M418.89,131.873h8.656
			c2.95,0,5.363-2.413,5.363-5.363v-15.554c0-2.95,2.413-5.363,5.363-5.363h0.363c2.142,0,4.328-0.115,5.655-0.279"/>
		<g>
			<polygon points="443.494,107.087 443.76,105.382 442.717,104.006 446.757,104.625 			"/>
		</g>
	</g>
</g>
<path fill="none" stroke="#000000" stroke-width="0.5363" stroke-miterlimit="10" d="M417.556,134.143
	c0,2.965-2.4,5.363-5.361,5.363h-86.841c-2.961,0-5.361-2.398-5.361-5.363V61.911c0-2.961,2.4-5.363,5.361-5.363h86.841
	c2.961,0,5.361,2.402,5.361,5.363V134.143z"/>
<g>
	<g>
		<path fill="none" stroke="#000000" stroke-width="0.5363" stroke-miterlimit="10" d="M297.683,162.021v-52.983
			c0-2.95-1.163-5.363-2.584-5.363s-2.584,0-2.584,0"/>
		<g>
			<polygon points="299.272,160.816 297.683,161.492 296.094,160.816 297.683,164.583 			"/>
		</g>
	</g>
</g>
<g>
	<g>
		<path fill="none" stroke="#000000" stroke-width="0.5363" stroke-miterlimit="10" d="M253.553,141.923v28.716
			c0,2.95,2.413,5.363,5.363,5.363h4.012"/>
		<g>
			<polygon points="261.723,177.591 262.397,176.002 261.723,174.413 265.489,176.002 			"/>
		</g>
	</g>
</g>
<path fill="#E6E7E8" d="M344.097,166.512c-0.615-0.334-1.021-0.167-1.021-0.167h-17.229v9.932c0,0,10.898,0.159,17.875-0.012
	c0.965-0.025,2.645,0.158,3.367,0.079c0.393-0.045-0.273-1.216-0.014-2.139c0.41-1.453-0.373-3.438-0.361-4.55
	c0.008-0.874-0.537-1.498-1.047-1.979C345.28,167.313,344.993,166.997,344.097,166.512z"/>
<line fill="#FFFFFF" stroke="#000000" stroke-width="0.5363" stroke-miterlimit="10" x1="325.846" y1="176.558" x2="347.089" y2="176.558"/>
<text transform="matrix(1 0 0 1 334.0664 174.1465)" font-family="'CMR10'" font-size="8.0443">1</text>
<text transform="matrix(1 0 0 1 334.0664 184.4541)" font-family="'CMR10'" font-size="8.0443">0</text>
<path fill="#FFFFFF" stroke="#000000" stroke-width="0.5363" stroke-miterlimit="10" d="M326,165.991v20.563V165.991z"/>
<text transform="matrix(1 0 0 1 270.3628 179.1855)" font-family="'CMR10'" font-size="8.0443">estimate.linear</text>
<path fill="none" stroke="#000000" stroke-width="0.5363" stroke-miterlimit="10" d="M347.089,181.188
	c0,2.965-2.402,5.365-5.363,5.365h-69.409c-2.961,0-5.361-2.4-5.361-5.365v-9.836c0-2.961,2.4-5.361,5.361-5.361h69.409
	c2.961,0,5.363,2.4,5.363,5.361V181.188z"/>
<g>
	<line fill="#FFFFFF" x1="348.593" y1="172.802" x2="364.673" y2="172.802"/>
	<g>
		
			<line fill="none" stroke="#000000" stroke-width="0.5363" stroke-miterlimit="10" x1="348.593" y1="172.802" x2="362.111" y2="172.802"/>
		<g>
			<polygon points="360.906,174.391 361.582,172.802 360.906,171.213 364.673,172.802 			"/>
		</g>
	</g>
</g>
<g>
	<path fill="none" stroke="#000000" stroke-width="0.5363" stroke-miterlimit="10" d="M447.667,175.222
		c0,4.424-3.48,7.049-7.734,5.832l-7.059-2.019c-4.254-1.217-11.276-1.466-15.605-0.553c0,0-23.955,5.048-31.582,5.05
		c-7.299,0.005-12.233-0.508-12.233-0.508c-4.4-0.458-8.001-4.452-8.001-8.876v-4.461c0-4.424,3.62-8.044,8.044-8.044h66.127
		c4.424,0,8.044,3.62,8.044,8.044V175.222z"/>
</g>
<text transform="matrix(1 0 0 1 370.9072 172.9609)" font-family="'CMR10'" font-size="8.0443">Export Matrix Form</text>
</svg>
