<?xml version="1.0" encoding="utf-8"?>
<!-- Generator: Adobe Illustrator 16.0.0, SVG Export Plug-In . SVG Version: 6.00 Build 0)  -->
<!DOCTYPE svg PUBLIC "-//W3C//DTD SVG 1.1//EN" "http://www.w3.org/Graphics/SVG/1.1/DTD/svg11.dtd">
<svg version="1.1" id="Layer_1" xmlns="http://www.w3.org/2000/svg" xmlns:xlink="http://www.w3.org/1999/xlink" x="0px" y="0px"
	 width="814.5px" height="304px" viewBox="0 0 814.5 304" enable-background="new 0 0 814.5 304" xml:space="preserve">
<path fill="#E6E7E8" d="M608.841,258.425c0,4.071-2.935,7.371-6.553,7.371h-49.945c-2.085,0-6.552,0-6.552,0s0-5.645,0-7.371
	v-13.518c0-2.014,0-7.37,0-7.37s4.724,0,6.552,0h49.945c3.618,0,6.553,3.3,6.553,7.37V258.425z"/>
<g>
	<line fill="#FFFFFF" x1="222.13" y1="144.402" x2="244.229" y2="144.402"/>
	<g>
		
			<line fill="none" stroke="#231F20" stroke-width="0.5669" stroke-miterlimit="10" x1="222.13" y1="144.402" x2="241.522" y2="144.402"/>
		<g>
			<polygon fill="#231F20" points="240.248,146.082 240.962,144.402 240.248,142.723 244.229,144.402 			"/>
		</g>
	</g>
</g>
<path fill="#E6E7E8" d="M369.282,163.581c-1.601,1.431-4.607,2.074-4.607,2.074h-47.082v-42.435c0,0,25.001-0.293,45.505-0.319
	c2.5-0.003,3.317,0.931,5.191,1.276c1.02,0.188,3.595,3.923,3.604,7.884c0.02,8.284-0.103,14.521-0.071,19.273
	c0.023,3.729-0.244,4.466-0.131,6.939C371.767,159.913,371.598,161.514,369.282,163.581z"/>
<line fill="#FFFFFF" stroke="#231F20" stroke-width="0.5669" stroke-miterlimit="10" x1="317.51" y1="151.898" x2="372.199" y2="151.898"/>
<path fill="#FFFFFF" stroke="#231F20" stroke-width="0.5669" stroke-miterlimit="10" d="M317.596,122.909v42.747V122.909z"/>
<text transform="matrix(1 0 0 1 253.5813 148.5054)" fill="#231F20" font-family="'CMR10'" font-size="11.0551">METHOD</text>
<line fill="#FFFFFF" stroke="#231F20" stroke-width="0.5669" stroke-miterlimit="10" x1="317.51" y1="137.384" x2="371.993" y2="137.384"/>
<g>
	<g>
		<path fill="none" stroke="#231F20" stroke-width="0.5669" stroke-miterlimit="10" d="M406.043,101.687h-10.546
			c-3.118,0-5.669,2.551-5.669,5.669l0.001,19.119c0,3.118-2.551,5.669-5.669,5.669h-9.915"/>
		<g>
			<polygon fill="#231F20" points="404.769,100.007 405.483,101.687 404.769,103.366 408.756,101.687 			"/>
		</g>
	</g>
</g>
<g>
	<g>
		<path fill="none" stroke="#231F20" stroke-width="0.5669" stroke-miterlimit="10" d="M406.043,187.833h-10.546
			c-3.118,0-5.669-2.551-5.669-5.669l0.001-19.12c0-3.118-2.551-5.669-5.669-5.669h-9.915"/>
		<g>
			<polygon fill="#231F20" points="404.769,186.153 405.483,187.833 404.769,189.513 408.756,187.833 			"/>
		</g>
	</g>
</g>
<text transform="matrix(1 0 0 1 436.7356 99.1035)"><tspan x="0" y="0" fill="#231F20" font-family="'CMR10'" font-size="11.0551">Non-linear</tspan><tspan x="-15.576" y="13.266" fill="#231F20" font-family="'CMR10'" font-size="11.0551">State Estimation</tspan></text>
<path fill="none" stroke="#231F20" stroke-width="0.8504" stroke-miterlimit="10" d="M513.895,109.775
	c0,4.071-3.299,7.37-7.369,7.37H417.62c-4.078,0-7.382-3.299-7.382-7.37V93.681c0-4.07,3.304-7.37,7.382-7.37h88.905
	c4.07,0,7.369,3.3,7.369,7.37V109.775z"/>
<text transform="matrix(1 0 0 1 453.8547 141.4814)"><tspan x="0" y="0" fill="#231F20" font-family="'CMR10'" font-size="11.0551">DC</tspan><tspan x="-32.695" y="13.267" fill="#231F20" font-family="'CMR10'" font-size="11.0551">State Estimation</tspan></text>
<path fill="none" stroke="#231F20" stroke-width="0.8504" stroke-miterlimit="10" d="M513.895,152.185
	c0,4.071-3.299,7.37-7.369,7.37H417.62c-4.078,0-7.382-3.299-7.382-7.37v-16.094c0-4.071,3.304-7.371,7.382-7.371h88.905
	c4.07,0,7.369,3.3,7.369,7.371V152.185z"/>
<text transform="matrix(1 0 0 1 449.095 184.2285)"><tspan x="0" y="0" fill="#231F20" font-family="'CMR10'" font-size="11.0551">PMU</tspan><tspan x="-27.936" y="13.267" fill="#231F20" font-family="'CMR10'" font-size="11.0551">State Estimation</tspan></text>
<path fill="none" stroke="#231F20" stroke-width="0.8504" stroke-miterlimit="10" d="M513.895,194.928
	c0,4.071-3.299,7.371-7.369,7.371H417.62c-4.078,0-7.382-3.3-7.382-7.371v-16.094c0-4.071,3.304-7.369,7.382-7.369h88.905
	c4.07,0,7.369,3.298,7.369,7.369V194.928z"/>
<g>
	<line fill="#FFFFFF" x1="374.247" y1="144.402" x2="408.759" y2="144.402"/>
	<g>
		
			<line fill="none" stroke="#231F20" stroke-width="0.5669" stroke-miterlimit="10" x1="374.247" y1="144.402" x2="406.047" y2="144.402"/>
		<g>
			<polygon fill="#231F20" points="404.772,146.082 405.486,144.402 404.772,142.723 408.759,144.402 			"/>
		</g>
	</g>
</g>
<g>
	<g>
		<path fill="none" stroke="#231F20" stroke-width="0.5669" stroke-miterlimit="10" d="M547.574,132.145h-10.514
			c-3.118,0-5.669-2.551-5.669-5.669v-19.119c0-3.118-2.551-5.669-5.669-5.669h-9.887"/>
		<g>
			<polygon fill="#231F20" points="546.301,130.465 547.015,132.145 546.301,133.824 550.282,132.145 			"/>
		</g>
	</g>
</g>
<g>
	<g>
		<path fill="none" stroke="#231F20" stroke-width="0.5669" stroke-miterlimit="10" d="M547.574,157.375h-10.514
			c-3.118,0-5.669,2.551-5.669,5.669v19.12c0,3.118-2.551,5.669-5.669,5.669h-9.887"/>
		<g>
			<polygon fill="#231F20" points="546.301,155.695 547.015,157.375 546.301,159.055 550.282,157.375 			"/>
		</g>
	</g>
</g>
<g>
	<line fill="#FFFFFF" x1="515.837" y1="144.402" x2="550.283" y2="144.402"/>
	<g>
		
			<line fill="none" stroke="#231F20" stroke-width="0.5669" stroke-miterlimit="10" x1="515.837" y1="144.402" x2="547.576" y2="144.402"/>
		<g>
			<polygon fill="#231F20" points="546.302,146.082 547.016,144.402 546.302,142.723 550.283,144.402 			"/>
		</g>
	</g>
</g>
<g>
	<g>
		<path fill="none" stroke="#231F20" stroke-width="0.5669" stroke-miterlimit="10" d="M522.354,232.898v-75.331
			c0-3.118-1.598-5.669-3.551-5.669s-3.551,0-3.551,0"/>
		<g>
			<polygon fill="#231F20" points="524.033,231.624 522.354,232.338 520.674,231.624 522.354,235.605 			"/>
		</g>
	</g>
</g>
<g>
	<g>
		<path fill="none" stroke="#231F20" stroke-width="0.5669" stroke-miterlimit="10" d="M461.704,204.461v41.168
			c0,3.118,2.551,5.669,5.669,5.669h8.025"/>
		<g>
			<polygon fill="#231F20" points="474.125,252.978 474.839,251.298 474.125,249.618 478.107,251.298 			"/>
		</g>
	</g>
</g>
<line fill="#FFFFFF" stroke="#231F20" stroke-width="0.5669" stroke-miterlimit="10" x1="545.791" y1="251.666" x2="608.841" y2="251.666"/>
<text transform="matrix(1 0 0 1 550.7161 247.6387)" fill="#231F20" font-family="'CMR10'" font-size="9.2126">export</text>
<text transform="matrix(1 0 0 1 551.5081 262.1748)" fill="#231F20" font-family="'CMR10'" font-size="9.2126">exportSlack</text>
<path fill="#FFFFFF" stroke="#231F20" stroke-width="0.5669" stroke-miterlimit="10" d="M545.805,237.537v28.259V237.537z"/>
<text transform="matrix(1 0 0 1 488.3528 255.6709)" fill="#231F20" font-family="'CMR10'" font-size="11.0551">EXPORT</text>
<g>
	<line fill="#FFFFFF" x1="611.086" y1="251.691" x2="633.187" y2="251.691"/>
	<g>
		
			<line fill="none" stroke="#231F20" stroke-width="0.5669" stroke-miterlimit="10" x1="611.086" y1="251.691" x2="630.479" y2="251.691"/>
		<g>
			<polygon fill="#231F20" points="629.205,253.371 629.919,251.691 629.205,250.012 633.187,251.691 			"/>
		</g>
	</g>
</g>
<g>
	<path fill="none" stroke="#231F20" stroke-width="0.8504" stroke-miterlimit="10" d="M747.245,257.568
		c0,4.677-3.68,7.452-8.177,6.166l-14.606-4.176c-4.497-1.285-11.921-1.548-16.498-0.583c0,0-35.417,7.463-45.895,7.465
		c-10.034,0.006-19.354-0.963-19.354-0.963c-4.651-0.484-8.458-4.707-8.458-9.384v-11.231c0-4.677,3.827-8.504,8.504-8.504h95.98
		c4.677,0,8.504,3.827,8.504,8.504V257.568z"/>
</g>
<text transform="matrix(1 0 0 1 641.7639 251.9072)" fill="#231F20" font-family="'CMR10'" font-size="11.0551">Export Matrix Form</text>
<path fill="none" stroke="#231F20" stroke-width="0.8504" stroke-miterlimit="10" d="M608.841,258.425
	c0,4.071-3.109,7.371-6.944,7.371H487.069c-3.835,0-6.944-3.3-6.944-7.371v-13.518c0-4.07,3.109-7.37,6.944-7.37h114.828
	c3.835,0,6.944,3.3,6.944,7.37V258.425z"/>
<path fill="#E6E7E8" d="M671.986,168.9l-2.379,2.841l-1.932,0.661l-22.68-0.049l-24.225,0.196v-56.295
	c0,0,25.023,0.074,37.279,0.162c10.427,0.076,10.079-0.444,12.922,1.962c0.941,0.796,1.728,4.774,1.745,8.34
	c0.046,8.697-0.049,19.677,0.002,26.518C672.796,164.401,671.986,168.9,671.986,168.9z"/>
<text transform="matrix(1 0 0 1 627.135 126.7944)" fill="#231F20" font-family="'CMR10'" font-size="9.2126">bus</text>
<text transform="matrix(1 0 0 1 627.134 140.667)" fill="#231F20" font-family="'CMR10'" font-size="9.2126">branch</text>
<text transform="matrix(1 0 0 1 627.135 168.9385)" fill="#231F20" font-family="'CMR10'" font-size="9.2126">error</text>
<path fill="#FFFFFF" stroke="#231F20" stroke-width="0.5669" stroke-miterlimit="10" d="M621.14,116.61v55.792V116.61z"/>
<text transform="matrix(1 0 0 1 562.1379 147.6797)" fill="#231F20" font-family="'CMR10'" font-size="11.0551">DISPLAY</text>
<line fill="#FFFFFF" stroke="#231F20" stroke-width="0.5669" stroke-miterlimit="10" x1="621.14" y1="158.536" x2="672.615" y2="158.536"/>
<line fill="#FFFFFF" stroke="#231F20" stroke-width="0.5669" stroke-miterlimit="10" x1="621.14" y1="144.67" x2="672.615" y2="144.67"/>
<line fill="#FFFFFF" stroke="#231F20" stroke-width="0.5669" stroke-miterlimit="10" x1="621.183" y1="130.283" x2="672.656" y2="130.283"/>
<path fill="none" stroke="#231F20" stroke-width="0.8504" stroke-miterlimit="10" d="M672.606,165.033
	c0,4.07-3.064,7.369-6.847,7.369h-106.69c-3.78,0-6.847-3.299-6.847-7.369v-41.246c0-4.07,3.066-7.37,6.847-7.37h106.69
	c3.782,0,6.847,3.3,6.847,7.37V165.033z"/>
<text transform="matrix(1 0 0 1 627.134 154.3203)" fill="#231F20" font-family="'CMR10'" font-size="9.2126">estimate</text>
<g>
	<path fill="none" stroke="#231F20" stroke-width="0.8504" stroke-miterlimit="10" d="M804.49,43.411
		c0,4.677-3.644,7.334-8.097,5.905l-11.389-3.654c-4.453-1.429-11.82-1.718-16.372-0.641c0,0-30.691,7.259-40.025,7.262
		c-8.939,0.004-16.332-0.858-16.332-0.858c-4.646-0.542-8.446-4.812-8.446-9.489V30.704c0-4.677,3.827-8.504,8.504-8.504h83.653
		c4.677,0,8.504,3.827,8.504,8.504V43.411z"/>
</g>
<g>
	<path fill="#F1F1F2" d="M790.007,142.226c0.185,5.046-1.619,11.998-1.619,11.998c-0.392,1.51-1.987,2.744-3.547,2.744h-62.38
		c-1.56,0-3.651-0.98-4.649-2.178l-6.809-8.174c-0.998-1.198-1.137-3.258-0.309-4.579l6.689-10.67
		c0.828-1.321,2.781-2.401,4.341-2.401h60.904c1.56,0,3.463,1.11,4.229,2.468C786.859,131.434,789.801,136.641,790.007,142.226z"/>
	<path fill="none" stroke="#231F20" stroke-width="0.8504" stroke-miterlimit="10" d="M790.007,142.226
		c0.185,5.046-1.619,11.998-1.619,11.998c-0.392,1.51-1.987,2.744-3.547,2.744h-62.38c-1.56,0-3.651-0.98-4.649-2.178l-6.809-8.174
		c-0.998-1.198-1.137-3.258-0.309-4.579l6.689-10.67c0.828-1.321,2.781-2.401,4.341-2.401h60.904c1.56,0,3.463,1.11,4.229,2.468
		C786.859,131.434,789.801,136.641,790.007,142.226z"/>
</g>
<text transform="matrix(1 0 0 1 736.3303 145.6875)" fill="#231F20" font-family="'CMR10'" font-size="11.0551">Display</text>
<text transform="matrix(1 0 0 1 739.3284 92.4775)" fill="#231F20" font-family="'CMR10'" font-size="11.0551">SAVE</text>
<path fill="none" stroke="#231F20" stroke-width="0.8504" stroke-miterlimit="10" d="M806.305,95.238c0,4.07-3.039,7.37-6.789,7.37
	h-90.068c-3.75,0-6.79-3.3-6.79-7.37V81.726c0-4.069,3.04-7.37,6.79-7.37h90.068c3.75,0,6.789,3.301,6.789,7.37V95.238z"/>
<g>
	<line fill="#FFFFFF" x1="754.056" y1="126.495" x2="754.056" y2="104.395"/>
	<g>
		
			<line fill="none" stroke="#231F20" stroke-width="0.5669" stroke-miterlimit="10" x1="754.056" y1="126.495" x2="754.056" y2="107.102"/>
		<g>
			<polygon fill="#231F20" points="755.736,108.376 754.056,107.662 752.376,108.376 754.056,104.395 			"/>
		</g>
	</g>
</g>
<text transform="matrix(1 0 0 1 729.1897 37.751)" fill="#231F20" font-family="'CMR10'" font-size="11.0551">Save Data</text>
<g>
	<line fill="#FFFFFF" x1="177.892" y1="43.045" x2="177.892" y2="65.146"/>
	<g>
		
			<line fill="none" stroke="#231F20" stroke-width="0.5669" stroke-miterlimit="10" x1="177.892" y1="43.045" x2="177.892" y2="62.438"/>
		<g>
			<polygon fill="#231F20" points="176.213,61.164 177.892,61.878 179.572,61.164 177.892,65.146 			"/>
		</g>
	</g>
</g>
<text transform="matrix(1 0 0 1 162.5164 79.1641)" fill="#231F20" font-family="'CMR10'" font-size="11.0551">DATA</text>
<path fill="#E6E7E8" d="M218.15,100.679h-78.592l-4.291-2.625l-1.321-2.816v-9.62c0,0,56.297-0.216,90.105,0v9.988
	c0,0-0.743,1.061-1.577,2.267C221.692,99.003,218.15,100.679,218.15,100.679z"/>
<path fill="#FFFFFF" stroke="#231F20" stroke-width="0.5669" stroke-miterlimit="10" d="M133.946,85.602h90.105H133.946z"/>
<text transform="matrix(1 0 0 1 151.2771 96.3779)" fill="#231F20" font-family="'CMR10'" font-size="9.2126">mat-file name</text>
<path fill="none" stroke="#231F20" stroke-width="0.8504" stroke-miterlimit="10" d="M224.052,93.908
	c0,3.739-3.299,6.771-7.369,6.771h-75.367c-4.07,0-7.369-3.031-7.369-6.771V73.194c0-3.74,3.299-6.771,7.369-6.771h75.367
	c4.07,0,7.369,3.031,7.369,6.771V93.908z"/>
<path fill="#BE3629" d="M226.344,6.972l-95.479,0.369c0,0-3.332,1.114-3.948,1.983c-1.294,1.819-1.893,3.749-1.893,3.749V25.95
	c0,0,67.444,0.271,107.949,0v-7.939c0,0-0.009-5.784-1.007-7.305C231.03,9.282,226.344,6.972,226.344,6.972z"/>
<path fill="#E6E7E8" d="M225.881,41.228h-94.111l-5.138-2.624l-1.583-2.817v-9.62c0,0,67.415-0.216,107.9,0v9.989
	c0,0-0.891,1.06-1.89,2.266C230.123,39.552,225.881,41.228,225.881,41.228z"/>
<path fill="#FFFFFF" stroke="#231F20" stroke-width="0.5669" stroke-miterlimit="10" d="M125.049,26.151h107.9H125.049z"/>
<text transform="matrix(1 0 0 1 138.1125 20.0938)" fill="#FFFFFF" font-family="'CMR10'" font-size="11.0551">State Estimation</text>
<text transform="matrix(1 0 0 1 160.8411 36.9297)" fill="#231F20" font-family="'CMR10'" font-size="9.2126">runse(...)</text>
<path fill="none" stroke="#231F20" stroke-width="0.8504" stroke-miterlimit="10" d="M232.949,33.857c0,4.071-3.3,7.37-7.37,7.37
	h-93.16c-4.07,0-7.37-3.299-7.37-7.37V14.343c0-4.071,3.3-7.371,7.37-7.371h93.16c4.07,0,7.37,3.3,7.37,7.371V33.857z"/>
<g>
	<line fill="#FFFFFF" x1="177.892" y1="103.159" x2="177.892" y2="125.26"/>
	<g>
		
			<line fill="none" stroke="#231F20" stroke-width="0.5669" stroke-miterlimit="10" x1="177.892" y1="103.159" x2="177.892" y2="122.552"/>
		<g>
			<polygon fill="#231F20" points="176.213,121.278 177.892,121.992 179.572,121.278 177.892,125.26 			"/>
		</g>
	</g>
</g>
<path fill="#BE3629" d="M213.746,128.081l-79.698,0.292c0,0-2.779,0.895-3.295,2.453c-0.463,1.401-1.188,1.271-1.444,2.766
	c-0.341,1.985-0.135,5.433-0.135,5.433l-0.001,18.28c0,0,2.533,4.576,5.453,4.833c1.604,0.141,5.078,0.216,5.078,0.216h63.345
	l11.164-0.316c0,0,3.13-1.88,4.886-4.234l0.181-9.922c0,0,0.35-12.691-0.484-15.415C218.012,129.91,213.746,128.081,213.746,128.081
	z"/>
<text transform="matrix(1 0 0 1 139.6604 148.4907)" fill="#FFFFFF" font-family="'CMR10'" font-size="11.0551">Measurements</text>
<path fill="none" stroke="#231F20" stroke-width="0.8504" stroke-miterlimit="10" d="M219.278,155.583
	c0,3.74-3.299,6.771-7.37,6.771h-75.365c-4.071,0-7.37-3.03-7.37-6.771v-20.714c0-3.74,3.299-6.771,7.37-6.771h75.365
	c4.071,0,7.37,3.031,7.37,6.771V155.583z"/>
<g>
	<line fill="#FFFFFF" x1="474.518" y1="118.289" x2="474.518" y2="127.828"/>
	<g>
		
			<line fill="none" stroke="#231F20" stroke-width="0.5669" stroke-miterlimit="10" x1="474.518" y1="118.289" x2="474.518" y2="125.121"/>
		<g>
			<polygon fill="#231F20" points="472.838,123.847 474.518,124.561 476.198,123.847 474.518,127.828 			"/>
		</g>
	</g>
</g>
<g>
	<g>
		<path fill="none" stroke="#231F20" stroke-width="0.5669" stroke-miterlimit="10" d="M164.051,167.369v16.238
			c0,3.118-2.551,5.669-5.669,5.669l-58.537-0.005c-3.118,0-5.669,2.551-5.669,5.669v14.603"/>
		<g>
			<polygon fill="#231F20" points="162.371,168.644 164.051,167.93 165.73,168.644 164.051,164.662 			"/>
		</g>
	</g>
</g>
<path fill="#E6E7E8" d="M350.869,281.854c0,4.061-4.245,7.361-9.485,7.361h-90.05c-3.108,0-9.485,0-9.485,0s0-5.71,0-7.361V226.06
	c0-2.014,0-7.371,0-7.371s6.838,0,9.485,0h90.05c5.24,0,9.485,3.301,9.485,7.371V281.854z"/>
<path fill="#FFFFFF" stroke="#231F20" stroke-width="0.5669" stroke-miterlimit="10" d="M241.848,218.688v70.527V218.688z"/>
<line fill="#FFFFFF" stroke="#231F20" stroke-width="0.5669" stroke-miterlimit="10" x1="241.725" y1="233.812" x2="350.567" y2="233.812"/>
<text transform="matrix(1 0 0 1 248.2659 229.7627)" fill="#231F20" font-family="'CMR10'" font-size="9.2126">pmuRedundancy, value</text>
<line fill="#FFFFFF" stroke="#231F20" stroke-width="0.5669" stroke-miterlimit="10" x1="241.725" y1="275.216" x2="350.567" y2="275.216"/>
<line fill="#FFFFFF" stroke="#231F20" stroke-width="0.5669" stroke-miterlimit="10" x1="241.725" y1="261.35" x2="350.567" y2="261.35"/>
<text transform="matrix(1 0 0 1 195.2683 257.2217)" fill="#231F20" font-family="'CMR10'" font-size="11.0551">SET</text>
<line fill="#FFFFFF" stroke="#231F20" stroke-width="0.5669" stroke-miterlimit="10" x1="241.726" y1="248.413" x2="350.567" y2="248.413"/>
<text transform="matrix(1 0 0 1 248.2659 244.0439)" fill="#231F20" font-family="'CMR10'" font-size="9.2126">pmuDevice, value</text>
<text transform="matrix(1 0 0 1 248.2664 257.9326)" fill="#231F20" font-family="'CMR10'" font-size="9.2126">pmuOptimal</text>
<text transform="matrix(1 0 0 1 248.2659 271.3623)" fill="#231F20" font-family="'CMR10'" font-size="9.2126">legRedundancy, value</text>
<text transform="matrix(1 0 0 1 248.2659 285.7949)" fill="#231F20" font-family="'CMR10'" font-size="9.2126">legDevice, value</text>
<path fill="none" stroke="#231F20" stroke-width="0.8504" stroke-miterlimit="10" d="M350.869,281.854
	c0,4.061-3.298,7.361-7.369,7.361H190.039c-4.07,0-7.37-3.301-7.37-7.361V226.06c0-4.07,3.3-7.371,7.37-7.371H343.5
	c4.071,0,7.369,3.301,7.369,7.371V281.854z"/>
<g>
	<g>
		<path fill="none" stroke="#231F20" stroke-width="0.5669" stroke-miterlimit="10" d="M184.41,167.369v16.238
			c0,3.118,2.551,5.669,5.669,5.669l63.85-0.005c3.118,0,5.669,2.551,5.669,5.669v21.601"/>
		<g>
			<polygon fill="#231F20" points="182.73,168.644 184.41,167.93 186.09,168.644 184.41,164.662 			"/>
		</g>
	</g>
</g>
<path fill="#E6E7E8" d="M174.208,288.81c0,4.862-3.686,7.338-8.234,7.338H87.804c-2.698,0-8.234,0-8.234,0s0-6.832,0-8.811v-66.762
	c0-2.408,0-8.819,0-8.819s5.937,0,8.234,0h78.169c4.549,0,8.234,2.477,8.234,7.347V288.81z"/>
<path fill="#FFFFFF" stroke="#231F20" stroke-width="0.5669" stroke-miterlimit="10" d="M79.938,211.756v84.392V211.756z"/>
<line fill="#FFFFFF" stroke="#231F20" stroke-width="0.5669" stroke-miterlimit="10" x1="79.57" y1="226.878" x2="173.933" y2="226.878"/>
<text transform="matrix(1 0 0 1 85.45 222.8301)" fill="#231F20" font-family="'CMR10'" font-size="9.2126">pmuUnique, value</text>
<line fill="#FFFFFF" stroke="#231F20" stroke-width="0.5669" stroke-miterlimit="10" x1="79.57" y1="268.283" x2="173.933" y2="268.283"/>
<line fill="#FFFFFF" stroke="#231F20" stroke-width="0.5669" stroke-miterlimit="10" x1="79.57" y1="254.417" x2="173.933" y2="254.417"/>
<text transform="matrix(1 0 0 1 11.3201 257.2217)" fill="#231F20" font-family="'CMR10'" font-size="11.0551">VARIANCE</text>
<line fill="#FFFFFF" stroke="#231F20" stroke-width="0.5669" stroke-miterlimit="10" x1="79.571" y1="241.48" x2="173.933" y2="241.48"/>
<text transform="matrix(1 0 0 1 85.4504 237.1104)" fill="#231F20" font-family="'CMR10'" font-size="9.2126">pmuRandom, value</text>
<text transform="matrix(1 0 0 1 85.4504 251)" fill="#231F20" font-family="'CMR10'" font-size="9.2126">pmuType, value</text>
<text transform="matrix(1 0 0 1 85.4504 264.4297)" fill="#231F20" font-family="'CMR10'" font-size="9.2126">legUnique, value</text>
<text transform="matrix(1 0 0 1 85.4509 278.8623)" fill="#231F20" font-family="'CMR10'" font-size="9.2126">legRandom, value</text>
<text transform="matrix(1 0 0 1 85.45 292.5225)" fill="#231F20" font-family="'CMR10'" font-size="9.2126">legType, value</text>
<line fill="#FFFFFF" stroke="#231F20" stroke-width="0.5669" stroke-miterlimit="10" x1="79.755" y1="282.283" x2="174.118" y2="282.283"/>
<path fill="none" stroke="#231F20" stroke-width="0.8504" stroke-miterlimit="10" d="M174.118,288.779c0,4.07-3.3,7.368-7.371,7.368
	H13.378c-4.07,0-7.37-3.298-7.37-7.368v-69.654c0-4.069,3.3-7.369,7.37-7.369h153.369c4.071,0,7.371,3.3,7.371,7.369V288.779z"/>
<g>
	<line fill="#FFFFFF" x1="474.518" y1="160.887" x2="474.518" y2="170.426"/>
	<g>
		
			<line fill="none" stroke="#231F20" stroke-width="0.5669" stroke-miterlimit="10" x1="474.518" y1="160.887" x2="474.518" y2="167.719"/>
		<g>
			<polygon fill="#231F20" points="472.838,166.444 474.518,167.158 476.198,166.444 474.518,170.426 			"/>
		</g>
	</g>
</g>
<text transform="matrix(1 0 0 1 323.5188 133.3584)" fill="#231F20" font-family="'CMR10'" font-size="9.2126">nonlinear</text>
<text transform="matrix(1 0 0 1 323.5193 147.4971)" fill="#231F20" font-family="'CMR10'" font-size="9.2126">dc</text>
<text transform="matrix(1 0 0 1 323.5193 160.9082)" fill="#231F20" font-family="'CMR10'" font-size="9.2126">pmu</text>
<path fill="none" stroke="#231F20" stroke-width="0.8504" stroke-miterlimit="10" d="M371.896,158.285
	c0,4.072-2.867,7.37-6.404,7.37H253.269c-3.537,0-6.404-3.298-6.404-7.37v-28.014c0-4.07,2.867-7.37,6.404-7.37h112.223
	c3.537,0,6.404,3.3,6.404,7.37V158.285z"/>
<g>
	<g>
		<path fill="none" stroke="#231F20" stroke-width="0.5669" stroke-miterlimit="10" d="M417.821,44.596h26.009
			c3.118,0,5.669,2.551,5.669,5.669V82.37"/>
		<g>
			<polygon fill="#231F20" points="447.82,81.096 449.499,81.81 451.179,81.096 449.499,85.077 			"/>
		</g>
	</g>
</g>
<g>
	<path fill="#E6E7E8" d="M415.24,69.094l-3.395,2.842l-2.764,0.66l-32.334-0.049l-34.535,0.196V16.448
		c0,0,35.672,0.074,53.146,0.162c14.87,0.075,14.375-0.444,18.436,1.962c1.343,0.796,2.465,4.774,2.493,8.34
		c0.062,8.697-0.072,19.677,0,26.519C416.399,64.595,415.24,69.094,415.24,69.094z"/>
	<text transform="matrix(1 0 0 1 347.1482 26.9873)" fill="#231F20" font-family="'CMR10'" font-size="9.2126">flat, value</text>
	<text transform="matrix(1 0 0 1 347.1487 40.8604)" fill="#231F20" font-family="'CMR10'" font-size="9.2126">warm</text>
	<text transform="matrix(1 0 0 1 347.1482 69.1318)" fill="#231F20" font-family="'CMR10'" font-size="9.2126">random, value</text>
	<path fill="#FFFFFF" stroke="#231F20" stroke-width="0.5669" stroke-miterlimit="10" d="M342.214,16.804v55.792V16.804z"/>
	<text transform="matrix(1 0 0 1 294.6521 47.873)" fill="#231F20" font-family="'CMR10'" font-size="11.0551">START</text>
	
		<line fill="#FFFFFF" stroke="#231F20" stroke-width="0.5669" stroke-miterlimit="10" x1="342.213" y1="58.729" x2="416.17" y2="58.729"/>
	
		<line fill="#FFFFFF" stroke="#231F20" stroke-width="0.5669" stroke-miterlimit="10" x1="342.213" y1="44.863" x2="416.17" y2="44.863"/>
	
		<line fill="#FFFFFF" stroke="#231F20" stroke-width="0.5669" stroke-miterlimit="10" x1="342.272" y1="30.477" x2="416.232" y2="30.477"/>
	<path fill="none" stroke="#231F20" stroke-width="0.8504" stroke-miterlimit="10" d="M416.17,65.226c0,4.071-3.305,7.37-7.384,7.37
		H293.922c-4.071,0-7.371-3.299-7.371-7.37V23.98c0-4.07,3.3-7.37,7.371-7.37h114.864c4.079,0,7.384,3.3,7.384,7.37V65.226z"/>
	<text transform="matrix(1 0 0 1 347.1482 54.5137)" fill="#231F20" font-family="'CMR10'" font-size="9.2126">exact</text>
</g>
<g>
	<path fill="#E6E7E8" d="M499.039,64.125c2.097,1.43,6.873,1.848,6.873,1.848h61.691V23.538c0,0-32.756-0.294-59.625-0.319
		c-3.275-0.004-4.336,0.187-6.789,0.533c-1.336,0.188-4.748,2.559-4.735,8.627c0.018,8.283,0.135,14.521,0.094,19.273
		c-0.03,3.729,0.32,0.043,0.173,2.516C496.619,55.808,496.002,62.057,499.039,64.125z"/>
	
		<line fill="#FFFFFF" stroke="#231F20" stroke-width="0.5669" stroke-miterlimit="10" x1="567.688" y1="52.215" x2="496.454" y2="52.215"/>
	<path fill="#FFFFFF" stroke="#231F20" stroke-width="0.5669" stroke-miterlimit="10" d="M567.883,23.227v42.747V23.227z"/>
	<text transform="matrix(1 0 0 1 578.4036 48.8223)" fill="#231F20" font-family="'CMR10'" font-size="11.0551">ATTACH</text>
	
		<line fill="#FFFFFF" stroke="#231F20" stroke-width="0.5669" stroke-miterlimit="10" x1="567.688" y1="37.701" x2="496.513" y2="37.701"/>
	<text transform="matrix(1 0 0 1 504.2961 33.6758)" fill="#231F20" font-family="'CMR10'" font-size="9.2126">maxIter, value</text>
	<text transform="matrix(1 0 0 1 504.2952 47.8145)" fill="#231F20" font-family="'CMR10'" font-size="9.2126">bad, value</text>
	<text transform="matrix(1 0 0 1 504.2952 61.2251)" fill="#231F20" font-family="'CMR10'" font-size="9.2126">lav</text>
	<path fill="none" stroke="#231F20" stroke-width="0.8504" stroke-miterlimit="10" d="M637.575,58.603
		c0,4.071-3.301,7.37-7.371,7.37H503.948c-4.07,0-7.369-3.299-7.369-7.37V30.589c0-4.071,3.299-7.37,7.369-7.37h126.257
		c4.07,0,7.371,3.299,7.371,7.37V58.603z"/>
</g>
<g>
	<g>
		<path fill="none" stroke="#231F20" stroke-width="0.5669" stroke-miterlimit="10" d="M494.242,32.676h-26.011
			c-3.118,0-5.669,2.551-5.669,5.669V82.37"/>
		<g>
			<polygon fill="#231F20" points="460.883,81.096 462.563,81.81 464.242,81.096 462.563,85.077 			"/>
		</g>
	</g>
</g>
<g>
	<g>
		<path fill="none" stroke="#231F20" stroke-width="0.5669" stroke-miterlimit="10" d="M495.066,62.168c0,0-2.078,0-4.618,0
			c-2.541,0-4.619-2.551-4.619-5.669v-5.291c0-3.118,2.078-5.669,4.619-5.669c2.54,0,4.618,0,4.618,0"/>
	</g>
	<g>
		<g>
			<path fill="none" stroke="#231F20" stroke-width="0.5669" stroke-miterlimit="10" d="M486.003,53.906c0,0-2.481,0-5.515,0
				s-5.515,2.551-5.515,5.669V82.37"/>
			<g>
				<polygon fill="#231F20" points="473.294,81.096 474.974,81.81 476.654,81.096 474.974,85.077 				"/>
			</g>
		</g>
	</g>
</g>
<g>
	<line fill="#FFFFFF" x1="674.742" y1="144.402" x2="709.189" y2="144.402"/>
	<g>
		
			<line fill="none" stroke="#231F20" stroke-width="0.5669" stroke-miterlimit="10" x1="674.742" y1="144.402" x2="706.481" y2="144.402"/>
		<g>
			<polygon fill="#231F20" points="705.207,146.082 705.921,144.402 705.207,142.723 709.189,144.402 			"/>
		</g>
	</g>
</g>
<g>
	<line fill="#FFFFFF" x1="754.054" y1="72.877" x2="754.054" y2="50.776"/>
	<g>
		
			<line fill="none" stroke="#231F20" stroke-width="0.5669" stroke-miterlimit="10" x1="754.054" y1="72.877" x2="754.054" y2="53.484"/>
		<g>
			<polygon fill="#231F20" points="755.734,54.758 754.054,54.044 752.374,54.758 754.054,50.776 			"/>
		</g>
	</g>
</g>
</svg>
