<?xml version="1.0" encoding="utf-8"?>
<!-- Generator: Adobe Illustrator 16.0.0, SVG Export Plug-In . SVG Version: 6.00 Build 0)  -->
<!DOCTYPE svg PUBLIC "-//W3C//DTD SVG 1.1//EN" "http://www.w3.org/Graphics/SVG/1.1/DTD/svg11.dtd">
<svg version="1.1" id="Layer_1" xmlns="http://www.w3.org/2000/svg" xmlns:xlink="http://www.w3.org/1999/xlink" x="0px" y="0px"
	 width="632px" height="251px" viewBox="0 0 632 251" enable-background="new 0 0 632 251" xml:space="preserve">
<path fill="#E6E7E8" d="M464.379,203.129c0,3.133-2.257,5.67-5.04,5.67h-38.42c-1.604,0-5.04,0-5.04,0s0-4.342,0-5.67v-10.396
	c0-1.551,0-5.67,0-5.67s3.634,0,5.04,0h38.42c2.783,0,5.04,2.537,5.04,5.67V203.129L464.379,203.129z"/>
<g>
	<line fill="none" x1="172.892" y1="115.42" x2="189.892" y2="115.42"/>
	<g>
		
			<line fill="none" stroke="#231F20" stroke-width="0.5669" stroke-miterlimit="10" x1="172.892" y1="115.42" x2="187.185" y2="115.42"/>
		<g>
			<polygon fill="#231F20" points="185.91,117.1 186.624,115.42 185.91,113.741 189.892,115.42 			"/>
		</g>
	</g>
</g>
<path fill="#E6E7E8" d="M280.395,130.173c-1.063,1.101-3.062,1.595-3.062,1.595h-31.276V99.125c0,0,16.608-0.226,30.229-0.246
	c1.661-0.002,2.204,0.716,3.449,0.982c0.677,0.145,2.388,3.018,2.395,6.064c0.014,6.372-0.067,11.17-0.047,14.826
	c0.017,2.868-0.163,3.437-0.087,5.338C282.045,127.351,281.933,128.582,280.395,130.173z"/>
<line fill="none" stroke="#231F20" stroke-width="0.5669" stroke-miterlimit="10" x1="246.308" y1="121.186" x2="282.365" y2="121.186"/>
<path fill="#FFFFFF" stroke="#231F20" stroke-width="0.5669" stroke-miterlimit="10" d="M246.045,98.887v32.881V98.887z"/>
<text transform="matrix(1 0 0 1 197.9143 118.5757)" fill="#231F20" font-family="'CMR10'" font-size="8.5039">METHOD</text>
<line fill="none" stroke="#231F20" stroke-width="0.5669" stroke-miterlimit="10" x1="246.045" y1="110.021" x2="282.145" y2="110.021"/>
<path fill="none" stroke="#231F20" stroke-width="0.5669" stroke-miterlimit="10" d="M282.229,126.099
	c0,3.132-2.601,5.669-5.809,5.669h-79.496c-3.208,0-5.808-2.537-5.808-5.669V104.57c0-3.131,2.6-5.669,5.808-5.669h79.496
	c3.208,0,5.809,2.538,5.809,5.669V126.099z"/>
<g>
	<g>
		<path fill="none" stroke="#231F20" stroke-width="0.5669" stroke-miterlimit="10" d="M307.774,82.562h-6.18
			c-3.117,0-5.669,2.551-5.669,5.669v12.09c0,3.118-2.551,5.669-5.669,5.669h-6.317"/>
		<g>
			<polygon fill="#231F20" points="306.499,80.882 307.212,82.562 306.499,84.241 310.481,82.562 			"/>
		</g>
	</g>
</g>
<g>
	<g>
		<path fill="none" stroke="#231F20" stroke-width="0.5669" stroke-miterlimit="10" d="M307.774,148.828h-6.18
			c-3.117,0-5.669-2.553-5.669-5.67v-12.09c0-3.119-2.551-5.669-5.669-5.669h-6.317"/>
		<g>
			<polygon fill="#231F20" points="306.499,147.148 307.212,148.828 306.499,150.508 310.481,148.828 			"/>
		</g>
	</g>
</g>
<text transform="matrix(1 0 0 1 331.9993 80.5747)" fill="#231F20" font-family="'CMR10'" font-size="8.5039">Non-linear</text>
<text transform="matrix(1 0 0 1 320.0178 90.7788)" fill="#231F20" font-family="'CMR10'" font-size="8.5039">State Estimation</text>
<path fill="none" stroke="#231F20" stroke-width="0.5669" stroke-miterlimit="10" d="M391.344,88.784
	c0,3.131-2.538,5.669-5.669,5.669h-68.387c-3.132,0-5.669-2.538-5.669-5.669v-12.38c0-3.131,2.538-5.669,5.669-5.669h68.387
	c3.131,0,5.669,2.538,5.669,5.669V88.784z"/>
<text transform="matrix(1 0 0 1 345.1682 113.1724)" fill="#231F20" font-family="'CMR10'" font-size="8.5039">DC</text>
<text transform="matrix(1 0 0 1 320.0178 123.3774)" fill="#231F20" font-family="'CMR10'" font-size="8.5039">State Estimation</text>
<path fill="none" stroke="#231F20" stroke-width="0.5669" stroke-miterlimit="10" d="M391.344,121.407
	c0,3.131-2.538,5.669-5.669,5.669h-68.387c-3.132,0-5.669-2.539-5.669-5.669v-12.381c0-3.131,2.538-5.669,5.669-5.669h68.387
	c3.131,0,5.669,2.538,5.669,5.669V121.407z"/>
<text transform="matrix(1 0 0 1 341.5061 146.0547)" fill="#231F20" font-family="'CMR10'" font-size="8.5039">PMU</text>
<text transform="matrix(1 0 0 1 320.0178 156.2598)" fill="#231F20" font-family="'CMR10'" font-size="8.5039">State Estimation</text>
<path fill="none" stroke="#231F20" stroke-width="0.5669" stroke-miterlimit="10" d="M391.344,154.285
	c0,3.133-2.538,5.67-5.669,5.67h-68.387c-3.132,0-5.669-2.537-5.669-5.67v-12.379c0-3.133,2.538-5.67,5.669-5.67h68.387
	c3.131,0,5.669,2.537,5.669,5.67V154.285z"/>
<g>
	<line fill="none" x1="283.94" y1="115.42" x2="310.483" y2="115.42"/>
	<g>
		
			<line fill="none" stroke="#231F20" stroke-width="0.5669" stroke-miterlimit="10" x1="283.94" y1="115.42" x2="307.775" y2="115.42"/>
		<g>
			<polygon fill="#231F20" points="306.5,117.1 307.214,115.42 306.5,113.741 310.483,115.42 			"/>
		</g>
	</g>
</g>
<path fill="#E6E7E8" d="M325.354,55.432l-2.607,2.186l-2.121,0.508l-24.869-0.038l-26.565,0.151V14.936
	c0,0,27.439,0.057,40.882,0.125c11.433,0.058,11.053-0.342,14.17,1.509c1.032,0.613,1.896,3.673,1.914,6.416
	c0.049,6.69-0.055,15.136,0.001,20.399C326.242,51.971,325.354,55.432,325.354,55.432z"/>
<text transform="matrix(1 0 0 1 272.969 23.0425)" fill="#231F20" font-family="'CMR10'" font-size="7.0866">flat, value</text>
<text transform="matrix(1 0 0 1 272.969 33.7134)" fill="#231F20" font-family="'CMR10'" font-size="7.0866">warm</text>
<text transform="matrix(1 0 0 1 272.969 55.4614)" fill="#231F20" font-family="'CMR10'" font-size="7.0866">random, value</text>
<path fill="#FFFFFF" stroke="#231F20" stroke-width="0.5669" stroke-miterlimit="10" d="M269.192,15.208v42.917V15.208z"/>
<text transform="matrix(1 0 0 1 232.5881 39.1079)" fill="#231F20" font-family="'CMR10'" font-size="8.5039">START</text>
<line fill="none" stroke="#231F20" stroke-width="0.5669" stroke-miterlimit="10" x1="269.191" y1="47.459" x2="326.067" y2="47.459"/>
<line fill="none" stroke="#231F20" stroke-width="0.5669" stroke-miterlimit="10" x1="269.191" y1="36.792" x2="326.067" y2="36.792"/>
<line fill="none" stroke="#231F20" stroke-width="0.5669" stroke-miterlimit="10" x1="269.237" y1="25.727" x2="326.114" y2="25.727"/>
<path fill="none" stroke="#231F20" stroke-width="0.5669" stroke-miterlimit="10" d="M326.067,52.457
	c0,3.131-2.537,5.669-5.669,5.669h-88.354c-3.131,0-5.669-2.538-5.669-5.669V20.73c0-3.131,2.538-5.669,5.669-5.669h88.354
	c3.132,0,5.669,2.538,5.669,5.669V52.457z"/>
<g>
	<g>
		<path fill="none" stroke="#231F20" stroke-width="0.5669" stroke-miterlimit="10" d="M327.334,36.588h18.691
			c3.118,0,5.67,2.551,5.67,5.669v24.82"/>
		<g>
			<polygon fill="#231F20" points="350.015,65.804 351.696,66.517 353.375,65.804 351.696,69.785 			"/>
		</g>
	</g>
</g>
<g>
	<g>
		<path fill="none" stroke="#231F20" stroke-width="0.5669" stroke-miterlimit="10" d="M416.626,105.991h-6.154
			c-3.118,0-5.669-2.551-5.669-5.669v-12.09c0-3.118-2.551-5.669-5.669-5.669h-6.297"/>
		<g>
			<polygon fill="#231F20" points="415.352,104.311 416.067,105.991 415.352,107.67 419.334,105.991 			"/>
		</g>
	</g>
</g>
<g>
	<g>
		<path fill="none" stroke="#231F20" stroke-width="0.5669" stroke-miterlimit="10" d="M416.626,125.399h-6.154
			c-3.118,0-5.669,2.55-5.669,5.669v12.09c0,3.117-2.551,5.67-5.669,5.67h-6.297"/>
		<g>
			<polygon fill="#231F20" points="415.352,123.72 416.067,125.399 415.352,127.078 419.334,125.399 			"/>
		</g>
	</g>
</g>
<g>
	<line fill="none" x1="392.838" y1="115.42" x2="419.335" y2="115.42"/>
	<g>
		
			<line fill="none" stroke="#231F20" stroke-width="0.5669" stroke-miterlimit="10" x1="392.838" y1="115.42" x2="416.628" y2="115.42"/>
		<g>
			<polygon fill="#231F20" points="415.353,117.1 416.068,115.42 415.353,113.741 419.335,115.42 			"/>
		</g>
	</g>
</g>
<g>
	<g>
		<path fill="none" stroke="#231F20" stroke-width="0.5669" stroke-miterlimit="10" d="M540.47,112.955h-6.18
			c-3.118,0-5.669-2.551-5.669-5.669v-1.305c0-3.118-2.551-5.669-5.669-5.669h-6.317"/>
		<g>
			<polygon fill="#231F20" points="539.198,111.276 539.911,112.955 539.198,114.635 543.179,112.955 			"/>
		</g>
	</g>
</g>
<g>
	<g>
		<path fill="none" stroke="#231F20" stroke-width="0.5669" stroke-miterlimit="10" d="M540.47,117.901h-6.18
			c-3.118,0-5.669,2.551-5.669,5.669v1.305c0,3.118-2.551,5.668-5.669,5.668h-6.317"/>
		<g>
			<polygon fill="#231F20" points="539.198,116.221 539.911,117.901 539.198,119.58 543.179,117.901 			"/>
		</g>
	</g>
</g>
<g>
	<g>
		<path fill="none" stroke="#231F20" stroke-width="0.5669" stroke-miterlimit="10" d="M397.85,182.867v-56.012
			c0-3.119-1.229-5.67-2.73-5.67s-2.731,0-2.731,0"/>
		<g>
			<polygon fill="#231F20" points="399.531,181.594 397.85,182.307 396.171,181.594 397.85,185.576 			"/>
		</g>
	</g>
</g>
<g>
	<g>
		<path fill="none" stroke="#231F20" stroke-width="0.5669" stroke-miterlimit="10" d="M351.198,161.619v30.357
			c0,3.119,2.551,5.67,5.669,5.67h4.241"/>
		<g>
			<polygon fill="#231F20" points="359.833,199.326 360.547,197.646 359.833,195.967 363.815,197.646 			"/>
		</g>
	</g>
</g>
<line fill="none" stroke="#231F20" stroke-width="0.5669" stroke-miterlimit="10" x1="415.879" y1="197.93" x2="464.379" y2="197.93"/>
<text transform="matrix(1 0 0 1 419.676 194.832)" fill="#231F20" font-family="'CMR10'" font-size="7.0866">export</text>
<text transform="matrix(1 0 0 1 419.676 206.0137)" fill="#231F20" font-family="'CMR10'" font-size="7.0866">exportSlack</text>
<path fill="#FFFFFF" stroke="#231F20" stroke-width="0.5669" stroke-miterlimit="10" d="M415.889,187.061v21.738V187.061z"/>
<text transform="matrix(1 0 0 1 371.7053 201.0098)" fill="#231F20" font-family="'CMR10'" font-size="8.5039">EXPORT</text>
<g>
	<line fill="none" x1="466.106" y1="197.949" x2="483.106" y2="197.949"/>
	<g>
		
			<line fill="none" stroke="#231F20" stroke-width="0.5669" stroke-miterlimit="10" x1="466.106" y1="197.949" x2="480.4" y2="197.949"/>
		<g>
			<polygon fill="#231F20" points="479.125,199.629 479.839,197.949 479.125,196.27 483.106,197.949 			"/>
		</g>
	</g>
</g>
<g>
	<path fill="none" stroke="#231F20" stroke-width="0.5669" stroke-miterlimit="10" d="M570.844,200.508
		c0,4.678-3.68,7.453-8.177,6.166l-7.462-2.133c-4.497-1.285-11.921-1.549-16.498-0.584c0,0-25.323,5.336-33.383,5.338
		c-7.719,0.004-12.938-0.539-12.938-0.539c-4.65-0.482-8.458-4.705-8.458-9.383v-4.715c0-4.678,3.827-8.504,8.504-8.504h69.906
		c4.677,0,8.504,3.826,8.504,8.504L570.844,200.508L570.844,200.508z"/>
</g>
<text transform="matrix(1 0 0 1 489.7131 198.1152)" fill="#231F20" font-family="'CMR10'" font-size="8.5039">Export Matrix Form</text>
<text transform="matrix(1 0 0 1 249.7288 106.9243)" fill="#231F20" font-family="'CMR10'" font-size="7.0866">nonlinear</text>
<text transform="matrix(1 0 0 1 249.7288 117.8003)" fill="#231F20" font-family="'CMR10'" font-size="7.0866">dc</text>
<text transform="matrix(1 0 0 1 249.7288 128.1152)" fill="#231F20" font-family="'CMR10'" font-size="7.0866">pmu</text>
<text transform="matrix(1 0 0 1 272.969 44.2163)" fill="#231F20" font-family="'CMR10'" font-size="7.0866">exact</text>
<path fill="none" stroke="#231F20" stroke-width="0.5669" stroke-miterlimit="10" d="M464.379,203.129
	c0,3.133-2.392,5.67-5.342,5.67h-88.329c-2.95,0-5.342-2.537-5.342-5.67v-10.396c0-3.133,2.392-5.67,5.342-5.67h88.329
	c2.95,0,5.342,2.537,5.342,5.67V203.129z"/>
<path fill="#E6E7E8" d="M514.91,134.264l-1.907,2.186l-1.549,0.51l-18.184-0.039l-19.423,0.152V93.768c0,0,20.063,0.057,29.89,0.125
	c8.358,0.058,8.081-0.342,10.359,1.509c0.755,0.613,1.386,3.673,1.399,6.416c0.036,6.69-0.04,15.136,0.001,20.398
	C515.559,130.804,514.91,134.264,514.91,134.264z"/>
<text transform="matrix(1 0 0 1 478.4612 101.8755)" fill="#231F20" font-family="'CMR10'" font-size="7.0866">bus</text>
<text transform="matrix(1 0 0 1 478.4592 112.5464)" fill="#231F20" font-family="'CMR10'" font-size="7.0866">branch</text>
<text transform="matrix(1 0 0 1 478.4612 134.293)" fill="#231F20" font-family="'CMR10'" font-size="7.0866">error</text>
<path fill="#FFFFFF" stroke="#231F20" stroke-width="0.5669" stroke-miterlimit="10" d="M473.84,94.041v42.917V94.041z"/>
<text transform="matrix(1 0 0 1 428.4631 117.9399)" fill="#231F20" font-family="'CMR10'" font-size="8.5039">DISPLAY</text>
<line fill="none" stroke="#231F20" stroke-width="0.5669" stroke-miterlimit="10" x1="474.133" y1="126.291" x2="515.417" y2="126.291"/>
<line fill="none" stroke="#231F20" stroke-width="0.5669" stroke-miterlimit="10" x1="474.133" y1="115.625" x2="515.417" y2="115.625"/>
<line fill="none" stroke="#231F20" stroke-width="0.5669" stroke-miterlimit="10" x1="474.167" y1="104.559" x2="515.45" y2="104.559"/>
<path fill="none" stroke="#231F20" stroke-width="0.5669" stroke-miterlimit="10" d="M515.411,131.289
	c0,3.131-2.357,5.67-5.268,5.67h-82.068c-2.908,0-5.268-2.539-5.268-5.67V99.562c0-3.131,2.358-5.669,5.268-5.669h82.068
	c2.909,0,5.268,2.538,5.268,5.669V131.289z"/>
<text transform="matrix(1 0 0 1 478.4602 123.0493)" fill="#231F20" font-family="'CMR10'" font-size="7.0866">estimate</text>
<g>
	<path fill="none" stroke="#231F20" stroke-width="0.5669" stroke-miterlimit="10" d="M616.861,35.772
		c0,4.677-3.645,7.334-8.098,5.905l-5.022-1.611c-4.453-1.429-11.82-1.718-16.372-0.642c0,0-21.699,5.132-28.879,5.135
		c-6.877,0.003-10.614-0.433-10.614-0.433c-4.646-0.542-8.446-4.812-8.446-9.489v-4.715c0-4.677,3.827-8.504,8.504-8.504h60.425
		c4.677,0,8.504,3.827,8.504,8.504L616.861,35.772L616.861,35.772z"/>
</g>
<g>
	<path fill="#F1F1F2" d="M605.72,113.745c0.144,3.881-1.081,8.597-1.081,8.597c-0.392,1.508-1.986,2.743-3.547,2.743h-46.676
		c-1.561,0-3.651-0.979-4.649-2.178l-4.399-5.283c-0.998-1.198-1.137-3.258-0.31-4.579l4.451-7.099
		c0.828-1.321,2.781-2.401,4.341-2.401h45.541c1.561,0,3.463,1.11,4.229,2.468C603.62,106.013,605.561,109.449,605.72,113.745z"/>
	<path fill="none" stroke="#231F20" stroke-width="0.5669" stroke-miterlimit="10" d="M605.72,113.745
		c0.144,3.881-1.081,8.597-1.081,8.597c-0.392,1.508-1.986,2.743-3.547,2.743h-46.676c-1.561,0-3.651-0.979-4.649-2.178
		l-4.399-5.283c-0.998-1.198-1.137-3.258-0.31-4.579l4.451-7.099c0.828-1.321,2.781-2.401,4.341-2.401h45.541
		c1.561,0,3.463,1.11,4.229,2.468C603.62,106.013,605.561,109.449,605.72,113.745z"/>
</g>
<text transform="matrix(1 0 0 1 564.4417 116.4087)" fill="#231F20" font-family="'CMR10'" font-size="8.5039">Display</text>
<text transform="matrix(1 0 0 1 566.7483 75.4771)" fill="#231F20" font-family="'CMR10'" font-size="8.5039">SAVE</text>
<path fill="none" stroke="#231F20" stroke-width="0.5669" stroke-miterlimit="10" d="M618.257,77.601
	c0,3.131-2.338,5.669-5.223,5.669h-69.283c-2.885,0-5.223-2.538-5.223-5.669V67.207c0-3.131,2.338-5.669,5.223-5.669h69.283
	c2.885,0,5.223,2.539,5.223,5.669V77.601z"/>
<g>
	<line fill="none" x1="578.065" y1="101.645" x2="578.065" y2="84.645"/>
	<g>
		
			<line fill="none" stroke="#231F20" stroke-width="0.5669" stroke-miterlimit="10" x1="578.065" y1="101.645" x2="578.065" y2="87.352"/>
		<g>
			<polygon fill="#231F20" points="579.745,88.625 578.065,87.912 576.386,88.625 578.065,84.645 			"/>
		</g>
	</g>
</g>
<text transform="matrix(1 0 0 1 558.9475 33.3804)" fill="#231F20" font-family="'CMR10'" font-size="8.5039">Save Data</text>
<g>
	<g>
		<path fill="none" stroke="#231F20" stroke-width="0.5669" stroke-miterlimit="10" d="M578.46,46.109c0,0.61,0,1.291,0,2.007
			c0,2.593,2.551,4.714,5.669,4.714l16.466-0.001c3.118,0,5.669,1.747,5.669,3.882c0,2.135,0,3.882,0,3.882"/>
		<g>
			<polygon fill="#231F20" points="576.781,47.384 578.46,46.67 580.139,47.384 578.46,43.402 			"/>
		</g>
	</g>
</g>
<g>
	<g>
		<line fill="none" x1="138.864" y1="37.453" x2="138.864" y2="54.453"/>
		<g>
			
				<line fill="none" stroke="#231F20" stroke-width="0.5669" stroke-miterlimit="10" x1="138.864" y1="37.453" x2="138.864" y2="51.745"/>
			<g>
				<polygon fill="#231F20" points="137.184,50.471 138.864,51.185 140.543,50.471 138.864,54.453 				"/>
			</g>
		</g>
	</g>
	<g>
		<text transform="matrix(1 0 0 1 127.0144 65.2368)" fill="#231F20" font-family="'CMR10'" font-size="8.5039">DATA</text>
		<path fill="#E6E7E8" d="M169.83,81.786h-60.455l-3.301-2.019l-1.017-2.167v-7.4c0,0,43.306-0.166,69.313,0v7.684
			c0,0-0.572,0.815-1.214,1.743C172.556,80.497,169.83,81.786,169.83,81.786z"/>
		<path fill="#FFFFFF" stroke="#231F20" stroke-width="0.5669" stroke-miterlimit="10" d="M105.059,70.189h69.313H105.059z"/>
		<text transform="matrix(1 0 0 1 118.3689 78.478)" fill="#231F20" font-family="'CMR10'" font-size="7.0866">mat-file name</text>
		<path fill="none" stroke="#231F20" stroke-width="0.5669" stroke-miterlimit="10" d="M174.37,76.578
			c0,2.877-2.538,5.208-5.669,5.208h-57.974c-3.131,0-5.669-2.332-5.669-5.208V60.644c0-2.877,2.538-5.208,5.669-5.208h57.975
			c3.131,0,5.669,2.332,5.669,5.208L174.37,76.578L174.37,76.578z"/>
	</g>
	<g>
		<path fill="#BE3629" d="M176.134,9.704l-73.445,0.284c0,0-2.563,0.857-3.037,1.525c-0.995,1.399-1.456,2.884-1.456,2.884v9.905
			c0,0,51.88,0.209,83.038,0v-6.106c0,0-0.007-4.45-0.774-5.619C179.739,11.481,176.134,9.704,176.134,9.704z"/>
		<path fill="#E6E7E8" d="M175.778,36.055h-72.394l-3.952-2.019l-1.218-2.167v-7.4c0,0,51.857-0.166,83,0v7.684
			c0,0-0.685,0.815-1.454,1.743C179.04,34.766,175.778,36.055,175.778,36.055z"/>
		<path fill="#FFFFFF" stroke="#231F20" stroke-width="0.5669" stroke-miterlimit="10" d="M98.214,24.457h83H98.214z"/>
		<text transform="matrix(1 0 0 1 108.2429 19.7974)" fill="#FFFFFF" font-family="'CMR10'" font-size="8.5039">State Estimation</text>
		<text transform="matrix(1 0 0 1 111.9602 32.7485)" fill="#231F20" font-family="'CMR10'" font-size="7.0866">state</text>
		<text transform="matrix(1 0 0 1 126.9412 32.7485)" fill="#231F20" font-family="'ArialMT'" font-size="5.6693">_</text>
		<text transform="matrix(1 0 0 1 130.094 32.7485)" fill="#231F20" font-family="'CMR10'" font-size="7.0866">etimation.m</text>
		<path fill="none" stroke="#231F20" stroke-width="0.5669" stroke-miterlimit="10" d="M181.214,30.386
			c0,3.131-2.538,5.669-5.669,5.669h-71.661c-3.131,0-5.669-2.538-5.669-5.669V15.374c0-3.131,2.538-5.669,5.669-5.669h71.661
			c3.131,0,5.669,2.538,5.669,5.669V30.386L181.214,30.386z"/>
	</g>
	<g>
		<line fill="none" x1="138.864" y1="83.695" x2="138.864" y2="100.695"/>
		<g>
			
				<line fill="none" stroke="#231F20" stroke-width="0.5669" stroke-miterlimit="10" x1="138.864" y1="83.695" x2="138.864" y2="97.987"/>
			<g>
				<polygon fill="#231F20" points="137.184,96.713 138.864,97.427 140.543,96.713 138.864,100.695 				"/>
			</g>
		</g>
	</g>
	<g>
		<path fill="#BE3629" d="M166.444,102.865l-61.307,0.225c0,0-2.138,0.688-2.534,1.887c-0.356,1.078-0.915,0.978-1.111,2.128
			c-0.262,1.527-0.104,4.179-0.104,4.179v14.062c0,0,1.949,3.521,4.195,3.719c1.234,0.107,3.907,0.166,3.907,0.166h48.726
			l8.588-0.244c0,0,2.408-1.445,3.759-3.256l0.139-7.633c0,0,0.269-9.763-0.373-11.857
			C169.726,104.272,166.444,102.865,166.444,102.865z"/>
		<text transform="matrix(1 0 0 1 109.4324 118.5649)" fill="#FFFFFF" font-family="'CMR10'" font-size="8.5039">Measurements</text>
		<path fill="none" stroke="#231F20" stroke-width="0.5669" stroke-miterlimit="10" d="M170.699,124.02
			c0,2.877-2.538,5.208-5.669,5.208h-57.975c-3.132,0-5.67-2.331-5.67-5.208v-15.934c0-2.877,2.538-5.209,5.67-5.209h57.974
			c3.131,0,5.669,2.332,5.669,5.209L170.699,124.02L170.699,124.02z"/>
	</g>
</g>
<g>
	<g>
		<g>
			<path fill="none" stroke="#231F20" stroke-width="0.5669" stroke-miterlimit="10" d="M128.215,133.711v10.559
				c0,3.117-2.551,5.67-5.669,5.67l-42.412-0.006c-3.117,0-5.669,2.553-5.669,5.67v9.926"/>
			<g>
				<polygon fill="#231F20" points="126.535,134.986 128.215,134.271 129.896,134.986 128.215,131.005 				"/>
			</g>
		</g>
	</g>
	<g>
		<path fill="#E6E7E8" d="M271.922,221.152c0,3.123-3.266,5.662-7.297,5.662h-69.269c-2.392,0-7.297,0-7.297,0s0-4.393,0-5.662
			v-42.92c0-1.549,0-5.67,0-5.67s5.26,0,7.297,0h69.269c4.031,0,7.297,2.539,7.297,5.67V221.152z"/>
		<path fill="#FFFFFF" stroke="#231F20" stroke-width="0.5669" stroke-miterlimit="10" d="M188.061,172.563v54.252V172.563z"/>
		
			<line fill="none" stroke="#231F20" stroke-width="0.5669" stroke-miterlimit="10" x1="187.966" y1="184.195" x2="271.691" y2="184.195"/>
		<text transform="matrix(1 0 0 1 192.9758 181.082)" fill="#231F20" font-family="'CMR10'" font-size="7.0866">pmuRedundancy, value</text>
		
			<line fill="none" stroke="#231F20" stroke-width="0.5669" stroke-miterlimit="10" x1="187.966" y1="216.045" x2="271.691" y2="216.045"/>
		
			<line fill="none" stroke="#231F20" stroke-width="0.5669" stroke-miterlimit="10" x1="187.966" y1="205.379" x2="271.691" y2="205.379"/>
		<text transform="matrix(1 0 0 1 152.2087 202.2031)" fill="#231F20" font-family="'CMR10'" font-size="8.5039">SET</text>
		
			<line fill="none" stroke="#231F20" stroke-width="0.5669" stroke-miterlimit="10" x1="187.966" y1="195.428" x2="271.691" y2="195.428"/>
		<text transform="matrix(1 0 0 1 192.9758 192.0664)" fill="#231F20" font-family="'CMR10'" font-size="7.0866">pmuDevice, value</text>
		<text transform="matrix(1 0 0 1 192.9758 202.75)" fill="#231F20" font-family="'CMR10'" font-size="7.0866">pmuOptimal</text>
		<text transform="matrix(1 0 0 1 192.9758 213.082)" fill="#231F20" font-family="'CMR10'" font-size="7.0866">legRedundancy, value</text>
		<text transform="matrix(1 0 0 1 192.9758 224.1836)" fill="#231F20" font-family="'CMR10'" font-size="7.0866">legDevice, value</text>
		<path fill="none" stroke="#231F20" stroke-width="0.5669" stroke-miterlimit="10" d="M271.922,221.152
			c0,3.123-2.537,5.662-5.669,5.662H148.207c-3.131,0-5.669-2.539-5.669-5.662v-42.92c0-3.131,2.538-5.67,5.669-5.67h118.046
			c3.132,0,5.669,2.539,5.669,5.67V221.152z"/>
	</g>
	<g>
		<g>
			<path fill="none" stroke="#231F20" stroke-width="0.5669" stroke-miterlimit="10" d="M143.877,133.711v10.559
				c0,3.117,2.551,5.67,5.669,5.67l46.498-0.006c3.118,0,5.669,2.553,5.669,5.67v15.309"/>
			<g>
				<polygon fill="#231F20" points="142.198,134.986 143.877,134.271 145.557,134.986 143.877,131.005 				"/>
			</g>
		</g>
	</g>
	<g>
		<path fill="#E6E7E8" d="M136.03,226.502c0,3.74-2.835,5.646-6.334,5.646h-60.13c-2.076,0-6.334,0-6.334,0s0-5.258,0-6.777v-51.355
			c0-1.854,0-6.783,0-6.783s4.565,0,6.334,0h60.13c3.499,0,6.334,1.904,6.334,5.65V226.502z"/>
		<path fill="#FFFFFF" stroke="#231F20" stroke-width="0.5669" stroke-miterlimit="10" d="M63.515,167.23v64.916V167.23z"/>
		
			<line fill="none" stroke="#231F20" stroke-width="0.5669" stroke-miterlimit="10" x1="63.232" y1="178.863" x2="135.819" y2="178.863"/>
		<text transform="matrix(1 0 0 1 67.7327 175.748)" fill="#231F20" font-family="'CMR10'" font-size="7.0866">pmuUnique, value</text>
		
			<line fill="none" stroke="#231F20" stroke-width="0.5669" stroke-miterlimit="10" x1="63.232" y1="210.713" x2="135.819" y2="210.713"/>
		
			<line fill="none" stroke="#231F20" stroke-width="0.5669" stroke-miterlimit="10" x1="63.232" y1="200.047" x2="135.819" y2="200.047"/>
		<text transform="matrix(1 0 0 1 10.7102 202.2031)" fill="#231F20" font-family="'CMR10'" font-size="8.5039">VARIANCE</text>
		
			<line fill="none" stroke="#231F20" stroke-width="0.5669" stroke-miterlimit="10" x1="63.232" y1="190.094" x2="135.819" y2="190.094"/>
		<text transform="matrix(1 0 0 1 67.7327 186.7344)" fill="#231F20" font-family="'CMR10'" font-size="7.0866">pmuRandom, value</text>
		<text transform="matrix(1 0 0 1 67.7327 197.418)" fill="#231F20" font-family="'CMR10'" font-size="7.0866">pmuType, value</text>
		<text transform="matrix(1 0 0 1 67.7327 207.748)" fill="#231F20" font-family="'CMR10'" font-size="7.0866">legUnique, value</text>
		<text transform="matrix(1 0 0 1 67.7327 218.8496)" fill="#231F20" font-family="'CMR10'" font-size="7.0866">legRandom, value</text>
		<text transform="matrix(1 0 0 1 67.7327 229.3574)" fill="#231F20" font-family="'CMR10'" font-size="7.0866">legType, value</text>
		
			<line fill="none" stroke="#231F20" stroke-width="0.5669" stroke-miterlimit="10" x1="63.372" y1="221.482" x2="135.959" y2="221.482"/>
		<path fill="none" stroke="#231F20" stroke-width="0.5669" stroke-miterlimit="10" d="M135.959,226.479
			c0,3.131-2.538,5.668-5.669,5.668H12.314c-3.131,0-5.669-2.537-5.669-5.668v-53.58c0-3.131,2.538-5.668,5.669-5.668H130.29
			c3.131,0,5.669,2.537,5.669,5.668V226.479z"/>
	</g>
</g>
</svg>
