<?xml version="1.0" encoding="utf-8"?>
<!-- Generator: Adobe Illustrator 16.0.0, SVG Export Plug-In . SVG Version: 6.00 Build 0)  -->
<!DOCTYPE svg PUBLIC "-//W3C//DTD SVG 1.1//EN" "http://www.w3.org/Graphics/SVG/1.1/DTD/svg11.dtd">
<svg version="1.1" id="Layer_1" xmlns="http://www.w3.org/2000/svg" xmlns:xlink="http://www.w3.org/1999/xlink" x="0px" y="0px"
	 width="595.28px" height="841.89px" viewBox="0 0 595.28 841.89" enable-background="new 0 0 595.28 841.89" xml:space="preserve">
<path fill="#E6E7E8" d="M415.97,441.458h-13.869v7.13c0-0.001,3.189,0.106,6.607,0.111c5.306,0.01,4.539-0.421,6.111-0.949
	c0.935-0.314,1.188-2.666,1.209-3.9C416.05,442.467,415.97,441.458,415.97,441.458z"/>
<text transform="matrix(1 0 0 1 152.2554 389.9907)" font-family="'CMR10'" font-size="5.3575">estimate.grid</text>
<path fill="#BE362A" d="M190.381,412.829l-46.271,0.179c0,0-1.614,0.54-1.913,0.961c-0.627,0.881-0.917,1.816-0.917,1.816v6.24
	c0,0,32.685,0.131,52.314,0v-3.847c0,0-0.004-2.803-0.488-3.54C192.652,413.948,190.381,412.829,190.381,412.829z"/>
<path fill="#E6E7E8" d="M190.157,429.43h-45.608l-2.49-1.271l-0.767-1.366v-4.661c0,0,32.67-0.105,52.29,0v4.84
	c0,0-0.432,0.514-0.916,1.1C192.212,428.617,190.157,429.43,190.157,429.43z"/>
<path fill="#FFFFFF" stroke="#000000" stroke-width="0.3572" stroke-miterlimit="10" d="M141.292,422.123h52.29H141.292z"/>
<text transform="matrix(1 0 0 1 147.6157 419.1646)" fill="#FFFFFF" font-family="'CMR10'" font-size="5.3575">State Estimation</text>
<text transform="matrix(1 0 0 1 149.958 427.3242)"><tspan x="0" y="0" font-family="'CMR10'" font-size="4.4646">state</tspan><tspan x="9.438" y="0" font-family="'ArialMT'" font-size="3.5717">_</tspan><tspan x="11.424" y="0" font-family="'CMR10'" font-size="4.4646">etimation.m</tspan></text>
<g>
	<line fill="#FFFFFF" x1="194.416" y1="421.129" x2="205.125" y2="421.129"/>
	<g>
		
			<line fill="none" stroke="#000000" stroke-width="0.3572" stroke-miterlimit="10" x1="194.416" y1="421.129" x2="203.42" y2="421.129"/>
		<g>
			<polygon points="202.617,422.188 203.067,421.129 202.617,420.071 205.125,421.129 			"/>
		</g>
	</g>
</g>
<g>
	<line fill="#FFFFFF" x1="167.437" y1="401.5" x2="167.437" y2="412.209"/>
	<g>
		
			<line fill="none" stroke="#000000" stroke-width="0.3572" stroke-miterlimit="10" x1="167.437" y1="401.5" x2="167.437" y2="410.504"/>
		<g>
			<polygon points="166.379,409.701 167.437,410.151 168.495,409.701 167.437,412.209 			"/>
		</g>
	</g>
</g>
<path fill="#E6E7E8" d="M186.411,400.619h-38.087l-2.08-1.272l-0.641-1.365v-4.662c0,0,27.283-0.105,43.667,0v4.84
	c0,0-0.36,0.514-0.765,1.098C188.127,399.807,186.411,400.619,186.411,400.619z"/>
<path fill="#FFFFFF" stroke="#000000" stroke-width="0.3572" stroke-miterlimit="10" d="M145.604,393.312h43.667H145.604z"/>
<text transform="matrix(1 0 0 1 153.9956 398.5117)" font-family="'CMR10'" font-size="4.4646">mat-file name</text>
<path fill="none" stroke="#000000" stroke-width="0.3572" stroke-miterlimit="10" d="M189.271,397.337
	c0,1.813-1.599,3.282-3.571,3.282h-36.524c-1.972,0-3.572-1.469-3.572-3.282v-10.038c0-1.813,1.6-3.282,3.572-3.282h36.524
	c1.973,0,3.571,1.469,3.571,3.282V397.337z"/>
<path fill="none" stroke="#000000" stroke-width="0.3572" stroke-miterlimit="10" d="M193.583,425.858
	c0,1.972-1.599,3.571-3.572,3.571h-45.146c-1.973,0-3.571-1.6-3.571-3.571V416.4c0-1.973,1.599-3.572,3.571-3.572h45.146
	c1.973,0,3.572,1.599,3.572,3.572V425.858z"/>
<path fill="#E6E7E8" d="M262.621,430.066c-0.412,0.693-2.172,1.363-2.172,1.363h-11.114v-20.566c0,0,6.72-0.335,11.367,0.024
	c0.642,0.049,1.292,0.808,1.774,0.976c0.262,0.091,0.814,1.365,0.816,3.284c0.005,4.015,0.083,7.395,0.091,9.697
	c0.006,1.807-0.172,1.807-0.143,3.006C263.26,428.646,263.216,429.064,262.621,430.066z"/>
<line fill="#FFFFFF" stroke="#000000" stroke-width="0.3572" stroke-miterlimit="10" x1="249.335" y1="424.762" x2="263.383" y2="424.762"/>
<text transform="matrix(1 0 0 1 254.8027 423.1543)" font-family="'CMR10'" font-size="5.3575">2</text>
<text transform="matrix(1 0 0 1 254.8027 430.0195)" font-family="'CMR10'" font-size="5.3575">3</text>
<path fill="#FFFFFF" stroke="#000000" stroke-width="0.3572" stroke-miterlimit="10" d="M249.438,410.713v20.716V410.713z"/>
<text transform="matrix(1 0 0 1 208.4819 423.1182)" font-family="'CMR10'" font-size="5.3575">estimate.module</text>
<line fill="#FFFFFF" stroke="#000000" stroke-width="0.3572" stroke-miterlimit="10" x1="249.429" y1="417.728" x2="263.298" y2="417.728"/>
<text transform="matrix(1 0 0 1 254.8027 416.0112)" font-family="'CMR10'" font-size="5.3575">1</text>
<path fill="none" stroke="#000000" stroke-width="0.3572" stroke-miterlimit="10" d="M263.298,427.857
	c0,1.973-1.639,3.572-3.66,3.572h-50.082c-2.021,0-3.659-1.6-3.659-3.572v-13.564c0-1.973,1.638-3.571,3.659-3.571h50.082
	c2.021,0,3.66,1.599,3.66,3.571V427.857z"/>
<g>
	<g>
		<path fill="none" stroke="#000000" stroke-width="0.3572" stroke-miterlimit="10" d="M279.391,400.428h-3.893
			c-1.964,0-3.572,1.607-3.572,3.572v7.617c0,1.964-1.607,3.572-3.572,3.572h-3.98"/>
		<g>
			<polygon points="278.588,399.37 279.038,400.428 278.588,401.486 281.096,400.428 			"/>
		</g>
	</g>
</g>
<g>
	<g>
		<path fill="none" stroke="#000000" stroke-width="0.3572" stroke-miterlimit="10" d="M279.391,442.176h-3.893
			c-1.964,0-3.572-1.607-3.572-3.571v-7.617c0-1.964-1.607-3.571-3.572-3.571h-3.98"/>
		<g>
			<polygon points="278.588,441.117 279.038,442.176 278.588,443.234 281.096,442.176 			"/>
		</g>
	</g>
</g>
<text transform="matrix(1 0 0 1 294.6538 399.1768)"><tspan x="0" y="0" font-family="'CMR10'" font-size="5.3575">Non-linear</tspan><tspan x="-7.548" y="6.429" font-family="'CMR10'" font-size="5.3575">State Estimation</tspan></text>
<path fill="none" stroke="#000000" stroke-width="0.3572" stroke-miterlimit="10" d="M332.04,404.348
	c0,1.973-1.599,3.572-3.571,3.572h-43.083c-1.973,0-3.572-1.599-3.572-3.572v-7.799c0-1.973,1.599-3.572,3.572-3.572h43.083
	c1.973,0,3.571,1.599,3.571,3.572V404.348z"/>
<text transform="matrix(1 0 0 1 300.6436 419.7139)"><tspan x="0" y="0" font-family="'CMR10'" font-size="5.3575">PMU</tspan><tspan x="-13.538" y="6.429" font-family="'CMR10'" font-size="5.3575">State Estimation</tspan></text>
<path fill="none" stroke="#000000" stroke-width="0.3572" stroke-miterlimit="10" d="M332.04,424.9c0,1.973-1.599,3.572-3.571,3.572
	h-43.083c-1.973,0-3.572-1.6-3.572-3.572v-7.799c0-1.973,1.599-3.572,3.572-3.572h43.083c1.973,0,3.571,1.599,3.571,3.572V424.9z"/>
<text transform="matrix(1 0 0 1 302.9492 440.4297)"><tspan x="0" y="0" font-family="'CMR10'" font-size="5.3575">DC</tspan><tspan x="-15.844" y="6.429" font-family="'CMR10'" font-size="5.3575">State Estimation</tspan></text>
<path fill="none" stroke="#000000" stroke-width="0.3572" stroke-miterlimit="10" d="M332.04,445.615
	c0,1.973-1.599,3.571-3.571,3.571h-43.083c-1.973,0-3.572-1.599-3.572-3.571v-7.801c0-1.973,1.599-3.571,3.572-3.571h43.083
	c1.973,0,3.571,1.599,3.571,3.571V445.615z"/>
<g>
	<line fill="#FFFFFF" x1="264.375" y1="421.129" x2="281.097" y2="421.129"/>
	<g>
		
			<line fill="none" stroke="#000000" stroke-width="0.3572" stroke-miterlimit="10" x1="264.375" y1="421.129" x2="279.392" y2="421.129"/>
		<g>
			<polygon points="278.589,422.188 279.039,421.129 278.589,420.071 281.097,421.129 			"/>
		</g>
	</g>
</g>
<g>
	<text transform="matrix(1 0 0 1 256.9434 369.9893)" font-family="'CMR10'" font-size="5.3575">flat</text>
	<text transform="matrix(1 0 0 1 256.9429 376.6763)" font-family="'CMR10'" font-size="5.3575">warm</text>
	<text transform="matrix(1 0 0 1 256.9424 383.5342)" font-family="'CMR10'" font-size="5.3575">random</text>
	<path fill="#FFFFFF" stroke="#000000" stroke-width="0.3572" stroke-miterlimit="10" d="M255.084,364.624v20.41V364.624z"/>
	<text transform="matrix(1 0 0 1 230.793 376.8101)" font-family="'CMR10'" font-size="5.3575">estimate.</text>
	<path fill="#E6E7E8" d="M290.404,383.303l-1.721,1.471l-5.141,0.26l-6.495,0.071v-20.483c0,0,3.208,0.044,6.495,0.076
		c2.795,0.027,5.467-0.281,6.448,1.129c0.235,0.338,0.91,1.305,0.915,2.602c0.012,3.165,0.056,7.159,0.07,9.649
		C290.995,382.141,290.404,383.303,290.404,383.303z"/>
	<path fill="#FFFFFF" stroke="#000000" stroke-width="0.3572" stroke-miterlimit="10" d="M277.047,364.643v20.391V364.643z"/>
	
		<line fill="#FFFFFF" stroke="#000000" stroke-width="0.3572" stroke-miterlimit="10" x1="255.083" y1="378.314" x2="290.916" y2="378.314"/>
	
		<line fill="#FFFFFF" stroke="#000000" stroke-width="0.3572" stroke-miterlimit="10" x1="255.083" y1="371.594" x2="290.916" y2="371.594"/>
	<text transform="matrix(1 0 0 1 281.2441 369.9893)" font-family="'CMR10'" font-size="5.3575">i1</text>
	<text transform="matrix(1 0 0 1 281.2441 376.854)" font-family="'CMR10'" font-size="5.3575">i2</text>
	<text transform="matrix(1 0 0 1 281.2441 383.5342)" font-family="'CMR10'" font-size="5.3575">i3</text>
	<path fill="none" stroke="#000000" stroke-width="0.3572" stroke-miterlimit="10" d="M290.916,381.462
		c0,1.973-1.599,3.572-3.571,3.572h-55.066c-1.972,0-3.571-1.599-3.571-3.572v-13.269c0-1.972,1.599-3.571,3.571-3.571h55.066
		c1.972,0,3.571,1.599,3.571,3.571V381.462z"/>
</g>
<g>
	<g>
		<path fill="none" stroke="#000000" stroke-width="0.3572" stroke-miterlimit="10" d="M291.714,374.864h11.776
			c1.965,0,3.572,1.607,3.572,3.572v12.237"/>
		<g>
			<polygon points="306.004,389.871 307.063,390.32 308.12,389.871 307.063,392.379 			"/>
		</g>
	</g>
</g>
<g>
	<g>
		<path fill="none" stroke="#000000" stroke-width="0.3572" stroke-miterlimit="10" d="M347.969,415.188h-3.878
			c-1.964,0-3.571-1.607-3.571-3.572V404c0-1.964-1.607-3.572-3.571-3.572h-3.968"/>
		<g>
			<polygon points="347.167,414.13 347.616,415.188 347.167,416.247 349.675,415.188 			"/>
		</g>
	</g>
</g>
<g>
	<g>
		<path fill="none" stroke="#000000" stroke-width="0.3572" stroke-miterlimit="10" d="M347.969,427.416h-3.878
			c-1.964,0-3.571,1.607-3.571,3.571v7.617c0,1.964-1.607,3.571-3.571,3.571h-3.968"/>
		<g>
			<polygon points="347.167,426.357 347.616,427.416 347.167,428.475 349.675,427.416 			"/>
		</g>
	</g>
</g>
<g>
	<line fill="#FFFFFF" x1="332.981" y1="421.129" x2="349.675" y2="421.129"/>
	<g>
		
			<line fill="none" stroke="#000000" stroke-width="0.3572" stroke-miterlimit="10" x1="332.981" y1="421.129" x2="347.969" y2="421.129"/>
		<g>
			<polygon points="347.167,422.188 347.616,421.129 347.167,420.071 349.675,421.129 			"/>
		</g>
	</g>
</g>
<path fill="#E6E7E8" d="M415.972,407.159h-13.871v6.772c0,0,3.469,0.066,7.053,0c1.904-0.036,6.809-0.053,6.809-0.053
	s0.047-3.094,0.066-4.328C416.05,408.168,415.972,407.159,415.972,407.159z"/>
<path fill="#E6E7E8" d="M415.97,400.439h-13.869v-6.772c0,0,3.189-0.285,6.607-0.291c5.306-0.009,4.182,0.243,5.754,0.771
	c0.936,0.314,1.546,2.667,1.566,3.901C416.05,399.429,415.97,400.439,415.97,400.439z"/>
<path fill="#FFFFFF" stroke="#000000" stroke-width="0.3572" stroke-miterlimit="10" d="M402.101,393.487v27.559V393.487z"/>
<line fill="#FFFFFF" stroke="#000000" stroke-width="0.3572" stroke-miterlimit="10" x1="350.997" y1="407.159" x2="415.97" y2="407.159"/>
<line fill="#FFFFFF" stroke="#000000" stroke-width="0.3572" stroke-miterlimit="10" x1="402.101" y1="400.439" x2="415.97" y2="400.439"/>
<line fill="none" stroke="#000000" stroke-width="0.3572" stroke-miterlimit="10" x1="402.101" y1="413.878" x2="415.97" y2="413.878"/>
<text transform="matrix(1 0 0 1 353.9629 416.1982)" font-family="'CMR10'" font-size="5.3575">estimate.branch</text>
<text transform="matrix(1 0 0 1 353.9629 402.0137)" font-family="'CMR10'" font-size="5.3575">estimate.bus</text>
<text transform="matrix(1 0 0 1 407.0508 398.834)" font-family="'CMR10'" font-size="5.3575">1</text>
<text transform="matrix(1 0 0 1 407.0508 405.6997)" font-family="'CMR10'" font-size="5.3575">0</text>
<text transform="matrix(1 0 0 1 407.0508 412.3794)" font-family="'CMR10'" font-size="5.3575">1</text>
<text transform="matrix(1 0 0 1 407.0508 419.2026)" font-family="'CMR10'" font-size="5.3575">0</text>
<path fill="#E6E7E8" d="M415.97,434.809h-13.869v-6.971h13.869c0,0,0.038,3.346,0.059,4.58
	C416.05,433.801,415.97,434.809,415.97,434.809z"/>
<path fill="#FFFFFF" stroke="#000000" stroke-width="0.3572" stroke-miterlimit="10" d="M402.101,421.046v27.579V421.046z"/>
<line fill="#FFFFFF" stroke="#000000" stroke-width="0.3572" stroke-miterlimit="10" x1="350.997" y1="434.738" x2="415.97" y2="434.738"/>
<line fill="#FFFFFF" stroke="#000000" stroke-width="0.3572" stroke-miterlimit="10" x1="402.101" y1="428.02" x2="415.97" y2="428.02"/>
<line fill="none" stroke="#000000" stroke-width="0.3572" stroke-miterlimit="10" x1="402.101" y1="441.458" x2="415.97" y2="441.458"/>
<text transform="matrix(1 0 0 1 353.9619 443.7773)" font-family="'CMR10'" font-size="5.3575">estimate.evaluation</text>
<text transform="matrix(1 0 0 1 353.9619 429.5938)" font-family="'CMR10'" font-size="5.3575">estimate.estimation</text>
<text transform="matrix(1 0 0 1 407.0508 426.4141)" font-family="'CMR10'" font-size="5.3575">0</text>
<text transform="matrix(1 0 0 1 407.0508 433.2793)" font-family="'CMR10'" font-size="5.3575">1</text>
<text transform="matrix(1 0 0 1 407.0508 439.959)" font-family="'CMR10'" font-size="5.3575">0</text>
<text transform="matrix(1 0 0 1 407.0508 446.7813)" font-family="'CMR10'" font-size="5.3575">1</text>
<line fill="#FFFFFF" stroke="#000000" stroke-width="0.3572" stroke-miterlimit="10" x1="350.997" y1="421.046" x2="415.97" y2="421.046"/>
<g>
	<path fill="none" stroke="#000000" stroke-width="0.3572" stroke-miterlimit="10" d="M480.347,370.979
		c0,2.947-2.296,4.621-5.102,3.721l-3.164-1.016c-2.806-0.9-7.447-1.082-10.315-0.404c0,0-13.669,3.233-18.192,3.235
		c-4.333,0.001-6.687-0.273-6.687-0.273c-2.927-0.341-5.321-3.031-5.321-5.978v-2.971c0-2.947,2.411-5.357,5.357-5.357h38.066
		c2.946,0,5.357,2.411,5.357,5.357V370.979z"/>
</g>
<g>
	<path fill="#F1F2F2" d="M473.327,420.103c0.091,2.446-0.68,5.416-0.68,5.416c-0.246,0.95-1.252,1.729-2.234,1.729h-29.406
		c-0.982,0-2.301-0.617-2.93-1.372l-2.772-3.328c-0.629-0.755-0.717-2.053-0.194-2.885l2.805-4.473
		c0.522-0.832,1.753-1.513,2.735-1.513h28.69c0.982,0,2.182,0.7,2.665,1.555C472.006,415.231,473.229,417.396,473.327,420.103z"/>
	<path fill="none" stroke="#000000" stroke-width="0.3572" stroke-miterlimit="10" d="M473.327,420.103
		c0.091,2.446-0.68,5.416-0.68,5.416c-0.246,0.95-1.252,1.729-2.234,1.729h-29.406c-0.982,0-2.301-0.617-2.93-1.372l-2.772-3.328
		c-0.629-0.755-0.717-2.053-0.194-2.885l2.805-4.473c0.522-0.832,1.753-1.513,2.735-1.513h28.69c0.982,0,2.182,0.7,2.665,1.555
		C472.006,415.231,473.229,417.396,473.327,420.103z"/>
</g>
<g>
	<g>
		<path fill="none" stroke="#000000" stroke-width="0.3572" stroke-miterlimit="10" d="M431.877,419.577h-3.893
			c-1.964,0-3.571-1.607-3.571-3.572v-0.822c0-1.964-1.607-3.572-3.571-3.572h-3.98"/>
		<g>
			<polygon points="431.075,418.519 431.524,419.577 431.075,420.635 433.583,419.577 			"/>
		</g>
	</g>
</g>
<g>
	<g>
		<path fill="none" stroke="#000000" stroke-width="0.3572" stroke-miterlimit="10" d="M431.877,422.693h-3.893
			c-1.964,0-3.571,1.607-3.571,3.571v0.821c0,1.964-1.607,3.571-3.571,3.571h-3.98"/>
		<g>
			<polygon points="431.075,421.635 431.524,422.693 431.075,423.752 433.583,422.693 			"/>
		</g>
	</g>
</g>
<text transform="matrix(1 0 0 1 447.3379 421.7837)" font-family="'CMR10'" font-size="5.3575">Display</text>
<path fill="#E6E7E8" d="M479.235,387.557c-0.411-0.223-0.683-0.111-0.683-0.111h-11.471v6.613c0,0,7.257,0.108,11.902-0.008
	c0.644-0.016,1.761,0.106,2.243,0.052c0.262-0.029-0.182-0.808-0.01-1.422c0.272-0.968-0.249-2.291-0.241-3.031
	c0.007-0.581-0.357-0.997-0.696-1.318C480.022,388.09,479.831,387.879,479.235,387.557z"/>
<line fill="#FFFFFF" stroke="#000000" stroke-width="0.3572" stroke-miterlimit="10" x1="467.082" y1="394.246" x2="481.228" y2="394.246"/>
<text transform="matrix(1 0 0 1 472.5566 392.6411)" font-family="'CMR10'" font-size="5.3575">1</text>
<text transform="matrix(1 0 0 1 472.5566 399.5068)" font-family="'CMR10'" font-size="5.3575">0</text>
<path fill="#FFFFFF" stroke="#000000" stroke-width="0.3572" stroke-miterlimit="10" d="M467.185,387.209v13.694V387.209z"/>
<text transform="matrix(1 0 0 1 433.4658 395.9976)" font-family="'CMR10'" font-size="5.3575">estimate.save</text>
<path fill="none" stroke="#000000" stroke-width="0.3572" stroke-miterlimit="10" d="M481.228,397.332
	c0,1.973-1.473,3.572-3.291,3.572h-43.648c-1.817,0-3.291-1.599-3.291-3.572v-6.548c0-1.972,1.474-3.572,3.291-3.572h43.648
	c1.818,0,3.291,1.6,3.291,3.572V397.332z"/>
<g>
	<line fill="#FFFFFF" x1="455.905" y1="412.479" x2="455.905" y2="401.77"/>
	<g>
		
			<line fill="none" stroke="#000000" stroke-width="0.3572" stroke-miterlimit="10" x1="455.905" y1="412.479" x2="455.905" y2="403.475"/>
		<g>
			<polygon points="456.964,404.278 455.905,403.828 454.847,404.278 455.905,401.77 			"/>
		</g>
	</g>
</g>
<text transform="matrix(1 0 0 1 443.877 369.4761)" font-family="'CMR10'" font-size="5.3575">Save Data</text>
<g>
	<g>
		<path fill="none" stroke="#000000" stroke-width="0.3572" stroke-miterlimit="10" d="M456.155,377.491c0,0.384,0,0.813,0,1.265
			c0,1.633,1.607,2.97,3.571,2.97l10.373,0c1.964,0,3.571,1.101,3.571,2.446c0,1.345,0,2.445,0,2.445"/>
		<g>
			<polygon points="455.097,378.294 456.155,377.845 457.214,378.294 456.155,375.786 			"/>
		</g>
	</g>
</g>
<g>
	<g>
		<path fill="none" stroke="#000000" stroke-width="0.3572" stroke-miterlimit="10" d="M416.861,398.693h5.765
			c1.964,0,3.571,1.607,3.571,3.572v10.36c0,1.964,1.607,3.572,3.571,3.572h0.243c1.444,0,2.919,0.096,3.799,0.232"/>
		<g>
			<polygon points="432.712,417.25 433.455,416.373 433.34,415.229 435.421,416.983 			"/>
		</g>
	</g>
</g>
<g>
	<g>
		<path fill="none" stroke="#000000" stroke-width="0.3572" stroke-miterlimit="10" d="M416.861,443.542h5.765
			c1.964,0,3.571-1.607,3.571-3.571v-10.36c0-1.964,1.607-3.571,3.571-3.571h0.243c1.428,0,2.886-0.076,3.77-0.187"/>
		<g>
			<polygon points="433.248,427.034 433.425,425.898 432.729,424.982 435.421,425.395 			"/>
		</g>
	</g>
</g>
<path fill="none" stroke="#000000" stroke-width="0.3572" stroke-miterlimit="10" d="M415.973,445.054
	c0,1.974-1.599,3.571-3.571,3.571h-57.834c-1.972,0-3.57-1.598-3.57-3.571v-48.107c0-1.972,1.599-3.571,3.57-3.571h57.834
	c1.973,0,3.571,1.599,3.571,3.571V445.054z"/>
<g>
	<g>
		<path fill="none" stroke="#000000" stroke-width="0.3572" stroke-miterlimit="10" d="M336.14,463.62v-35.287
			c0-1.964-0.774-3.571-1.721-3.571c-0.947,0-1.722,0-1.722,0"/>
		<g>
			<polygon points="337.198,462.818 336.14,463.268 335.081,462.818 336.14,465.326 			"/>
		</g>
	</g>
</g>
<g>
	<g>
		<path fill="none" stroke="#000000" stroke-width="0.3572" stroke-miterlimit="10" d="M306.748,450.234v19.127
			c0,1.964,1.607,3.571,3.572,3.571h2.671"/>
		<g>
			<polygon points="312.189,473.99 312.639,472.933 312.189,471.875 314.697,472.933 			"/>
		</g>
	</g>
</g>
<path fill="#E6E7E8" d="M367.048,466.611c-0.41-0.223-0.682-0.111-0.682-0.111h-11.471v6.613c0,0,7.256,0.107,11.902-0.008
	c0.643-0.016,1.761,0.105,2.242,0.053c0.262-0.029-0.182-0.809-0.009-1.424c0.272-0.967-0.249-2.29-0.241-3.03
	c0.006-0.581-0.357-0.997-0.697-1.317C367.836,467.145,367.645,466.934,367.048,466.611z"/>
<line fill="#FFFFFF" stroke="#000000" stroke-width="0.3572" stroke-miterlimit="10" x1="354.896" y1="473.301" x2="369.04" y2="473.301"/>
<text transform="matrix(1 0 0 1 360.3701 471.6953)" font-family="'CMR10'" font-size="5.3575">1</text>
<text transform="matrix(1 0 0 1 360.3701 478.5605)" font-family="'CMR10'" font-size="5.3575">0</text>
<path fill="#FFFFFF" stroke="#000000" stroke-width="0.3572" stroke-miterlimit="10" d="M354.998,466.264v13.695V466.264z"/>
<text transform="matrix(1 0 0 1 317.9434 475.0518)" font-family="'CMR10'" font-size="5.3575">estimate.linear</text>
<path fill="none" stroke="#000000" stroke-width="0.3572" stroke-miterlimit="10" d="M369.04,476.386c0,1.974-1.6,3.573-3.572,3.573
	h-46.223c-1.972,0-3.57-1.6-3.57-3.573v-6.55c0-1.973,1.599-3.572,3.57-3.572h46.223c1.973,0,3.572,1.6,3.572,3.572V476.386z"/>
<g>
	<line fill="#FFFFFF" x1="370.042" y1="470.8" x2="380.751" y2="470.8"/>
	<g>
		
			<line fill="none" stroke="#000000" stroke-width="0.3572" stroke-miterlimit="10" x1="370.042" y1="470.8" x2="379.045" y2="470.8"/>
		<g>
			<polygon points="378.243,471.857 378.692,470.8 378.243,469.742 380.751,470.8 			"/>
		</g>
	</g>
</g>
<g>
	<path fill="none" stroke="#000000" stroke-width="0.3572" stroke-miterlimit="10" d="M436.026,472.412
		c0,2.946-2.318,4.694-5.151,3.885l-4.701-1.345c-2.833-0.81-7.511-0.976-10.394-0.368c0,0-15.953,3.361-21.032,3.363
		c-4.862,0.002-8.148-0.339-8.148-0.339c-2.931-0.305-5.329-2.965-5.329-5.911v-2.971c0-2.946,2.411-5.357,5.357-5.357h44.041
		c2.946,0,5.357,2.411,5.357,5.357V472.412z"/>
</g>
<text transform="matrix(1 0 0 1 384.9063 470.9063)" font-family="'CMR10'" font-size="5.3575">Export Matrix Form</text>
</svg>
